<?xml version="1.0" standalone="no"?><!DOCTYPE svg PUBLIC "-//W3C//DTD SVG 1.1//EN" "http://www.w3.org/Graphics/SVG/1.1/DTD/svg11.dtd" ><svg xmlns="http://www.w3.org/2000/svg"><metadata></metadata><defs><font id="DFPWaWaW5-GB" horiz-adv-x="1000"><font-face font-family="DFPWaWaW5-GB" font-weight="400" font-stretch="normal" units-per-em="1000" panose-1="4 11 5 0 0 0 0 0 0 0" ascent="860" descent="-140" x-height="0" bbox="0 -110 1000 791" underline-thickness="50" underline-position="-110" unicode-range="U+0022-ff1f" /><missing-glyph horiz-adv-x="1000" d="M235 591 q0 -70 -9 -181 q-11 -138 -28 -189 q-8 -2 -25 -2 q-24 0 -32 5 q-2 17 -2 42 q0 197 30 376 q8 1 16 1 q30 0 49 -9 q1 -20 1 -43 ZM235 100 q0 -18 -14 -53 q-14 -35 -26 -47 q-58 14 -97 44 q7 37 39 96 q42 -2 98 -40 Z" /><glyph glyph-name="" unicode="&quot;" d="M290 643 l-15 -265 l-54 0 l-15 265 l84 0 ZM144 643 l-15 -265 l-54 0 l-15 265 l84 0 Z" /><glyph glyph-name="" unicode="#" d="M637 416 l-121 0 l-22 -190 l109 0 l0 -71 l-117 0 l-18 -155 l-71 0 l18 155 l-188 0 l-17 -155 l-72 0 l18 155 l-113 0 l0 71 l121 0 l22 190 l-109 0 l0 72 l117 0 l18 155 l71 0 l-18 -155 l188 0 l18 155 l71 0 l-18 -155 l113 0 l0 -72 ZM445 416 l-188 0 l-21 -190 l187 0 l22 190 Z" /><glyph glyph-name="" unicode="%" d="M692 149 q0 -68 -38 -109 q-39 -40 -105 -40 q-64 0 -103 42 q-39 42 -39 107 q0 65 39 107 q38 43 103 43 q143 0 143 -150 ZM702 592 l-613 -592 l-49 51 l609 590 l53 -49 ZM335 494 q1 -68 -37 -109 q-38 -41 -105 -41 q-65 0 -104 42 q-39 42 -39 108 q0 65 40 107 q39 42 103 42 q66 0 105 -42 q36 -40 37 -107 ZM625 149 q0 94 -76 95 q-74 1 -74 -95 q0 -94 74 -94 q76 0 76 94 ZM267 494 q2 40 -17 66 q-18 27 -57 28 q-76 2 -76 -94 q0 -93 76 -95 q70 -2 74 95 Z" /><glyph glyph-name="" unicode="&#39;" d="M144 643 l-15 -265 l-54 0 l-15 265 l84 0 Z" /><glyph glyph-name="" unicode="(" d="M286 -49 l-53 -47 q-187 174 -187 417 q0 242 186 415 l54 -43 q-168 -164 -168 -372 q0 -206 168 -370 Z" /><glyph glyph-name="" unicode=")" d="M286 321 q0 -243 -187 -417 l-53 47 q168 164 168 370 q0 208 -168 372 l54 43 q186 -173 186 -415 Z" /><glyph glyph-name="" unicode="*" d="M375 381 q0 -31 -30 -31 q-16 0 -44 23 q-19 15 -84 62 q1 -35 7 -79 q7 -45 7 -56 q0 -28 -29 -28 q-28 0 -28 28 q0 11 7 56 q7 44 8 79 q-34 -23 -94 -69 q-17 -16 -35 -16 q-30 0 -30 31 q0 27 30 34 q39 9 119 42 q-79 33 -121 43 q-28 7 -28 33 q0 32 30 32 q16 0 30 -13 q28 -26 99 -73 q-1 35 -8 80 q-7 45 -7 56 q0 28 28 28 q29 0 29 -28 q0 -11 -7 -56 q-6 -45 -7 -80 q50 34 80 58 q35 28 47 28 q31 0 31 -32 q0 -28 -53 -41 q-40 -10 -96 -35 q66 -28 100 -36 q49 -12 49 -40 Z" /><glyph glyph-name="" unicode="+" d="M420 153 l-154 0 l0 -153 l-72 0 l0 153 l-154 0 l0 72 l154 0 l0 152 l72 0 l0 -152 l154 0 l0 -72 Z" /><glyph glyph-name="" unicode="," d="M193 78 q0 -83 -41 -160 q-30 0 -44 12 q5 27 12 87 q-41 14 -60 38 q6 47 43 85 q38 0 86 -30 q4 -18 4 -32 Z" /><glyph glyph-name="" unicode="-" d="M291 153 l-250 0 l0 72 l250 0 l0 -72 Z" /><glyph glyph-name="" unicode="." d="M198 100 q0 -17 -15 -52 q-15 -36 -27 -48 q-60 14 -101 44 q8 37 41 96 q43 -2 102 -40 Z" /><glyph glyph-name="" unicode="/" d="M264 713 l-179 -800 l-71 16 l179 800 l71 -16 Z" /><glyph glyph-name="" unicode="0" d="M657 298 q0 -117 -95 -208 q-96 -90 -214 -90 q-135 0 -230 90 q-95 89 -95 223 q0 134 89 230 q91 100 224 100 q38 0 82 -13 q48 -15 75 -38 q0 -12 -11 -28 q-11 -17 -22 -24 q-64 32 -128 32 q-99 0 -169 -84 q-66 -80 -66 -181 q0 -99 75 -169 q76 -71 176 -71 q84 0 162 76 q77 76 77 160 q0 72 -20 118 q-17 39 -69 99 q19 31 44 44 q115 -93 115 -266 Z" /><glyph glyph-name="" unicode="1" d="M429 628 q0 -82 -75 -625 q-12 -3 -26 -3 q-24 0 -40 8 q18 232 62 546 q-82 -20 -132 -28 q-16 33 -16 57 q38 16 119 38 q80 22 97 22 q11 0 11 -15 Z" /><glyph glyph-name="" unicode="2" d="M583 534 q0 -43 -94 -196 q-101 -165 -162 -261 q42 -5 84 -5 q58 0 120 9 q9 -6 12 -29 q3 -18 1 -31 q-43 -21 -154 -21 q-109 0 -161 31 q20 54 155 277 q126 209 126 221 q0 23 -41 34 q-29 8 -63 8 q-118 0 -281 -87 q-21 21 -29 56 q58 43 148 73 q90 30 161 30 q77 0 116 -16 q62 -25 62 -93 Z" /><glyph glyph-name="" unicode="3" d="M592 488 q0 -83 -135 -232 q104 -83 104 -159 q0 -52 -75 -78 q-53 -19 -114 -19 q-22 0 -48 3 q-6 15 -6 29 q0 20 2 29 q73 7 95 11 q74 13 74 39 q0 25 -127 137 q47 59 94 117 q65 88 65 126 q0 41 -48 63 q-37 17 -86 17 q-102 0 -263 -98 q-29 21 -37 55 q157 115 296 115 q85 0 141 -33 q68 -41 68 -122 Z" /><glyph glyph-name="" unicode="4" d="M619 137 q-77 -16 -121 -22 q-5 -49 -13 -112 q-10 -3 -27 -3 q-19 0 -33 6 q0 34 4 100 q-63 -6 -146 -6 q-142 0 -222 22 q0 220 120 521 q31 -2 58 -19 q-52 -180 -62 -219 q-31 -126 -38 -225 q30 -8 144 -8 q88 0 152 5 l28 220 q19 4 61 -4 q-14 -155 -20 -209 q87 8 107 11 q8 -18 8 -58 Z" /><glyph glyph-name="" unicode="5" d="M583 557 q0 -18 -6 -30 q0 0 -367 0 q-37 -170 -40 -217 q74 2 92 2 q105 0 181 -27 q113 -39 113 -127 q0 -74 -58 -118 q-53 -40 -129 -40 q-12 20 -12 42 q0 7 1 14 q132 27 132 100 q0 63 -144 81 q-62 8 -249 8 q0 156 70 397 q27 2 61 -9 q-5 -29 -7 -39 q88 0 213 -5 q121 -4 145 -4 q4 -13 4 -28 Z" /><glyph glyph-name="" unicode="6" d="M585 197 q0 -91 -62 -145 q-58 -52 -149 -52 q-132 0 -203 65 q-76 69 -76 203 q0 97 84 212 q91 125 211 164 q18 -13 29 -49 q-104 -63 -169 -139 q-83 -96 -83 -194 q0 -198 204 -198 q66 0 105 36 q39 37 39 102 q0 52 -59 87 q-27 17 -104 43 q7 37 16 56 q217 -38 217 -191 Z" /><glyph glyph-name="" unicode="7" d="M613 622 q-20 -146 -70 -365 q-50 -219 -69 -257 q-44 5 -59 18 q57 238 116 550 q-53 7 -140 7 q-117 0 -248 -19 l26 -195 q-16 -11 -61 -15 q-28 95 -41 264 q16 12 137 23 q115 10 207 10 q153 0 202 -21 Z" /><glyph glyph-name="" unicode="8" d="M562 575 q-3 -31 -38 -53 q-95 55 -170 55 q-51 0 -102 -28 q-59 -32 -59 -78 q0 -38 27 -68 q18 -19 61 -47 q135 66 248 96 q12 -16 15 -26 q5 -16 5 -28 q-70 -31 -191 -82 q70 -36 104 -69 q49 -49 49 -113 q0 -64 -58 -102 q-49 -32 -115 -32 q-99 0 -148 31 q-62 39 -62 133 q0 80 91 151 q-101 62 -101 156 q0 83 83 132 q69 40 157 40 q48 0 105 -19 q57 -19 99 -49 ZM441 146 q0 43 -56 81 q-30 20 -96 50 q-89 -62 -89 -116 q0 -61 44 -82 q30 -15 101 -15 q42 0 69 21 q27 21 27 61 Z" /><glyph glyph-name="" unicode="9" d="M606 401 q0 -29 -21 -202 q-21 -179 -29 -197 q-8 -2 -28 -2 q-17 0 -30 5 q9 124 14 162 q-29 -17 -85 -30 q-52 -12 -85 -12 q-116 0 -190 66 q-78 69 -78 185 q0 111 92 191 q88 76 199 76 q65 0 132 -41 q64 -39 103 -97 q-13 -24 -45 -39 q-35 46 -85 77 q-55 34 -105 34 q-84 0 -151 -58 q-70 -61 -70 -145 q0 -81 57 -131 q57 -50 139 -50 q90 0 182 45 q14 106 26 169 q16 4 58 -6 Z" /><glyph glyph-name="" unicode=":" d="M198 337 q0 -18 -15 -55 q-15 -36 -27 -49 q-59 15 -101 46 q7 34 42 99 q43 -2 101 -41 ZM198 103 q0 -18 -15 -54 q-15 -36 -27 -49 q-61 15 -101 45 q7 36 42 100 q41 -2 101 -42 Z" /><glyph glyph-name="" unicode=";" d="M198 337 q0 -18 -15 -55 q-15 -36 -27 -49 q-59 15 -101 46 q7 34 42 99 q43 -2 101 -41 ZM194 81 q0 -85 -41 -164 q-32 0 -45 12 q8 45 13 89 q-42 15 -61 39 q6 48 44 87 q38 0 86 -31 q4 -18 4 -32 Z" /><glyph glyph-name="" unicode="&lt;" d="M393 324 l-206 -136 l204 -134 l-36 -57 l-288 191 l289 189 l37 -53 Z" /><glyph glyph-name="" unicode="=" d="M420 235 l-380 0 l0 72 l380 0 l0 -72 ZM420 69 l-380 0 l0 72 l380 0 l0 -72 Z" /><glyph glyph-name="" unicode="&gt;" d="M393 188 l-288 -191 l-36 57 l204 134 l-206 136 l37 53 l289 -189 Z" /><glyph glyph-name="" unicode="a" d="M680 5 q-21 -3 -30 -3 q-26 0 -37 3 q-2 191 -41 333 q-22 79 -59 144 q-53 93 -109 93 q-71 0 -160 -143 q-66 -105 -100 -205 l262 -40 q2 -8 2 -29 q0 -16 -7 -29 q-57 0 -281 32 l-44 -161 q-33 0 -61 10 q19 163 86 314 q48 109 118 197 q97 122 184 122 q83 0 151 -90 q52 -69 82 -166 q48 -154 44 -382 Z" /><glyph glyph-name="" unicode="b" d="M622 155 q0 -66 -46 -111 q-47 -44 -113 -44 q-99 0 -176 71 q5 24 28 51 q78 -54 162 -54 q32 0 55 27 q23 27 23 60 q0 73 -83 147 q66 130 66 196 q0 78 -168 78 q-46 0 -110 -22 q-60 -21 -104 -49 q-19 -107 -31 -480 q-15 -5 -32 -5 q-11 0 -31 6 q-2 65 -2 116 q0 232 41 491 q8 2 25 2 q12 0 39 -9 l-2 -42 q42 23 103 41 q62 18 104 18 q236 0 236 -139 q0 -77 -54 -190 q70 -78 70 -159 Z" /><glyph glyph-name="" unicode="c" d="M617 125 q-42 -55 -119 -90 q-76 -35 -147 -35 q-127 0 -219 86 q-92 87 -92 213 q0 135 89 237 q93 107 226 107 q74 0 140 -28 q75 -31 112 -89 q-20 -28 -43 -42 q-88 88 -212 88 q-102 0 -172 -87 q-66 -81 -66 -184 q0 -95 72 -163 q73 -68 168 -68 q104 0 222 97 q26 -4 41 -42 Z" /><glyph glyph-name="" unicode="d" d="M642 308 q0 -131 -76 -218 q-78 -90 -207 -90 q-81 0 -154 34 q0 30 22 59 q78 -26 132 -26 q93 0 154 77 q56 71 56 167 q0 254 -270 254 q-66 0 -158 -32 q-6 -69 -6 -161 q0 -75 10 -325 q1 -25 1 -37 q-15 -7 -35 -7 q-19 0 -29 3 q-22 186 -22 344 q0 147 23 291 q22 2 22 2 q25 0 41 -9 q1 -8 1 -24 q94 27 150 27 q345 0 345 -329 Z" /><glyph glyph-name="" unicode="e" d="M608 595 q0 -20 -4 -33 q-107 -5 -383 -5 q-105 0 -149 3 q-4 31 -4 39 q0 18 5 29 q142 8 272 8 q139 0 260 -11 q3 -21 3 -30 ZM489 48 q0 -14 -4 -29 q-52 -12 -166 -12 q-210 0 -237 20 q-22 54 -22 199 q0 154 14 250 q12 4 33 3 q24 -1 31 -8 l-3 -105 l276 -16 q4 -6 4 -26 q0 -15 -5 -36 q-40 -1 -56 -1 q-49 0 -117 2 q-71 3 -101 3 q-4 -92 9 -202 q59 -11 168 -10 q125 1 171 -5 q5 -8 5 -27 Z" /><glyph glyph-name="" unicode="f" d="M610 585 q0 -12 -7 -28 q-32 0 -135 -2 q-102 -2 -152 -2 q-171 0 -251 19 q-5 14 -5 27 q0 22 6 34 q74 3 136 3 q321 0 405 -19 q3 -13 3 -32 ZM584 270 q0 -14 -5 -29 q-14 -5 -91 -5 q-145 0 -249 13 q-5 14 -5 32 q0 16 6 32 q22 1 113 1 q95 0 228 -13 q3 -8 3 -31 ZM176 5 q-10 -5 -34 -5 q-20 0 -35 4 q-14 188 -15 312 q-1 85 6 142 q13 6 32 6 q18 0 31 -3 q15 -175 15 -456 Z" /><glyph glyph-name="" unicode="g" d="M660 287 q0 -158 -17 -229 q-6 -2 -26 -2 q-18 0 -31 5 q-1 25 6 172 q-64 12 -127 23 q-76 15 -134 32 q-3 34 10 60 q170 -17 319 -61 ZM561 581 q-2 -12 -10 -29 q-8 -16 -17 -24 q-76 48 -172 48 q-99 0 -173 -80 q-74 -80 -74 -180 q0 -97 55 -169 q60 -78 153 -78 q31 0 74 8 q52 10 72 24 q19 -25 25 -55 q-29 -22 -89 -35 q-51 -11 -93 -11 q-125 0 -202 98 q-70 90 -70 218 q0 129 98 228 q97 99 226 99 q118 0 197 -62 Z" /><glyph glyph-name="" unicode="h" d="M620 586 q0 -99 -10 -296 q-10 -196 -17 -241 q-16 -5 -33 -5 q-13 0 -29 5 q-7 70 3 255 q-215 12 -304 20 q-5 11 -5 32 q0 21 5 30 q184 0 307 -7 q11 104 20 208 q10 3 31 3 q14 0 32 -4 ZM151 638 q0 -111 -13 -372 q-14 -261 -14 -260 q-12 -6 -31 -6 q-17 0 -30 4 q-3 12 -3 40 q0 96 25 597 q22 2 31 2 q22 0 35 -5 Z" /><glyph glyph-name="" unicode="i" d="M351 590 q0 -15 -6 -33 q-68 0 -121 3 q-1 -113 -20 -488 q47 -2 110 -7 q4 -16 4 -26 q0 -11 -6 -33 q-46 -1 -61 -1 q-98 0 -218 8 q-3 8 -3 25 q0 17 3 35 q18 3 42 3 q11 0 26 -1 q21 -1 35 -1 q0 147 20 489 q-51 5 -111 11 q-3 15 -3 33 q0 11 5 31 q0 0 48 0 q40 0 253 -18 q3 -12 3 -30 Z" /><glyph glyph-name="" unicode="j" d="M620 590 q0 -20 -3 -32 q-91 -3 -220 -3 q-177 0 -362 11 q-5 17 -5 35 q0 22 3 32 q99 3 211 3 q183 0 373 -14 q3 -12 3 -32 ZM428 280 q0 -244 -21 -266 q-8 -8 -59 -8 q-127 0 -224 37 q0 41 13 62 q116 -25 206 -28 q11 44 20 343 q10 5 30 5 q17 0 31 -7 q4 -58 4 -138 Z" /><glyph glyph-name="" unicode="k" d="M621 531 q-121 -63 -470 -215 l-24 -314 q-8 -2 -31 -2 q-14 0 -34 4 q-2 46 -1 97 q4 182 45 541 q17 1 18 1 q31 0 45 -7 q-7 -160 -12 -238 q254 114 441 185 q19 -19 23 -52 ZM580 65 q-17 -29 -46 -40 q-37 25 -109 107 q-60 69 -96 119 q13 25 44 40 q22 -7 105 -102 q73 -82 102 -124 Z" /><glyph glyph-name="" unicode="l" d="M508 50 q0 -23 -3 -31 q-71 -12 -219 -12 q-156 0 -219 17 q-7 53 -7 131 q0 265 43 485 q10 3 32 3 q19 0 33 -9 l-18 -239 q-15 -205 -12 -310 q146 -12 363 -2 q7 -13 7 -33 Z" /><glyph glyph-name="" unicode="m" d="M720 190 q0 -92 -2 -134 q-11 -6 -30 -6 q-25 0 -34 4 q-15 296 -18 435 q-206 -94 -287 -135 q-53 19 -149 107 q9 22 15 29 q6 12 21 23 q43 -22 115 -75 q199 110 355 150 q0 -6 7 -120 q7 -115 7 -278 ZM170 636 q0 -32 -19 -320 l-22 -312 q-11 -4 -34 -4 q-13 0 -33 4 q-5 142 14 385 q17 218 27 251 q21 3 31 3 q22 0 36 -7 Z" /><glyph glyph-name="" unicode="n" d="M644 280 q0 -193 -32 -249 q-22 -2 -77 34 q-171 112 -324 378 q17 26 46 38 q122 -157 144 -184 q89 -104 168 -159 q4 16 4 91 q0 186 -18 375 q34 12 58 7 q31 -107 31 -331 ZM155 639 q0 -229 -24 -634 q-12 -5 -40 -5 q-18 0 -28 5 q-3 36 -3 97 q0 115 6 277 q8 220 22 262 q10 2 34 2 q21 0 33 -4 Z" /><glyph glyph-name="" unicode="o" d="M712 298 q0 -78 -55 -152 q-55 -75 -131 -104 q-22 26 -30 58 q57 29 97 85 q42 60 42 118 q0 63 -21 110 q-21 47 -70 96 q12 25 43 45 q125 -92 125 -256 ZM531 604 q0 -32 -21 -61 q-76 27 -139 27 q-104 0 -179 -74 q-76 -75 -76 -179 q0 -112 62 -179 q63 -67 173 -67 q41 0 83 11 q12 -26 16 -60 q-59 -22 -123 -22 q-127 0 -210 102 q-77 94 -77 225 q0 127 98 221 q99 95 226 95 q89 0 167 -39 Z" /><glyph glyph-name="" unicode="p" d="M635 397 q0 -115 -86 -171 q-71 -46 -190 -46 q-59 0 -97 10 q-2 6 -2 28 q0 17 6 31 q96 2 97 2 q57 3 96 14 q102 30 102 133 q0 82 -135 133 q-92 35 -201 43 q-3 17 -3 34 q0 18 4 34 q143 -5 257 -55 q152 -68 152 -190 ZM150 637 q0 -136 -6 -369 q-7 -246 -13 -265 q-21 -3 -31 -3 q-27 0 -39 6 q-1 90 -1 163 q0 217 0 237 q3 141 18 235 q18 2 38 2 q16 0 34 -6 Z" /><glyph glyph-name="" unicode="q" d="M712 317 q-1 -123 -126 -223 q21 -32 39 -64 q-20 -25 -52 -30 q-37 37 -80 121 q57 27 100 86 q43 59 43 117 q0 107 -90 189 q7 11 20 27 q8 6 24 19 q57 -43 90 -107 q33 -65 32 -135 ZM531 604 q-6 -34 -28 -56 q-72 24 -131 24 q-105 0 -180 -72 q-75 -72 -75 -176 q0 -109 62 -174 q62 -66 170 -66 q42 0 85 11 q13 -26 17 -58 q-56 -22 -125 -22 q-124 0 -207 99 q-79 94 -79 220 q0 134 96 223 q94 86 228 86 q89 0 167 -39 Z" /><glyph glyph-name="" unicode="r" d="M632 391 q0 -65 -42 -121 q-42 -56 -104 -72 q81 -120 86 -134 q-19 -28 -52 -33 q-25 14 -114 152 l-61 -2 q-36 0 -85 8 q-1 18 -1 25 q0 16 5 36 q133 0 188 15 q110 31 110 129 q0 88 -132 137 q-87 32 -210 42 q-4 24 -4 29 q0 10 6 33 q155 -6 260 -50 q150 -64 150 -194 ZM150 636 q0 -33 -11 -329 q-11 -296 -11 -302 q-18 -5 -33 -5 q-13 0 -29 3 q-6 115 -6 172 q0 332 23 466 q11 2 20 2 q28 0 47 -7 Z" /><glyph glyph-name="" unicode="s" d="M588 558 q0 -37 -28 -51 q-189 66 -299 66 q-61 0 -101 -21 q-49 -27 -49 -79 q0 -35 87 -75 q140 -63 168 -83 q92 -64 92 -156 q0 -71 -60 -117 q-55 -42 -127 -42 q-132 0 -225 112 q5 22 41 43 q56 -45 86 -61 q45 -24 98 -24 q41 0 77 26 q35 26 35 65 q0 71 -86 115 q-56 24 -166 76 q-91 45 -91 116 q0 89 72 136 q61 39 154 39 q68 0 165 -24 q103 -26 157 -61 Z" /><glyph glyph-name="" unicode="t" d="M648 598 q0 -16 -4 -27 q-33 -13 -470 -13 q-116 0 -148 3 q-6 14 -6 32 q0 12 2 29 q38 14 349 14 q250 0 273 -7 q4 -9 4 -31 ZM390 10 q-17 -10 -40 -10 q-12 0 -23 2 q-16 47 -42 420 q15 9 37 9 q18 0 29 -3 q9 -30 25 -196 q17 -175 14 -222 Z" /><glyph glyph-name="" unicode="u" d="M726 344 q0 -146 -98 -245 q-97 -99 -243 -99 q-136 0 -228 77 q-97 82 -97 216 q0 161 94 350 q32 -6 60 -23 q-48 -138 -54 -159 q-24 -85 -24 -168 q0 -102 73 -164 q70 -58 174 -58 q116 0 191 81 q76 80 76 197 q0 129 -64 238 q17 19 48 32 q45 -46 70 -130 q22 -72 22 -145 Z" /><glyph glyph-name="" unicode="v" d="M709 591 q-18 -146 -89 -283 q-70 -132 -178 -235 q-77 -73 -102 -73 q-24 0 -94 96 q-84 116 -145 253 q-67 150 -86 280 q25 14 57 14 q101 -315 233 -494 q40 -54 48 -54 q11 0 66 58 q179 187 230 450 q31 3 60 -12 Z" /><glyph glyph-name="" unicode="w" d="M785 532 q-4 -98 -41 -226 q-35 -118 -84 -214 q-47 -92 -71 -92 q-39 0 -156 191 q-172 -182 -199 -182 q-22 0 -69 97 q-53 110 -95 256 q-41 145 -55 269 q19 12 44 12 q8 0 14 -1 q23 -93 74 -277 q48 -157 102 -252 q19 15 101 99 q81 85 94 85 q11 0 51 -66 q51 -85 88 -129 q42 52 89 211 q36 122 55 229 q18 4 32 0 q19 -5 26 -10 Z" /><glyph glyph-name="" unicode="x" d="M628 78 q0 -11 -10 -30 q-9 -18 -19 -24 q-139 73 -289 204 q-82 -109 -176 -228 q-35 10 -52 35 q42 78 171 249 q-178 205 -238 305 q19 19 51 30 q97 -119 113 -139 q65 -78 120 -132 q58 75 116 150 q68 86 123 145 q35 -11 55 -35 q-11 -33 -234 -314 q85 -89 269 -216 Z" /><glyph glyph-name="" unicode="y" d="M619 537 q-8 -37 -89 -120 q-100 -102 -226 -164 q12 -185 12 -219 q0 -11 -1 -27 q-21 -7 -33 -7 q-17 0 -30 2 q-19 75 -24 272 q-47 54 -115 159 q-78 121 -98 182 q17 17 49 28 q7 -6 66 -99 q69 -109 154 -222 q153 79 290 243 q26 -9 45 -28 Z" /><glyph glyph-name="" unicode="z" d="M548 607 q1 -10 -113 -213 q-127 -226 -160 -305 q21 -14 111 -14 q20 0 61 1 q40 1 62 1 q8 -33 3 -59 q-30 -13 -130 -13 q-47 0 -108 8 q-87 11 -87 31 q0 58 260 515 q-42 5 -191 8 q-190 3 -231 6 q-5 15 -5 32 q0 16 6 32 q78 2 153 2 q360 0 369 -32 Z" /><glyph glyph-name="" unicode="[" d="M283 -93 l-234 0 l0 829 l234 0 l0 -69 l-162 0 l0 -691 l162 0 l0 -69 Z" /><glyph glyph-name="" unicode="]" d="M283 -93 l-234 0 l0 69 l162 0 l0 691 l-162 0 l0 69 l234 0 l0 -829 Z" /><glyph glyph-name="" unicode="a" d="M466 36 q0 -12 -1 -30 q-22 0 -57 -2 q-4 13 -11 43 q-100 -47 -164 -47 q-82 0 -141 51 q-62 53 -62 134 q0 85 61 140 q59 52 145 52 q86 0 130 -47 q-10 -28 -34 -44 q-44 25 -96 25 q-57 0 -96 -33 q-39 -32 -39 -87 q0 -50 37 -88 q38 -38 88 -38 q74 0 165 56 q-8 186 -6 243 q6 7 30 7 q27 0 30 -6 q7 -13 15 -152 q6 -119 6 -177 Z" /><glyph glyph-name="" unicode="b" d="M480 178 q0 -85 -66 -134 q-58 -44 -141 -44 q-61 0 -119 41 q6 27 24 55 q67 -27 93 -27 q59 0 97 27 q44 30 44 87 q0 52 -36 89 q-35 37 -87 37 q-42 0 -116 -26 q-19 27 -19 51 q42 44 140 44 q81 0 135 -60 q51 -57 51 -140 ZM121 83 q0 -68 -4 -77 q-19 -6 -31 -6 q-29 0 -32 4 q-14 28 -14 338 q0 180 8 207 q20 2 30 2 q15 0 34 -5 q0 -12 4 -194 q5 -183 5 -269 Z" /><glyph glyph-name="" unicode="c" d="M405 79 q-73 -79 -168 -79 q-79 0 -139 45 q-68 51 -68 131 q0 86 58 144 q59 57 145 57 q46 0 91 -19 q53 -22 75 -59 q-16 -17 -19 -19 q-10 -10 -23 -13 q-55 46 -128 46 q-57 0 -95 -40 q-37 -40 -37 -99 q0 -47 47 -81 q43 -32 92 -32 q45 0 130 56 q17 -3 39 -38 Z" /><glyph glyph-name="" unicode="d" d="M474 266 q2 -240 -5 -259 q-10 -6 -29 -6 q-21 0 -31 4 q-10 20 -10 276 q0 230 8 249 q20 4 30 4 q10 0 30 -3 q5 -24 7 -265 ZM383 58 q-53 -58 -158 -58 q-84 0 -139 54 q-56 54 -56 138 q0 81 64 136 q62 52 143 52 q32 0 76 -12 q53 -15 68 -36 q-2 -8 -11 -26 q-9 -17 -15 -21 q-65 27 -122 27 q-52 0 -94 -36 q-42 -36 -42 -87 q0 -53 37 -87 q38 -35 91 -35 q51 0 130 36 q18 -18 28 -45 Z" /><glyph glyph-name="" unicode="e" d="M450 199 q0 -27 -7 -30 q-69 -25 -333 -35 q35 -73 135 -73 q31 0 63 7 q5 -8 10 -28 q5 -20 1 -24 q-44 -16 -87 -16 q-80 0 -139 46 q-63 50 -63 129 q0 92 60 149 q61 56 154 56 q87 0 144 -46 q62 -50 62 -135 ZM380 216 q-2 47 -47 75 q-38 25 -88 25 q-57 0 -97 -33 q-39 -33 -46 -90 q34 2 278 23 Z" /><glyph glyph-name="" unicode="f" d="M347 331 q0 -14 -5 -28 q-95 -5 -136 -5 q0 -197 3 -291 q-27 -7 -49 -7 q-10 0 -15 1 q-14 136 -14 297 q-47 0 -96 7 q-5 10 -5 29 q0 15 5 29 q22 7 98 7 q12 141 17 147 q20 24 163 36 q8 -16 10 -25 q3 -17 3 -27 q-36 -13 -112 -36 q-4 -6 -5 -95 q71 0 133 -9 q5 -3 5 -30 Z" /><glyph glyph-name="" unicode="g" d="M470 4 q0 -38 -2 -50 q-4 -27 -74 -45 q-55 -15 -94 -15 q-19 0 -29 3 q-6 10 -6 26 q0 14 3 28 q52 8 71 13 q54 11 59 23 q2 5 2 27 q0 2 -2 130 q-2 112 -1 174 q16 5 30 5 q16 0 30 -4 q13 -95 13 -315 ZM362 324 q-3 -22 -28 -47 q-75 28 -116 28 q-52 0 -85 -38 q-33 -38 -33 -88 q0 -49 30 -79 q29 -29 78 -29 q40 0 106 18 q7 -11 22 -48 q-21 -19 -58 -30 q-36 -11 -65 -11 q-80 0 -131 51 q-52 51 -52 131 q0 80 54 138 q55 57 135 57 q86 0 143 -53 Z" /><glyph glyph-name="" unicode="h" d="M484 183 q0 -30 -13 -92 q-15 -70 -30 -90 q-32 0 -56 16 q26 107 26 165 q0 53 -33 88 q-34 36 -82 36 q-37 0 -131 -30 q-16 23 -22 52 q16 20 75 36 q50 13 82 13 q78 0 131 -57 q53 -58 53 -137 ZM115 128 q0 -106 -3 -120 q-7 -8 -30 -8 q-23 0 -30 1 q-12 22 -12 340 q0 236 6 252 q9 2 31 2 q11 0 30 -4 q0 -20 4 -225 q4 -205 4 -238 Z" /><glyph glyph-name="" unicode="i" d="M232 515 q-8 -38 -21 -55 q-11 -2 -44 11 q-34 13 -42 22 q4 37 25 58 q14 0 43 -13 q30 -12 39 -23 ZM209 187 q1 -168 -4 -181 q-10 -5 -30 -5 q-23 0 -29 2 q-12 23 -12 206 l0 87 q1 61 6 77 q13 4 32 4 q16 0 30 -7 q6 -17 7 -183 Z" /><glyph glyph-name="" unicode="j" d="M242 515 q-7 -38 -21 -55 q-11 -2 -49 11 q-38 13 -47 22 q5 37 25 58 q15 0 50 -13 q34 -12 42 -23 ZM233 -6 q0 -77 -7 -90 q-8 -14 -86 -14 q-101 0 -133 15 q-2 14 -2 30 q0 17 7 30 q58 0 97 -1 q38 0 45 0 q4 0 4 41 q0 32 -5 169 q-5 128 -4 198 q11 5 33 5 q10 0 32 -4 q7 -17 13 -168 q6 -132 6 -211 Z" /><glyph glyph-name="" unicode="k" d="M443 332 q-12 -16 -150 -78 q-114 -53 -175 -76 q-1 -45 -1 -89 q-2 -63 -8 -83 q-9 -6 -29 -6 q-20 0 -30 3 q-10 23 -9 164 q2 217 16 400 q8 3 33 3 q20 0 29 -3 q5 -23 -1 -310 q90 41 299 122 q17 -11 26 -47 ZM426 47 q-12 -25 -41 -39 q-17 2 -79 65 q-62 63 -72 84 q10 26 41 42 q17 -5 78 -68 q61 -63 73 -84 Z" /><glyph glyph-name="" unicode="l" d="M214 223 q0 -201 -5 -217 q-13 -6 -28 -6 q-13 0 -25 4 q-12 29 -12 268 q0 110 4 292 q8 4 31 4 q15 0 28 -5 q7 -48 7 -340 Z" /><glyph glyph-name="" unicode="m" d="M660 178 q0 -32 -11 -92 q-12 -73 -27 -85 q-39 0 -53 14 q21 128 21 165 q0 29 -18 50 q-18 21 -44 21 q-28 0 -76 -22 q-37 -19 -73 -37 q-12 30 -33 57 q-40 53 -84 53 q-41 0 -100 -23 q-5 6 -12 21 q-8 14 -8 26 q46 48 135 48 q67 0 127 -89 q61 38 119 38 q64 0 101 -41 q36 -41 36 -104 ZM129 8 q-20 -8 -30 -8 q-25 0 -29 2 q-14 19 -23 157 q-7 106 -7 182 q0 13 1 30 q19 6 32 6 q17 0 30 -3 q11 -55 20 -204 q8 -136 6 -162 Z" /><glyph glyph-name="" unicode="n" d="M480 210 q0 -35 -11 -108 q-14 -88 -28 -100 q-37 1 -57 14 q26 133 26 189 q0 47 -30 75 q-29 27 -76 27 q-31 0 -124 -32 q-25 19 -25 50 q23 26 76 39 q42 11 85 11 q68 0 116 -49 q48 -48 48 -116 ZM123 38 q0 -29 -1 -32 q-12 -6 -31 -6 q-18 0 -31 4 q-20 32 -20 369 q19 4 33 4 q10 0 30 -4 q6 -36 13 -150 q7 -117 7 -185 Z" /><glyph glyph-name="" unicode="o" d="M456 182 q0 -48 -34 -90 q-34 -42 -83 -56 q-20 29 -25 50 q31 15 54 42 q22 28 22 57 q0 49 -51 98 q19 28 44 39 q73 -55 73 -140 ZM340 348 q-2 -33 -23 -54 q-50 19 -85 19 q-56 0 -94 -37 q-38 -37 -38 -92 q0 -44 38 -82 q38 -38 87 -38 q32 0 60 5 q12 -23 14 -53 q-27 -16 -78 -16 q-74 0 -133 56 q-58 56 -58 129 q0 82 58 137 q58 55 141 55 q66 0 111 -29 Z" /><glyph glyph-name="" unicode="p" d="M450 180 q0 -175 -194 -175 q-33 0 -66 7 l1 0 q-6 0 -6 32 q0 0 5 30 q90 0 126 12 q65 23 65 95 q0 58 -87 95 q-59 26 -135 34 q-2 22 -2 31 q0 10 4 33 q107 0 188 -43 q101 -53 101 -151 ZM112 111 q0 -109 -6 -216 q-27 -2 -30 -2 q-14 0 -31 4 q-5 114 -5 238 q0 150 11 241 l25 1 q9 0 34 -5 q2 -122 2 -261 Z" /><glyph glyph-name="" unicode="q" d="M440 -70 q0 -8 -2 -24 q-33 -14 -94 -14 q-32 0 -40 6 q-11 8 -11 37 q0 27 11 83 q-59 -19 -103 -19 q-76 0 -123 52 q-48 52 -48 128 q0 87 60 143 q61 55 148 55 q44 0 91 -19 q51 -20 77 -53 q-17 -36 -37 -42 q-73 43 -132 43 q-59 0 -98 -33 q-39 -33 -39 -91 q0 -46 32 -80 q31 -35 76 -35 q52 0 106 36 q16 11 41 116 q23 1 35 -4 q11 -5 25 -14 l-31 -132 q-20 -86 -20 -108 q0 -5 9 -5 l61 0 q6 -12 6 -26 Z" /><glyph glyph-name="" unicode="r" d="M355 355 q0 -42 -7 -56 q-33 3 -48 3 q-53 0 -92 -10 q-22 -6 -82 -30 q26 -225 21 -247 q-26 -16 -53 -11 q-20 55 -33 182 q-11 105 -11 187 q18 4 30 4 q11 0 30 -2 l7 -46 q79 35 134 35 q50 0 104 -9 Z" /><glyph glyph-name="" unicode="s" d="M380 324 q0 -35 -25 -46 q-118 38 -175 38 q-74 0 -74 -38 q0 -19 48 -41 q79 -36 97 -48 q53 -37 53 -92 q0 -45 -39 -72 q-35 -25 -80 -25 q-81 0 -142 71 q6 14 15 24 q4 4 23 15 q59 -48 103 -48 q18 0 35 10 q18 11 18 26 q0 33 -49 58 q-32 14 -95 45 q-53 28 -53 78 q0 51 50 77 q40 21 93 21 q44 0 106 -15 q70 -16 91 -38 Z" /><glyph glyph-name="" unicode="t" d="M479 321 q0 -10 -5 -23 q-22 -5 -63 -5 q-26 0 -76 3 q-50 2 -74 2 q-20 -140 -20 -215 q0 -9 13 -9 q5 0 42 2 q37 1 57 1 q8 -12 9 -35 q0 -5 -1 -15 q-51 -19 -137 -19 q-45 0 -49 8 q-8 15 -8 60 q0 64 19 224 q-44 1 -165 8 q-6 16 -6 24 q0 8 6 32 q89 4 176 4 q5 30 29 135 q24 0 60 -10 q0 -15 -15 -125 q124 -5 205 -20 q3 -15 3 -27 Z" /><glyph glyph-name="" unicode="u" d="M478 31 q-29 -18 -57 -18 l-13 35 q-30 -22 -87 -36 q-49 -12 -91 -12 q-101 0 -146 48 q-44 49 -44 150 q0 60 41 179 q32 -3 56 -18 q-6 -26 -18 -78 q-10 -48 -10 -78 q0 -71 25 -102 q28 -34 97 -34 q93 0 158 52 l-38 236 q10 15 53 15 q13 -24 42 -164 q29 -136 32 -175 Z" /><glyph glyph-name="" unicode="v" d="M459 340 q-27 -176 -171 -299 q-48 -41 -64 -41 q-18 0 -62 54 q-122 149 -147 307 q26 11 56 13 q47 -133 107 -227 q44 -69 54 -69 q3 0 33 31 q96 101 131 239 q21 4 63 -8 Z" /><glyph glyph-name="" unicode="w" d="M519 309 q-5 -89 -58 -203 q-49 -106 -75 -106 q-26 0 -100 103 q-103 -101 -123 -101 q-26 0 -77 116 q-56 125 -71 244 q26 12 56 14 q12 -30 47 -145 q27 -90 58 -141 q30 28 61 56 q49 45 57 45 q5 0 88 -102 q45 65 81 230 q27 2 56 -10 Z" /><glyph glyph-name="" unicode="x" d="M403 57 q0 -11 -10 -27 q-10 -15 -21 -21 q-68 39 -167 112 q-46 -54 -107 -121 q-28 9 -48 34 q38 61 99 133 q-86 84 -134 160 q19 27 44 32 l137 -137 q50 57 141 155 q39 -11 44 -38 q-4 -10 -58 -78 q-49 -61 -72 -87 q56 -49 152 -117 Z" /><glyph glyph-name="" unicode="y" d="M460 350 q-6 -31 -125 -218 q-119 -186 -164 -240 q-35 7 -48 34 q47 75 89 140 q-87 97 -197 272 q26 21 52 30 q135 -181 186 -237 q88 132 159 245 q28 -6 48 -26 Z" /><glyph glyph-name="" unicode="z" d="M371 339 q0 -10 -74 -129 q-31 -47 -87 -144 q10 -2 47 -2 q37 0 86 -1 q7 -12 7 -27 q0 -22 -4 -24 q-22 -10 -73 -10 q-40 0 -85 6 q-57 8 -61 21 q-5 28 57 133 q47 78 90 138 q-69 2 -247 16 q-2 13 -2 24 q0 14 5 32 q14 1 48 1 q96 0 185 -8 q108 -10 108 -26 Z" /><glyph glyph-name="" unicode="{" d="M269 -95 q-162 3 -162 151 l0 167 q0 70 -87 70 l0 57 q87 3 87 69 l0 164 q0 151 162 151 l0 -66 q-40 0 -67 -20 q-30 -21 -30 -60 l0 -165 q0 -56 -61 -102 q61 -41 61 -105 l0 -162 q0 -39 30 -62 q27 -22 67 -22 l0 -65 Z" /><glyph glyph-name="" unicode="}" d="M269 293 q-87 0 -87 -70 l0 -167 q0 -148 -162 -151 l0 65 q40 0 69 22 q28 23 28 62 l0 162 q0 64 61 105 q-61 46 -61 102 l0 165 q0 39 -28 60 q-29 20 -69 20 l0 66 q162 0 162 -151 l0 -164 q0 -66 87 -69 l0 -57 Z" /><glyph glyph-name="" unicode="&#x3001;" d="M353 49 q0 -8 -20 -26 q-20 -18 -31 -23 q-35 25 -82 78 q-48 53 -73 93 q18 30 50 44 q33 -23 83 -77 q49 -53 73 -89 Z" /><glyph glyph-name="" unicode="&#x3002;" d="M376 123 q0 -53 -36 -88 q-37 -35 -91 -35 q-56 0 -91 34 q-34 34 -34 90 q0 53 36 90 q36 36 89 36 q51 0 89 -38 q38 -38 38 -89 ZM315 124 q0 30 -19 50 q-19 21 -48 21 q-67 0 -67 -71 q0 -66 67 -66 q67 0 67 66 Z" /><glyph glyph-name="" unicode="&#x2014;" d="M1000 324 l-1000 0 l0 72 l1000 0 l0 -72 Z" /><glyph glyph-name="" unicode="&#x2026;" d="M913 392 q0 -18 -17 -57 q-16 -39 -29 -52 q-69 16 -113 48 q8 38 46 106 q46 -2 113 -45 ZM579 392 q0 -18 -17 -57 q-16 -39 -29 -52 q-68 16 -112 48 q8 38 46 106 q45 -2 112 -45 ZM246 392 q0 -18 -16 -57 q-17 -39 -30 -52 q-69 16 -113 48 q8 38 46 106 q46 -2 113 -45 Z" /><glyph glyph-name="" unicode="&#xff01;" d="M582 668 q0 -80 -10 -208 q-13 -160 -32 -215 q-5 -1 -23 -1 q-29 0 -37 4 q-2 16 -2 45 q0 229 35 428 q7 1 16 1 q34 0 52 -8 q1 -19 1 -46 ZM570 104 q0 -17 -16 -56 q-16 -38 -28 -50 q-64 15 -108 47 q8 38 44 102 q44 -2 108 -43 Z" /><glyph glyph-name="" unicode="&#xff0c;" d="M324 81 q0 -96 -46 -181 q-31 0 -45 12 q8 46 15 101 q-49 16 -71 43 q7 51 48 92 q15 0 49 -13 q31 -11 47 -21 q3 -13 3 -33 Z" /><glyph glyph-name="" unicode="&#xff1f;" d="M472 548 q0 -79 -71 -173 q-60 -79 -139 -134 q-40 21 -43 43 q54 60 108 120 q68 85 68 141 q0 49 -39 83 q-40 33 -89 33 q-61 0 -105 -29 q-34 -22 -91 -87 q-10 2 -43 40 q35 66 103 107 q68 42 142 42 q81 0 140 -53 q59 -53 59 -133 ZM301 106 q0 -17 -16 -56 q-16 -38 -28 -50 q-64 15 -108 47 q8 38 44 102 q44 -2 108 -43 Z" /><glyph glyph-name="" unicode="&#x7231;" d="M786 777 q8 -31 8 -66 q-275 -50 -554 -63 q-14 24 -14 67 q269 38 560 62 ZM768 667 q35 -8 59 -25 q-19 -47 -57 -97 q-35 10 -60 27 q21 50 58 95 ZM210 328 q66 0 137 -2 q32 44 64 87 q31 -13 54 -33 q-18 -29 -36 -56 q161 -4 346 -16 q0 -31 -6 -65 q-196 0 -387 10 q-12 -18 -24 -35 q-39 -59 -70 -101 q-14 -22 -27 -38 q-11 -17 -24 -30 q-39 12 -55 39 q29 44 106 157 q5 8 9 13 q-45 3 -89 6 l0 35 q0 14 2 29 ZM352 106 q105 -27 210 -53 q21 38 40 74 q-123 12 -227 30 q0 32 7 60 q156 -3 322 -34 q-23 -70 -68 -148 q83 -20 166 -39 q0 -30 -11 -55 q-101 9 -195 28 q-17 -29 -37 -57 q-36 14 -58 34 q11 19 22 38 q-100 23 -192 55 q9 42 21 67 ZM516 647 q35 -8 59 -26 q-15 -46 -45 -93 q-35 9 -61 27 q17 47 47 92 ZM280 634 q27 -36 38 -108 q-30 -17 -60 -20 q-31 45 -36 112 q24 11 58 16 ZM199 503 q17 0 33 -6 q0 -67 -12 -151 q-11 -4 -35 -4 q-23 0 -33 8 q0 100 12 151 q15 2 35 2 ZM304 512 q289 0 566 -22 q-5 -95 -5 -182 q-10 -4 -30 -4 q-13 0 -34 2 q0 38 1 120 q-246 0 -496 22 q-4 14 -4 34 q0 14 2 30 Z" /><glyph glyph-name="" unicode="&#x6848;" d="M570 771 q5 -34 7 -62 q148 -3 272 -13 q4 -47 4 -78 q0 -59 -5 -85 q-11 -2 -34 -2 q-19 0 -34 2 q0 42 -1 95 q-119 8 -239 12 q-132 -2 -263 -4 q-6 14 -6 35 q0 31 2 31 q104 3 227 7 q-4 26 -4 55 q38 7 74 7 ZM436 603 q29 -6 59 -24 q-6 -21 -13 -41 q99 -4 211 -10 q0 -29 -6 -62 q-115 0 -226 5 q-11 -35 -23 -71 q68 -12 136 -23 q11 36 24 70 q34 -4 70 -14 q-11 -33 -23 -67 q30 -4 58 -8 q0 -34 -16 -57 q-32 2 -62 6 q-8 -25 -16 -49 q-36 4 -64 20 q5 20 10 37 q-109 15 -207 40 q18 67 36 120 q-41 3 -81 6 l0 33 q0 14 2 27 q49 0 103 -1 q14 36 28 63 ZM518 268 q4 -21 7 -48 q146 -1 212 -5 q2 -12 2 -28 l0 -30 q-27 -8 -205 -9 q8 -73 15 -174 q-14 -9 -39 -9 q-45 0 -73 5 q-7 20 -7 47 q23 0 45 2 q-7 69 -12 129 l-17 0 q-128 0 -184 8 q-4 14 -4 32 q0 18 2 30 q76 2 188 2 l10 0 q-1 23 -2 44 q31 4 62 4 ZM284 118 q39 -9 62 -35 q-28 -47 -79 -98 q-36 8 -54 32 q24 49 71 101 ZM716 123 q57 -27 121 -70 q-11 -25 -32 -56 q-67 25 -126 70 q20 32 37 56 ZM186 699 q18 0 35 -6 q0 -83 -6 -186 q-12 -4 -37 -4 q-24 0 -35 8 q0 123 6 186 q17 2 37 2 Z" /><glyph glyph-name="" unicode="&#x6602;" d="M267 561 q2 -42 2 -80 q79 -13 254 -13 q150 0 176 3 l0 142 q0 18 -10 76 q-43 2 -168 4 q-112 -8 -184 -8 l0 64 q107 10 210 10 q134 0 206 -3 q18 -16 20 -154 q0 -147 -6 -184 q-72 -17 -239 -17 q-253 0 -326 26 q-6 73 -6 201 q0 38 -7 102 l68 0 q5 -58 8 -110 q112 -5 230 -19 q0 -24 -6 -55 q-119 0 -222 15 ZM413 368 q7 -26 7 -56 q-137 -37 -276 -47 q-12 22 -12 58 q135 28 281 45 ZM226 218 q29 0 61 -4 q-8 -65 -20 -134 q58 6 127 15 q5 -9 5 -26 q0 -12 -2 -27 q-62 -19 -135 -19 q-53 0 -65 5 q0 52 29 190 ZM542 268 q-20 3 -39 6 q1 35 7 58 q156 -15 314 -38 q0 -113 -13 -213 q-31 -6 -73 -6 q-34 0 -57 4 q-2 28 -2 49 q39 2 71 2 q2 51 6 111 q-73 8 -140 17 q3 -140 3 -284 q-12 -6 -35 -6 q-19 0 -32 2 q-9 147 -10 298 Z" /><glyph glyph-name="" unicode="&#x66b4;" d="M549 235 q16 -138 20 -279 q-17 -9 -55 -9 q-39 0 -59 3 q-6 21 -6 39 q30 4 55 4 q-15 119 -15 236 q29 6 60 6 ZM354 190 q52 -12 110 -29 q-4 -25 -17 -52 q-61 7 -111 26 q6 31 18 55 ZM640 69 q48 -8 96 -28 q-4 -27 -18 -58 q-61 10 -99 30 q11 37 21 56 ZM693 202 q21 -29 25 -56 q-41 -19 -93 -33 q-23 32 -23 59 q49 18 91 30 ZM402 69 q9 -26 13 -61 q-49 -13 -98 -20 q-9 31 -11 61 q50 12 96 20 ZM515 747 q131 0 219 -6 q4 -65 4 -139 q0 -43 -6 -78 q-27 -4 -73 -5 q-3 -37 -8 -72 q48 -5 93 -10 l0 -24 q0 -18 -3 -27 q-52 0 -99 1 q-5 -27 -10 -53 q107 4 219 6 q4 -11 4 -28 q0 -23 -2 -33 q-52 -3 -103 -5 q51 -45 98 -90 q-19 -27 -51 -43 q-80 61 -142 129 q-141 -6 -283 -9 q-25 -38 -57 -83 q-23 -31 -46 -62 q-22 -34 -42 -56 q-34 13 -53 36 q58 93 107 163 q-57 -1 -115 -2 q-4 28 -4 59 q94 5 195 9 q-4 38 -7 76 q-46 4 -86 10 q-3 6 -3 27 q0 14 4 27 q41 0 82 -1 q-2 30 -2 60 q-38 1 -73 3 q-4 62 -4 140 q0 31 4 75 q101 5 243 5 ZM562 332 q3 29 6 56 q-79 3 -145 7 q1 -34 1 -67 q68 2 138 4 ZM577 453 q6 35 13 66 q-94 0 -173 3 q2 -31 4 -60 q79 -3 156 -9 ZM336 690 l0 -33 q97 -3 184 -8 q-2 -12 -4 -25 q-1 -18 -5 -27 q-52 0 -104 3 q-36 1 -71 4 l0 -29 l330 0 l0 115 l-330 0 Z" /><glyph glyph-name="" unicode="&#x7206;" d="M643 755 q110 0 184 -7 q3 -77 3 -165 q0 -43 -5 -79 q-38 -5 -116 -5 q-157 0 -269 9 q-4 73 -4 165 q0 32 4 76 q85 6 203 6 ZM504 695 l0 -36 q58 -2 127 -15 q0 -28 -9 -52 q-72 0 -118 9 l0 -44 l254 0 l0 138 l-254 0 ZM443 442 l58 0 q-1 18 -1 37 q31 5 59 5 q4 -22 6 -43 q55 0 112 -2 q1 22 2 38 q16 2 35 2 q18 0 33 -6 l0 -36 q47 -1 94 -3 q0 -28 -5 -61 q-46 0 -90 1 q-1 -38 -3 -77 q78 2 158 3 q4 -11 4 -28 q0 -23 -2 -33 q-34 -1 -66 -2 q47 -46 87 -99 q-17 -19 -45 -38 q-71 51 -130 134 q-107 -3 -214 -4 q-58 -96 -158 -196 q-29 6 -45 26 q44 83 119 169 q-37 -1 -74 -1 q-4 28 -4 59 q69 2 142 4 q-8 43 -11 89 q-32 1 -63 3 l0 32 q0 14 2 27 ZM673 295 q0 45 1 80 q-51 1 -102 3 q5 -46 6 -85 q48 1 95 2 ZM512 52 q24 -18 43 -39 q-34 -28 -78 -54 q-25 18 -41 43 q40 27 76 50 ZM762 42 q43 -12 92 -30 q-4 -25 -18 -53 q-50 8 -91 28 q5 32 17 55 ZM797 145 q19 -26 27 -53 q-40 -24 -86 -32 q-20 25 -29 51 q43 22 88 34 ZM503 146 q41 -15 80 -37 q-7 -20 -29 -53 q-43 16 -80 39 q12 31 29 51 ZM673 187 q16 -71 32 -241 q-21 -7 -59 -7 q-43 0 -70 4 q-6 19 -6 44 q30 0 60 2 q-15 110 -19 194 q31 4 62 4 ZM230 567 q29 -3 56 -14 q-24 -158 -56 -299 q46 -15 95 -33 q-4 -24 -18 -57 q-49 7 -92 25 q-8 -34 -16 -66 l-38 6 q-14 3 -25 9 q14 109 41 226 q-68 21 -115 52 q12 35 25 59 q54 -22 105 -48 q17 69 38 140 ZM351 437 q24 -18 36 -47 q-26 -30 -85 -66 q-23 24 -34 49 q36 31 83 64 Z" /><glyph glyph-name="" unicode="&#x8868;" d="M218 651 q72 2 179 2 l59 0 q-1 37 -1 72 q18 2 40 4 q22 0 36 -2 q1 -38 2 -74 q166 -1 246 -4 q2 -12 2 -27 l0 -28 q-34 -8 -247 -10 q1 -33 1 -66 q116 -1 172 -5 q1 -10 1 -24 l0 -25 q-24 -5 -172 -6 l0 -79 q143 4 293 4 q2 -11 2 -26 l0 -29 q-202 -15 -400 -20 q18 -14 32 -30 q-42 -38 -86 -73 q7 -1 14 -3 q0 -103 -4 -170 q31 0 101 -5 q5 -9 5 -22 q0 -12 -2 -23 q-24 -10 -82 -10 q-53 0 -94 7 q-6 23 -6 75 q0 52 6 103 q-44 -33 -90 -64 q-29 20 -47 50 q111 90 213 164 q-110 -3 -218 -3 q-6 28 -6 59 q145 9 297 14 q-2 40 -3 80 l-41 0 q-110 0 -157 7 q-4 12 -4 27 q0 15 2 26 q65 1 161 1 l37 0 q-1 34 -2 66 l-62 0 q-122 0 -175 8 q-4 13 -4 30 q0 17 2 29 ZM742 284 q29 -11 57 -34 q-44 -65 -100 -131 q72 -36 140 -73 q-11 -24 -33 -50 q-173 65 -308 146 q15 32 32 58 q51 -23 99 -47 q54 69 113 131 Z" /><glyph glyph-name="" unicode="&#x4e0d;" d="M122 690 q379 0 752 -24 l0 -30 q0 -23 -4 -34 q-470 0 -750 19 q-3 8 -3 34 q0 17 5 35 ZM450 555 q29 -16 53 -38 q-73 -95 -151 -187 q-116 -154 -160 -183 q-32 12 -53 45 q79 100 157 192 q105 122 154 171 ZM549 317 q37 -122 60 -320 q-22 -15 -115 -15 q-16 12 -16 46 q16 3 51 11 q-23 134 -44 268 q28 10 64 10 ZM740 281 q79 -28 153 -62 q-9 -28 -27 -57 q-90 21 -152 57 q12 37 26 62 Z" /><glyph glyph-name="" unicode="&#x5bdf;" d="M173 712 q17 0 33 -6 q0 -85 -15 -191 q-11 -4 -34 -4 q-23 0 -33 8 q0 126 15 191 q15 2 34 2 ZM277 717 q103 0 202 -3 q-3 31 -3 61 q17 2 38 4 q21 0 34 -2 q1 -32 1 -65 q170 -5 335 -17 q-2 -93 -2 -179 q-11 -4 -30 -4 q-13 0 -35 2 q-1 40 -2 125 q-265 0 -536 21 q-3 13 -3 30 q0 13 1 27 ZM364 598 q22 -18 35 -46 q-10 -10 -20 -18 q81 -6 155 -24 q-82 -167 -206 -303 q-34 8 -49 26 q78 120 159 239 q-83 8 -124 14 q-44 -29 -103 -60 q-23 23 -34 48 q80 60 187 124 ZM594 568 q107 -15 203 -45 q-34 -71 -80 -134 q54 -17 106 -38 q-3 -21 -13 -45 q-163 26 -265 78 q9 28 17 44 q50 -9 99 -22 q34 55 42 77 q-34 12 -126 33 q3 27 17 52 ZM415 295 q122 -4 252 -19 q0 -24 -6 -53 q-133 0 -247 18 q0 28 1 54 ZM585 179 q78 0 125 -6 q2 -7 2 -24 q0 -19 -2 -25 q-12 -5 -125 -5 l-18 0 q12 -73 15 -148 q-18 -9 -58 -9 q-41 0 -61 4 q-6 21 -6 39 q32 4 59 4 q-13 56 -15 110 q-124 1 -139 5 q-3 10 -3 26 q0 15 4 26 q100 3 222 3 ZM380 101 q31 -17 50 -37 q-20 -22 -46 -42 q-12 -9 -26 -19 q-13 -11 -28 -21 q-27 17 -46 42 q41 40 96 77 ZM679 89 q56 -20 111 -51 q-8 -20 -30 -54 q-60 22 -111 53 q12 32 30 52 ZM215 383 q43 -9 93 -23 q-4 -25 -17 -52 q-52 7 -93 22 q5 30 17 53 ZM284 462 q37 -12 80 -29 q-3 -24 -16 -50 q-45 8 -81 27 q6 29 17 52 Z" /><glyph glyph-name="" unicode="&#x4ea7;" d="M309 665 q109 -3 215 -7 q2 50 11 79 q16 2 36 2 q18 0 34 -6 q0 -37 -6 -78 q104 -5 205 -10 q0 -27 -10 -64 q-237 0 -492 17 q0 37 7 67 ZM306 344 q37 -2 66 -9 q-20 -159 -74 -359 q-39 3 -68 15 q22 180 76 353 ZM269 442 q77 0 162 -2 q-42 44 -70 92 q23 20 55 37 q49 -50 87 -109 q-12 -12 -27 -21 q55 -2 111 -4 q18 69 70 132 q28 -7 56 -20 q-15 -69 -54 -115 q87 -3 178 -8 q0 -31 -6 -67 q-285 0 -564 20 l0 36 q0 15 2 29 Z" /><glyph glyph-name="" unicode="&#x957f;" d="M175 435 q85 0 169 -1 q12 134 28 266 q35 -2 65 -5 q-8 -131 -19 -262 q212 -4 421 -13 l0 -31 q0 -24 -4 -35 q-240 0 -423 3 q-11 -136 -26 -273 q41 -7 101 -16 q0 -21 -12 -60 q-88 3 -157 23 q0 6 8 172 q6 79 11 156 q-90 2 -164 5 q-4 8 -4 35 q0 18 6 36 ZM597 310 q103 -127 193 -254 q-17 -27 -54 -43 q-102 128 -192 260 q28 23 53 37 ZM743 659 q21 -19 34 -48 q-48 -36 -99 -68 q-29 -18 -52 -34 q-26 -18 -53 -32 q-23 23 -34 48 q21 20 47 40 q25 18 50 34 q25 16 52 32 q26 14 55 28 Z" /><glyph glyph-name="" unicode="&#x6c89;" d="M171 670 q76 -8 166 -49 q-7 -32 -24 -60 q-92 6 -162 48 q7 33 20 61 ZM114 385 q82 -4 156 -13 q-2 -16 -4 -32 q-3 -24 -7 -36 q-38 0 -76 5 q-38 3 -76 9 q0 32 7 67 ZM278 133 q21 -28 29 -58 q-57 -44 -123 -58 q-21 28 -32 56 q62 39 126 60 ZM441 655 q16 0 31 -5 q0 -107 -15 -239 q-11 -3 -33 -3 q-23 0 -32 7 q0 157 15 238 q15 2 34 2 ZM522 630 q183 -2 379 -17 q0 -88 -8 -157 q-14 -4 -31 -4 q-20 0 -31 8 l0 92 q-158 4 -309 19 q-4 12 -4 31 q0 15 4 28 ZM521 380 q32 -3 58 -9 q-19 -159 -70 -359 q-34 3 -60 13 q22 181 72 355 ZM621 391 q94 -13 198 -33 q-6 -148 -25 -292 q36 -4 75 -8 q0 -22 -4 -51 q-63 0 -140 10 q8 142 28 290 q-70 11 -140 29 q0 27 8 55 Z" /><glyph glyph-name="" unicode="&#x6210;" d="M239 199 q-14 -95 -30 -190 q-45 0 -67 16 q25 191 59 381 q27 -2 63 -10 q-8 -68 -17 -136 q102 -12 206 -26 q0 -54 -2 -103 q0 -48 -6 -123 q-29 0 -61 -2 q-25 2 -49 4 q-3 19 -3 39 q25 4 51 4 q0 66 4 124 q-76 10 -148 22 ZM781 563 q4 -13 4 -32 q0 -25 -2 -35 q-67 -3 -133 -5 q40 -114 80 -226 q37 32 77 61 q27 -18 36 -43 q-42 -53 -84 -97 q21 -59 42 -117 q23 8 50 18 q10 -19 16 -47 q-44 -25 -109 -33 q-27 65 -51 127 q-47 -43 -94 -80 q-26 18 -40 41 q46 64 102 120 q-54 139 -99 273 q-197 -7 -398 -9 q-4 31 -4 65 q175 7 379 13 q-20 62 -38 122 q24 15 63 21 q24 -72 48 -141 q77 2 155 4 ZM795 737 q44 -53 80 -117 q-23 -21 -55 -36 q-48 55 -80 117 q23 19 55 36 Z" /><glyph glyph-name="" unicode="&#x7a0b;" d="M521 224 q58 0 121 -2 q-3 37 -4 73 q-79 3 -154 9 q0 34 6 60 q191 0 376 -17 q0 -30 -5 -58 q-77 0 -152 3 q3 -38 6 -74 q57 -3 118 -7 q0 -27 -6 -58 q-55 0 -107 2 q3 -41 5 -81 q73 -1 118 -6 q3 -8 3 -27 q0 -20 -3 -26 q-12 -5 -133 -5 q-180 0 -197 5 q-3 11 -3 28 q0 15 5 28 q66 2 142 3 q-5 43 -9 84 q-65 4 -128 10 l0 31 q0 12 1 25 ZM601 718 q158 -5 284 -18 q0 -183 -19 -271 q-40 -12 -209 -12 q-95 0 -160 19 q-11 105 -14 248 q31 4 62 4 q8 -96 12 -201 q136 -5 250 -5 q0 61 8 161 q-119 5 -216 20 q0 30 2 55 ZM412 662 q8 -29 8 -61 q-150 -29 -302 -36 q-13 22 -13 62 q147 22 307 35 ZM101 400 q63 0 135 -4 q1 63 4 127 q15 4 32 4 q18 0 31 -4 q4 -70 5 -131 q60 -4 123 -10 q0 -28 -5 -61 q-61 0 -117 3 l0 -67 q54 -7 103 -17 q-2 -15 -4 -30 q-3 -22 -7 -32 q-33 0 -66 7 q-14 2 -27 4 q-1 -77 -3 -143 q-8 -4 -32 -4 q-18 0 -26 4 q-7 73 -10 153 q-56 -43 -117 -75 q-26 18 -41 42 q65 64 156 113 l0 49 q-69 5 -136 13 l0 32 q0 14 2 27 Z" /><glyph glyph-name="" unicode="&#x4f20;" d="M352 525 q14 -25 14 -58 q-65 -25 -126 -43 q33 -132 49 -276 q-30 -9 -63 -9 q-34 132 -54 267 q-44 -12 -86 -19 q-11 25 -11 55 q140 69 277 83 ZM454 618 q85 0 169 -4 q22 63 44 123 q34 -5 61 -18 q-12 -56 -27 -110 q85 -5 168 -15 q0 -30 -5 -58 q-93 0 -182 4 q-11 -36 -23 -70 q-5 -15 -10 -29 q127 11 258 16 q4 -14 4 -30 l0 -32 q-143 -16 -287 -26 q-4 -13 -9 -25 q-11 -27 -21 -61 q124 -4 254 -26 q-29 -100 -100 -222 q29 -14 56 -29 q-8 -27 -25 -55 q-111 32 -187 85 q12 35 26 59 q35 -14 68 -30 q33 65 63 132 q-99 9 -182 22 q-1 -3 -2 -4 q-32 7 -62 20 q20 67 39 129 q-77 -6 -154 -9 q-5 32 -5 63 q90 10 181 17 q18 57 36 110 q-77 5 -152 13 q0 33 6 60 Z" /><glyph glyph-name="" unicode="&#x521b;" d="M328 609 q-104 -91 -212 -168 q-27 17 -37 47 q122 121 292 237 q24 -14 38 -43 q-17 -15 -31 -28 q99 -90 190 -187 q-16 -29 -43 -47 q-105 93 -197 189 ZM178 416 q149 -12 300 -31 q0 -122 -12 -229 q-32 -6 -76 -6 q-35 0 -60 4 q-2 29 -2 52 q42 2 76 2 q2 56 6 122 q-75 7 -143 14 q-17 -127 -36 -254 q121 -15 249 -26 q0 -31 -11 -63 q-164 5 -313 39 q15 154 42 312 q-15 1 -29 3 q2 37 9 61 ZM682 484 q12 -129 18 -251 q-31 -6 -61 -6 q-17 125 -21 251 q30 6 64 6 ZM849 573 q28 -327 28 -467 q-28 -10 -65 -10 q-35 0 -62 4 q-7 21 -7 43 q24 7 61 7 q-10 212 -17 417 q31 6 62 6 Z" /><glyph glyph-name="" unicode="&#x5b58;" d="M136 657 q112 -4 222 -10 q51 61 106 124 q28 -16 52 -37 q-36 -47 -71 -91 q208 -10 417 -23 q5 -15 5 -35 q0 -14 -5 -30 q-240 4 -472 18 q-122 -153 -252 -308 q-30 14 -53 38 q91 125 215 275 q-83 5 -164 12 q-6 18 -6 33 q0 18 6 34 ZM273 304 q34 -148 44 -296 q-14 -3 -30 -5 q-11 -2 -31 -2 q-32 146 -43 294 q27 5 60 9 ZM447 167 q70 2 174 2 q4 0 8 0 q-1 5 -2 10 q31 84 64 168 q-131 15 -264 29 q0 35 6 63 q174 -8 355 -43 q-35 -115 -89 -223 q1 -2 1 -4 q113 0 165 2 q2 -11 2 -26 l0 -27 q-22 -11 -153 -14 q10 -65 10 -152 q-15 -6 -41 -6 q-70 0 -115 12 q0 27 4 49 q43 -4 88 -8 q-8 53 -18 104 q-12 0 -23 0 q-119 0 -171 7 q-3 13 -3 30 q0 16 2 27 Z" /><glyph glyph-name="" unicode="&#x8fbe;" d="M652 714 q37 -10 68 -30 q-26 -66 -52 -126 q114 -8 224 -22 q0 -32 -5 -62 q-128 0 -252 7 q-84 -193 -163 -344 q-37 10 -60 33 q41 103 137 317 q-89 7 -177 17 q0 35 7 64 q104 0 204 -5 q32 71 69 151 ZM702 290 q85 -48 170 -107 q-12 -26 -37 -55 q-94 44 -168 98 q16 35 35 64 ZM188 631 q61 -6 133 -40 q-7 -31 -24 -59 q-73 5 -129 38 q7 33 20 61 ZM101 409 q109 -9 195 -25 q-15 -72 -39 -133 q41 -12 82 -29 q-4 -51 -25 -131 q129 -18 221 -25 q0 -14 -2 -28 q0 -17 -10 -33 q-148 4 -279 37 q8 57 25 127 q-55 20 -100 33 q20 65 41 127 q-56 12 -113 22 q-2 10 -2 29 q0 12 6 29 Z" /><glyph glyph-name="" unicode="&#x5927;" d="M516 705 q36 -11 67 -31 q-36 -79 -70 -152 q167 -6 331 -19 q0 -34 -5 -66 q-185 0 -364 6 q-111 -229 -216 -407 q-37 10 -60 32 q55 122 185 379 q-131 5 -258 14 q0 38 8 69 q146 0 290 -5 q43 85 92 180 ZM586 220 q119 -62 238 -138 q-12 -27 -36 -56 q-133 59 -236 131 q16 35 34 63 Z" /><glyph glyph-name="" unicode="&#x4ee3;" d="M600 554 q26 -61 53 -120 q62 15 125 28 q14 -31 14 -66 q-53 -17 -106 -31 q58 -121 125 -237 q33 13 66 29 q22 -23 26 -46 q-55 -44 -121 -63 q-96 137 -169 299 q-82 -21 -163 -37 q-15 31 -19 63 q74 24 152 44 q-23 55 -43 112 q27 17 60 25 ZM772 660 q49 -50 87 -111 q-23 -21 -53 -35 q-52 52 -87 112 q23 18 53 34 ZM331 524 q19 -23 21 -52 q-44 -30 -93 -51 q21 -125 31 -259 q-29 -9 -62 -9 q-22 120 -36 243 q-36 -12 -75 -21 q-20 20 -28 53 q106 60 242 96 Z" /><glyph glyph-name="" unicode="&#x4f46;" d="M642 641 q120 0 199 -8 q4 -155 4 -333 q0 -44 -6 -80 q-39 -6 -120 -6 q-173 0 -297 9 q-4 148 -4 334 q0 32 4 78 q92 6 220 6 ZM487 578 l0 -109 q111 -5 226 -17 q0 -24 -5 -52 q-119 0 -221 14 l0 -139 l286 0 l0 303 l-286 0 ZM881 101 q4 -12 4 -30 q0 -23 -2 -33 q-238 -12 -488 -14 q-4 29 -4 60 q217 10 490 17 ZM337 532 q20 -23 22 -52 q-52 -35 -113 -60 q24 -128 36 -266 q-29 -9 -63 -9 q-25 124 -40 250 q-35 -12 -71 -20 q-20 20 -27 53 q112 65 256 104 Z" /><glyph glyph-name="" unicode="&#x5f53;" d="M796 608 q22 -28 31 -59 q-63 -55 -136 -73 q-22 29 -32 58 q67 49 137 74 ZM214 571 q67 -9 145 -56 q-7 -29 -22 -56 q-80 7 -142 54 q7 32 19 58 ZM505 706 q18 0 31 -4 q6 -66 6 -112 q0 -96 -6 -149 q-9 -6 -31 -6 q-22 0 -31 6 q-11 61 -11 149 q0 59 11 112 q16 4 31 4 ZM237 389 q121 0 239 -2 q170 -8 297 -27 q13 -37 13 -165 q0 -160 -6 -185 q-80 -26 -488 -26 q-7 9 -7 30 q0 20 3 31 q99 7 427 19 q0 68 -7 232 q-160 3 -473 28 q-2 17 -2 33 q0 19 4 32 ZM448 214 q90 0 145 -7 q3 -9 3 -29 q0 -22 -3 -29 q-14 -5 -145 -5 q-122 0 -134 5 q-3 12 -3 31 q0 17 5 30 q59 4 132 4 Z" /><glyph glyph-name="" unicode="&#x5230;" d="M681 427 q9 -120 14 -235 q-32 -5 -65 -5 q-13 116 -17 234 q32 6 68 6 ZM840 502 q29 -287 29 -411 q-29 -10 -67 -10 q-28 0 -50 4 q-8 22 -8 44 q20 8 50 8 q-11 183 -17 358 q31 7 63 7 ZM171 216 q54 0 115 -3 q3 31 6 60 q16 2 34 2 q21 -2 29 -6 q-1 -31 -3 -59 q57 -3 119 -9 q0 -27 -5 -56 q-60 0 -117 3 q-3 -43 -7 -83 q53 -2 89 -6 q3 -8 3 -27 q0 -20 -3 -26 q-13 -5 -133 -5 q-104 0 -114 5 q-3 11 -3 28 q0 15 5 28 q41 2 89 3 q2 46 6 87 q-57 4 -112 10 l0 30 q0 12 2 24 ZM145 662 q182 -8 367 -20 l0 -28 q0 -21 -4 -35 q-113 2 -224 8 q-19 -94 -36 -190 q56 -8 185 -24 q4 -11 4 -25 q0 -14 -4 -29 q-158 0 -278 30 q20 129 58 243 q-37 3 -72 6 q-4 12 -4 33 q0 16 8 31 ZM501 499 q24 -38 34 -113 q-28 -16 -56 -19 q-28 47 -33 116 q23 11 55 16 Z" /><glyph glyph-name="" unicode="&#x9053;" d="M735 732 q33 -7 54 -23 q-14 -52 -38 -106 q43 -4 85 -9 q0 -30 -5 -58 q-87 0 -172 4 q-2 -12 -5 -28 q-3 -18 -7 -34 q92 -5 187 -13 q8 -87 8 -195 q0 -137 -6 -177 q-56 -6 -237 -6 q-118 0 -194 24 q-3 27 -3 155 q0 60 13 195 q30 0 66 -5 q-1 -42 -2 -83 q17 1 41 1 q35 0 55 -1 q4 -13 4 -30 q0 -15 -2 -28 q-19 -6 -61 -6 q-23 0 -40 1 q0 -19 -1 -37 q17 1 41 1 q29 0 46 -2 q4 -13 4 -29 q0 -15 -2 -28 q-16 -6 -52 -6 q-23 0 -40 1 q-1 -23 -2 -47 q165 -13 296 -13 q0 131 -2 257 q-130 1 -248 18 l0 30 q0 17 3 28 q27 -1 54 -2 q2 28 9 63 q-101 5 -199 16 q0 33 7 60 q148 0 293 -11 q20 64 52 123 ZM558 730 q15 -46 16 -82 q-18 -10 -61 -10 q-19 37 -19 86 q33 6 64 6 ZM145 520 q59 -5 113 -16 q-2 -15 -4 -30 q-2 -22 -6 -33 q-28 0 -55 5 q-27 3 -55 11 q0 30 7 63 ZM95 367 q102 -9 183 -25 q-16 -72 -39 -133 q41 -12 82 -29 q-4 -51 -26 -131 q110 -18 189 -25 q0 -14 -2 -28 q0 -17 -10 -33 q-131 4 -247 37 q8 57 26 127 q-55 20 -100 33 q19 65 41 127 q-50 12 -101 22 q-2 10 -2 29 q0 12 6 29 Z" /><glyph glyph-name="" unicode="&#x7684;" d="M226 521 q13 -1 25 -1 q27 60 70 115 q35 -8 58 -25 q-18 -48 -48 -96 q62 -6 116 -13 q0 -290 -20 -428 q-23 -10 -123 -10 q-102 0 -173 21 q-15 169 -19 399 q33 4 66 4 q5 -77 9 -156 q17 1 41 1 q48 0 75 -2 q4 -14 4 -31 q0 -15 -2 -28 q-25 -5 -81 -5 q-19 0 -34 1 q3 -64 5 -128 q94 -9 174 -9 q0 119 7 311 q-83 5 -152 21 q0 31 2 59 ZM659 616 q26 -9 51 -29 q-26 -60 -56 -122 q114 -8 229 -20 q0 -182 -11 -342 q-24 -6 -56 -6 q-33 0 -57 4 q-2 27 -2 48 q32 2 58 2 q2 110 6 239 q-104 7 -196 15 q-29 -55 -59 -110 q-32 8 -58 35 q70 148 151 286 ZM565 237 q54 -26 115 -67 q-10 -24 -30 -52 q-63 24 -119 67 q18 30 34 52 Z" /><glyph glyph-name="" unicode="&#x4f4e;" d="M829 686 q9 -28 13 -65 q-216 -34 -431 -52 q-10 33 -12 64 q223 32 430 53 ZM480 514 q17 0 29 -4 q0 -158 -2 -308 q33 0 80 -4 l0 -25 q-2 -14 -2 -27 q-19 -4 -66 -4 q-59 0 -82 8 q0 176 12 362 q13 2 31 2 ZM860 457 q21 -29 25 -56 q-43 -20 -89 -36 q33 -74 63 -147 q-22 -16 -57 -23 q-37 75 -69 148 q-40 -13 -82 -24 q-24 31 -24 58 q41 16 80 29 q-19 46 -36 90 q22 12 55 20 q22 -45 42 -89 q48 17 92 30 ZM317 524 q19 -23 21 -52 q-40 -29 -85 -49 q21 -127 32 -261 q-30 -9 -63 -9 q-22 120 -36 243 q-34 -12 -71 -21 q-20 20 -28 53 q101 60 230 96 ZM649 138 q72 -14 143 -47 q-3 -27 -17 -59 q-91 17 -147 49 q11 37 21 57 Z" /><glyph glyph-name="" unicode="&#x53ee;" d="M715 450 q49 -214 58 -422 q-35 -20 -141 -20 q-6 25 -6 55 q34 3 69 9 q-21 189 -44 369 q27 5 64 9 ZM372 532 q5 -135 5 -271 q-131 -10 -257 -10 q-16 145 -20 273 q132 8 272 8 ZM168 466 l8 -150 l137 5 l-4 149 l-141 -4 ZM892 603 q4 -12 4 -31 q0 -24 -2 -34 q-226 -20 -463 -24 q-4 31 -4 63 q205 16 465 26 Z" /><glyph glyph-name="" unicode="&#x61c2;" d="M129 491 q17 0 32 -5 q0 -105 -9 -236 q-11 -4 -33 -4 q-22 0 -32 8 q0 155 9 235 q15 2 33 2 ZM242 586 q21 0 31 -4 q4 -59 7 -120 q37 -2 80 -10 q0 -37 -12 -67 q-38 0 -65 4 q4 -129 4 -270 q-12 -4 -34 -4 q-25 0 -33 2 q-11 250 -11 463 q5 4 33 6 ZM800 573 q6 -27 8 -62 q-71 -6 -145 -10 q0 -24 1 -47 q107 -3 213 -10 l0 -27 q0 -15 -6 -30 q-103 0 -206 3 q0 -15 1 -30 q91 -5 183 -14 q12 -23 12 -91 q0 -60 -4 -111 q-10 -15 -189 -18 l0 -37 q64 -3 127 -9 q0 -23 -5 -51 q-63 0 -121 3 l0 -30 q138 -1 201 -3 q2 -11 2 -25 l0 -27 q-32 -9 -285 -9 q-116 0 -166 7 q-4 12 -4 29 q0 16 2 27 q69 1 170 1 l16 0 q-2 16 -3 33 q-65 4 -125 11 q0 27 2 51 q60 -1 120 -4 q0 17 -1 32 l-15 0 q-99 0 -156 11 q-16 87 -16 204 l64 0 q10 -85 10 -147 q46 -5 112 -7 l0 37 q-40 3 -77 9 q0 25 2 48 q37 -1 74 -3 l0 29 q-36 3 -72 6 q0 29 1 55 q36 -1 71 -3 q1 15 1 28 q-96 4 -190 10 q-4 17 -4 31 q0 13 2 26 q97 0 193 -3 q0 24 1 42 q-64 -3 -129 -5 q-7 26 -11 62 q160 10 341 18 ZM668 186 q86 0 125 4 q0 48 -6 103 q-62 3 -120 8 l0 -29 q41 -3 81 -8 q0 -22 -5 -48 q-40 0 -75 2 l0 -32 ZM378 703 q62 0 123 -1 q1 32 4 55 q14 2 32 2 q16 0 31 -6 q0 -26 -1 -53 q81 -3 160 -7 q7 26 16 52 q33 -3 59 -9 q-3 -23 -8 -47 q55 -4 107 -9 q0 -29 -5 -57 q-60 0 -117 1 q-4 -19 -10 -38 q-35 2 -62 13 q2 14 5 27 q-75 2 -147 6 q-2 -22 -3 -43 q-10 -4 -32 -4 q-22 0 -31 7 q0 24 0 44 q-65 4 -128 9 q0 33 7 58 Z" /><glyph glyph-name="" unicode="&#x6597;" d="M265 680 q95 -27 185 -59 q-8 -33 -23 -63 q-96 25 -183 59 q8 37 21 63 ZM177 459 q103 -29 200 -62 q-8 -33 -23 -61 q-104 25 -198 62 q9 37 21 61 ZM887 240 q3 -15 3 -32 l0 -33 q-90 -9 -179 -16 q-2 -66 -2 -174 q-9 -5 -34 -5 q-26 0 -36 3 q-4 69 -5 170 q-233 -19 -469 -29 q-6 33 -6 67 q180 17 362 29 q56 4 113 7 q0 11 0 22 q0 124 4 356 q21 4 40 4 q19 0 36 -4 q2 -291 2 -358 q-1 -6 -2 -15 q86 5 173 8 Z" /><glyph glyph-name="" unicode="&#x90fd;" d="M123 637 q47 1 107 2 q-2 44 -2 89 q16 2 37 4 q20 0 33 -2 q7 -46 11 -91 q92 0 131 -3 q2 -11 2 -26 l0 -27 q-16 -8 -128 -9 q4 -61 5 -120 l23 0 q47 55 96 110 q31 -14 55 -34 q-30 -39 -60 -77 q68 -2 107 -4 q1 -11 1 -26 l0 -28 q-22 -6 -161 -8 q-29 -34 -58 -68 q-42 -54 -77 -96 q1 -35 2 -65 q59 -2 129 -14 q0 -31 -10 -55 q-72 0 -118 8 q1 -38 1 -71 q17 -6 91 -6 q63 0 79 3 q4 28 4 71 q0 56 -2 133 q-60 0 -111 7 q-4 9 -4 28 q0 15 4 24 q96 0 174 -6 q6 -35 6 -186 q0 -103 -8 -118 q-40 -13 -142 -13 q-110 0 -158 19 q-7 42 -7 107 q0 27 1 53 q-3 -3 -6 -6 q-18 -22 -39 -39 q-39 11 -54 39 q46 58 168 206 q20 23 39 45 l-28 0 q-119 0 -171 7 q-3 13 -3 30 q0 17 1 28 q68 2 165 2 q-10 61 -14 121 q-72 1 -109 7 q-3 12 -3 28 q0 17 1 27 ZM606 566 q151 -4 296 -30 q-2 -84 -56 -206 q42 -55 70 -172 q-69 -37 -169 -45 q-13 18 -15 54 q40 12 102 28 q-28 58 -70 116 q26 89 50 173 q-114 6 -213 21 q0 35 5 61 ZM651 282 q41 -147 44 -264 q-15 -8 -53 -8 q-48 116 -48 267 q29 5 57 5 Z" /><glyph glyph-name="" unicode="&#x8bfb;" d="M561 513 q4 39 10 75 q-63 -3 -125 -3 q-5 29 -5 59 q69 6 142 10 q8 41 19 80 q15 1 32 1 q19 -1 26 -5 q-3 -37 -8 -74 q57 2 114 2 q2 -12 2 -27 l0 -28 q-63 -7 -126 -11 q-7 -40 -17 -79 q112 -1 247 -4 q0 -98 -10 -149 q-15 -1 -26 -1 q-21 0 -29 5 l0 84 q-206 0 -412 -2 q-5 14 -5 29 q0 19 4 31 q76 6 167 7 ZM671 337 q31 -8 48 -28 q-21 -43 -45 -86 q55 -3 109 -8 l0 -28 q0 -20 -4 -30 q-77 0 -143 1 q-12 -21 -26 -41 q118 -45 235 -97 q-11 -24 -32 -49 q-134 40 -241 90 q-38 -54 -80 -107 q-28 6 -42 25 q40 91 97 182 q-74 3 -131 8 q-4 7 -4 31 q0 15 5 31 q88 0 174 -4 q38 56 80 110 ZM434 377 q38 -33 69 -76 q-18 -19 -46 -38 q-39 28 -70 76 q22 22 47 38 ZM542 423 q40 -34 72 -76 q-17 -19 -44 -38 q-41 28 -74 76 q22 22 46 38 ZM115 472 q80 -13 169 -34 q-7 -159 -28 -313 q39 -4 80 -8 q0 -23 -4 -54 q-68 0 -149 10 q8 150 29 306 q-53 11 -106 30 q0 32 9 63 ZM214 652 q64 -9 139 -54 q-6 -29 -22 -54 q-77 6 -136 52 q7 30 19 56 Z" /><glyph glyph-name="" unicode="&#x65ad;" d="M869 667 q8 -28 8 -60 q-143 -46 -286 -58 q-13 23 -13 63 q139 34 291 55 ZM642 324 q-24 -145 -54 -276 l-41 6 q-15 4 -27 10 q24 204 87 444 q31 -4 60 -16 q-7 -55 -15 -108 q122 -5 249 -18 q0 -25 -6 -56 q-46 0 -91 2 q11 -144 11 -292 q-11 -5 -33 -5 q-19 0 -32 1 q-17 148 -18 300 q-47 3 -90 8 ZM144 580 q21 -2 31 -6 q0 -280 -8 -501 q79 -4 135 -5 q47 0 103 4 q2 -12 2 -23 q0 -23 -4 -35 q-47 0 -112 -6 q-108 0 -200 9 q0 83 4 294 q6 155 14 265 q17 4 35 4 ZM374 682 q12 -132 18 -258 q66 -4 129 -9 q0 -26 -8 -61 q-59 0 -117 3 q1 -28 2 -54 q52 -24 109 -60 q-10 -22 -28 -48 q-41 15 -78 36 q2 -66 2 -128 q-11 -4 -30 -4 q-20 0 -30 2 q-6 67 -12 132 q-4 -4 -7 -8 q-19 -21 -41 -47 q-23 -29 -47 -50 q-24 17 -40 42 q64 85 128 158 q-1 17 -2 33 q-57 3 -114 9 q0 35 7 64 q53 -2 104 -6 q-1 20 -2 39 q-66 32 -119 76 q13 25 29 45 q45 -20 87 -49 q-3 71 -4 139 q17 4 32 4 l32 0 ZM480 618 q25 -6 50 -17 q-16 -89 -63 -142 q-19 0 -48 14 q14 76 61 145 Z" /><glyph glyph-name="" unicode="&#x961f;" d="M742 634 q32 -18 60 -42 q-71 -134 -144 -267 q100 -88 202 -188 q-11 -31 -44 -55 q-106 82 -194 178 q-64 -116 -131 -232 q-34 16 -60 44 q121 242 311 562 ZM200 601 q136 -11 279 -58 q-39 -107 -99 -207 q33 -66 33 -184 q-18 -6 -48 -6 q-46 0 -82 3 q8 -33 12 -64 q-32 -13 -64 -13 q-39 104 -53 211 q30 11 60 13 q17 -43 29 -86 q43 -2 86 -4 q-16 68 -40 136 q33 76 68 152 q-93 24 -187 44 q0 35 6 63 Z" /><glyph glyph-name="" unicode="&#x594b;" d="M845 653 q3 -15 3 -31 l0 -32 q-229 -18 -461 -30 q-90 -135 -185 -262 q-36 11 -56 31 q70 115 147 227 q-76 -3 -152 -6 q-5 32 -5 64 q104 8 208 15 q36 50 73 100 q35 -11 63 -27 q-22 -34 -44 -68 q26 2 52 3 q176 11 357 16 ZM612 507 q108 -54 217 -121 q-11 -24 -34 -50 q-120 51 -215 114 q15 31 32 57 ZM369 150 q2 -45 3 -89 q53 -3 101 -4 q-4 43 -7 84 q-50 3 -97 9 ZM537 55 q63 -2 119 -2 q0 75 8 196 q-73 3 -137 9 q3 -33 5 -64 q31 -3 60 -6 q0 -23 -5 -51 q-27 0 -52 1 q2 -42 2 -83 ZM461 265 q-20 2 -38 4 q0 30 2 56 q175 -6 315 -19 q0 -207 -21 -305 q-48 -10 -251 -10 q-95 0 -161 19 q-10 126 -12 299 q33 4 67 4 q3 -54 5 -109 q48 -1 96 -5 q-1 34 -2 66 Z" /><glyph glyph-name="" unicode="&#x98ce;" d="M794 656 q7 -135 7 -313 q0 -156 -4 -243 q44 -8 91 -17 q0 -25 -3 -56 q-54 0 -156 15 q-4 293 -4 549 q-190 -6 -432 -11 q-2 28 -2 64 q249 9 503 12 ZM219 489 q18 0 30 -3 q5 -95 5 -174 q0 -125 -4 -221 q-7 -4 -30 -4 q-17 0 -24 4 q-12 98 -12 216 q0 86 5 179 q14 3 30 3 ZM549 503 q35 -6 56 -23 q-37 -75 -80 -148 q69 -50 133 -110 q-12 -27 -33 -45 q-75 41 -141 87 q-33 -55 -70 -109 q-32 1 -60 24 q36 65 73 128 q-47 38 -89 77 q14 25 30 45 q51 -26 99 -57 q40 67 82 131 Z" /><glyph glyph-name="" unicode="&#x5bcc;" d="M335 585 q154 0 360 -16 q0 -26 -5 -56 q-181 0 -357 18 l0 30 q0 12 2 24 ZM304 93 q1 -34 2 -67 q79 -3 153 -4 q-4 31 -7 59 q-78 4 -148 12 ZM525 21 q86 -2 165 -2 q0 62 8 163 q-99 3 -187 9 q4 -26 7 -50 q44 -3 86 -7 q0 -25 -6 -57 q-39 0 -75 1 q2 -30 2 -57 ZM444 196 q-31 3 -60 6 q0 30 2 56 q212 -6 382 -19 q0 -184 -19 -272 q-65 -11 -343 -11 q-95 0 -160 19 q-9 112 -11 265 q31 4 62 4 q3 -46 4 -92 q73 -2 146 -6 q-2 27 -3 50 ZM508 467 q103 0 172 -7 q4 -43 4 -92 q0 -45 -6 -81 q-39 -6 -119 -6 q-141 0 -241 10 q-4 41 -4 93 q0 32 4 78 q79 5 190 5 ZM384 406 l0 -65 l226 0 l0 65 l-226 0 ZM172 687 q17 0 33 -5 q0 -96 -12 -215 q-11 -3 -34 -3 q-23 0 -33 7 q0 142 12 215 q15 1 34 1 ZM301 691 q91 0 179 -2 q-6 38 -7 74 q11 7 33 9 q23 0 32 -5 q7 -38 8 -80 q151 -3 296 -10 q10 -97 10 -186 q-10 -4 -28 -4 q-13 0 -33 2 q-7 40 -14 127 q-235 0 -474 14 q-4 13 -4 32 q0 14 2 29 Z" /><glyph glyph-name="" unicode="&#x9ad8;" d="M153 676 q154 0 307 -4 q-13 37 -16 81 q26 12 60 17 q23 -35 34 -101 q158 -4 313 -13 l0 -27 q0 -21 -3 -31 q-437 0 -697 17 q-3 7 -3 30 q0 16 5 31 ZM680 560 q9 -48 9 -102 q0 -79 -4 -88 q-125 -16 -361 -16 q-23 78 -28 191 q176 15 384 15 ZM379 415 l243 7 l-4 79 l-246 -7 l7 -79 ZM330 319 q238 0 507 -21 q9 -119 9 -220 q0 -71 -7 -112 q-10 -13 -142 -13 q-10 26 -10 50 q40 6 87 8 q-2 116 -7 229 q-223 6 -443 21 q0 30 6 58 ZM199 312 q22 -2 29 -6 q-1 -160 -5 -322 q-8 -4 -34 -4 q-20 0 -33 6 q2 173 8 324 q16 2 35 2 ZM610 194 q15 -81 15 -168 q-116 -21 -255 -23 q-24 53 -30 170 q125 21 270 21 ZM428 61 l129 10 l-12 65 l-131 -8 l14 -67 Z" /><glyph glyph-name="" unicode="&#x4e2a;" d="M605 726 q26 -21 43 -45 q-24 -19 -48 -38 q163 -110 327 -235 q-10 -29 -41 -52 q-188 111 -341 244 q-188 -145 -423 -302 q-29 23 -44 49 q257 228 527 379 ZM504 374 q22 0 32 -4 q26 -166 26 -364 q-12 -4 -33 -4 q-25 0 -33 2 q-25 196 -25 364 q6 4 33 6 Z" /><glyph glyph-name="" unicode="&#x5404;" d="M400 682 q167 -14 361 -53 q-23 -49 -93 -118 q-35 -38 -78 -77 q133 -42 262 -87 q-8 -29 -22 -56 q-153 38 -303 86 q-118 -107 -274 -202 q-25 22 -43 49 q133 86 244 177 q-78 25 -154 53 q7 36 21 61 q99 -28 198 -59 q71 61 131 124 q-128 23 -258 41 q0 30 8 61 ZM327 761 q33 -7 62 -21 q-6 -27 -96 -171 q-95 -161 -117 -173 q-35 11 -56 30 q11 27 97 169 q85 134 110 166 ZM558 231 q137 -5 242 -20 q0 -143 -21 -251 q-181 0 -398 20 q0 117 15 251 q18 2 36 2 q18 0 32 -4 q-7 -98 -13 -193 q128 -7 265 -13 q8 69 11 136 q-81 5 -175 15 q0 29 6 57 Z" /><glyph glyph-name="" unicode="&#x5de5;" d="M238 571 q274 -5 546 -30 q0 -29 -6 -55 q-126 0 -248 5 q7 -171 7 -346 q128 -7 256 -15 l0 -27 q0 -22 -4 -35 q-289 3 -585 29 q-4 12 -4 33 q0 16 7 31 q127 -6 255 -12 q-13 171 -14 346 q-109 6 -216 16 q0 31 6 60 Z" /><glyph glyph-name="" unicode="&#x6c9f;" d="M191 630 q76 -8 166 -50 q-8 -31 -24 -59 q-92 6 -162 48 q7 33 20 61 ZM133 371 q83 -5 157 -13 q-2 -17 -5 -33 q-2 -23 -7 -35 q-38 0 -76 4 q-38 3 -76 9 q0 33 7 68 ZM297 161 q21 -28 30 -58 q-58 -43 -124 -58 q-21 28 -31 56 q61 39 125 60 ZM545 491 q-55 -56 -123 -119 q-35 16 -52 37 q106 146 264 269 q29 -16 45 -35 q-32 -42 -78 -92 q142 -21 294 -48 q0 -201 -58 -511 q-7 -4 -37 -4 q-41 0 -93 13 q0 16 1 51 q35 -5 67 -7 q35 199 42 402 q-138 23 -272 44 ZM687 296 q32 -42 44 -128 q-24 -13 -49 -16 q-36 53 -43 131 q20 9 48 13 ZM521 382 q29 -2 59 -12 q-16 -47 -49 -134 q42 -5 90 -10 q-1 -27 -7 -56 q-86 5 -163 20 q29 107 70 192 Z" /><glyph glyph-name="" unicode="&#x602a;" d="M150 483 q15 -155 23 -303 q-33 -6 -66 -6 q-21 150 -27 303 q33 6 70 6 ZM304 378 q4 -128 4 -268 q-12 -3 -33 -3 q-25 0 -33 1 q-12 258 -12 478 q6 4 33 6 q22 0 31 -4 q4 -70 7 -144 q71 -5 145 -19 q0 -27 -6 -60 q-73 0 -136 13 ZM462 547 q94 -24 188 -50 q36 54 70 106 q-137 9 -255 22 q0 32 7 59 q171 -1 353 -25 q-35 -86 -99 -184 q99 -28 197 -58 q-7 -30 -23 -58 q-108 23 -218 53 q-34 -48 -73 -96 q-36 14 -59 35 q29 41 56 82 q-83 23 -167 50 q8 38 23 64 ZM736 242 q88 0 141 -7 q3 -8 3 -28 q0 -21 -3 -28 q-13 -5 -141 -5 l-32 0 q1 -34 1 -65 q0 -19 -2 -34 q108 -1 156 -6 q2 -11 2 -27 l0 -29 q-23 -8 -204 -8 q-125 0 -180 8 q-4 14 -4 31 q0 18 2 29 q64 2 154 2 q-2 14 -2 28 q0 36 1 71 q-165 1 -184 5 q-3 12 -3 30 q0 16 5 30 q86 2 184 3 q1 30 2 60 q16 4 34 4 q19 0 33 -4 q2 -31 3 -60 l34 0 Z" /><glyph glyph-name="" unicode="&#x5173;" d="M162 305 q116 0 232 -2 q39 82 87 179 q-156 4 -271 10 q-4 7 -4 31 q0 16 6 32 q305 0 606 -16 l0 -28 q0 -21 -4 -32 q-141 0 -258 2 q-41 -94 -80 -179 q184 -3 365 -10 l0 -28 q0 -22 -3 -33 q-222 0 -395 3 q-68 -141 -133 -256 q-33 9 -53 29 q33 79 104 228 q-112 2 -201 5 q-3 7 -3 32 q0 17 5 33 ZM629 126 q80 -38 153 -104 q-12 -29 -34 -47 q-83 44 -149 104 q14 27 30 47 ZM309 731 q46 -54 83 -118 q-21 -19 -51 -33 q-49 55 -83 117 q22 18 51 34 ZM733 734 q28 -10 54 -31 q-36 -67 -85 -136 q-34 9 -62 37 q43 67 93 130 Z" /><glyph glyph-name="" unicode="&#x89c2;" d="M759 183 q18 0 33 -4 q4 -65 5 -133 q48 0 100 -2 l0 -25 q0 -22 -2 -28 q-13 -6 -67 -6 q-64 0 -101 8 q0 88 1 188 q12 2 31 2 ZM516 689 q18 0 33 -8 q3 -137 3 -271 q0 -86 -3 -166 q-11 -2 -33 -2 q-18 0 -29 2 q-11 79 -11 161 q0 136 9 276 q17 8 31 8 ZM591 713 q141 -3 293 -19 q4 -39 4 -264 q-4 -166 -13 -183 q-7 -3 -31 -3 q-19 0 -28 7 q0 238 -3 384 q-47 0 -111 7 q-88 5 -114 9 q0 37 3 62 ZM712 554 q34 -6 59 -21 q-95 -279 -225 -558 q-31 5 -55 25 q102 291 221 554 ZM232 568 q116 -1 186 -7 q-2 -59 -89 -274 q72 -25 141 -54 q-2 -28 -13 -53 q-63 0 -158 34 q-29 -68 -62 -144 q-37 7 -58 26 q24 73 48 146 q-49 20 -104 48 q3 31 13 55 q59 -14 116 -32 q32 94 65 187 q-64 -2 -124 -2 q-63 0 -71 2 q-7 28 -7 59 q50 7 117 9 Z" /><glyph glyph-name="" unicode="&#x5e7f;" d="M161 637 q161 0 319 -7 q2 63 10 99 q16 2 36 2 q18 0 34 -6 q0 -45 -6 -98 q147 -7 290 -21 q0 -31 -5 -61 q-260 0 -510 17 q-24 -123 -52 -242 q-18 -69 -34 -143 q-13 -72 -39 -138 q-15 0 -34 5 q-15 5 -27 13 q50 246 118 509 q-55 3 -107 8 q0 35 7 63 Z" /><glyph glyph-name="" unicode="&#x6c49;" d="M139 402 q63 0 142 -13 q0 -36 -12 -65 q-90 0 -139 15 q0 31 9 63 ZM221 659 q68 -7 148 -48 q-7 -32 -24 -60 q-81 6 -144 47 q7 34 20 61 ZM314 152 q21 -28 29 -58 q-58 -44 -124 -59 q-21 28 -32 56 q62 40 127 61 ZM485 638 q84 -26 176 -51 q134 -37 195 -57 q-85 -182 -181 -357 q77 -53 152 -107 q-10 -28 -39 -49 q-78 44 -149 91 q-34 -61 -68 -119 q-35 10 -59 28 q34 66 68 131 q-86 61 -163 127 q17 29 37 46 q81 -52 161 -107 q72 137 145 268 q-162 44 -302 93 q11 33 27 63 Z" /><glyph glyph-name="" unicode="&#x548c;" d="M498 681 q14 -27 14 -62 q-191 -39 -363 -56 q-12 27 -12 58 q182 50 361 60 ZM130 426 q81 -3 163 -5 q1 64 4 129 q16 4 34 4 q19 0 33 -4 q4 -71 5 -132 q76 -3 150 -6 l0 -27 q0 -21 -4 -35 q-72 1 -145 3 l0 -78 q59 -19 119 -35 q0 -26 -9 -61 q-60 8 -111 27 q-2 -93 -6 -171 q-8 -4 -33 -4 q-20 0 -28 4 q-6 77 -8 160 q-59 -33 -159 -66 q-15 22 -21 49 q84 61 179 94 q-1 40 -1 79 l0 4 q-82 2 -166 7 q-4 11 -4 33 q0 15 8 31 ZM682 443 q113 -5 203 -18 q0 -169 -19 -249 q-21 -13 -111 -13 q-97 0 -164 19 q-20 101 -25 238 q32 4 64 4 q15 -91 23 -189 q85 -5 156 -5 q0 53 7 140 q-75 5 -136 19 q0 29 2 54 Z" /><glyph glyph-name="" unicode="&#x6237;" d="M204 601 q115 0 227 -2 q16 0 29 -1 q-8 52 -11 105 q37 4 68 6 q11 -58 15 -113 q124 -5 223 -14 q12 -37 12 -162 q0 -46 -10 -54 q-62 -31 -380 -31 q-7 9 -7 29 q0 20 3 31 q75 9 321 24 q0 30 -3 102 q-165 2 -489 19 q-2 16 -2 30 q0 19 4 31 ZM277 482 q36 -6 63 -23 q-96 -303 -157 -423 q-40 6 -63 25 q77 225 157 421 Z" /><glyph glyph-name="" unicode="&#x6b22;" d="M261 568 q117 -1 186 -7 q-2 -59 -89 -274 q71 -24 141 -54 q-1 -28 -13 -53 q-63 0 -158 34 q-29 -68 -62 -144 q-36 7 -58 26 q24 73 49 145 q-50 21 -105 49 q4 31 13 55 q59 -14 116 -33 q32 95 65 188 q-63 -2 -124 -2 q-62 0 -70 2 q-8 28 -8 59 q51 7 117 9 ZM605 644 q39 -4 65 -20 q-20 -54 -37 -98 q46 -4 94 -11 q110 -17 165 -30 q-9 -62 -64 -166 q-35 4 -70 18 q24 53 43 98 q-99 12 -195 30 q-29 -66 -53 -103 q-39 0 -63 16 q44 153 115 266 ZM627 330 q38 -6 66 -24 q-32 -74 -59 -128 q93 -34 188 -75 q-6 -14 -14 -26 q-7 -14 -18 -26 q-98 22 -187 66 q-30 -55 -54 -88 q-41 6 -65 26 q70 147 143 275 Z" /><glyph glyph-name="" unicode="&#x6d3b;" d="M722 457 q90 0 145 -7 q4 -8 4 -29 q0 -22 -4 -29 q-14 -5 -145 -5 l-59 0 q2 -58 2 -116 q92 -5 171 -13 q0 -179 -19 -264 q-43 -13 -226 -13 q-94 0 -160 20 q-16 101 -20 240 q31 4 62 4 q12 -92 19 -194 q145 -4 266 -4 q0 58 8 152 q-123 5 -224 21 q0 30 2 57 q25 -1 50 -2 q-7 57 -10 112 q-184 1 -206 5 q-3 12 -3 31 q0 17 5 30 q94 2 199 3 q-4 70 -4 139 q-85 -10 -167 -15 q-13 23 -13 63 q208 35 434 57 q7 -29 7 -61 q-93 -21 -185 -34 q6 -74 9 -148 l62 0 ZM105 402 q63 0 141 -13 q0 -36 -11 -65 q-90 0 -139 15 q0 31 9 63 ZM187 659 q68 -7 148 -48 q-7 -32 -24 -60 q-82 6 -144 47 q7 34 20 61 ZM279 152 q21 -28 30 -58 q-58 -44 -124 -59 q-21 28 -32 56 q62 40 126 61 Z" /><glyph glyph-name="" unicode="&#x8f91;" d="M683 703 q84 0 141 -7 q4 -51 4 -109 q0 -44 -6 -81 q-41 -6 -123 -6 q-100 0 -171 10 q-4 48 -4 108 q0 33 4 79 q64 6 155 6 ZM592 639 l0 -76 l163 0 l0 76 l-163 0 ZM482 452 q210 -2 419 -13 q0 -26 -6 -51 q-210 0 -418 9 q0 28 5 55 ZM561 347 q20 0 33 -2 q2 -20 4 -40 q46 4 93 6 q4 -24 4 -52 q-49 -6 -94 -8 q2 -23 3 -42 q43 3 88 5 q4 -25 4 -53 q-47 -4 -90 -5 q1 -26 1 -51 q87 6 178 9 q-4 120 -4 226 q6 4 33 6 q21 0 31 -4 q7 -107 10 -227 l31 0 q2 -11 2 -25 l0 -26 q-16 -2 -32 -3 q1 -43 1 -88 q-12 -4 -33 -4 q-26 0 -33 2 q-2 43 -4 83 q-148 -12 -292 -12 q-5 26 -5 54 q25 3 49 4 q-15 121 -15 243 q16 2 37 4 ZM122 564 q53 0 104 -2 q23 52 48 107 q26 -10 55 -27 q-16 -44 -30 -83 q69 -3 136 -9 l0 -28 q0 -20 -3 -30 q-87 0 -157 2 q-25 -69 -49 -131 q37 -1 73 -3 q1 39 3 77 q14 4 29 4 q16 0 28 -4 q2 -42 3 -80 q37 -1 74 -3 q0 -30 -6 -58 q-36 0 -66 1 l0 -24 q0 -39 0 -75 q38 1 73 1 q4 -11 4 -25 q0 -16 -4 -27 q-27 -5 -74 -9 q-2 -66 -5 -120 q-6 -3 -28 -3 q-17 0 -23 3 q-5 56 -7 115 q-67 -5 -158 -9 q-14 22 -14 61 q89 8 170 11 q-1 36 -1 72 l0 31 q-128 4 -170 16 q24 68 69 177 q1 3 2 5 q-43 2 -77 5 q-4 7 -4 31 q0 15 5 31 Z" /><glyph glyph-name="" unicode="&#x5df1;" d="M240 696 q119 0 234 -2 q173 -5 304 -16 q12 -36 12 -158 q0 -177 -15 -205 q-74 -13 -412 -14 l0 -219 q138 -8 280 -10 q0 26 4 49 q27 0 55 -6 q0 -54 -10 -103 q-232 0 -395 17 q-1 138 -1 272 q-16 0 -31 0 q-8 9 -8 30 q0 21 4 32 q105 3 452 7 q0 72 3 245 q-162 2 -478 18 q-2 16 -2 31 q0 19 4 32 Z" /><glyph glyph-name="" unicode="&#x6280;" d="M231 517 q-4 57 -6 114 q31 6 64 8 q6 -61 11 -122 q69 -1 114 -7 q3 -8 3 -29 q0 -23 -3 -30 q-12 -5 -108 -6 q5 -64 9 -127 q41 2 79 2 q4 -12 4 -26 q0 -16 -4 -29 q-26 -7 -75 -13 q6 -74 9 -147 q-26 -10 -65 -10 q-8 76 -13 149 q-53 -5 -120 -10 q-14 22 -14 63 q67 10 128 16 q-5 67 -9 132 q-115 1 -127 6 q-3 12 -3 31 q0 18 5 32 q56 2 121 3 ZM656 715 q21 0 35 -2 q1 -55 2 -111 q12 0 23 0 q96 0 154 -7 q4 -9 4 -30 q0 -24 -4 -31 q-14 -6 -154 -6 q-12 0 -22 0 q1 -65 1 -130 q-12 -5 -34 -5 q-19 0 -33 1 q-4 68 -6 134 q-119 2 -133 6 q-3 13 -3 32 q0 18 5 33 q61 2 129 2 q-1 56 -1 110 q17 2 37 4 ZM537 209 q74 -21 145 -43 q33 67 68 133 q-115 -1 -224 -1 q-61 0 -69 2 q-8 27 -8 57 q50 7 115 9 q176 -1 282 -8 q-2 -44 -94 -214 q63 -20 122 -41 q-7 -32 -21 -59 q-70 17 -135 38 q-26 -47 -56 -99 q-35 7 -55 25 q22 48 44 95 q-69 22 -134 48 q8 35 20 58 Z" /><glyph glyph-name="" unicode="&#x5b63;" d="M654 763 q9 -30 9 -65 q-73 -11 -145 -19 q5 -53 8 -105 l79 0 q90 0 145 -7 q3 -8 3 -29 q0 -22 -3 -29 q-14 -5 -145 -5 l-75 0 q4 -63 6 -126 q-17 -4 -36 -6 q-12 -2 -35 -2 q-6 68 -9 134 q-211 1 -235 5 q-4 12 -4 31 q0 17 5 31 q108 2 230 3 q-3 50 -5 98 q-84 -8 -168 -11 q-15 24 -15 67 q187 22 390 35 ZM280 421 q21 -28 30 -58 q-57 -44 -123 -58 q-21 28 -32 56 q62 39 125 60 ZM358 331 q98 0 265 -31 q0 -23 -53 -139 q9 -17 15 -32 q75 -1 113 -4 q2 -12 2 -27 l0 -29 q-15 -6 -93 -9 q14 -59 14 -123 q-26 -11 -62 -11 q-57 0 -77 9 q0 23 2 38 q29 4 63 4 q-5 41 -15 82 l-46 0 q-125 0 -180 8 q-4 13 -4 31 q0 17 2 29 q74 2 184 2 l26 0 q-7 22 -15 43 q14 36 28 70 q-85 14 -169 27 l0 62 ZM713 443 q73 -32 149 -73 q-5 -15 -15 -28 q-7 -15 -19 -29 q-79 23 -151 71 q13 34 36 59 Z" /><glyph glyph-name="" unicode="&#x8ba1;" d="M115 476 q90 -12 190 -31 q-6 -159 -26 -313 q34 -4 71 -8 q0 -22 -4 -52 q-62 0 -137 10 q8 153 28 311 q-65 11 -130 27 q0 28 8 56 ZM174 647 q62 -8 136 -49 q-6 -24 -18 -45 q-76 6 -134 47 q6 25 16 47 ZM648 714 q19 0 35 -4 q0 -152 -3 -290 q98 -5 196 -11 q6 -15 6 -35 q0 -14 -6 -30 q-100 1 -196 6 q0 -175 -3 -335 q-11 -2 -34 -2 q-18 0 -31 3 q-7 167 -8 337 q-94 5 -187 12 q-5 18 -5 34 q0 17 5 33 q94 -3 187 -8 q1 142 11 288 q15 2 33 2 Z" /><glyph glyph-name="" unicode="&#x8bb0;" d="M133 469 q90 -12 190 -31 q-6 -159 -26 -314 q34 -4 71 -8 q0 -22 -4 -52 q-62 0 -137 10 q8 153 28 312 q-65 10 -130 27 q0 28 8 56 ZM191 639 q63 -8 136 -48 q-5 -24 -18 -46 q-75 6 -133 47 q6 26 15 47 ZM446 652 q319 -12 420 -31 q9 -53 9 -111 q0 -159 -7 -217 q-59 -9 -274 -12 q0 -139 -4 -158 q69 -7 206 -11 q0 -37 -3 -58 q-17 -5 -94 -5 q-115 2 -176 14 q-7 0 -7 149 q0 29 5 69 q-19 0 -37 0 q-5 30 -5 58 q115 9 328 12 q-4 104 -4 209 q-177 15 -362 31 q0 30 5 61 Z" /><glyph glyph-name="" unicode="&#x4f73;" d="M876 455 q2 -11 2 -27 l0 -29 q-233 -19 -461 -19 q-5 29 -5 60 q99 7 203 10 q-4 60 -6 118 q-88 4 -174 11 q0 30 6 58 q84 -1 166 -5 q0 39 -1 77 q11 7 33 9 q25 0 34 -4 q3 -42 5 -85 q97 -5 192 -13 q0 -28 -6 -54 q-93 0 -184 3 q2 -56 2 -113 q96 3 194 3 ZM651 342 q24 0 32 -4 q5 -50 8 -103 q70 4 142 6 q3 -27 3 -58 q-73 -7 -141 -10 q2 -52 3 -104 q119 -1 174 -6 q2 -12 2 -27 l0 -28 q-29 -8 -255 -8 q-122 0 -175 8 q-4 13 -4 30 q0 17 2 29 q72 2 179 2 l12 0 q-4 52 -7 101 q-67 -3 -129 -3 q-5 27 -5 57 q64 5 130 8 q-2 51 -3 101 q11 7 32 9 ZM352 525 q14 -25 14 -58 q-64 -24 -125 -42 q33 -134 48 -277 q-30 -9 -63 -9 q-34 133 -53 267 q-44 -11 -87 -19 q-11 25 -11 55 q140 69 277 83 Z" /><glyph glyph-name="" unicode="&#x52a0;" d="M318 659 q38 -7 66 -24 q-20 -59 -40 -115 q83 -9 167 -22 q2 -90 2 -166 q0 -94 -13 -151 q-61 -8 -145 -8 q-6 29 -6 59 q43 3 90 5 q2 68 2 193 q-63 8 -124 16 q-68 -182 -150 -362 q-35 5 -61 27 q61 179 128 346 q-67 9 -131 18 q-2 13 -2 34 q0 15 4 30 q79 -4 158 -11 q27 67 55 131 ZM708 444 q114 -5 205 -18 q0 -170 -20 -251 q-20 -14 -107 -14 q-100 0 -169 21 q-16 105 -19 250 q32 4 65 4 q11 -96 17 -201 q84 -5 155 -5 q0 53 7 138 q-75 6 -136 21 q0 29 2 55 Z" /><glyph glyph-name="" unicode="&#x95f4;" d="M341 735 q59 -32 120 -74 q-5 -15 -15 -29 q-8 -15 -20 -29 q-64 23 -122 72 q14 35 37 60 ZM230 488 q16 0 28 -3 q7 -235 7 -508 q-11 -4 -29 -4 q-15 0 -29 2 q-9 100 -9 272 q0 181 4 238 q12 3 28 3 ZM591 620 q122 -7 250 -24 q6 -164 6 -289 q0 -199 -9 -307 q-30 -2 -59 -2 q-37 0 -65 4 q-6 12 -6 27 q0 14 2 24 q34 2 65 2 q2 242 2 482 q-93 10 -190 25 l0 29 q0 12 4 29 ZM469 451 q91 -7 173 -19 q8 -93 8 -145 q0 -137 -14 -191 q-40 -9 -146 -9 q-68 0 -121 9 q-9 70 -9 173 q0 99 3 173 q18 6 31 6 q12 0 25 -2 q3 -70 6 -133 q53 -5 102 -13 q0 -21 -7 -50 q-46 0 -93 7 q1 -57 1 -107 q17 -3 62 -3 q73 0 91 5 q4 39 4 223 q-61 10 -118 18 q-2 19 -2 28 q0 13 4 30 Z" /><glyph glyph-name="" unicode="&#x8282;" d="M186 633 q71 0 141 -1 q-4 37 -6 73 q32 5 68 5 q5 -41 10 -79 q110 -2 217 -6 q7 51 17 98 q17 2 35 2 q21 -2 28 -5 q-2 -49 -8 -98 q71 -3 139 -6 l0 -27 q0 -21 -4 -31 l-144 0 q-6 -42 -14 -82 q-7 -3 -32 -3 q-20 0 -33 5 q3 42 7 81 q-109 1 -201 4 q5 -44 9 -86 q-33 -5 -65 -5 q-9 47 -15 93 q-83 3 -151 7 q-3 7 -3 30 q0 16 5 31 ZM359 329 q-72 0 -139 1 q-6 18 -6 32 q0 14 6 30 q113 4 375 4 q74 0 167 -7 q6 -71 6 -158 l0 -139 q-20 -4 -67 -4 q-41 0 -72 4 q-4 14 -4 28 l0 23 q38 4 74 4 q0 77 -5 177 q-141 2 -272 4 q13 -195 14 -376 q-10 -5 -29 -5 q-19 0 -29 3 q-17 192 -19 379 Z" /><glyph glyph-name="" unicode="&#x754c;" d="M292 498 q-4 -49 -8 -98 q46 -18 176 -26 q-4 51 -6 113 q-82 4 -162 11 ZM523 371 q86 -3 195 -3 q18 141 20 280 q-160 11 -352 32 q0 34 8 61 q206 -10 418 -31 q0 -196 -31 -397 q-36 -9 -151 -9 q-307 9 -417 42 q0 177 29 346 q33 0 64 -6 q-4 -65 -10 -129 q81 -2 159 -6 q1 44 9 82 q14 4 29 4 q16 0 28 -4 q5 -50 6 -87 q77 -6 152 -13 q0 -27 -6 -52 q-74 0 -146 3 q-1 -67 -4 -113 ZM349 304 q24 -24 35 -53 q-94 -65 -218 -125 q-26 22 -37 48 q94 67 220 130 ZM668 196 q11 -113 17 -221 q-32 -5 -64 -5 q-16 109 -21 220 q32 6 68 6 ZM373 182 q18 0 34 -6 q0 -90 -6 -201 q-12 -4 -35 -4 q-24 0 -33 8 q0 132 5 201 q16 2 35 2 ZM723 284 q72 -35 146 -80 q-5 -14 -14 -26 q-7 -14 -17 -27 q-78 25 -148 79 q12 31 33 54 Z" /><glyph glyph-name="" unicode="&#x7ecf;" d="M649 237 q-73 5 -144 14 q0 27 5 52 q170 -4 339 -24 q0 -25 -6 -49 q-66 0 -131 4 q4 -81 4 -149 l0 -8 q110 -1 161 -6 q1 -11 1 -26 l0 -28 q-26 -7 -236 -7 q-119 0 -171 7 q-4 13 -4 30 q0 17 2 28 q71 2 175 2 l0 3 q0 77 5 157 ZM492 693 q142 -2 287 -15 q0 -51 -256 -350 q-27 12 -53 33 q130 166 209 264 q-90 5 -198 9 q0 32 11 59 ZM735 524 q81 -44 155 -97 q-11 -27 -35 -55 q-80 42 -161 99 q19 31 41 53 ZM236 661 q33 -8 58 -19 q-39 -106 -87 -216 q46 -2 99 -5 q31 51 65 105 q27 -9 56 -27 q-77 -142 -144 -259 q62 -5 126 -11 q0 -30 -6 -57 q-178 2 -222 21 q31 65 89 167 q1 1 1 2 q-78 2 -147 11 q49 147 112 288 ZM409 117 q11 -29 11 -56 q-121 -33 -255 -42 q-9 27 -11 56 q115 29 255 42 Z" /><glyph glyph-name="" unicode="&#x5c31;" d="M321 721 q33 -3 70 -12 q-5 -52 -15 -101 q77 -5 159 -12 q0 -30 -6 -64 q-209 0 -412 23 l0 34 q0 14 2 28 q83 0 179 -5 q9 59 23 109 ZM210 192 q25 -20 38 -51 q-33 -42 -107 -92 q-25 25 -37 53 q45 44 106 90 ZM460 199 q45 -37 81 -83 q-18 -19 -46 -39 q-45 31 -82 83 q23 23 47 39 ZM729 619 q38 -3 65 -21 q-17 -50 -53 -155 q89 -3 187 -10 q0 -29 -6 -63 q-103 0 -204 5 q-42 -125 -102 -306 q-35 5 -61 20 q29 132 84 291 q-45 4 -90 8 l0 33 q0 14 2 27 q53 0 112 -2 q30 83 66 173 ZM832 580 q55 -22 105 -59 q-13 -29 -36 -48 q-56 25 -101 58 q15 28 32 49 ZM773 295 q34 -4 64 -9 q-8 -57 -16 -127 q48 -7 102 -16 q-4 -30 -11 -59 q-87 7 -165 25 q12 104 26 186 ZM273 469 q90 0 201 -14 q9 -26 9 -128 q0 -62 -9 -80 q-26 -4 -102 -6 q14 -116 18 -234 q-22 -12 -72 -12 q-40 0 -60 5 q-7 25 -7 48 q38 4 71 4 q-14 96 -16 189 q-98 0 -140 13 q-9 33 -9 69 q0 63 11 131 q12 4 27 4 q17 0 28 -4 l0 -151 q85 -6 190 -6 q2 54 2 105 q-78 7 -145 19 l0 26 q0 12 3 22 Z" /><glyph glyph-name="" unicode="&#x8003;" d="M440 270 q-43 -54 -78 -94 q-24 -30 -45 -53 q-19 -22 -40 -41 q-37 11 -52 37 q48 62 175 217 q19 22 37 44 q-160 -7 -322 -9 q-4 28 -4 58 q136 8 286 15 q-6 74 -9 146 q-118 3 -232 9 q0 32 6 57 q113 0 224 -2 q-1 49 -1 97 q17 2 38 4 q21 0 34 -2 q3 -51 4 -101 q129 -4 255 -11 q0 -28 -5 -56 q-126 0 -248 3 q2 -70 2 -141 q15 0 31 1 q51 60 105 121 q29 -13 51 -32 q-32 -43 -65 -85 q120 4 246 8 q4 -11 4 -28 q0 -22 -2 -32 q-151 -10 -302 -17 q-29 -35 -58 -68 q-5 -6 -8 -10 q23 -1 44 -5 q-1 -13 -1 -25 q86 11 180 16 q4 -26 4 -56 q-98 -15 -187 -16 q-1 -20 -2 -38 q140 -8 292 -16 q0 -157 -11 -202 q-86 0 -228 7 q-3 12 -3 31 q0 15 5 21 q91 0 170 -2 q1 45 2 87 q-161 10 -300 21 q0 67 8 142 Z" /><glyph glyph-name="" unicode="&#x9760;" d="M331 273 q49 0 84 -3 q2 17 5 32 q24 -2 58 -10 q-20 -168 -49 -342 q-41 0 -62 14 q4 27 8 53 q-88 -3 -181 -4 q-9 26 -11 53 q91 4 200 6 q3 20 6 40 q-75 1 -152 10 q0 30 5 55 q80 -3 156 -9 q3 23 7 45 l-78 0 q-42 0 -63 4 q-5 10 -5 25 q0 16 3 28 q16 3 69 3 ZM673 249 q80 0 126 -1 q3 -12 3 -28 q0 -13 -1 -25 q-41 -6 -131 -6 q-26 0 -42 1 q0 -14 -1 -27 q95 -5 179 -15 q-2 -14 -4 -29 q-2 -20 -6 -31 q-52 0 -104 6 q-35 3 -68 7 q-1 -21 -3 -41 q18 1 44 1 q101 0 158 2 q4 -12 4 -28 q0 -15 -2 -27 q-50 -10 -164 -10 q-28 0 -45 1 q-3 -30 -7 -59 q-27 0 -57 4 q0 163 21 335 q27 0 56 -4 l0 -27 q18 1 44 1 ZM309 780 q28 -7 59 -21 q-9 -19 -18 -36 q60 -1 125 -4 q-1 30 -1 60 q16 2 37 4 q20 0 33 -2 q3 -33 4 -66 q105 -6 220 -16 q0 -27 -5 -56 q-108 0 -212 6 q1 -29 1 -56 q74 3 149 3 q2 -10 2 -24 l0 -27 q-186 -17 -367 -17 q-6 26 -6 54 q76 6 155 9 q-4 32 -6 62 q-81 5 -160 13 q-30 -50 -68 -98 q-32 7 -55 26 q52 101 113 186 ZM453 503 q110 0 244 -15 q10 -15 10 -72 q0 -62 -10 -81 q-41 -5 -201 -5 q-101 0 -145 13 q-10 34 -10 71 q0 27 5 56 q12 4 28 4 q17 0 29 -4 q7 -26 7 -76 q101 -7 226 -7 q2 22 2 44 q-101 7 -189 20 l0 28 q0 13 4 24 Z" /><glyph glyph-name="" unicode="&#x9897;" d="M190 709 q141 -2 276 -16 q8 -51 8 -239 q0 -77 -4 -113 q-42 -8 -133 -9 q3 -32 5 -64 q63 2 127 2 q2 -12 2 -28 l0 -29 q-64 -6 -126 -9 q6 -102 8 -201 q-33 -18 -133 -18 q-6 25 -6 53 q31 4 63 9 q-3 78 -7 153 q-75 -3 -148 -3 q-5 29 -5 60 q73 6 150 9 q-2 34 -4 67 q-78 2 -149 15 q-13 31 -13 108 q0 48 9 173 q13 4 32 4 q15 0 30 -4 l0 -92 q37 1 81 1 q-2 28 -3 56 q27 6 63 10 q4 -34 7 -66 q37 -2 53 -8 q2 -10 2 -24 l0 -26 q-7 -4 -49 -5 q3 -39 6 -76 q37 -1 73 -1 q4 18 4 56 q0 81 -2 181 q-171 9 -213 14 q-5 9 -5 32 q0 14 1 28 ZM260 401 q-2 38 -4 74 q-51 1 -84 4 l0 -73 q45 -3 88 -5 ZM401 162 q48 -23 102 -60 q-10 -25 -31 -53 q-56 21 -106 60 q18 31 35 53 ZM184 158 q29 -19 39 -47 q-48 -52 -103 -89 q-28 19 -43 45 q43 52 107 91 ZM519 714 q189 -5 377 -31 q0 -26 -6 -50 q-90 0 -177 6 q-18 -73 -30 -104 q-37 0 -60 15 q9 52 22 95 q-67 6 -131 15 q0 28 5 54 ZM540 499 q30 0 63 -4 q0 -165 -15 -314 q-30 0 -63 4 q0 153 15 314 ZM639 517 q119 -1 247 -16 q0 -172 -7 -307 q-13 -3 -30 -3 q-18 0 -29 7 l0 245 q-92 4 -181 18 q-4 11 -4 29 q0 15 4 27 ZM714 374 q34 -6 59 -21 q-35 -102 -77 -202 q89 -38 169 -101 q-7 -24 -26 -50 q-76 27 -169 90 q-28 -66 -59 -131 q-31 5 -54 25 q72 205 157 390 Z" /><glyph glyph-name="" unicode="&#x53ef;" d="M119 690 q387 -14 775 -36 q6 -17 6 -37 q0 -15 -6 -32 q-394 5 -775 34 q-5 19 -5 36 q0 18 5 35 ZM770 407 q48 -198 56 -391 q-35 -18 -142 -18 q-5 24 -5 51 q34 4 71 9 q-21 174 -43 340 q27 6 63 9 ZM278 370 q123 0 223 -6 q7 -33 7 -174 q0 -110 -9 -127 q-45 -13 -163 -13 q-118 0 -169 20 q-8 44 -8 113 q0 80 6 157 q16 4 36 4 q18 0 32 -4 q4 -128 4 -223 q19 -6 99 -6 q76 0 96 3 q4 30 4 76 q0 48 -2 113 q-85 0 -156 9 q-4 10 -4 31 q0 17 4 27 Z" /><glyph glyph-name="" unicode="&#x7a7a;" d="M198 655 q17 0 33 -5 q0 -84 -11 -188 q-11 -4 -35 -4 q-23 0 -33 8 q0 124 11 187 q15 2 35 2 ZM532 753 q19 0 37 -6 q0 -43 -1 -93 q145 -4 294 -13 q0 -97 -9 -172 q-14 -4 -32 -4 q-21 0 -33 8 l0 108 q-230 3 -453 19 q-3 11 -3 30 q0 15 3 28 q78 0 158 -2 l0 95 q18 2 39 2 ZM351 527 q35 -7 59 -25 q-26 -76 -79 -156 q-35 10 -60 27 q29 80 80 154 ZM332 54 q69 2 170 2 l2 0 q2 80 4 151 q-174 1 -194 5 q-3 12 -3 31 q0 17 5 31 q125 3 276 3 q91 0 145 -7 q4 -8 4 -29 q0 -22 -4 -29 q-13 -5 -145 -5 l-10 0 q0 -76 -2 -151 q74 -1 110 -3 q2 -11 2 -26 l0 -27 q-21 -9 -192 -9 q-115 0 -166 8 q-3 12 -3 28 q0 17 1 27 ZM579 519 q66 -35 126 -96 q-13 -30 -36 -48 q-67 40 -122 96 q15 27 32 48 Z" /><glyph glyph-name="" unicode="&#x9614;" d="M336 738 q57 -32 116 -74 q-6 -15 -16 -29 q-8 -16 -19 -29 q-62 22 -118 72 q14 35 37 60 ZM208 527 q15 0 28 -3 q11 -253 11 -547 q-11 -4 -28 -4 q-16 0 -30 2 q-17 108 -17 292 q0 196 7 257 q13 3 29 3 ZM580 650 q131 -9 269 -29 q6 -164 6 -289 q0 -215 -10 -332 q-29 -2 -58 -2 q-38 0 -65 4 q-6 12 -6 27 q0 14 2 24 q33 2 65 2 q2 255 2 508 q-103 11 -209 29 l0 29 q0 12 4 29 ZM281 306 q61 -5 115 -15 q-2 -15 -4 -30 q-2 -22 -7 -33 q-27 0 -55 5 q-27 3 -55 10 q0 30 6 63 ZM332 494 q50 -20 109 -48 q-7 -30 -23 -64 q-59 17 -112 48 q12 34 26 64 ZM393 157 q26 -29 26 -62 q-23 -20 -90 -42 q-18 24 -24 55 q40 32 88 49 ZM431 363 q61 -1 121 -4 q7 23 15 44 q15 2 32 2 q21 -2 28 -5 q-3 -23 -7 -45 q50 -3 98 -8 q0 -26 -5 -50 q-53 0 -104 2 q-9 -36 -20 -70 q62 4 126 4 q8 -43 8 -89 q0 -70 -3 -78 q-80 -15 -231 -15 q-21 68 -26 167 q29 4 58 6 q6 40 15 78 q-55 2 -110 7 q0 28 5 54 ZM540 109 l122 7 l-4 60 l-125 -6 l7 -61 ZM681 514 q9 -25 12 -58 q-100 -22 -201 -33 q-9 30 -11 58 q104 20 200 33 Z" /><glyph glyph-name="" unicode="&#x6765;" d="M136 337 q158 0 314 -2 l0 48 q0 100 1 173 q-144 2 -251 7 q-3 8 -3 34 q0 16 5 33 q128 0 251 -3 q2 80 6 120 q14 4 33 4 q18 0 32 -4 q2 -61 4 -121 q129 -3 255 -9 l0 -30 q0 -22 -4 -33 q-136 0 -249 1 q2 -109 4 -221 q151 -2 299 -6 l0 -30 q0 -22 -4 -33 q-160 0 -294 1 q2 -145 2 -297 q-12 -4 -33 -4 q-18 0 -34 2 q-15 118 -19 299 q-182 1 -317 4 q-4 8 -4 34 q0 16 6 33 ZM378 222 q23 -23 34 -51 q-96 -77 -221 -149 q-26 21 -37 47 q96 79 224 153 ZM691 514 q23 -6 47 -16 q-21 -94 -79 -151 q-18 0 -45 13 q18 80 77 154 ZM301 528 q21 -40 37 -80 q18 -39 30 -73 q-24 -17 -53 -23 q-43 75 -68 155 q29 14 54 21 ZM626 209 q95 -47 189 -103 q-11 -24 -33 -50 q-105 43 -187 95 q15 32 31 58 Z" /><glyph glyph-name="" unicode="&#x7c7b;" d="M747 743 q20 -27 29 -56 q-63 -44 -134 -58 q-20 27 -31 54 q67 39 136 60 ZM844 597 q4 -13 4 -33 q0 -27 -2 -39 q-155 -13 -311 -21 q-2 -93 -7 -167 q-8 -4 -34 -4 q-20 0 -28 4 q-9 77 -10 163 q-32 -2 -65 -2 q-59 -78 -169 -188 q-37 17 -56 40 q54 76 124 144 q-75 -3 -149 -4 q-5 33 -5 69 q150 12 319 21 q1 86 6 178 q16 4 34 4 q20 0 34 -4 q5 -95 6 -174 q149 8 309 13 ZM216 732 q68 -8 147 -49 q-7 -29 -22 -56 q-82 6 -144 47 q7 32 19 58 ZM659 467 q75 -9 163 -54 q-6 -27 -21 -51 q-90 6 -159 52 q6 29 17 53 ZM486 308 q38 -4 64 -22 q-13 -35 -27 -68 q118 6 238 9 q3 -15 3 -32 l0 -33 q-137 -10 -272 -17 q-7 -16 -14 -32 q-20 -43 -33 -77 q-10 -23 -20 -43 q-9 -23 -29 -52 q-34 10 -60 32 q37 89 73 168 q-95 -5 -188 -8 q-6 33 -6 66 q114 8 227 14 q22 50 44 95 ZM667 91 q55 -30 105 -81 q-13 -31 -38 -51 q-56 34 -101 80 q16 29 34 52 Z" /><glyph glyph-name="" unicode="&#x7406;" d="M490 217 q52 2 122 2 q1 38 3 78 q-88 1 -165 14 q-13 31 -13 105 q0 67 2 241 q12 4 31 4 q15 0 30 -4 q0 -59 6 -290 q58 -4 112 -7 q2 43 5 89 q-46 4 -91 11 q0 31 5 57 q46 -3 89 -7 q2 38 5 76 q34 0 65 -8 q0 -24 -2 -74 q45 -4 87 -9 q0 -23 -8 -54 q-40 0 -81 3 q-2 -40 -4 -87 q62 -2 122 -2 q4 20 4 58 q0 85 -2 190 q-208 9 -260 14 q-5 9 -5 32 q0 14 2 28 q165 -2 322 -16 q9 -54 9 -248 q0 -75 -4 -111 q-61 -4 -192 -5 q-1 -41 -4 -78 q99 0 140 -3 q2 -11 2 -26 l0 -27 q-17 -8 -146 -9 q-2 -40 -6 -79 l176 0 q2 -11 2 -26 l0 -28 q-22 -13 -200 -13 q-119 0 -171 7 q-4 13 -4 30 q0 17 2 28 q56 2 133 2 q1 37 2 79 q-80 2 -119 8 q-3 12 -3 28 q0 17 2 27 ZM262 469 q8 -49 13 -94 q50 -1 84 -6 q3 -8 3 -27 q0 -21 -3 -27 q-10 -4 -77 -5 q6 -65 7 -123 q39 2 75 2 q4 -12 4 -26 q0 -15 -4 -27 q-52 -14 -213 -25 q-14 21 -14 60 q46 7 89 11 q-12 61 -18 128 q-92 0 -101 5 q-3 11 -3 28 q0 17 5 29 q44 3 94 4 q-2 43 -2 88 q32 5 61 5 ZM110 598 q126 -4 260 -21 q0 -28 -7 -62 q-137 0 -255 21 q0 32 2 62 Z" /><glyph glyph-name="" unicode="&#x91cc;" d="M475 642 q-64 3 -124 8 l0 60 q194 0 423 -15 q3 -101 3 -175 q0 -181 -3 -200 q-92 -10 -228 -14 q-1 -43 -1 -82 q95 4 193 7 q4 -16 4 -34 l0 -35 q-100 -7 -199 -12 q-1 -44 -2 -85 q126 5 256 7 q3 -15 3 -32 l0 -34 q-277 -16 -563 -22 q-5 34 -5 68 q123 6 246 11 q-2 42 -3 83 q-94 -4 -189 -7 q-6 35 -6 70 q96 7 194 11 q-1 42 -2 85 l-57 0 q-116 0 -175 13 q-22 113 -25 351 l63 0 q10 -148 15 -294 q46 -5 120 -5 l58 0 l0 112 q-79 4 -134 11 q0 27 8 53 q61 0 127 -2 q1 50 3 98 ZM547 371 q99 1 162 4 q-4 138 -4 261 q-83 0 -161 3 q2 -52 2 -98 q56 -3 112 -7 q0 -30 -10 -55 q-55 0 -101 1 l0 -109 Z" /><glyph glyph-name="" unicode="&#x5386;" d="M207 704 q304 0 599 -24 q0 -32 -5 -63 q-307 0 -601 22 q0 36 7 65 ZM241 579 q29 -8 60 -21 q-49 -182 -138 -367 q-33 7 -56 27 q61 196 134 361 ZM294 393 q76 0 152 -2 q25 73 52 144 q32 -4 66 -13 q-21 -68 -42 -134 q137 -6 272 -19 q0 -170 -17 -313 q-62 0 -135 10 q-3 15 -3 28 q0 15 3 23 q40 2 75 2 q2 80 2 188 q-112 1 -220 9 q-49 -153 -99 -309 q-34 4 -61 19 q36 149 84 295 q-67 6 -132 13 l0 31 q0 12 3 28 Z" /><glyph glyph-name="" unicode="&#x529b;" d="M135 546 q137 -4 274 -10 q44 81 86 156 q33 -4 66 -24 q-18 -47 -64 -137 q160 -9 319 -21 q15 -143 15 -429 q-11 -5 -70 -5 q-63 0 -99 11 q-2 11 -2 28 q0 14 2 25 q48 -1 93 -3 q-3 166 -13 304 q-141 7 -284 16 q-1 -3 -2 -4 q-37 -78 -92 -175 q-28 -49 -53 -102 q-25 -57 -70 -119 q-29 11 -61 35 q98 197 190 371 q-119 8 -240 18 q-2 22 -2 37 q0 10 7 28 Z" /><glyph glyph-name="" unicode="&#x6881;" d="M709 233 q4 -12 4 -30 q0 -23 -2 -33 q-78 -4 -156 -7 q16 -142 16 -233 q-35 -7 -69 -7 q-44 0 -58 10 q-4 6 -4 21 q0 16 2 26 q28 -1 57 -1 q-4 93 -11 181 q-109 -3 -219 -4 q-4 29 -4 60 q103 5 218 10 q-2 35 -5 67 q27 6 59 8 q5 -38 10 -73 q79 3 162 5 ZM694 120 q60 -29 123 -66 q-6 -14 -14 -27 q-7 -14 -18 -26 q-65 20 -125 65 q13 31 34 54 ZM106 564 q78 -5 148 -15 q-3 -15 -5 -30 q-2 -22 -6 -33 q-36 0 -71 6 q-36 3 -72 10 q0 30 6 62 ZM217 763 q65 -21 141 -50 q-7 -29 -22 -63 q-76 18 -144 50 q12 33 25 63 ZM400 121 q21 -29 31 -60 q-86 -50 -168 -90 q-21 21 -31 51 q77 51 168 99 ZM305 406 q26 -28 26 -60 q-30 -22 -119 -45 q-17 24 -24 54 q55 34 117 51 ZM542 614 q-56 8 -105 17 q6 31 16 58 q157 -18 329 -45 q0 -188 -43 -310 q-52 0 -124 20 q4 45 11 45 q27 -2 62 -4 q16 117 18 200 q-51 5 -96 10 q-15 -61 -37 -123 q-13 -35 -27 -72 q-6 -16 -13 -36 q-6 -19 -17 -39 q-32 7 -62 20 q43 138 88 259 ZM823 526 q52 -17 97 -50 q-7 -24 -26 -50 q-41 13 -93 45 q7 30 22 55 ZM398 567 q28 -7 58 -20 q-21 -62 -58 -125 q-31 8 -54 26 q25 65 54 119 Z" /><glyph glyph-name="" unicode="&#x7075;" d="M251 742 q122 0 240 -2 q114 -3 200 -11 q13 -37 13 -165 q0 -138 -4 -161 q-73 -15 -443 -15 q-7 9 -7 30 q0 21 3 32 q89 4 382 9 q0 26 -2 67 q-37 -1 -105 -1 q-227 0 -248 5 q-3 12 -3 30 q0 17 5 31 q111 4 246 4 q59 0 102 -3 q-2 34 -4 73 q-127 1 -377 13 q-2 17 -2 32 q0 19 4 32 ZM235 318 q21 -39 37 -77 q18 -38 30 -71 q-28 -21 -63 -28 q-44 73 -70 150 q35 17 66 26 ZM484 360 q39 -4 66 -22 q-25 -61 -93 -232 q127 -41 246 -87 q-8 -32 -22 -59 q-130 37 -248 86 q-20 -49 -42 -105 q-35 5 -62 21 q44 169 155 398 ZM735 277 q38 -9 60 -34 q-24 -53 -67 -110 q-35 7 -53 31 q21 55 60 113 Z" /><glyph glyph-name="" unicode="&#x8651;" d="M490 764 q16 0 28 -4 q2 -19 3 -36 q94 -1 205 -10 q0 -31 -10 -57 q-118 0 -192 8 l0 -10 q0 -31 -2 -52 q150 0 315 -9 l0 -65 q0 -22 -5 -63 q-5 -2 -29 -2 q-19 0 -31 4 q0 38 -1 63 q-102 6 -230 7 q2 -32 3 -63 q95 0 153 -8 q4 -9 4 -30 q0 -24 -4 -31 q-14 -5 -149 -5 q2 -24 3 -47 q48 0 104 4 q6 -14 6 -30 q0 -20 -2 -32 q-24 -10 -100 -10 q-59 0 -76 6 q-6 56 -9 109 q-95 1 -106 5 q-3 13 -3 32 q0 19 5 33 q48 2 100 3 q-2 33 -2 64 q-126 -1 -245 -4 q-6 12 -6 29 q0 19 4 30 q91 8 234 10 q-4 24 -4 52 q0 56 10 105 q14 4 29 4 ZM216 483 q30 -3 59 -15 q-28 -194 -67 -359 l-40 5 q-16 4 -27 10 q21 165 75 359 ZM313 223 q36 -20 58 -45 q-18 -37 -41 -71 q-12 -17 -25 -34 q-12 -18 -26 -35 q-31 20 -54 49 q38 70 88 136 ZM467 170 q22 0 37 -2 q5 -56 11 -116 q56 0 121 4 q7 -14 7 -31 q0 -21 -2 -34 q-26 -10 -105 -10 q-69 0 -89 6 q-15 93 -15 179 q22 4 35 4 ZM613 260 q38 -65 54 -116 q-16 -14 -51 -28 q-32 45 -57 116 q23 19 54 28 ZM791 216 q24 -58 34 -117 q-33 -13 -66 -13 q-21 57 -29 117 q31 11 61 13 Z" /><glyph glyph-name="" unicode="&#x903b;" d="M556 441 q38 -9 59 -35 q-55 -109 -157 -226 q-34 7 -52 31 q51 111 150 230 ZM621 352 q123 -29 243 -81 q-90 -158 -192 -285 q-41 12 -61 33 q61 95 147 217 q-78 33 -157 62 q9 30 20 54 ZM540 222 q59 -7 129 -40 q-6 -26 -21 -50 q-71 5 -126 38 q7 28 18 52 ZM524 722 q201 0 321 -8 q10 -57 10 -113 q0 -97 -5 -126 q-48 -15 -175 -15 q-176 0 -241 11 q-9 35 -13 113 q-5 64 -5 107 q13 4 35 5 q23 0 32 -1 q8 -81 8 -170 q89 -2 184 -2 q58 0 106 6 q-1 62 -4 126 q-35 1 -66 2 q2 -29 2 -51 q0 -32 -5 -50 q-7 -5 -25 -5 q-17 0 -24 5 q-9 21 -9 50 q0 28 3 52 q-10 1 -18 1 q-14 0 -29 1 q3 -32 3 -55 q0 -31 -6 -49 q-7 -5 -24 -5 q-18 0 -25 5 q-9 20 -9 49 q0 31 4 58 q-13 1 -25 2 q-3 19 -3 30 q0 14 3 27 ZM188 631 q61 -6 133 -40 q-7 -31 -24 -59 q-73 5 -129 38 q7 33 20 61 ZM101 409 q109 -9 195 -25 q-15 -72 -39 -133 q41 -12 82 -29 q-4 -51 -25 -131 q129 -18 221 -25 q0 -14 -2 -28 q0 -17 -10 -33 q-148 4 -279 37 q8 57 25 127 q-55 20 -100 33 q20 65 41 127 q-56 12 -113 22 q-2 10 -2 29 q0 12 6 29 Z" /><glyph glyph-name="" unicode="&#x9a6c;" d="M358 511 l0 -172 q198 -1 431 -1 q6 -26 6 -132 q0 -150 -16 -224 q-7 -11 -69 -11 q-34 0 -59 4 q-8 28 -8 51 q33 4 72 6 l0 236 q-210 -5 -427 -5 q1 86 1 242 q34 6 69 6 ZM250 654 q237 0 466 -10 l0 -246 q-11 -4 -30 -4 q-13 0 -35 2 q-3 56 -5 178 q-195 0 -394 10 q-4 16 -4 37 q0 16 2 33 ZM541 157 q5 -13 5 -33 q0 -26 -3 -37 q-183 -18 -376 -22 q-4 33 -4 68 q167 15 378 24 Z" /><glyph glyph-name="" unicode="&#x5417;" d="M527 655 q130 -7 310 -25 q0 -132 -10 -237 q-9 -2 -30 -2 q-24 0 -29 3 q0 90 5 179 q-138 11 -256 26 q2 31 10 56 ZM538 541 q15 0 33 -2 q8 -97 8 -191 q132 0 311 2 q0 -290 -11 -346 q-17 -4 -50 -4 q-75 0 -112 4 q-2 12 -2 25 q0 14 2 26 l98 0 q0 114 1 231 q-154 0 -296 -5 q-10 72 -16 256 q12 2 34 4 ZM729 207 q10 -27 14 -64 q-145 -26 -290 -39 q-10 33 -12 64 q150 24 288 39 ZM392 514 q6 -126 6 -251 q-124 -11 -244 -11 q-16 135 -20 254 q125 8 258 8 ZM205 445 l8 -125 l118 6 l-4 123 l-122 -4 Z" /><glyph glyph-name="" unicode="&#x6bcf;" d="M305 728 q31 -15 59 -37 q-14 -25 -29 -50 q271 -1 538 -19 l0 -29 q0 -22 -4 -34 q-359 0 -579 14 q-46 -66 -100 -130 q-5 0 -29 15 q-23 13 -26 20 q65 109 170 250 ZM329 513 q9 0 37 -6 q25 -8 29 -12 q-21 -112 -40 -212 q179 -15 357 -31 q10 69 20 131 q-116 19 -292 56 q-1 12 -1 29 q0 16 5 31 q181 -11 370 -53 q0 -61 -22 -190 q-1 -6 -2 -11 q39 -4 76 -7 l0 -29 q0 -19 -6 -35 q-42 2 -81 3 q-12 -65 -32 -139 q-16 0 -63 12 q9 69 18 131 q-102 6 -197 14 q29 -37 51 -78 q-23 -21 -56 -36 q-35 42 -59 89 q17 14 39 27 q-72 7 -140 14 q-14 -70 -27 -133 q149 -23 328 -40 q-2 -37 -12 -64 q-301 20 -398 57 q7 57 35 189 q-40 6 -78 11 l0 37 q0 13 4 29 q45 -4 88 -8 q21 98 49 224 ZM542 389 q32 -33 58 -74 q-23 -21 -54 -36 q-35 35 -59 75 q23 18 55 35 Z" /><glyph glyph-name="" unicode="&#x4eec;" d="M303 518 q20 -24 22 -53 q-41 -29 -88 -50 q26 -124 38 -258 q-29 -9 -63 -9 q-26 120 -41 240 q-34 -12 -70 -20 q-19 20 -27 53 q101 60 229 97 ZM498 709 q52 -26 106 -59 q-6 -16 -16 -30 q-7 -15 -19 -29 q-57 18 -108 58 q14 35 37 60 ZM709 610 q92 -7 187 -24 q6 -164 6 -289 q0 -180 -10 -277 q-37 -2 -73 -2 q-37 0 -65 4 q-6 11 -6 27 q0 14 2 23 q41 2 80 2 q2 228 2 454 q-62 9 -126 24 l0 29 q0 12 3 29 ZM424 471 q16 0 29 -3 q6 -205 6 -442 q-11 -4 -29 -4 q-16 0 -31 2 q-7 87 -7 236 q0 158 3 208 q13 3 29 3 Z" /><glyph glyph-name="" unicode="&#x79d8;" d="M418 664 q8 -31 8 -67 q-156 -29 -313 -36 q-15 25 -15 69 q154 21 320 34 ZM93 402 q63 0 134 -4 q1 62 5 125 q16 4 33 4 q20 0 33 -4 q4 -70 5 -130 q55 -3 112 -9 q0 -30 -7 -65 q-53 0 -104 2 l0 -69 q51 -5 97 -12 q-2 -15 -4 -30 q-2 -22 -7 -32 q-32 0 -64 5 q-12 1 -23 3 q-1 -76 -4 -140 q-8 -4 -33 -4 q-19 0 -27 4 q-7 71 -10 148 q-55 -41 -114 -72 q-26 18 -40 42 q63 62 152 109 q-1 25 -1 50 l0 2 q-69 5 -136 13 l0 35 q0 15 3 29 ZM539 520 q29 -20 39 -47 q-49 -57 -106 -99 q-27 20 -43 45 q44 58 110 101 ZM548 370 q35 -4 67 -9 q-10 -47 -20 -106 q31 -6 61 -13 q49 125 101 246 q38 -5 61 -24 q-39 -120 -86 -238 q47 -10 94 -20 q-4 -31 -12 -62 q-56 6 -109 15 q-27 -66 -56 -131 q-34 2 -65 26 q22 61 45 120 q-56 12 -110 28 q14 94 29 168 ZM639 642 q63 -21 135 -52 q-4 -28 -20 -59 q-74 14 -135 50 q7 35 20 61 ZM834 405 q47 -13 100 -32 q-4 -28 -19 -58 q-56 8 -100 30 q6 34 19 60 Z" /><glyph glyph-name="" unicode="&#x89c5;" d="M838 740 q4 -35 4 -66 q-327 -38 -665 -53 q-8 28 -8 65 q344 33 669 54 ZM797 599 q39 -9 61 -35 q-32 -60 -92 -123 q-36 8 -54 32 q29 61 85 126 ZM238 562 q58 -67 82 -119 q-16 -14 -51 -28 q-48 45 -85 119 q23 19 54 28 ZM498 594 q44 -56 62 -102 q-18 -15 -57 -30 q-36 39 -65 102 q26 20 60 30 ZM394 388 q178 -3 369 -18 q-3 -12 -3 -83 q-4 -166 -13 -182 q-7 -4 -30 -4 q-20 0 -29 7 q0 124 4 201 q-63 0 -149 7 q-118 5 -152 9 q0 38 3 63 ZM306 362 q22 -2 30 -6 q-4 -131 -17 -263 q-7 -4 -33 -4 q-21 0 -33 5 q4 142 18 266 q17 2 35 2 ZM500 260 q28 -16 52 -38 q-57 -78 -119 -155 q-91 -127 -125 -151 q-32 12 -52 44 q61 82 123 159 q82 101 121 141 ZM578 127 q36 -4 68 -10 q-9 -47 -19 -107 q75 -9 159 -20 q-4 -32 -12 -64 q-118 9 -225 30 q13 96 29 171 Z" /><glyph glyph-name="" unicode="&#x5bc6;" d="M184 646 q18 0 33 -6 q0 -95 -13 -213 q-12 -4 -35 -4 q-24 0 -34 8 q0 140 14 213 q15 2 35 2 ZM323 652 q90 0 180 -2 q-13 48 -13 94 q17 2 39 4 q21 0 35 -2 q14 -48 17 -98 q147 -3 291 -10 q4 -103 4 -197 q-11 -4 -29 -4 q-12 0 -33 2 q-4 43 -8 136 q-239 0 -481 14 q-4 14 -4 33 q0 14 2 30 ZM392 470 q35 -4 66 -10 q-12 -46 -24 -105 q21 -4 42 -9 q73 52 155 101 q22 -21 32 -46 q-46 -39 -94 -75 q59 -13 122 -27 q-4 -28 -11 -57 q-96 11 -184 31 q-77 -54 -164 -106 q-23 20 -33 43 q50 43 106 85 q-24 6 -47 13 q16 90 34 162 ZM520 545 q46 -14 98 -34 q-4 -26 -18 -54 q-54 9 -98 32 q6 32 18 56 ZM725 423 q42 -12 91 -30 q-5 -27 -20 -58 q-50 8 -91 28 q7 34 20 60 ZM299 475 q30 -20 39 -47 q-43 -51 -93 -87 q-28 20 -43 45 q39 51 97 89 ZM335 144 q32 0 63 -4 q0 -57 -2 -91 q64 -5 127 -9 q1 103 6 159 q15 2 34 2 q17 0 32 -5 q0 -73 -4 -160 q32 -2 62 -3 q0 -29 -3 -58 q-132 0 -171 6 q-101 3 -153 16 l0 61 q0 43 9 86 ZM731 146 q21 0 29 -4 q11 -61 11 -127 q-10 -8 -29 -8 q-16 0 -28 4 q-11 64 -12 127 q9 6 29 8 Z" /><glyph glyph-name="" unicode="&#x8010;" d="M773 611 q15 -74 26 -146 q55 -2 114 -6 q0 -28 -6 -60 q-50 0 -98 1 q23 -166 29 -329 q-42 -16 -167 -16 q-6 24 -6 53 q47 2 97 6 q-15 146 -30 289 q-97 4 -190 12 l0 32 q0 13 2 25 q84 0 181 -4 q-8 67 -15 134 q27 6 63 9 ZM604 334 q46 -53 84 -109 q-16 -23 -47 -35 q-48 51 -86 109 q24 20 49 35 ZM297 549 q-105 1 -154 8 q-4 13 -4 31 q0 18 2 29 q74 2 184 2 q123 0 172 -6 q2 -11 2 -27 l0 -29 q-17 -7 -126 -8 q-30 -69 -60 -137 q97 -7 185 -17 q9 -60 9 -340 q-12 -7 -53 -7 q-42 0 -69 4 q-4 7 -4 24 q0 12 6 25 q28 0 57 2 q-2 116 -4 233 q-25 2 -49 4 q4 -108 4 -220 q-10 -5 -30 -5 q-17 0 -29 2 q-10 113 -11 228 q-23 2 -44 4 q7 -116 7 -235 q-10 -5 -31 -5 q-17 0 -29 2 q-13 121 -14 244 q-23 2 -44 4 q4 -151 4 -303 q-11 -5 -33 -5 q-19 0 -31 2 q-12 188 -12 383 q17 2 37 4 q20 0 33 -2 q0 -9 0 -16 q39 -2 75 -5 q24 68 54 132 Z" /><glyph glyph-name="" unicode="&#x8111;" d="M143 497 q19 0 32 -2 l0 -62 q19 1 43 1 q29 0 46 -4 q3 -13 3 -29 q0 -14 -2 -27 q-15 -3 -51 -3 q-24 0 -39 1 l0 -63 l34 0 q27 0 42 -1 q3 -12 3 -28 q0 -14 -1 -27 q-15 -5 -48 -5 q-18 0 -30 1 q-1 -45 -1 -90 q-11 -6 -33 -6 q-18 0 -31 2 q-3 166 -3 338 q16 2 36 4 ZM182 587 q77 0 185 -2 q11 -232 11 -460 q-40 -13 -97 -17 q-14 17 -14 43 q20 5 50 11 q-11 191 -17 363 q-123 4 -125 6 q0 31 7 56 ZM486 353 q13 0 30 -4 q2 -120 2 -229 l214 0 q4 -13 4 -26 q0 -15 -2 -26 q-22 -11 -109 -11 q-122 0 -167 7 q-8 37 -10 181 q2 50 7 104 q15 4 31 4 ZM712 433 q26 -10 50 -29 q-29 -49 -62 -98 q37 -38 71 -77 q-19 -26 -48 -41 q-34 30 -64 60 q-27 -40 -58 -79 q-30 8 -56 34 q32 49 66 96 q-38 42 -71 86 q14 30 44 41 q35 -35 68 -70 q30 39 60 77 ZM667 674 q19 0 35 -6 q0 -50 -5 -108 q90 4 183 4 q2 -12 2 -28 l0 -29 q-228 -24 -452 -24 q-6 29 -6 60 q97 10 198 14 q1 75 7 115 q17 2 38 2 ZM834 381 q18 0 31 -3 q6 -98 6 -179 q0 -67 -13 -118 q-7 -4 -31 -4 q-18 0 -25 4 q-4 51 -4 112 q0 89 6 185 q14 3 30 3 Z" /><glyph glyph-name="" unicode="&#x80fd;" d="M180 357 q34 -2 63 -6 q-2 -43 -5 -83 l33 0 q35 0 54 -1 q4 -12 4 -28 q0 -14 -2 -27 q-18 -5 -59 -5 q-19 0 -34 1 q-1 -27 -3 -53 q15 1 34 1 q41 0 64 -1 q4 -13 4 -28 q0 -14 -2 -27 q-21 -6 -69 -6 q-21 0 -35 1 q-3 -49 -7 -95 q-33 4 -64 8 q10 180 24 349 ZM290 379 q103 0 185 -6 q28 -192 28 -360 q-43 -7 -119 -7 q-7 26 -7 43 q33 3 61 7 q-9 128 -20 255 q-65 6 -129 10 q-2 11 -2 31 q0 12 3 27 ZM645 670 q18 0 27 -4 q0 -44 -1 -95 q93 11 177 11 q4 -12 4 -25 q0 -16 -4 -28 q-46 -11 -178 -21 q-1 -39 -2 -82 q83 -2 161 -7 q1 -14 1 -29 l0 -29 q-13 -4 -44 -4 q-153 2 -180 12 q-4 42 -4 127 q0 77 10 172 q17 2 33 2 ZM653 304 q17 0 27 -4 q0 -38 -1 -79 q96 10 183 10 q4 -12 4 -26 q0 -15 -4 -27 q-48 -11 -185 -21 q-2 -40 -4 -81 q80 -1 157 -6 q1 -13 1 -29 l0 -29 q-13 -4 -44 -4 q-150 2 -176 12 q-1 36 -1 110 q0 76 10 172 q17 2 33 2 ZM491 607 q22 -38 31 -114 q-26 -14 -52 -17 q-25 47 -30 116 q22 11 51 15 ZM266 706 q34 -8 65 -23 q-40 -81 -78 -163 q88 -10 179 -15 q0 -29 -9 -58 q-134 0 -267 21 q50 136 110 238 Z" /><glyph glyph-name="" unicode="&#x4f60;" d="M342 527 q20 -23 22 -52 q-40 -29 -86 -49 q22 -127 32 -261 q-29 -10 -62 -10 q-23 122 -36 244 q-35 -12 -72 -21 q-19 19 -27 53 q101 60 229 96 ZM522 684 q35 -6 62 -22 q-13 -36 -24 -67 q156 -3 321 -16 q0 -100 -8 -178 q-13 -4 -31 -4 q-19 0 -31 7 l0 116 q-140 4 -273 17 q-40 -103 -69 -154 q-39 6 -62 24 q57 148 115 277 ZM674 411 q29 -258 29 -369 q-29 -10 -67 -10 q-32 0 -57 4 q-7 22 -7 43 q22 8 56 8 q-11 162 -17 318 q31 6 63 6 ZM470 270 q32 -8 65 -23 q-24 -83 -68 -167 q-36 8 -61 29 q30 87 64 161 ZM832 256 q28 -38 39 -115 q-30 -16 -60 -20 q-31 48 -37 119 q25 11 58 16 Z" /><glyph glyph-name="" unicode="&#x5e74;" d="M289 744 q39 -4 65 -21 q-17 -40 -36 -80 q242 -2 477 -27 q0 -32 -6 -63 q-258 0 -504 23 q-20 -36 -32 -63 q-10 -19 -20 -36 q-8 -19 -27 -44 q-34 11 -60 32 q73 153 143 279 ZM371 440 q83 -3 165 -10 q3 38 7 75 q17 2 37 2 q23 -2 31 -6 q-1 -39 -3 -77 q77 -8 152 -19 q0 -27 -6 -52 q-75 0 -148 4 q-3 -73 -7 -145 q117 -5 231 -14 q0 -33 -6 -65 q-117 0 -230 3 q-6 -87 -14 -174 q-8 -4 -35 -4 q-22 0 -36 6 q3 89 7 174 q-179 6 -353 19 q0 37 8 66 q48 0 96 -1 q1 120 6 184 q15 2 35 2 q18 0 33 -5 q0 -83 -5 -182 q93 -1 184 -5 q5 75 10 147 q-83 7 -165 20 q0 29 6 57 Z" /><glyph glyph-name="" unicode="&#x54c1;" d="M436 726 q175 -6 308 -23 q0 -192 -25 -336 q-216 0 -475 33 q0 153 16 328 q20 3 39 3 q20 0 35 -5 q-8 -134 -13 -266 q157 -13 326 -25 q9 107 13 209 q-107 6 -230 17 q0 33 6 65 ZM266 308 q127 -6 228 -19 q0 -183 -20 -270 q-28 -14 -149 -14 q-100 0 -169 20 q-14 111 -17 263 q32 4 65 4 q10 -102 15 -213 q105 -5 193 -5 q0 60 8 156 q-86 6 -156 21 q0 31 2 57 ZM691 306 q97 -8 184 -20 q9 -23 9 -36 q0 -155 -15 -216 q-46 -10 -165 -10 q-75 0 -134 9 q-10 76 -10 189 q0 40 4 70 q19 6 33 6 q14 0 27 -2 q10 -115 10 -202 q19 -4 70 -4 q83 0 103 7 q4 23 4 131 q-63 9 -122 17 q-2 20 -2 30 q0 13 4 31 Z" /><glyph glyph-name="" unicode="&#x8d77;" d="M611 374 q32 0 61 -3 l0 -10 q60 5 148 7 q-4 56 -4 112 q-121 16 -249 31 q0 28 6 58 q231 -12 304 -31 q9 -51 9 -108 q0 -87 -7 -118 q-42 -10 -207 -11 q-1 -98 -3 -114 q44 -6 132 -10 q0 -35 -3 -54 q-16 -5 -89 -5 q-65 1 -100 13 q-7 0 -7 149 q0 36 9 94 ZM292 633 q2 48 4 95 q15 4 32 4 q18 0 31 -4 q3 -50 5 -95 q89 -1 143 -8 q3 -9 3 -30 q0 -24 -3 -31 q-14 -5 -142 -5 l0 -15 q0 -52 -5 -94 q123 -1 178 -6 q2 -11 2 -27 l0 -29 q-23 -7 -175 -8 q2 -38 2 -73 q58 -2 125 -11 q0 -31 -10 -57 q-69 0 -114 7 q1 -37 1 -73 q-12 -6 -35 -6 q-19 0 -32 2 q-10 104 -11 211 q-119 0 -171 8 q-4 14 -4 31 q0 18 2 29 q72 2 177 2 q-4 42 -4 89 l0 20 q-121 1 -135 5 q-3 13 -3 33 q0 18 5 32 q63 3 134 4 ZM172 263 q31 -8 61 -20 q-18 -63 -35 -127 q156 -28 306 -55 q-2 -27 -15 -59 q-190 23 -371 68 q23 101 54 193 Z" /><glyph glyph-name="" unicode="&#x5f3a;" d="M117 673 q105 0 276 -19 q10 -45 10 -130 q0 -123 -10 -161 q-28 -20 -118 -20 q-66 0 -104 10 q-3 15 -3 30 q0 22 5 30 q77 1 152 2 q0 88 -6 176 q-94 4 -208 17 q0 39 6 65 ZM130 343 q29 0 59 -6 q-4 -45 -6 -93 q75 -9 156 -18 q0 -173 -14 -222 q-42 0 -113 6 q-2 11 -2 28 q0 14 4 19 q29 0 54 -2 q2 55 4 106 q-82 11 -153 24 q0 71 11 158 ZM661 471 q-2 0 -3 0 q-102 0 -147 14 q-9 33 -9 69 q0 55 3 115 q11 4 26 4 q16 0 28 -4 q7 -45 7 -131 q99 -5 220 -5 q2 51 2 100 q-80 7 -150 20 l0 28 q0 13 3 24 q92 0 204 -15 q9 -26 9 -130 q0 -62 -9 -80 q-29 -7 -118 -8 q-4 -41 -7 -78 q74 -3 146 -11 q7 -27 7 -125 q0 -73 -3 -108 q-56 -12 -176 -14 q-5 -43 -10 -82 l78 0 q-7 17 -13 32 q29 14 54 22 q19 -32 34 -63 q17 -31 28 -58 q-24 -17 -53 -23 q-12 18 -23 36 q-102 -9 -269 -9 q-6 28 -6 56 q37 5 104 7 q4 41 7 81 q-90 1 -168 15 q-12 29 -12 100 q0 38 4 136 q11 4 29 4 q14 0 27 -4 q0 -37 4 -180 q62 -1 123 -1 q6 65 13 126 q-48 3 -69 6 q-5 9 -5 33 q0 15 1 30 q41 -1 81 -2 q4 39 8 73 ZM702 205 q53 -1 105 -1 q4 18 4 54 q0 29 -2 64 q-54 3 -95 5 q-5 -63 -12 -122 Z" /><glyph glyph-name="" unicode="&#x6865;" d="M259 599 q22 0 32 -4 q7 -64 11 -129 q64 0 91 -3 q2 -12 2 -28 l0 -30 q-11 -10 -88 -11 q2 -38 3 -75 q50 -21 99 -46 q-8 -27 -26 -54 q-39 10 -71 24 q2 -70 2 -143 q-12 -4 -33 -4 q-25 0 -33 2 q-6 75 -11 145 q-46 -32 -112 -66 q-25 25 -37 53 q64 47 145 94 q-2 37 -3 70 q-90 2 -134 8 q-4 14 -4 32 q0 18 2 30 q57 1 134 2 q-2 66 -2 127 q6 4 33 6 ZM645 635 q34 -10 63 -29 q-21 -35 -41 -67 q106 -5 210 -14 q0 -31 -5 -60 q-127 0 -249 5 q-78 -120 -153 -214 q-34 9 -55 30 q37 62 121 188 q-66 4 -131 9 q0 34 7 62 q85 0 170 -3 q30 44 63 93 ZM723 430 q92 -45 185 -100 q-11 -24 -34 -51 q-103 41 -184 92 q15 32 33 59 ZM818 735 q8 -29 8 -61 q-186 -34 -373 -43 q-13 23 -13 63 q181 25 378 41 ZM530 294 q25 -2 60 -10 q-26 -160 -65 -326 q-43 0 -64 16 q29 160 69 320 ZM767 293 q25 -171 26 -332 q-9 -4 -27 -4 q-18 0 -27 2 q-27 167 -31 330 q16 4 30 4 l29 0 Z" /><glyph glyph-name="" unicode="&#x60c5;" d="M291 581 q21 0 31 -4 q5 -62 7 -126 q49 -6 93 -14 q0 -30 -11 -60 q-39 1 -79 7 q3 -98 3 -203 q-11 -4 -33 -4 q-25 0 -33 2 q-12 214 -12 396 q6 4 34 6 ZM175 490 q23 -2 30 -6 q-6 -101 -25 -204 q-8 -4 -34 -4 q-20 0 -33 6 q7 110 27 206 q17 2 35 2 ZM447 687 q79 0 168 -3 q-1 24 -1 47 q17 2 38 4 q20 0 34 -2 q1 -26 2 -52 q73 -4 151 -10 q0 -28 -5 -60 q-73 0 -143 3 q1 -26 1 -51 q57 -4 118 -9 q0 -27 -5 -58 q-57 0 -112 3 q1 -26 1 -50 q97 -3 202 -10 q0 -28 -6 -59 q-226 0 -447 17 l0 32 q0 13 1 26 q85 0 181 -3 q-2 27 -4 51 q-63 4 -125 11 l0 30 q0 13 2 25 q57 0 120 -3 q-1 26 -2 51 q-86 5 -170 13 l0 31 q0 13 1 26 ZM495 324 q33 -2 59 -5 q-4 -42 -9 -81 q50 -1 109 -5 q0 -31 -10 -55 q-65 0 -107 3 q-2 -14 -4 -27 q55 -3 104 -7 q-2 -13 -4 -27 q-2 -19 -5 -28 q-35 0 -69 3 q-19 1 -35 3 q-8 -50 -18 -99 q-30 4 -58 8 q18 164 47 317 ZM585 344 q112 -8 229 -26 q6 -159 6 -281 q0 -38 -10 -58 q-23 -2 -46 -2 q-36 0 -63 4 q-5 12 -5 27 q0 13 2 23 q26 2 51 2 q2 114 2 228 q-83 10 -169 26 l0 29 q0 11 3 28 Z" /><glyph glyph-name="" unicode="&#x79cb;" d="M444 673 q13 -24 13 -56 q-167 -37 -317 -54 q-11 24 -11 52 q159 48 315 58 ZM112 422 q75 -3 148 -6 q1 63 5 126 q16 4 33 4 q20 0 33 -4 q4 -69 5 -129 q67 -2 132 -5 l0 -27 q0 -21 -4 -35 q-64 1 -127 3 l0 -66 q60 -24 120 -43 q0 -26 -9 -61 q-60 10 -112 32 q-2 -96 -7 -176 q-8 -4 -34 -4 q-19 0 -27 4 q-5 79 -7 164 q-69 -56 -137 -98 q-29 31 -42 60 q87 67 177 126 q0 28 0 56 l0 8 q-76 2 -151 7 q-4 11 -4 33 q0 15 8 31 ZM546 540 q18 -47 33 -92 q16 -45 27 -85 q-24 -18 -55 -24 q-40 86 -63 179 q31 14 58 22 ZM720 650 q37 -4 63 -21 q-27 -107 -106 -443 q87 -37 170 -80 q-8 -32 -21 -59 q-86 32 -164 75 q-11 -45 -22 -94 q-33 6 -59 21 q40 255 139 601 ZM850 478 q36 -9 57 -33 q-28 -67 -79 -139 q-33 7 -50 29 q25 69 72 143 Z" /><glyph glyph-name="" unicode="&#x7403;" d="M667 687 q11 -68 19 -135 q93 -7 184 -21 q0 -29 -5 -56 q-86 0 -170 5 q25 -226 30 -457 q-47 -17 -151 -17 q-9 25 -9 49 q44 5 90 12 q-13 208 -31 418 q-91 7 -179 19 q0 32 6 58 q84 0 166 -5 q-5 62 -11 124 q25 6 61 6 ZM878 409 q29 -19 38 -47 q-49 -44 -106 -77 q-27 20 -43 45 q44 46 111 79 ZM803 233 q52 -29 106 -67 q-5 -14 -15 -27 q-7 -15 -18 -28 q-57 20 -108 65 q13 33 35 57 ZM461 398 q63 -19 123 -41 q-8 -34 -23 -63 q-63 17 -121 41 q9 38 21 63 ZM569 208 q12 -30 12 -59 q-64 -28 -135 -36 q-10 29 -12 59 q61 25 135 36 ZM786 719 q53 -6 117 -42 q-6 -28 -21 -53 q-65 5 -115 41 q7 30 19 54 ZM262 469 q8 -49 13 -94 q50 -1 84 -6 q3 -8 3 -27 q0 -21 -3 -27 q-10 -4 -77 -5 q6 -65 7 -123 q39 2 75 2 q4 -12 4 -26 q0 -15 -4 -27 q-52 -14 -213 -25 q-14 21 -14 60 q46 7 89 11 q-12 61 -18 128 q-92 0 -101 5 q-3 11 -3 28 q0 17 5 29 q44 3 94 4 q-2 43 -2 88 q32 5 61 5 ZM110 598 q126 -4 260 -21 q0 -28 -7 -62 q-137 0 -255 21 q0 32 2 62 Z" /><glyph glyph-name="" unicode="&#x6c42;" d="M769 726 q38 -42 68 -94 q-22 -20 -52 -34 q-41 44 -68 94 q22 18 52 34 ZM514 692 q9 -67 17 -134 q153 -5 302 -16 q0 -32 -6 -63 q-146 0 -288 5 q23 -232 28 -469 q-46 -22 -144 -22 q-11 30 -11 60 q39 7 81 16 q-12 207 -27 417 q-155 5 -305 16 q0 36 7 64 q147 0 292 -5 q-5 63 -10 125 q27 6 64 6 ZM786 396 q29 -20 39 -47 q-48 -44 -103 -76 q-27 19 -43 44 q43 45 107 79 ZM319 175 q13 -33 13 -64 q-65 -18 -135 -24 q-12 31 -14 64 q61 16 136 24 ZM680 170 q65 -8 142 -50 q-7 -29 -22 -55 q-79 6 -139 48 q7 31 19 57 ZM210 384 q61 -7 133 -44 q-7 -29 -22 -55 q-74 5 -130 43 q7 31 19 56 Z" /><glyph glyph-name="" unicode="&#x7136;" d="M655 314 q-12 -45 -25 -90 q-33 2 -58 12 q15 111 41 220 q-48 4 -93 10 q0 29 2 57 q54 -1 108 -4 q14 53 31 105 q31 -2 56 -8 q-7 -49 -17 -101 q75 -5 150 -12 q0 -25 -6 -57 q-82 0 -157 4 q-8 -38 -17 -76 q75 -26 160 -61 q-5 -26 -19 -55 q-83 21 -156 56 ZM276 724 q37 -9 59 -35 q-63 -123 -180 -254 q-34 7 -52 31 q59 125 173 258 ZM349 644 q79 -19 169 -45 q-30 -101 -68 -192 q-22 -49 -42 -95 q-19 -52 -42 -94 q-33 4 -59 26 q71 187 124 308 q-59 13 -107 28 q6 36 25 64 ZM246 510 q55 0 123 -16 q0 -30 -10 -55 q-78 0 -120 18 q0 27 7 53 ZM779 660 q66 -22 128 -51 q-8 -27 -26 -54 q-75 17 -127 47 q11 35 25 58 ZM197 400 q58 0 129 -18 q0 -28 -9 -51 q-83 0 -127 20 q0 24 7 49 ZM264 147 q28 -7 57 -20 q-13 -89 -51 -143 q-22 0 -56 17 q11 76 50 146 ZM472 114 q18 0 33 -5 q0 -51 -7 -114 q-11 -4 -35 -4 q-23 0 -33 8 q0 75 7 113 q16 2 35 2 ZM823 129 q27 -33 38 -99 q-28 -15 -56 -19 q-31 42 -37 102 q24 11 55 16 ZM651 117 q25 -34 35 -102 q-28 -16 -56 -19 q-28 43 -34 106 q24 10 55 15 Z" /><glyph glyph-name="" unicode="&#x71c3;" d="M219 582 q29 -4 56 -14 q-24 -158 -56 -299 q46 -15 95 -34 q-4 -23 -18 -56 q-49 7 -92 25 q-8 -34 -16 -66 l-38 5 q-14 4 -25 9 q14 109 41 227 q-67 21 -115 52 q12 35 26 58 q54 -21 104 -45 q17 67 38 138 ZM772 310 q-5 -24 -10 -45 q-33 2 -58 12 q9 74 23 145 q-28 4 -53 9 q0 29 2 56 q33 -1 64 -3 q9 40 20 78 q31 -2 55 -8 q-4 -38 -10 -76 q41 -4 83 -10 q0 -25 -6 -57 q-46 0 -88 4 q-5 -23 -9 -44 q53 -17 110 -39 q-6 -25 -19 -54 q-55 12 -104 32 ZM340 452 q24 -18 36 -47 q-26 -30 -85 -66 q-23 23 -34 48 q36 32 83 65 ZM483 695 q35 -8 55 -31 q-13 -31 -30 -61 q84 -10 170 -38 q0 -45 -117 -308 q-24 11 -46 29 q47 148 75 234 q-53 16 -113 31 q-22 -37 -49 -73 q-32 7 -48 28 q35 92 103 189 ZM448 476 q41 0 91 -18 q0 -29 -10 -53 q-57 0 -88 19 q0 26 7 52 ZM854 647 q44 -18 84 -40 q-7 -26 -24 -52 q-50 14 -84 37 q11 33 24 55 ZM490 377 q18 -24 25 -50 q-45 -32 -96 -42 q-18 24 -27 48 q48 29 98 44 ZM424 192 q31 -7 61 -21 q-13 -83 -51 -133 q-23 0 -59 17 q12 72 49 137 ZM597 153 q17 0 32 -5 q0 -46 -6 -104 q-11 -4 -33 -4 q-23 0 -32 8 q0 68 6 103 q14 2 33 2 ZM867 172 q24 -29 33 -88 q-24 -13 -49 -16 q-26 37 -31 91 q20 9 47 13 ZM743 160 q22 -31 30 -92 q-27 -15 -54 -18 q-24 38 -29 95 q23 10 53 15 Z" /><glyph glyph-name="" unicode="&#x70ed;" d="M516 626 q48 -4 97 -9 q20 53 39 104 q34 -4 59 -17 q-11 -48 -24 -95 q81 -9 167 -21 q-16 -135 -33 -266 q24 -5 52 -11 q0 -26 -9 -53 q-64 4 -121 27 q13 126 31 246 q-55 5 -107 12 q-11 -38 -24 -74 q-10 -29 -21 -58 q34 -11 69 -24 q-7 -28 -22 -61 q-37 8 -72 19 q-10 -24 -19 -53 q-11 -30 -29 -63 q-30 6 -59 19 q19 62 38 121 q-29 11 -56 23 q11 33 24 61 q26 -8 54 -17 q21 61 41 118 q-44 7 -85 15 q4 36 10 57 ZM247 132 q31 -8 62 -21 q-13 -80 -51 -128 q-23 0 -60 18 q11 68 49 131 ZM436 98 q17 0 32 -6 q0 -46 -6 -103 q-11 -4 -34 -4 q-22 0 -32 8 q0 68 6 103 q15 2 34 2 ZM784 123 q31 -40 43 -120 q-28 -16 -56 -19 q-36 50 -42 123 q24 11 55 16 ZM625 102 q21 -34 29 -104 q-28 -16 -56 -19 q-24 44 -28 108 q23 11 55 15 ZM266 580 q-3 43 -5 85 q31 6 65 8 q5 -48 9 -94 q56 -1 94 -6 q3 -9 3 -30 q0 -23 -3 -30 q-11 -4 -87 -5 q4 -49 7 -96 q31 2 60 2 q4 -12 4 -26 q0 -17 -4 -29 q-20 -6 -56 -10 q4 -52 6 -101 q-25 -9 -65 -9 q-5 51 -10 102 q-35 -4 -79 -7 q-14 22 -14 63 q45 7 87 10 q-5 51 -8 101 q-96 0 -106 5 q-3 13 -3 32 q0 17 5 31 q46 4 100 4 Z" /><glyph glyph-name="" unicode="&#x4eba;" d="M544 624 q32 -18 61 -43 q-65 -101 -132 -202 q189 -123 379 -263 q-11 -31 -44 -55 q-207 117 -375 258 q-97 -144 -198 -287 q-34 17 -61 45 q144 236 370 547 Z" /><glyph glyph-name="" unicode="&#x4efb;" d="M836 696 q11 -29 11 -56 q-195 -45 -410 -59 q-10 28 -12 57 q185 40 411 58 ZM407 380 q92 0 196 -6 q-5 90 -6 176 q18 4 34 4 l34 0 q9 -95 14 -185 q102 -7 215 -19 q0 -28 -6 -61 q-103 0 -205 6 q6 -106 7 -206 q103 -1 149 -6 q2 -12 2 -27 l0 -29 q-22 -8 -199 -8 q-125 0 -180 8 q-4 13 -4 31 q0 17 2 29 q68 2 165 2 q-11 107 -18 211 q-102 8 -201 21 l0 33 q0 13 1 26 ZM323 524 q19 -23 21 -52 q-40 -29 -86 -49 q22 -127 32 -261 q-29 -9 -62 -9 q-22 120 -36 243 q-34 -12 -71 -21 q-20 20 -28 53 q101 60 230 96 Z" /><glyph glyph-name="" unicode="&#x5165;" d="M353 621 q268 -221 512 -463 q-18 -31 -47 -50 q-159 130 -303 262 q-97 -134 -278 -303 q-34 18 -47 49 q131 169 270 305 q-81 76 -156 151 q24 30 49 49 Z" /><glyph glyph-name="" unicode="&#x5584;" d="M677 346 q27 -6 53 -18 q-9 -46 -28 -80 q60 2 119 2 q4 -12 4 -25 q0 -16 -4 -28 q-149 -23 -614 -42 q-13 21 -13 60 q96 10 188 17 q-32 28 -58 58 q25 21 50 35 q39 -34 72 -72 q-7 -10 -17 -18 q26 2 51 4 q-5 49 -7 99 q-108 -7 -209 -7 q-6 27 -6 57 q104 12 213 20 l0 14 q0 20 1 40 q-81 -5 -183 -10 q-14 22 -14 61 q102 10 198 15 q1 30 3 58 l-110 0 q-125 0 -180 8 q-4 14 -4 31 q0 18 2 29 q71 2 172 2 q-26 32 -48 71 q22 17 49 25 q52 -53 78 -96 q87 0 156 -1 q25 62 65 120 q35 -8 58 -26 q-16 -47 -43 -95 q72 -1 118 -2 q2 -11 2 -27 l0 -29 q-36 -7 -246 -9 q1 -29 2 -55 q86 4 166 4 q4 -11 4 -25 q0 -16 -4 -27 q-54 -9 -164 -17 l0 -54 q92 7 188 11 q4 -27 4 -59 q-98 -13 -193 -21 q-1 -55 -5 -101 q44 2 86 3 q14 52 48 100 ZM452 128 q175 0 281 -3 q10 -60 10 -119 q0 -43 -4 -56 q-51 -15 -184 -15 q-142 0 -194 13 q-8 23 -12 74 q-4 41 -4 69 q14 4 37 6 q24 0 33 -2 q6 -43 6 -90 q65 -4 134 -4 q61 0 112 6 q-2 27 -6 56 q-63 1 -118 2 q-43 0 -91 3 q-4 19 -4 31 q0 15 4 29 Z" /><glyph glyph-name="" unicode="&#x6444;" d="M370 520 q6 -29 9 -65 q-47 -6 -97 -10 q5 -42 9 -83 q40 4 79 8 q11 -29 11 -55 q-42 -11 -83 -19 q7 -72 12 -142 q-25 -9 -64 -9 q-12 70 -20 140 q-56 -8 -112 -12 q-9 26 -11 55 q55 13 114 23 q-5 44 -9 88 q-56 -4 -113 -6 q-7 27 -11 65 q58 6 117 10 q-4 48 -7 96 q31 5 64 7 q8 -49 15 -97 q48 3 97 6 ZM499 641 q21 0 34 -2 q2 -17 3 -34 q43 5 88 8 q3 -26 3 -55 q-46 -8 -87 -10 q1 -16 1 -31 q44 7 89 10 q3 -24 3 -52 q-47 -10 -90 -13 q1 -15 1 -29 q85 8 173 12 q-5 101 -5 192 q6 4 34 6 q21 0 31 -4 q8 -90 10 -192 q42 1 83 1 q2 -11 2 -26 l0 -28 q-43 -6 -84 -11 l0 -37 q-11 -4 -33 -4 q-25 0 -33 2 q-1 16 -2 32 q-151 -15 -298 -15 q-6 28 -6 58 q30 4 60 7 q-14 105 -14 211 q17 2 37 4 ZM851 742 q2 -11 2 -27 l0 -29 q-239 -18 -472 -18 q-6 29 -6 61 q224 13 476 13 ZM677 153 q50 -12 98 -25 q14 50 28 99 q-49 4 -94 4 q-58 0 -65 1 q-8 26 -8 54 q47 8 109 9 q92 -2 147 -12 q-2 -38 -50 -173 q32 -10 63 -19 q-8 -32 -22 -61 q-34 7 -65 15 q-15 -39 -32 -84 q-33 6 -51 23 q10 39 21 77 q-52 14 -100 30 q9 37 21 62 ZM458 262 q97 -1 156 -4 q-2 -33 -66 -152 q41 -17 79 -37 q-7 -25 -26 -52 q-42 10 -88 26 q-12 -22 -26 -46 q-34 6 -54 24 q10 23 21 45 q-35 14 -71 31 q7 30 22 57 q41 -10 79 -24 q18 38 36 75 q-49 -5 -96 -5 q-55 0 -61 2 q-7 24 -7 51 q44 7 102 9 Z" /><glyph glyph-name="" unicode="&#x8bbe;" d="M471 681 q23 -2 31 -6 q-3 -119 -14 -240 q-8 -3 -34 -3 q-21 0 -34 5 q4 129 15 242 q17 2 36 2 ZM537 677 q99 0 225 -10 q4 -65 4 -96 l0 -74 q43 -2 98 -7 l0 -26 q0 -17 -2 -28 q-22 -3 -55 -3 q-49 0 -108 7 q-4 102 -4 171 q-84 0 -158 7 q-2 10 -2 30 q0 15 2 29 ZM456 354 q239 -4 331 -16 q-12 -94 -46 -194 q60 -14 119 -30 q-5 -32 -22 -62 q-63 12 -122 25 q-21 -52 -45 -103 q-25 0 -56 17 q16 52 32 101 q-97 23 -187 50 q10 32 23 62 q94 -20 186 -42 q18 59 36 117 q-130 4 -254 12 q0 36 5 63 ZM130 480 q88 -12 185 -30 q-6 -157 -26 -310 q43 -5 90 -9 q0 -24 -4 -57 q-71 0 -156 11 q8 152 28 311 q-63 9 -125 25 q0 29 8 59 ZM191 651 q67 -7 145 -48 q-5 -24 -18 -45 q-80 6 -142 47 q6 25 15 46 Z" /><glyph glyph-name="" unicode="&#x795e;" d="M566 583 q31 0 59 -1 q-1 56 -1 109 q17 2 38 4 q21 0 35 -2 q1 -58 1 -114 q104 -4 202 -12 q8 -53 8 -248 q0 -74 -4 -109 q-65 -4 -203 -5 q1 -101 1 -201 q-12 -6 -35 -6 q-19 0 -32 2 q-3 104 -5 205 q-89 0 -167 14 q-12 30 -12 102 q0 54 12 195 q12 5 31 5 q14 0 28 -5 q0 -50 -4 -244 q56 -4 110 -7 q-1 45 -1 89 q-49 2 -76 6 q-4 12 -4 27 q0 15 2 24 q34 1 77 2 q0 53 -1 106 q-37 2 -55 4 q-5 9 -5 32 q0 14 1 28 ZM699 515 q1 -52 1 -102 l5 0 q80 0 111 -9 q2 -10 2 -23 l0 -25 q-13 -3 -115 -3 l-3 0 q1 -46 1 -91 q70 -2 137 -2 q4 20 4 59 q0 85 -2 190 q-83 3 -141 6 ZM81 551 q161 -6 324 -45 q0 -52 -233 -352 q-29 12 -55 35 q114 166 184 264 q-105 21 -230 41 q0 30 10 57 ZM301 252 q17 0 29 -4 q3 -25 4 -45 q50 -7 95 -14 q0 -33 -11 -65 q-40 1 -81 7 q-1 -65 -7 -102 q-8 -6 -29 -6 q-21 0 -29 6 q-11 46 -11 112 q0 57 11 107 q14 4 29 4 ZM228 707 q63 -6 137 -42 q-7 -31 -24 -59 q-75 5 -133 40 q7 34 20 61 Z" /><glyph glyph-name="" unicode="&#x65f6;" d="M221 576 q89 -7 169 -19 q8 -126 8 -197 q0 -137 -14 -191 q-38 -8 -139 -8 q-68 0 -121 8 q-9 70 -9 174 q0 130 3 229 q18 5 31 5 q12 0 25 -1 q4 -88 6 -165 q50 -4 98 -10 q0 -22 -8 -51 q-43 0 -89 6 q2 -70 2 -132 q17 -4 62 -4 q68 0 84 5 q4 48 4 275 q-59 10 -114 18 q-2 19 -2 28 q0 13 4 30 ZM474 295 q65 -29 125 -79 q-13 -28 -35 -47 q-67 33 -121 79 q15 27 31 47 ZM747 691 q13 -84 22 -166 q73 -1 120 -7 q3 -8 3 -30 q0 -22 -3 -29 q-13 -5 -112 -6 q20 -195 26 -387 q-35 -17 -140 -17 q-6 24 -6 52 q34 3 69 7 q-12 176 -25 345 q-196 1 -216 6 q-3 12 -3 31 q0 18 5 32 q96 3 209 3 q-6 79 -12 157 q27 6 63 9 Z" /><glyph glyph-name="" unicode="&#x5b9e;" d="M190 649 q16 0 31 -5 q0 -79 -12 -176 q-11 -4 -34 -4 q-22 0 -31 8 q0 116 12 175 q15 2 34 2 ZM296 701 q88 0 173 -2 q-4 33 -4 66 q18 2 40 4 q22 0 36 -2 q3 -35 3 -71 q155 -5 303 -18 q8 -87 8 -167 q-12 -4 -33 -4 q-14 0 -37 2 q-7 35 -13 109 q-235 0 -474 23 q-4 13 -4 32 q0 13 2 28 ZM573 546 q37 -11 68 -31 q-51 -101 -101 -190 q156 -5 309 -15 q0 -34 -5 -66 q-176 0 -347 5 q-93 -162 -181 -292 q-36 11 -59 33 q45 90 144 262 q-131 4 -260 12 q0 38 7 68 q150 0 297 -4 q58 99 128 218 ZM586 147 q118 -55 235 -123 q-12 -27 -38 -58 q-131 52 -233 115 q17 36 36 66 ZM353 582 q64 -25 125 -56 q-9 -32 -29 -63 q-74 19 -125 52 q13 40 29 67 ZM295 470 q70 -29 141 -67 q-6 -15 -16 -29 q-7 -15 -19 -29 q-75 20 -143 64 q14 36 37 61 Z" /><glyph glyph-name="" unicode="&#x53f2;" d="M377 654 q94 -4 188 -9 q18 47 37 92 q39 -7 66 -23 q-13 -38 -27 -74 q106 -8 211 -17 q0 -176 -29 -356 q-37 -10 -157 -10 q-90 2 -166 5 q-27 -72 -54 -142 q125 -40 247 -85 q-8 -31 -23 -60 q-126 32 -251 73 q-16 -41 -31 -81 q-33 4 -58 25 q13 40 25 77 q-63 22 -127 46 q8 39 23 67 q65 -20 129 -40 q21 62 42 123 q-166 9 -245 24 q0 193 7 375 q33 0 64 -6 q0 -153 -1 -312 q53 -11 198 -16 q44 123 93 247 q-82 7 -168 15 q0 35 7 62 ZM616 571 q-45 -123 -91 -244 q104 -2 237 -2 q18 118 20 234 q-80 5 -166 12 Z" /><glyph glyph-name="" unicode="&#x5f0f;" d="M579 698 q24 -75 48 -148 q116 -6 228 -16 q0 -30 -5 -59 q-101 0 -199 3 q69 -211 141 -418 q22 7 50 16 q10 -21 17 -51 q-46 -25 -113 -33 q-100 252 -175 488 q-225 7 -440 25 q0 34 6 61 q208 0 410 -11 q-18 61 -35 120 q26 17 67 23 ZM754 714 q64 -25 122 -68 q-12 -29 -35 -48 q-66 29 -119 68 q15 27 32 48 ZM290 224 q-111 1 -123 5 q-3 11 -3 29 q0 16 4 29 q95 3 210 3 q85 0 137 -7 q3 -8 3 -27 q0 -21 -3 -27 q-13 -5 -137 -5 l-15 0 q13 -70 20 -137 q61 3 117 3 q4 -12 4 -26 q0 -16 -4 -28 q-75 -16 -311 -29 q-14 22 -14 62 q69 8 133 13 q-12 72 -18 142 Z" /><glyph glyph-name="" unicode="&#x4e16;" d="M463 640 q31 -4 63 -12 q-5 -55 -11 -110 q91 -3 179 -7 q6 53 12 106 q35 -3 68 -7 q-4 -52 -9 -102 q56 -3 111 -7 l0 -30 q0 -23 -3 -34 q-59 0 -115 0 q-11 -112 -26 -230 q-159 7 -318 43 q10 102 21 192 q-78 2 -147 5 q-13 -155 -26 -310 q189 -20 390 -35 q0 -31 -11 -63 q-239 6 -456 49 q11 181 29 363 q-50 2 -94 5 q-3 8 -3 34 q0 17 5 35 q51 0 100 -1 q6 64 13 126 q39 -4 69 -11 q-5 -59 -10 -116 q77 -1 151 -3 q9 64 18 120 ZM687 438 q-96 1 -180 2 q-8 -71 -16 -144 q85 -11 182 -21 q6 80 14 163 Z" /><glyph glyph-name="" unicode="&#x662f;" d="M402 740 q192 -6 346 -19 q0 -207 -19 -305 q-57 -8 -302 -8 q-95 0 -161 19 q-9 115 -11 272 q33 4 65 4 q3 -45 5 -92 q15 1 37 1 q68 0 107 -7 q3 -12 3 -27 q0 -14 -1 -26 l-112 0 q-19 0 -32 1 q2 -38 3 -75 q185 -10 340 -10 q0 74 8 194 q-153 5 -278 21 q0 30 2 57 ZM492 296 q-148 -5 -298 -7 q-3 29 -3 59 q279 16 631 25 q4 -11 4 -28 q0 -23 -2 -32 q-128 -9 -257 -14 q2 -35 2 -68 q92 -4 187 -18 q0 -25 -5 -57 q-97 0 -181 14 q1 -29 1 -57 q-12 -5 -35 -5 q-20 0 -33 1 q-9 93 -11 187 ZM260 230 q36 -4 69 -10 q-9 -57 -18 -128 q192 -22 405 -51 q-4 -29 -11 -59 q-248 18 -474 60 q13 105 29 188 Z" /><glyph glyph-name="" unicode="&#x89c6;" d="M88 551 q161 -6 324 -45 q0 -52 -233 -352 q-29 12 -56 35 q115 166 185 264 q-106 21 -231 41 q0 30 11 57 ZM307 247 q17 0 31 -4 q1 -13 2 -26 q50 -6 96 -14 q0 -32 -11 -64 q-40 1 -81 6 l0 -14 q0 -69 -6 -107 q-9 -6 -31 -6 q-22 0 -31 6 q-11 44 -11 107 q0 59 11 112 q16 4 31 4 ZM235 707 q63 -6 137 -42 q-7 -31 -24 -59 q-75 5 -133 40 q7 34 20 61 ZM742 163 q17 0 33 -4 q3 -62 4 -127 q50 -1 103 -4 l0 -25 q0 -21 -2 -28 q-14 -5 -70 -5 q-65 0 -101 9 q0 85 1 182 q12 2 32 2 ZM494 656 q18 0 32 -7 q4 -137 4 -271 q0 -81 -4 -155 q-11 -2 -32 -2 q-18 0 -29 2 q-11 73 -11 150 q0 135 9 276 q16 7 31 7 ZM570 680 q144 -3 298 -18 q4 -38 4 -254 q-3 -166 -13 -182 q-7 -4 -30 -4 q-20 0 -29 8 q0 231 -2 372 q-49 0 -115 8 q-90 4 -116 9 q0 37 3 61 ZM678 501 q33 -6 56 -20 q-90 -260 -213 -520 q-30 4 -52 23 q97 272 209 517 Z" /><glyph glyph-name="" unicode="&#x517d;" d="M361 779 q20 -55 28 -111 q-32 -13 -64 -13 q-18 55 -24 111 q30 11 60 13 ZM613 790 q26 -7 53 -18 q-16 -74 -60 -119 q-20 0 -51 15 q13 63 58 122 ZM300 465 q1 -37 2 -73 q72 -3 138 -5 q-3 35 -4 67 q-71 3 -136 11 ZM503 386 q82 -2 158 -2 q0 70 7 183 q-90 3 -171 10 q2 -33 3 -64 q37 -2 73 -6 q0 -25 -6 -57 q-34 0 -65 1 q1 -33 1 -65 ZM432 582 q-31 3 -59 6 q0 29 2 55 q202 -5 364 -18 q0 -199 -20 -293 q-60 -10 -317 -10 q-95 0 -160 19 q-8 121 -10 286 q31 4 62 4 q3 -53 4 -106 q68 -2 135 -7 q-1 34 -1 64 ZM188 296 q310 0 612 -24 q0 -31 -5 -60 q-314 0 -614 23 q0 34 7 61 ZM406 177 q151 -5 307 -23 q13 -22 13 -86 q0 -63 -4 -115 q-13 -16 -302 -16 q-107 0 -168 11 q-15 84 -15 195 l68 0 q8 -77 8 -132 q67 -8 176 -8 q116 0 167 -1 q0 44 -6 93 q-124 8 -246 21 q0 33 2 61 Z" /><glyph glyph-name="" unicode="&#x672f;" d="M120 516 q170 0 337 -5 q1 87 3 198 q21 4 40 4 q19 0 36 -4 q1 -121 1 -201 q147 -5 291 -14 l0 -31 q0 -23 -4 -35 q-156 0 -286 2 l0 -79 q1 -68 1 -392 q-9 -6 -34 -6 q-26 0 -36 4 q-9 107 -12 268 q-158 -96 -302 -181 q-25 20 -38 47 q160 120 339 226 l0 115 q-196 4 -338 14 q-4 7 -4 35 q0 17 6 35 ZM634 230 q102 -30 191 -84 q-8 -27 -29 -55 q-83 22 -186 77 q8 33 24 62 ZM693 704 q69 -27 134 -61 q-8 -30 -27 -59 q-80 21 -134 57 q12 38 27 63 Z" /><glyph glyph-name="" unicode="&#x8bf4;" d="M115 476 q90 -12 190 -31 q-6 -159 -26 -313 q34 -4 71 -8 q0 -22 -4 -52 q-62 0 -137 10 q8 153 28 311 q-65 11 -130 27 q0 28 8 56 ZM174 647 q62 -8 136 -49 q-6 -24 -18 -45 q-76 6 -134 47 q6 25 16 47 ZM542 505 q151 -1 295 -16 q9 -24 9 -110 q0 -82 -4 -120 q-67 -9 -226 -9 q-98 0 -184 16 q-14 32 -14 110 q0 37 6 132 q14 5 34 5 q15 0 31 -5 q0 -38 3 -185 q140 -9 278 -9 q4 22 4 65 q0 22 -2 49 q-181 9 -226 14 q-6 10 -6 34 q0 15 2 29 ZM527 220 q36 -4 73 -14 q-42 -92 -86 -188 q-37 5 -67 21 q32 91 80 181 ZM502 706 q45 -65 63 -116 q-16 -14 -50 -28 q-37 45 -66 117 q23 18 53 27 ZM750 713 q28 -7 56 -19 q-17 -83 -64 -133 q-22 0 -55 16 q15 71 63 136 ZM699 187 q14 0 33 -4 q2 -72 2 -137 l156 0 q3 -13 3 -26 q0 -15 -2 -26 q-22 -11 -109 -11 q-83 0 -113 7 q-9 16 -11 80 q2 54 7 113 q17 4 34 4 Z" /><glyph glyph-name="" unicode="&#x7d22;" d="M536 386 q38 -10 60 -28 q-72 -73 -149 -148 q38 -2 234 -2 q-16 31 -16 61 q11 2 27 4 q14 2 27 2 q27 -56 37 -119 q-75 -9 -181 -12 q13 -95 16 -192 q-20 -11 -66 -11 q-40 0 -61 4 q-6 24 -6 46 q35 4 65 4 q-13 75 -15 148 l-27 0 q-95 0 -142 22 q27 37 56 72 q-25 9 -52 21 q-39 17 -62 35 q41 59 108 141 q27 -10 58 -31 q-31 -35 -72 -86 q33 -14 65 -29 q45 50 96 98 ZM356 112 q33 -19 54 -41 q-19 -27 -44 -52 q-12 -12 -26 -25 q-12 -13 -27 -26 q-28 19 -49 45 q40 51 92 99 ZM680 104 q67 -25 131 -64 q-8 -20 -31 -55 q-70 28 -131 65 q13 33 31 54 ZM196 543 q17 0 32 -6 q0 -91 -12 -205 q-11 -4 -34 -4 q-23 0 -32 7 q0 136 12 206 q15 2 34 2 ZM328 530 q263 0 515 -13 q15 -88 15 -168 q-11 -4 -29 -4 q-13 0 -34 2 q-10 35 -19 112 q-221 0 -446 13 q-4 13 -4 31 q0 13 2 27 ZM313 704 q88 -2 175 -9 q2 39 4 65 q16 2 36 2 q18 0 34 -6 q0 -32 -1 -66 q101 -8 201 -21 q0 -27 -6 -52 q-99 0 -197 6 q-1 -33 -3 -68 q-12 -4 -36 -4 q-24 0 -34 8 q0 38 1 70 q-91 7 -180 20 q0 28 6 55 Z" /><glyph glyph-name="" unicode="&#x5b83;" d="M746 337 q4 -27 4 -58 q-164 -29 -315 -31 q5 -98 5 -179 q95 -7 192 -9 q0 25 4 49 q28 0 55 -6 q0 -55 -10 -104 q-179 0 -305 18 q-16 190 -16 379 q18 4 34 4 q20 0 32 -2 q4 -47 6 -89 q150 19 314 28 ZM182 617 q18 0 33 -5 q0 -91 -11 -204 q-12 -4 -35 -4 q-24 0 -34 8 q0 134 12 203 q15 2 35 2 ZM278 639 q104 0 206 -2 q-9 47 -12 95 q35 3 65 5 q12 -53 17 -102 q146 -3 288 -9 q8 -101 8 -193 q-10 -4 -28 -4 q-13 0 -33 2 q-6 42 -12 134 q-247 0 -497 13 q-4 14 -4 32 q0 14 2 29 Z" /><glyph glyph-name="" unicode="&#x63a2;" d="M204 457 q-4 60 -6 119 q31 6 64 8 q6 -64 11 -127 q65 -2 107 -7 q3 -9 3 -30 q0 -23 -3 -30 q-11 -4 -101 -5 q5 -70 9 -139 q37 2 71 2 q4 -12 4 -26 q0 -17 -4 -29 q-24 -8 -67 -15 q4 -69 7 -138 q-25 -9 -64 -9 q-7 70 -12 138 q-42 -5 -93 -9 q-14 22 -14 63 q52 10 102 16 q-6 74 -10 146 q-111 0 -122 5 q-3 13 -3 32 q0 17 5 31 q53 3 116 4 ZM540 508 q34 -8 56 -24 q-25 -60 -74 -123 q-33 9 -57 26 q27 63 75 121 ZM430 276 q92 0 183 -2 q-1 38 -1 74 q6 4 33 6 q21 0 31 -4 q4 -39 7 -77 q92 -1 182 -5 l0 -32 q0 -17 -7 -35 q-86 0 -170 2 q1 -17 2 -35 q81 -14 163 -44 q-4 -27 -17 -58 q-82 11 -143 30 q2 -69 2 -141 q-12 -4 -33 -4 q-26 0 -34 2 q-6 77 -9 149 q-97 -53 -189 -97 q-21 22 -31 51 q101 63 217 122 q-1 14 -1 26 q-91 2 -182 5 q-5 20 -5 35 q0 16 2 32 ZM441 679 q17 0 33 -6 q0 -80 -9 -179 q-11 -4 -35 -4 q-23 0 -33 8 q0 118 9 179 q15 2 35 2 ZM521 664 q195 0 384 -11 q9 -87 9 -168 q-10 -3 -28 -3 q-11 0 -31 2 q-6 34 -13 107 q-158 0 -319 11 q-4 13 -4 33 q0 14 2 29 ZM740 514 q47 -55 85 -121 q-22 -20 -51 -33 q-51 56 -85 121 q21 17 51 33 Z" /><glyph glyph-name="" unicode="&#x8ba8;" d="M433 287 q70 -29 133 -78 q-13 -32 -38 -52 q-71 33 -128 79 q16 29 33 51 ZM721 682 q14 -84 25 -166 q79 -1 128 -7 q3 -9 3 -30 q0 -23 -3 -30 q-12 -4 -119 -5 q22 -196 28 -388 q-38 -16 -150 -16 q-6 24 -6 51 q39 3 80 8 q-14 176 -28 345 q-212 0 -234 5 q-3 12 -3 31 q0 18 5 32 q104 3 226 4 q-7 79 -14 156 q26 6 62 10 ZM115 476 q90 -12 190 -31 q-6 -159 -26 -313 q34 -4 71 -8 q0 -22 -4 -52 q-62 0 -137 10 q8 153 28 311 q-65 11 -130 27 q0 28 8 56 ZM174 647 q62 -8 136 -49 q-6 -24 -18 -45 q-76 6 -134 47 q6 25 16 47 Z" /><glyph glyph-name="" unicode="&#x5929;" d="M162 341 q114 0 225 -2 q42 86 86 171 q39 -6 63 -25 q-30 -75 -63 -148 q177 -4 349 -13 l0 -31 q0 -23 -4 -35 q-213 0 -378 4 q-64 -139 -137 -275 q-35 1 -66 27 q55 126 114 250 q-107 3 -191 7 q-4 8 -4 35 q0 17 6 35 ZM631 152 q80 -36 153 -100 q-13 -30 -36 -49 q-83 42 -149 100 q15 28 32 49 ZM191 675 q309 0 610 -25 q0 -34 -5 -67 q-313 0 -612 24 q0 38 7 68 Z" /><glyph glyph-name="" unicode="&#x505c;" d="M637 760 q19 0 36 -6 q0 -36 -3 -78 q86 -8 169 -20 q0 -27 -5 -52 q-209 0 -417 31 q0 29 6 56 q87 -2 171 -9 q1 48 6 76 q16 2 37 2 ZM574 572 q106 -1 207 -15 q9 -14 9 -61 q0 -78 -4 -116 q-39 -10 -133 -10 q-91 0 -172 14 q-13 31 -13 107 q0 21 8 74 q13 4 32 4 q16 0 31 -4 q0 -26 2 -128 q88 -6 175 -6 q4 22 4 65 q0 1 -2 3 q-112 8 -140 14 q-6 9 -6 31 q0 14 2 28 ZM631 226 q88 0 142 -6 q3 -9 3 -28 q0 -22 -3 -29 q-10 -4 -85 -5 q12 -64 24 -181 q-17 -8 -48 -8 q-44 0 -71 4 q-6 19 -6 45 q26 0 51 2 q-12 77 -17 138 q-114 0 -124 5 q-3 12 -3 30 q0 17 5 30 q59 3 132 3 ZM411 344 q18 0 33 -6 q0 -81 -9 -181 q-11 -4 -34 -4 q-23 0 -32 8 q0 119 8 181 q15 2 34 2 ZM665 337 q99 0 214 -9 q11 -53 21 -143 q-27 -8 -59 -8 q-14 53 -23 92 q-203 1 -321 9 q-6 26 -6 54 q94 5 174 5 ZM352 525 q14 -25 14 -58 q-64 -24 -125 -42 q33 -134 48 -277 q-30 -9 -63 -9 q-34 133 -53 267 q-44 -11 -87 -19 q-11 25 -11 55 q140 69 277 83 Z" /><glyph glyph-name="" unicode="&#x901a;" d="M417 507 q21 0 31 -4 q9 -183 9 -400 q-12 -4 -33 -4 q-24 0 -32 2 q-7 216 -7 400 q6 4 32 6 ZM562 378 l23 0 q-1 24 -1 48 q32 5 61 5 q3 -28 5 -53 q57 1 96 2 q4 -12 4 -28 q0 -14 -2 -26 q-35 -5 -93 -7 q2 -30 3 -57 q48 3 97 5 q3 -24 3 -52 q-51 -7 -97 -10 q1 -29 1 -54 q-17 -9 -57 -9 q-5 28 -9 58 q-52 -3 -102 -3 q-5 25 -5 51 q50 6 102 10 q-3 29 -4 59 l-28 0 q-44 0 -65 4 q-5 10 -5 26 q0 16 3 28 q16 3 70 3 ZM710 518 q67 0 153 -6 q6 -72 6 -162 l0 -247 q-21 -4 -70 -4 q-38 0 -65 4 q-4 13 -4 26 l0 20 q35 4 68 4 q0 131 -5 299 q-153 -6 -291 -9 q-4 16 -4 29 q0 13 4 28 q63 18 208 18 ZM452 725 q144 -12 264 -28 q-4 -33 -12 -67 q-3 -20 -9 -39 q18 -3 35 -6 q-2 -29 -14 -55 q-62 0 -181 22 q4 33 14 58 q41 -4 82 -10 q6 23 11 46 q-108 9 -205 22 q6 29 15 57 ZM107 414 q115 -9 200 -25 q-18 -72 -60 -158 q45 -9 96 -21 q-13 -71 -38 -146 q81 -7 168 -14 q0 -27 -10 -57 q-118 5 -236 24 q17 78 36 146 q-62 18 -104 29 q31 76 56 144 q-60 8 -116 18 q0 27 8 60 ZM185 629 q62 -7 136 -45 q-7 -30 -22 -56 q-76 5 -133 44 q7 31 19 57 Z" /><glyph glyph-name="" unicode="&#x540c;" d="M538 668 q145 0 251 -6 q44 -305 44 -622 q-61 -13 -127 -13 q-9 17 -11 52 q31 5 66 9 q-10 254 -39 507 q-65 -1 -187 -1 q-63 -3 -147 -5 q-7 30 -7 68 q63 7 157 11 ZM342 451 q129 -4 265 -19 q0 -25 -6 -56 q-140 0 -261 20 q0 28 2 55 ZM610 293 q6 -90 6 -180 q-117 -9 -229 -9 q-17 96 -21 182 q118 7 244 7 ZM438 233 l8 -71 l102 6 l-4 69 l-106 -4 ZM214 603 q20 0 37 -4 q0 -170 -3 -322 q0 -121 -2 -230 q-12 -2 -35 -2 q-20 0 -34 4 q-9 108 -9 220 q0 162 11 332 q16 2 35 2 Z" /><glyph glyph-name="" unicode="&#x56e2;" d="M578 732 q164 0 301 -11 q8 -193 8 -349 q0 -263 -13 -386 q-135 -9 -357 -9 q-252 0 -349 5 q-15 278 -19 619 q14 4 32 4 q22 0 34 -4 q11 -283 19 -558 q293 0 571 2 l0 615 q-113 4 -240 6 q-164 -4 -301 -4 q-4 15 -4 29 q0 19 2 30 q108 9 316 11 ZM558 601 q4 -64 8 -127 q82 -6 171 -15 q0 -29 -6 -62 q-82 0 -162 4 q7 -139 9 -280 q-23 -11 -75 -11 q-41 0 -62 4 q-6 23 -6 43 q40 5 76 5 q-7 84 -10 166 q-85 -80 -189 -155 q-23 19 -33 43 q93 98 215 189 q-96 6 -188 18 l0 33 q0 14 2 28 q87 0 187 -6 q-1 60 -1 117 q31 6 64 6 Z" /><glyph glyph-name="" unicode="&#x73a9;" d="M269 467 q8 -50 13 -96 q55 -1 91 -6 q3 -8 3 -27 q0 -21 -3 -27 q-10 -4 -84 -5 q7 -67 9 -127 q42 2 81 2 q4 -12 4 -26 q0 -15 -4 -27 q-54 -14 -226 -25 q-14 21 -14 60 q49 7 95 11 q-12 63 -19 132 q-98 0 -108 5 q-3 11 -3 29 q0 16 5 29 q47 2 101 3 q-2 44 -2 90 q32 5 61 5 ZM110 598 q139 -4 287 -21 q0 -28 -6 -62 q-152 0 -283 21 q0 32 2 62 ZM487 670 q154 0 359 -12 q0 -30 -6 -64 q-179 0 -355 14 l0 34 q0 14 2 28 ZM880 399 q3 -14 3 -31 l0 -32 q-210 -21 -425 -30 q-6 33 -6 65 q106 10 213 17 q106 8 215 11 ZM795 206 q6 -70 12 -139 q25 0 74 1 q3 -12 3 -28 l0 -28 q-2 -7 -74 -7 q-21 0 -59 2 q-18 97 -18 193 q27 4 62 6 ZM552 210 q37 -3 62 -18 q-32 -142 -53 -198 q-37 0 -60 15 q20 115 51 201 Z" /><glyph glyph-name="" unicode="&#x7f51;" d="M613 668 q149 0 238 -2 q20 -179 20 -377 q0 -128 -4 -246 q-37 -6 -107 -6 q-44 0 -66 4 q-5 22 -5 47 q52 4 115 6 q0 250 -15 508 q-217 -4 -461 -18 q-6 18 -6 35 q0 16 4 28 q99 15 287 21 ZM182 595 q21 0 31 -4 q22 -237 22 -519 q-12 -3 -33 -3 q-26 0 -33 1 q-20 280 -20 519 q6 4 33 6 ZM438 423 q28 -16 46 -35 q-29 -43 -66 -82 q34 -31 67 -62 q-10 -27 -39 -48 q-40 30 -76 60 q-11 -11 -22 -22 q-24 -27 -53 -52 q-24 16 -42 39 q31 41 67 81 q-33 32 -62 65 q18 30 37 47 q37 -31 71 -61 q35 36 72 70 ZM704 441 q28 -16 45 -35 q-30 -53 -67 -101 q29 -30 58 -61 q-10 -27 -39 -48 q-33 27 -62 56 q-12 -13 -23 -26 q-23 -32 -51 -61 q-25 16 -42 38 q32 51 68 99 q-32 34 -59 69 q17 29 37 47 q32 -30 63 -62 q35 44 72 85 Z" /><glyph glyph-name="" unicode="&#x7eac;" d="M226 669 q33 -8 59 -19 q-40 -106 -87 -216 q46 -2 98 -6 q31 52 65 106 q27 -9 56 -27 q-77 -143 -144 -259 q62 -5 126 -12 q0 -29 -6 -56 q-177 1 -222 21 q31 65 89 167 q1 1 1 1 q-78 3 -147 12 q49 147 112 288 ZM399 125 q12 -29 12 -56 q-122 -33 -255 -42 q-10 27 -12 56 q115 29 255 42 ZM448 616 q82 0 163 -4 q1 79 4 119 q13 4 30 4 q17 0 30 -4 q2 -61 3 -122 q109 -7 215 -20 q0 -28 -5 -54 q-106 0 -209 6 q1 -49 1 -98 q5 0 7 0 q88 0 141 -7 q4 -8 4 -28 q0 -21 -4 -28 q-13 -5 -141 -5 q-4 0 -6 0 q1 -50 2 -99 q100 -4 191 -10 q9 -39 9 -221 q-13 -8 -57 -8 q-42 0 -69 4 q-4 7 -4 25 q0 11 6 24 q29 0 61 2 q-2 58 -4 115 q-67 3 -132 5 q1 -130 1 -264 q-11 -4 -30 -4 q-16 0 -31 2 q-11 108 -14 269 q-68 3 -134 6 l0 29 q0 20 4 33 q66 -2 129 -4 l0 85 q0 7 0 11 q-118 1 -132 5 q-3 12 -3 30 q0 17 5 30 q61 2 130 3 q0 56 1 102 q-85 6 -168 15 q0 31 6 56 Z" /><glyph glyph-name="" unicode="&#x6587;" d="M383 725 q122 -19 244 -53 q-2 -33 -17 -64 q-83 0 -243 50 q4 38 16 67 ZM334 274 q73 -44 146 -90 q63 64 121 120 q28 -21 51 -46 q-50 -60 -104 -118 q78 -50 156 -103 q-11 -29 -42 -52 q-89 47 -170 98 q-57 -58 -119 -113 q-30 20 -48 50 q51 56 100 107 q-69 47 -131 97 q19 31 40 50 ZM154 498 q350 0 691 -23 q0 -34 -5 -66 q-354 0 -693 21 q0 38 7 68 Z" /><glyph glyph-name="" unicode="&#x95fb;" d="M381 453 q-25 3 -47 6 l0 28 q0 11 1 22 q148 0 345 -25 q0 -24 -5 -51 q-116 0 -229 12 q0 -34 -1 -68 q46 -3 98 -14 q0 -27 -8 -48 q-54 0 -91 7 q-1 -30 -1 -60 q41 -3 90 -14 q0 -26 -8 -48 q-51 0 -84 7 q-1 -36 -3 -72 q64 1 133 1 l16 0 q-4 121 -4 243 q15 2 34 4 q19 0 31 -2 q2 -123 3 -247 q26 -2 45 -4 q3 -7 3 -24 q0 -19 -3 -25 q-7 -3 -44 -4 l0 -96 q-10 -5 -30 -5 q-18 0 -29 2 q-2 49 -4 98 l-18 0 q-234 0 -255 5 q-3 10 -3 26 q0 15 4 26 q28 1 57 1 q0 205 7 319 ZM336 738 q57 -32 116 -74 q-6 -15 -16 -29 q-8 -16 -19 -29 q-62 22 -118 72 q14 35 37 60 ZM212 488 q16 0 29 -3 q11 -235 11 -508 q-11 -4 -28 -4 q-16 0 -30 2 q-17 100 -17 272 q0 181 7 238 q13 3 28 3 ZM599 625 q122 -9 250 -29 q6 -164 6 -289 q0 -199 -10 -307 q-29 -2 -58 -2 q-38 0 -65 4 q-6 12 -6 27 q0 14 2 24 q33 2 65 2 q2 242 2 482 q-93 12 -190 30 l0 29 q0 12 4 29 Z" /><glyph glyph-name="" unicode="&#x6211;" d="M525 743 q14 -30 14 -64 q-196 -46 -395 -76 q-14 30 -18 62 q186 44 399 78 ZM817 439 q4 -12 4 -30 q0 -24 -2 -34 q-73 -5 -144 -8 q29 -62 64 -135 q41 27 85 51 q26 -18 35 -42 q-43 -41 -86 -77 q26 -51 53 -104 q21 14 42 22 q15 -15 21 -41 q-33 -31 -96 -50 q-36 45 -79 128 q-47 -34 -94 -63 q-25 18 -39 41 q44 48 98 91 q-38 77 -80 176 q-105 -5 -210 -7 q11 -67 20 -132 q36 4 71 7 q4 -33 4 -62 q-34 -5 -68 -10 q10 -87 16 -173 q-52 -16 -136 -16 q-9 17 -10 47 q38 6 76 8 q-9 64 -18 124 q-100 -12 -199 -18 q-8 27 -8 62 q100 14 197 24 q-10 70 -20 137 q-78 -2 -155 -3 q-4 30 -4 62 q73 4 149 7 q-6 44 -12 86 q36 10 67 10 q10 -46 19 -93 q94 4 193 7 q-11 26 -22 53 q29 12 66 20 q13 -33 30 -71 q85 3 172 6 ZM774 655 q71 -30 135 -81 q-13 -30 -36 -50 q-73 35 -131 82 q15 28 32 49 Z" /><glyph glyph-name="" unicode="&#x6b66;" d="M844 477 q4 -13 4 -32 q0 -25 -2 -35 q-48 -2 -94 -4 q42 -110 85 -217 q24 7 53 17 q10 -19 16 -47 q-47 -25 -115 -33 q-66 143 -116 276 q-272 -11 -552 -14 q-4 32 -4 65 q242 11 530 19 q-18 50 -34 98 q25 17 67 23 q22 -60 44 -119 q59 2 118 3 ZM396 311 q21 0 35 -2 q4 -45 6 -90 q66 -5 135 -17 q0 -25 -6 -56 q-67 0 -127 10 q2 -49 2 -98 q38 -2 76 -4 q0 -31 -4 -63 q-131 0 -170 6 q-101 4 -153 18 l0 66 q0 61 10 121 q33 0 64 -4 q0 -80 -2 -127 q54 -5 108 -8 q-13 121 -13 244 q17 2 39 4 ZM782 688 q73 -31 140 -86 q-12 -29 -35 -48 q-76 36 -136 86 q14 27 31 48 ZM176 704 q78 2 193 2 q86 0 120 -6 q2 -12 2 -29 l0 -31 q-14 -8 -124 -8 q-131 0 -189 8 q-4 15 -4 33 q0 19 2 31 Z" /><glyph glyph-name="" unicode="&#x7ec6;" d="M225 669 q34 -8 61 -20 q-39 -104 -84 -213 q44 -2 94 -6 q29 51 63 105 q29 -10 60 -29 q-75 -140 -141 -255 q60 -6 121 -14 q0 -30 -6 -59 q-177 2 -222 23 q31 65 89 167 q-78 3 -146 13 q48 147 111 288 ZM399 126 q12 -30 12 -59 q-122 -32 -255 -42 q-10 29 -12 59 q115 29 255 42 ZM621 584 q128 -4 267 -20 q8 -134 8 -302 q0 -138 -6 -179 q-59 -6 -248 -6 q-101 0 -165 12 q-4 28 -4 160 q0 91 16 298 q31 0 68 -6 q-1 -86 -5 -176 q39 -1 81 -4 q3 52 10 101 q31 0 64 -5 q0 -52 -2 -102 q31 -3 62 -6 q0 -27 -5 -58 q-32 0 -61 1 q-4 -49 -10 -95 q-31 0 -65 5 q0 48 3 95 q-41 3 -79 8 q-3 -79 -7 -161 l277 0 q0 183 -2 358 q-105 2 -201 20 l0 31 q0 18 4 31 Z" /><glyph glyph-name="" unicode="&#x60f3;" d="M115 620 q72 0 153 -5 q-3 56 -4 109 q15 4 29 4 l28 0 q8 -61 13 -118 q61 -4 123 -11 q0 -29 -6 -63 q-57 0 -110 3 q2 -26 3 -51 q53 -12 107 -22 q0 -27 -10 -64 q-49 5 -92 15 q3 -54 3 -106 q-9 -3 -26 -3 q-18 0 -27 2 q-8 55 -13 106 q-58 -29 -159 -59 q-16 23 -22 51 q81 54 173 83 q-3 27 -5 52 q-82 6 -160 17 l0 33 q0 14 2 27 ZM616 706 q139 -2 255 -10 q3 -126 3 -192 q0 -97 -7 -195 q-55 -13 -213 -13 q-78 0 -134 12 q-8 50 -10 189 q0 84 8 172 q14 4 33 4 q20 0 33 -4 l0 -82 q20 1 49 1 q35 0 55 -2 q4 -13 4 -30 q0 -15 -2 -29 q-19 -5 -61 -5 q-26 0 -45 1 l0 -39 q18 1 44 1 q32 0 49 -2 q4 -13 4 -31 q0 -15 -2 -28 q-17 -6 -55 -6 q-23 0 -40 1 l0 -56 q120 3 216 3 q2 125 4 274 q-107 2 -192 10 q0 29 4 56 ZM336 225 q35 -20 57 -44 q-24 -36 -55 -70 q-16 -16 -33 -33 q-16 -18 -34 -35 q-31 20 -53 48 q51 69 118 134 ZM474 137 q20 0 33 -2 q4 -43 10 -88 q61 0 131 4 q6 -14 6 -29 q0 -20 -2 -32 q-24 -9 -98 -9 q-76 0 -97 6 q-14 76 -14 146 q19 4 31 4 ZM607 233 q40 -50 57 -90 q-15 -13 -48 -27 q-33 35 -59 90 q22 18 50 27 ZM800 190 q24 -45 33 -91 q-29 -12 -58 -12 q-22 45 -29 92 q27 9 54 11 Z" /><glyph glyph-name="" unicode="&#x50cf;" d="M294 524 q20 -23 22 -52 q-40 -29 -86 -49 q22 -127 32 -261 q-29 -9 -62 -9 q-23 120 -36 243 q-35 -12 -72 -21 q-19 20 -27 53 q101 60 229 96 ZM516 547 q120 0 208 -7 q9 28 17 52 q-108 13 -214 31 q-69 -52 -143 -94 q-25 18 -39 41 q100 104 250 182 q27 -18 36 -43 q-18 -16 -34 -30 q37 -4 75 -9 q103 -15 155 -27 q-6 -44 -31 -111 q39 -5 70 -11 q6 -44 6 -104 q0 -62 -7 -86 q-59 -14 -246 -14 l-28 0 q-91 -130 -125 -156 q-30 11 -48 41 q44 61 87 118 q-74 5 -99 18 q-5 42 -5 75 q0 43 7 102 q15 4 30 4 q18 0 28 -2 q3 -90 3 -132 q33 -4 81 -6 q52 65 85 105 q-53 3 -119 7 q-2 13 -2 30 q0 13 2 26 ZM711 479 q-36 -51 -74 -101 q125 0 172 2 q2 47 2 91 q-20 3 -100 8 ZM678 227 q22 -101 36 -263 q-22 -13 -116 -13 q-14 11 -14 42 q17 2 54 9 q-10 108 -20 215 q26 10 60 10 ZM804 87 q47 -19 91 -52 q-13 -28 -35 -47 q-48 22 -87 52 q15 27 31 47 ZM877 250 q18 -25 26 -52 q-53 -38 -113 -51 q-19 25 -28 50 q56 34 115 53 ZM387 146 q28 -6 55 -18 q-9 -59 -35 -94 q-21 0 -53 15 q8 51 33 97 ZM499 117 q28 -7 56 -19 q-9 -66 -36 -107 q-21 0 -54 16 q7 57 34 110 Z" /><glyph glyph-name="" unicode="&#x8c61;" d="M363 554 q137 0 241 -8 q8 34 15 63 q-117 13 -229 33 q-86 -66 -180 -118 q-27 19 -42 44 q115 117 286 203 q29 -19 38 -45 q-14 -13 -28 -24 q37 -4 75 -9 q114 -16 170 -30 q-5 -49 -29 -124 q46 -5 82 -12 q6 -47 6 -110 q0 -66 -8 -91 q-70 -15 -295 -15 l-18 0 q-82 -116 -114 -140 q-30 11 -48 41 q38 52 75 101 q-90 5 -119 20 q-6 45 -6 79 q0 46 8 110 q15 4 31 4 q19 0 29 -2 q4 -96 4 -141 q40 -5 101 -6 q4 4 6 7 q50 64 84 104 q-60 3 -135 7 q-2 14 -2 32 q0 13 2 27 ZM574 483 q-38 -54 -79 -107 q150 0 207 1 q2 50 2 97 q-25 3 -130 9 ZM547 250 q26 -104 42 -270 q-22 -14 -116 -14 q-16 12 -16 45 q16 3 50 10 q-13 109 -26 219 q29 10 66 10 ZM718 106 q50 -22 95 -61 q-12 -30 -36 -49 q-51 26 -91 61 q15 28 32 49 ZM777 259 q20 -27 28 -55 q-64 -49 -137 -66 q-20 27 -30 53 q68 44 139 68 ZM220 164 q30 -8 59 -21 q-11 -61 -43 -98 q-22 0 -57 17 q9 53 41 102 ZM353 133 q29 -7 59 -20 q-11 -70 -42 -113 q-22 0 -57 17 q9 60 40 116 Z" /><glyph glyph-name="" unicode="&#x5c0f;" d="M190 443 q35 -7 65 -23 q-31 -102 -75 -228 q-38 3 -66 21 q29 124 76 230 ZM550 679 q48 -293 64 -603 q-67 -24 -175 -24 q-11 21 -12 58 q57 11 113 14 q-30 273 -60 545 q38 10 70 10 ZM837 446 q22 -43 39 -85 q19 -42 32 -78 q-28 -21 -64 -29 q-46 81 -73 166 q35 17 66 26 Z" /><glyph glyph-name="" unicode="&#x6821;" d="M240 627 q21 0 30 -4 q7 -67 11 -135 l6 0 q63 0 88 -6 q1 -11 1 -26 l0 -28 q-10 -7 -91 -7 q2 -49 4 -100 q54 -25 105 -53 q-8 -28 -25 -55 q-44 13 -78 31 q2 -77 2 -157 q-11 -4 -32 -4 q-24 0 -32 2 q-6 82 -11 159 q-39 -29 -92 -59 q-25 25 -37 52 q56 46 125 93 q-2 47 -4 92 q-63 2 -96 6 q-3 13 -3 30 q0 17 2 28 q43 1 96 2 q-2 69 -2 134 q6 3 33 5 ZM749 490 q80 -46 159 -102 q-11 -24 -33 -50 q-88 43 -157 95 q15 31 31 57 ZM526 499 q29 -11 53 -29 q-39 -79 -95 -165 q-32 11 -56 34 q51 91 98 160 ZM693 731 q14 -59 17 -109 q95 -4 189 -12 q0 -30 -6 -58 q-232 0 -461 18 q0 32 6 62 q100 -1 198 -6 q-10 46 -10 99 q35 6 67 6 ZM785 286 q25 -15 43 -39 q-42 -59 -105 -126 q60 -48 119 -97 q-10 -28 -40 -50 q-70 45 -132 94 q-51 -49 -111 -102 q-29 15 -41 43 q46 55 93 106 q-59 48 -112 100 q18 30 38 48 q63 -46 125 -94 q61 63 123 117 Z" /><glyph glyph-name="" unicode="&#x534f;" d="M231 572 q22 0 32 -4 q5 -64 8 -130 q62 -2 103 -7 q3 -8 3 -29 q0 -23 -3 -30 q-11 -5 -100 -6 q4 -118 4 -245 q-12 -4 -34 -4 q-26 0 -34 2 q-7 129 -10 247 q-89 1 -98 6 q-4 12 -4 31 q0 18 5 32 q44 2 95 3 q-1 66 -1 128 q6 4 34 6 ZM475 514 q59 -5 117 -14 q29 81 58 159 q35 -7 60 -22 q-22 -75 -46 -149 q62 -10 123 -24 l0 -134 q-2 -148 -18 -220 q-10 -5 -57 -5 q-42 0 -71 8 q-3 11 -3 23 q1 14 5 24 l66 0 q5 125 5 249 q-36 8 -71 15 q-57 -177 -127 -353 q-32 5 -55 25 q53 177 110 343 q-53 11 -106 22 q0 28 10 53 ZM860 369 q35 -62 65 -130 q-18 -22 -55 -33 q-36 64 -65 131 q24 19 55 32 ZM441 381 q29 -6 55 -20 q-21 -58 -50 -130 q-32 2 -55 17 q19 72 50 133 Z" /><glyph glyph-name="" unicode="&#x65b0;" d="M334 742 q18 0 34 -5 q0 -36 -5 -77 q86 -1 139 -7 q3 -10 3 -32 q0 -24 -3 -31 q-15 -6 -158 -6 q-180 0 -196 6 q-4 13 -4 33 q0 19 6 33 q65 3 141 4 q1 51 8 80 q16 2 35 2 ZM206 563 q27 -36 38 -108 q-28 -16 -56 -19 q-31 46 -37 112 q23 11 55 15 ZM412 561 q36 -4 61 -19 q-26 -85 -47 -137 q44 -2 75 -6 q3 -9 3 -30 q0 -22 -3 -30 q-14 -5 -149 -5 q-214 0 -234 5 q-3 13 -3 32 q0 18 5 32 q104 3 232 3 l2 0 q23 88 58 155 ZM150 250 q70 0 140 -2 q-3 29 -6 57 q35 9 64 9 q5 -35 9 -67 q60 -2 117 -5 l0 -31 q0 -18 -7 -36 q-52 0 -102 1 q2 -24 4 -47 q65 -14 128 -40 q-3 -27 -17 -59 q-61 10 -105 26 q4 -49 6 -98 q-46 -19 -121 -19 q-10 19 -12 54 q34 8 66 11 q-2 26 -5 50 q-74 -38 -143 -69 q-22 21 -32 50 q78 48 168 92 q-3 26 -5 50 q-73 2 -145 5 q-4 20 -4 36 q0 16 2 32 ZM623 491 q37 -3 63 -20 q-8 -35 -24 -106 q121 -5 248 -17 q0 -26 -6 -57 q-48 0 -93 2 q10 -141 10 -285 q-10 -5 -31 -5 q-18 0 -30 1 q-17 145 -19 293 q-48 3 -93 9 q-22 -91 -52 -222 q-33 6 -59 21 q24 164 86 386 ZM869 646 q11 -30 11 -57 q-136 -39 -286 -51 q-10 28 -12 57 q129 35 287 51 Z" /><glyph glyph-name="" unicode="&#x5fc3;" d="M612 605 q42 -64 59 -116 q-17 -14 -54 -29 q-34 45 -61 116 q24 19 56 29 ZM853 505 q47 -59 66 -106 q-16 -14 -52 -28 q-39 40 -69 106 q24 19 55 28 ZM285 543 q29 -18 49 -45 q-65 -100 -207 -234 q-34 18 -47 50 q98 127 205 229 ZM422 394 q21 0 34 -5 q8 -110 17 -225 q124 0 257 -3 q4 -13 4 -27 q0 -18 -2 -35 q-89 -5 -224 -5 q-55 0 -104 7 q-14 127 -14 286 q19 7 32 7 Z" /><glyph glyph-name="" unicode="&#x661f;" d="M522 720 q154 0 257 -8 q5 -106 5 -227 q0 -49 -7 -89 q-43 -6 -131 -6 q-238 0 -408 10 q-5 101 -5 228 q0 36 5 86 q118 6 284 6 ZM310 652 l0 -58 q134 -1 293 -6 q0 -35 -11 -64 q-176 0 -282 6 l0 -74 l392 0 l0 196 l-392 0 ZM723 177 q4 -28 4 -60 q-83 -9 -161 -13 q-1 -43 -5 -79 q11 0 21 0 q93 0 149 -7 q4 -8 4 -30 q0 -22 -4 -29 q-14 -6 -149 -6 q-238 0 -260 6 q-3 12 -3 31 q0 18 5 32 q79 2 169 3 q-2 36 -3 75 q-75 -4 -146 -4 q-6 28 -6 58 q74 6 151 11 q0 38 1 74 q-93 4 -183 11 q-36 -72 -70 -128 q-37 11 -59 33 q25 58 102 211 q37 -10 68 -31 q-7 -16 -13 -28 q75 -1 157 -4 q1 28 3 54 q15 3 33 3 q19 0 33 -3 q2 -29 3 -56 q88 -3 183 -9 q0 -27 -6 -58 q-88 0 -175 3 q1 -36 1 -67 q77 4 156 7 Z" /><glyph glyph-name="" unicode="&#x884c;" d="M303 237 q16 -100 23 -208 q-30 -10 -65 -10 q-19 103 -28 209 q35 9 70 9 ZM728 607 q96 0 154 -7 q3 -9 3 -31 q0 -23 -3 -30 q-15 -6 -154 -6 q-175 0 -191 6 q-3 12 -3 32 q0 18 5 33 q85 3 189 3 ZM518 344 q170 0 396 -18 q0 -30 -6 -64 q-70 0 -138 3 q13 -117 17 -236 q-17 -10 -56 -10 q-41 0 -62 4 q-6 21 -6 41 q30 4 57 4 q-16 100 -17 199 q-95 5 -187 15 l0 34 q0 14 2 28 ZM434 676 q14 -30 14 -64 q-169 -50 -340 -82 q-14 30 -18 62 q160 48 344 84 ZM402 385 q14 -29 14 -63 q-150 -47 -300 -78 q-14 30 -18 61 q141 45 304 80 Z" /><glyph glyph-name="" unicode="&#x6027;" d="M134 490 q19 0 36 -7 q0 -104 -9 -233 q-12 -4 -38 -4 q-25 0 -35 9 q0 153 9 232 q16 3 37 3 ZM268 581 q24 0 35 -4 q5 -64 8 -132 q51 -2 110 -10 q0 -36 -11 -66 q-56 0 -96 4 q5 -124 5 -258 q-13 -5 -37 -5 q-29 0 -38 3 q-13 248 -13 461 q6 5 37 7 ZM533 499 q71 0 141 -1 q5 91 12 158 q16 2 35 2 q18 0 33 -5 q0 -75 -2 -156 q68 0 134 -1 l0 -31 q0 -23 -4 -35 l-132 0 q-2 -60 -5 -121 q44 -3 87 -5 q0 -29 -6 -63 q-43 0 -84 1 q-3 -59 -7 -119 q62 -3 130 -7 q0 -29 -6 -62 q-165 0 -325 14 l0 33 q0 13 2 27 q61 0 129 -2 q0 64 1 119 q-69 2 -137 8 l0 33 q0 14 2 28 q63 0 136 -2 q1 64 4 118 q-81 -1 -140 -1 q-4 8 -4 35 q0 18 6 35 ZM512 663 q37 -12 67 -29 q-54 -101 -112 -194 q-37 11 -58 33 q47 97 103 190 Z" /><glyph glyph-name="" unicode="&#x5b66;" d="M515 736 q28 -37 40 -113 q-28 -15 -55 -18 q-32 47 -37 116 q22 11 52 15 ZM735 735 q37 -3 63 -18 q-29 -93 -48 -130 q-38 0 -62 15 q18 77 47 133 ZM273 726 q53 -67 75 -121 q-16 -14 -52 -28 q-44 46 -78 121 q24 19 55 28 ZM207 533 q17 0 33 -5 q0 -95 -11 -213 q-11 -4 -34 -4 q-23 0 -32 8 q0 140 10 212 q15 2 34 2 ZM291 549 q284 0 558 -3 q13 -103 13 -197 q-10 -4 -29 -4 q-12 0 -32 2 q-9 44 -18 138 q-242 0 -490 3 q-4 14 -4 33 q0 13 2 28 ZM320 393 q169 -7 343 -40 q-34 -87 -89 -168 q3 -11 6 -22 q108 4 223 7 q4 -11 4 -28 q0 -23 -2 -33 q-105 -6 -210 -10 q14 -74 14 -141 q-17 -6 -70 -6 q-39 0 -74 10 q0 24 4 47 l76 0 q-11 43 -20 87 q-144 -5 -290 -6 q-3 28 -3 59 q131 7 279 12 q-4 19 -7 36 q27 49 59 105 q-125 12 -250 32 q0 31 7 59 Z" /><glyph glyph-name="" unicode="&#x5bfb;" d="M276 725 q121 0 239 -2 q115 -3 201 -11 q12 -38 12 -165 q0 -139 -4 -161 q-72 -16 -443 -16 q-7 10 -7 30 q0 21 4 33 q88 3 381 8 q0 26 -2 67 q-37 -1 -105 -1 q-227 0 -247 5 q-4 12 -4 31 q0 17 5 31 q111 3 246 3 q60 0 102 -3 q-2 34 -4 73 q-127 2 -376 13 q-2 17 -2 33 q0 19 4 32 ZM667 255 q88 0 141 -7 q3 -8 3 -28 q0 -22 -3 -28 q-14 -5 -141 -5 l-33 0 q15 -130 15 -214 q-36 -9 -70 -9 q-50 0 -66 9 q-4 6 -4 21 q0 14 2 24 q32 1 64 1 q-4 85 -10 168 q-343 1 -379 5 q-3 11 -3 29 q0 17 5 30 q171 3 372 4 q-3 38 -6 75 q28 6 60 8 q7 -44 12 -83 l41 0 ZM319 133 q27 -38 38 -114 q-28 -16 -56 -19 q-31 47 -37 117 q24 11 55 16 Z" /><glyph glyph-name="" unicode="&#x538c;" d="M267 698 q277 -12 559 -30 l0 -26 q0 -20 -3 -33 q-276 4 -559 28 q-4 11 -4 31 q0 15 7 30 ZM227 581 q25 -2 60 -10 q-39 -214 -98 -435 q-43 0 -64 15 q43 216 102 430 ZM742 532 q60 -26 129 -69 q-10 -23 -30 -51 q-70 25 -132 70 q17 29 33 50 ZM310 346 q90 0 177 -2 q38 102 77 202 q37 -6 59 -24 q-27 -91 -57 -181 q134 -4 263 -12 l0 -30 q0 -23 -4 -34 q-159 0 -284 3 q-54 -157 -117 -311 q-33 2 -63 26 q48 144 99 287 q-84 3 -152 7 q-4 8 -4 35 q0 17 6 34 ZM621 132 q96 -40 184 -109 q-12 -29 -35 -48 q-100 46 -181 109 q15 27 32 48 Z" /><glyph glyph-name="" unicode="&#x6837;" d="M451 591 q50 -2 98 -4 q-12 56 -17 112 q30 10 59 12 q18 -63 27 -126 q45 -2 88 -4 q16 68 44 127 q28 -2 60 -10 q-11 -62 -33 -120 q52 -2 101 -4 l0 -28 q0 -22 -4 -36 q-89 1 -177 4 q1 -55 2 -109 q94 -1 138 -4 q1 -11 1 -25 l0 -27 q-18 -7 -138 -9 q1 -56 1 -111 q93 5 188 7 q3 -15 3 -31 l0 -32 q-96 -7 -191 -13 q1 -76 1 -155 q-13 -4 -36 -4 q-28 0 -37 2 q-1 79 -2 153 q-90 -4 -180 -7 q-5 33 -5 65 q92 7 184 11 q0 60 -1 115 q-107 0 -154 7 q-4 13 -4 29 q0 16 2 27 q65 2 156 2 l0 111 q-89 4 -178 9 q-4 12 -4 34 q0 16 8 32 ZM259 599 q22 0 32 -4 q7 -64 11 -129 q64 0 91 -3 q2 -12 2 -28 l0 -30 q-11 -10 -88 -11 q2 -38 3 -75 q50 -21 99 -46 q-8 -27 -26 -54 q-39 10 -71 24 q2 -70 2 -143 q-12 -4 -33 -4 q-25 0 -33 2 q-6 75 -11 145 q-46 -32 -112 -66 q-25 25 -37 53 q64 47 145 94 q-2 37 -3 70 q-90 2 -134 8 q-4 14 -4 32 q0 18 2 30 q57 1 134 2 q-2 66 -2 127 q6 4 33 6 Z" /><glyph glyph-name="" unicode="&#x8981;" d="M165 269 q117 0 231 -3 q17 31 34 61 q34 -8 63 -21 q-11 -22 -21 -42 q187 -7 368 -20 q0 -30 -5 -59 q-202 0 -397 8 q-24 -49 -46 -98 q84 -22 169 -42 q22 57 50 106 q32 -7 60 -22 q-18 -48 -40 -100 q58 -14 115 -27 q-4 -27 -16 -57 q-64 12 -124 25 q-11 -25 -22 -50 q-35 2 -60 19 q7 24 15 46 q-124 29 -246 65 q33 73 67 138 q-102 5 -202 12 q0 34 7 61 ZM260 722 q257 0 510 -8 l0 -28 q0 -20 -3 -30 q-88 0 -163 0 q2 -38 4 -76 q116 -6 171 -16 q11 -38 11 -106 q0 -64 -7 -102 q-37 -12 -236 -12 q-270 9 -346 34 q-7 26 -7 87 q0 44 10 102 q15 3 33 3 q18 0 32 -3 q0 -89 -5 -144 q132 -12 276 -14 q92 0 180 -4 q-2 52 -4 101 q-51 4 -105 7 q1 -31 2 -60 q-32 -6 -65 -6 q-3 35 -5 69 q-44 2 -89 3 q2 -34 4 -66 q-33 -6 -65 -6 q-4 37 -8 73 l-69 0 q-3 15 -3 31 q0 16 3 27 q31 1 64 2 q-3 40 -5 79 q-64 1 -116 2 q-4 6 -4 30 q0 16 5 31 ZM539 583 q-3 37 -4 74 q-48 0 -90 1 q3 -39 5 -76 q43 1 89 1 Z" /><glyph glyph-name="" unicode="&#x91ce;" d="M199 274 q38 1 85 2 q2 28 3 58 q-86 2 -162 15 q-13 31 -13 107 q0 60 4 214 q13 4 32 4 q15 0 30 -4 q0 -54 5 -264 q55 -4 109 -6 q3 40 7 83 q-43 4 -87 11 q0 31 6 55 q44 -3 86 -6 q3 28 6 56 q32 0 63 -8 q0 -18 -2 -55 q34 -3 65 -6 q0 -23 -8 -53 q-31 0 -60 1 q-3 -36 -6 -81 q52 -2 102 -2 q4 20 4 59 q0 71 -2 160 q-193 10 -241 15 q-5 9 -5 32 q0 15 2 29 q156 -2 305 -16 q8 -48 8 -220 q0 -77 -4 -114 q-55 -5 -173 -6 q-2 -30 -4 -58 l11 0 q47 0 65 -4 q2 -10 2 -24 l0 -26 q-8 -9 -69 -9 l-14 0 q-3 -34 -7 -68 q12 0 22 0 q59 0 82 -5 q2 -10 2 -25 l0 -27 q-10 -8 -85 -8 q-116 0 -167 7 q-3 13 -3 29 q0 17 2 27 q37 1 84 2 q1 33 2 69 q-52 2 -80 6 q-3 12 -3 28 q0 16 1 26 ZM601 616 q137 -8 277 -30 q-7 -51 -26 -100 q-7 -29 -20 -53 q18 -5 35 -11 q-3 -26 -17 -57 q-107 14 -174 42 q11 36 21 55 q36 -5 71 -13 q19 46 29 81 q-111 13 -203 23 q0 35 7 63 ZM721 228 q27 -154 27 -220 q-27 -10 -61 -10 q-42 0 -75 4 q-7 21 -7 42 q30 7 74 7 q-9 87 -15 171 q29 6 57 6 ZM891 325 q0 -64 -15 -136 q-27 0 -57 5 q0 37 9 70 q-141 -17 -299 -17 q-2 31 -2 55 q179 23 364 23 Z" /><glyph glyph-name="" unicode="&#x4e5f;" d="M550 699 q19 0 33 -3 q5 -97 5 -178 q111 7 220 11 q12 -91 16 -220 q-28 -8 -63 -8 q-8 84 -19 159 q-77 -7 -154 -13 q-1 -103 -5 -185 q-8 -4 -32 -4 q-20 0 -27 4 q-9 84 -11 180 q-94 -6 -187 -9 q7 -191 7 -318 q24 -2 45 -2 q121 4 251 8 q2 -20 2 -31 q0 -15 -4 -30 q-84 -12 -282 -12 q-52 0 -78 10 q-9 73 -16 373 q-57 -2 -113 -2 q-4 31 -4 57 q59 5 117 10 q1 138 6 148 q20 4 30 4 q19 0 31 -4 q3 -75 6 -143 q95 7 188 13 q0 89 6 182 q15 3 32 3 Z" /><glyph glyph-name="" unicode="&#x4e00;" d="M176 416 q305 0 606 -11 q0 -12 0 -32 q0 -24 -4 -36 q-378 0 -604 7 q-4 8 -4 36 q0 18 6 36 Z" /><glyph glyph-name="" unicode="&#x610f;" d="M528 771 q13 -43 17 -78 q90 -4 186 -10 q0 -25 -5 -54 q-242 0 -479 18 l0 29 q0 12 2 24 q102 0 219 -4 q-9 32 -9 69 q36 6 69 6 ZM352 610 q18 -42 28 -85 q46 2 90 3 q43 1 85 2 q9 38 30 74 q28 -7 56 -20 q-5 -29 -14 -52 q88 2 175 3 q3 -14 3 -29 l0 -31 q-325 -13 -659 -19 q-5 30 -5 61 q83 3 164 6 q-11 36 -16 73 q31 11 63 14 ZM254 144 q32 -13 60 -36 q-42 -61 -93 -118 q-36 12 -59 37 q40 66 92 117 ZM427 127 q6 -48 10 -104 q114 -3 226 -5 q3 -10 3 -29 q0 -15 -1 -26 q-72 -3 -177 -3 q-63 0 -118 6 q-12 65 -12 156 q35 5 69 5 ZM563 144 q39 -20 75 -53 q-12 -28 -35 -47 q-39 22 -71 53 q14 26 31 47 ZM400 428 q155 -2 303 -14 q9 -26 9 -119 q0 -76 -4 -112 q-77 -8 -262 -8 q-87 0 -163 14 q-13 30 -13 103 q0 35 4 125 q13 4 32 4 q15 0 30 -4 q0 -23 2 -84 q84 -4 171 -15 q0 -22 -4 -48 q-89 0 -165 11 q0 -21 1 -43 q150 -7 298 -7 q4 21 4 64 q0 30 -2 67 q-191 8 -238 13 q-5 8 -5 28 q0 12 2 25 ZM762 170 q34 -44 49 -79 q-15 -13 -47 -26 q-29 30 -51 79 q21 18 49 26 Z" /><glyph glyph-name="" unicode="&#x5f02;" d="M659 224 q23 0 31 -4 q5 -23 9 -45 q58 4 115 7 q6 -14 6 -27 q2 -10 2 -32 q-57 -6 -114 -11 q10 -78 10 -157 q-10 -9 -31 -9 q-17 0 -29 5 q-16 78 -24 154 q-116 -11 -231 -19 q-1 -2 -1 -3 q-10 -35 -18 -73 q-8 -37 -22 -71 q-17 0 -37 6 q-17 5 -30 15 q14 60 30 121 q-59 -5 -117 -8 q-8 17 -8 33 l0 28 q71 7 142 13 q10 41 22 81 q22 4 40 4 q19 -2 32 -4 q-8 -38 -16 -74 q105 9 209 16 q-1 24 -2 45 q11 7 32 9 ZM311 669 q0 -174 -2 -315 q156 -4 267 -6 q52 0 115 -5 q2 -14 2 -25 q0 -26 -4 -39 q-53 0 -125 2 q-179 0 -331 10 q0 67 2 237 q4 125 10 213 q17 4 35 4 q21 -2 31 -5 q0 -2 0 -4 q94 0 185 -2 q177 -3 310 -9 q12 -37 12 -162 q0 -71 -14 -82 q-78 -27 -480 -27 q-7 10 -7 30 q0 21 4 33 q97 7 420 19 q0 37 1 124 q-150 1 -431 9 Z" /><glyph glyph-name="" unicode="&#x8425;" d="M353 761 q5 -34 8 -65 q135 -2 267 -7 q7 40 16 78 q18 2 37 2 q23 -2 31 -6 q-2 -40 -7 -78 q86 -4 169 -9 l0 -30 q0 -22 -4 -33 q-93 0 -175 1 q-6 -32 -13 -64 q-8 -4 -35 -4 q-22 0 -35 6 q2 32 6 63 q-136 1 -249 5 q4 -36 7 -71 q-36 -7 -71 -7 q-8 41 -14 81 q-87 3 -159 8 q-4 7 -4 33 q0 17 6 34 q76 0 149 -1 q-3 30 -5 57 q36 7 75 7 ZM160 515 q18 0 33 -6 q0 -90 -18 -202 q-11 -4 -34 -4 q-23 0 -32 8 q0 133 17 202 q15 2 34 2 ZM274 508 q299 0 588 -22 q8 -87 8 -166 q-11 -5 -30 -5 q-13 0 -34 3 q-7 33 -13 106 q-256 0 -517 21 q-4 14 -4 34 q0 13 2 29 ZM362 129 q250 0 383 -27 q6 -35 6 -83 q0 -49 -8 -69 q-64 -15 -270 -15 q-186 0 -230 23 q-6 45 -6 81 q0 32 1 75 q16 4 32 4 q20 0 30 -2 q11 -73 11 -107 q56 -8 160 -8 q155 0 210 2 q2 24 2 46 q-40 6 -321 21 q-2 14 -2 32 q0 13 2 27 ZM391 374 q156 0 347 -16 q10 -16 10 -79 q0 -68 -10 -88 q-61 -8 -295 -8 q-114 0 -164 15 q-10 36 -10 76 q0 43 12 89 q13 4 29 4 q18 0 31 -4 l0 -106 q148 -7 331 -7 q2 25 2 48 q-153 8 -287 21 l0 30 q0 13 4 25 Z" /><glyph glyph-name="" unicode="&#x8fce;" d="M637 717 q7 -27 7 -59 q-140 -49 -282 -61 q-13 22 -13 61 q138 37 288 59 ZM633 492 q-18 1 -35 1 q-6 18 -6 32 q0 14 6 30 q41 4 138 4 q74 0 167 -7 q5 -70 5 -158 l0 -131 q-12 -3 -41 -3 q-37 0 -65 3 q-4 13 -4 26 l0 21 q22 3 42 3 q0 76 -6 174 q-70 2 -134 3 q30 -185 32 -360 q-10 -4 -29 -4 q-19 0 -30 2 q-34 185 -40 364 ZM433 516 q26 -109 52 -214 q51 8 102 17 q8 -21 14 -59 q-87 -22 -168 -29 q-40 130 -65 269 q30 10 65 16 ZM203 598 q61 -7 133 -41 q-7 -32 -24 -61 q-74 5 -130 39 q8 34 21 63 ZM101 396 q109 -10 195 -26 q-15 -74 -39 -135 q41 -13 82 -31 q-4 -52 -25 -134 q129 -17 221 -25 q0 -14 -2 -27 q0 -18 -10 -33 q-148 3 -279 37 q8 58 25 130 q-55 20 -100 34 q20 66 41 130 q-56 11 -113 21 q-2 10 -2 29 q0 12 6 30 Z" /><glyph glyph-name="" unicode="&#x5f71;" d="M268 751 q147 -6 265 -19 q0 -185 -19 -273 q-29 -6 -137 -7 q0 -24 -1 -45 q21 0 40 0 q85 0 137 -6 q3 -8 3 -28 q0 -21 -3 -27 q-13 -5 -137 -5 q-271 0 -296 5 q-3 11 -3 29 q0 16 4 29 q88 2 188 3 q-1 23 -1 45 q-86 1 -146 18 q-8 102 -10 242 q30 4 61 4 q2 -40 4 -82 q17 1 40 1 q56 0 89 -2 q3 -13 3 -29 q0 -14 -2 -27 q-29 -5 -94 -5 q-20 0 -34 1 q1 -28 2 -55 q128 -10 236 -10 q0 64 8 167 q-110 5 -199 20 q0 30 2 56 ZM314 308 q83 0 184 -14 q9 -18 9 -86 q0 -62 -9 -80 q-24 -5 -98 -6 q12 -73 15 -145 q-15 -10 -47 -10 q-39 0 -59 4 q-6 21 -6 41 q25 4 47 4 q-13 54 -14 106 q-85 1 -123 13 q-9 32 -9 69 q0 41 11 86 q11 4 27 4 q17 0 28 -4 l0 -106 q75 -6 167 -6 q2 33 2 63 q-68 7 -128 19 l0 26 q0 12 3 22 ZM220 103 q26 -20 39 -51 q-27 -30 -90 -64 q-25 25 -37 52 q38 31 88 63 ZM510 105 q36 -30 65 -67 q-16 -19 -43 -37 q-36 25 -66 67 q21 22 44 37 ZM875 389 q13 -24 13 -57 q-102 -22 -194 -32 q-12 25 -12 53 q97 30 193 36 ZM838 611 q19 -22 20 -50 q-94 -59 -222 -86 q-18 19 -26 50 q100 54 228 86 ZM894 180 q12 -29 12 -57 q-112 -41 -234 -54 q-10 28 -11 57 q105 37 233 54 Z" /><glyph glyph-name="" unicode="&#x7528;" d="M219 627 q38 -3 68 -7 q-12 -294 -38 -583 q-35 4 -68 9 q15 300 38 581 ZM544 654 q138 0 239 -4 q45 -306 45 -624 q-64 -13 -132 -13 q-9 17 -11 52 q33 5 70 9 q-9 256 -39 509 q-61 -3 -175 -3 q-6 0 -10 0 q2 -66 3 -133 q58 -4 116 -11 q0 -28 -7 -63 q-56 0 -108 3 q1 -39 1 -77 q52 -4 103 -10 q0 -29 -6 -64 q-50 0 -96 2 q1 -89 1 -182 q-13 -5 -38 -5 q-28 0 -37 2 q-2 99 -3 190 q-66 6 -125 15 q0 33 3 64 q60 -2 121 -6 q-1 39 -1 76 q-59 5 -113 14 q0 33 2 63 q55 -2 110 -5 q0 64 0 124 q-30 -1 -63 -2 q-7 31 -7 69 q63 7 157 10 Z" /><glyph glyph-name="" unicode="&#x6709;" d="M131 637 q144 -6 287 -14 q51 72 103 145 q31 -14 55 -33 q-37 -60 -74 -117 q193 -10 385 -22 q5 -17 5 -37 q0 -15 -5 -32 q-220 3 -434 17 q-25 -37 -49 -72 q-61 -97 -110 -164 q-23 -37 -43 -63 q-18 -27 -39 -49 q-39 12 -54 39 q46 73 169 257 q20 29 39 57 q-119 7 -235 18 q-6 18 -6 35 q0 18 6 35 ZM399 367 q21 0 35 -2 q1 -40 2 -78 q16 1 39 1 q104 0 164 -6 q3 -12 3 -29 q0 -14 -2 -27 q-52 -2 -169 -2 q-20 0 -34 1 q1 -30 1 -60 q16 1 35 1 q108 0 169 -8 q4 -12 4 -28 q0 -14 -2 -26 l-174 0 q-18 0 -31 1 q1 -65 1 -128 q-12 -6 -35 -6 q-20 0 -33 2 q-12 192 -12 390 q17 2 39 4 ZM483 429 q166 0 301 -10 q33 -232 33 -435 q-53 -8 -148 -8 q-8 28 -8 47 q43 4 79 8 q-11 161 -24 319 q-119 8 -235 14 q-2 13 -2 35 q0 13 4 30 Z" /><glyph glyph-name="" unicode="&#x4e8e;" d="M237 691 q233 0 543 -21 q0 -28 -6 -60 q-273 0 -539 22 l0 32 q0 14 2 27 ZM852 370 q4 -34 4 -64 q-143 -13 -284 -22 q13 -140 16 -283 q-47 -18 -148 -18 q-9 25 -9 51 q40 6 82 14 q-7 117 -16 231 q-163 -9 -326 -15 q-8 28 -8 64 q167 12 329 22 q-8 99 -17 196 q27 6 65 6 q15 -98 25 -198 q146 10 287 16 Z" /><glyph glyph-name="" unicode="&#x4e0e;" d="M332 660 q35 0 66 -8 q-5 -34 -9 -67 q176 17 371 17 q2 -12 2 -28 l0 -29 q-194 -23 -384 -24 q-11 -68 -24 -137 q227 -8 457 -25 q-3 -188 -59 -370 q-16 -3 -55 -3 q-41 0 -109 17 l0 49 q59 -2 111 -2 q19 141 34 254 q-207 4 -451 27 q0 168 50 329 ZM150 210 q242 0 478 -34 l0 -25 q0 -15 -6 -30 q-235 0 -470 33 q-4 17 -4 30 q0 13 2 26 Z" /><glyph glyph-name="" unicode="&#x5b87;" d="M346 462 q74 2 184 2 q140 0 196 -4 q2 -12 2 -27 l0 -29 q-22 -10 -200 -10 q-125 0 -180 8 q-4 13 -4 31 q0 17 2 29 ZM239 251 q70 2 174 2 q49 0 92 0 q-3 43 -7 86 q27 6 64 6 q8 -46 13 -92 q161 -1 239 -3 q2 -12 2 -26 l0 -28 q-33 -7 -233 -9 q12 -105 14 -213 q-39 -18 -123 -18 q-8 22 -8 43 q28 6 57 14 q-5 87 -12 174 q-48 0 -100 0 q-119 0 -171 7 q-3 13 -3 30 q0 16 2 27 ZM205 617 q17 0 33 -5 q0 -91 -12 -204 q-12 -4 -35 -4 q-23 0 -33 8 q0 134 11 203 q16 2 36 2 ZM300 639 q88 0 174 -1 q-4 49 -4 100 q18 2 39 4 q22 0 35 -2 q1 -52 1 -104 q162 -3 320 -10 q13 -103 13 -197 q-10 -4 -29 -4 q-13 0 -34 2 q-9 44 -18 138 q-245 0 -495 13 q-4 14 -4 32 q0 14 2 29 Z" /><glyph glyph-name="" unicode="&#x6b32;" d="M631 611 q39 -3 65 -19 q-18 -55 -35 -98 q42 -4 85 -11 q101 -17 151 -31 q-8 -63 -54 -169 q-35 3 -70 18 q18 55 33 102 q-86 11 -169 29 q-26 -66 -48 -102 q-38 0 -63 16 q40 152 105 265 ZM652 298 q37 -7 65 -24 q-29 -73 -54 -129 q85 -33 170 -74 q-5 -14 -14 -26 q-7 -14 -17 -26 q-88 22 -168 64 q-26 -54 -47 -87 q-42 7 -66 27 q64 147 131 275 ZM229 672 q28 -18 37 -44 q-65 -74 -142 -127 q-26 18 -41 42 q59 74 146 129 ZM359 685 q81 -46 163 -102 q-11 -24 -33 -50 q-91 42 -162 95 q15 31 32 57 ZM295 430 q-26 -31 -53 -60 q-83 -93 -127 -130 q-26 14 -41 42 q112 139 240 263 q30 -13 50 -30 q-14 -18 -26 -33 q95 -59 182 -126 q-11 -26 -33 -52 q-96 55 -192 126 ZM272 281 q93 -2 181 -16 q9 -29 9 -136 q0 -75 -4 -110 q-30 -6 -100 -6 q-90 0 -169 14 q-13 29 -13 102 q0 36 12 132 q12 4 30 4 q15 0 29 -4 q0 -37 -3 -181 q75 -10 148 -10 q4 20 4 59 q0 35 -2 80 q-95 9 -118 14 q-6 8 -6 30 q0 14 2 28 Z" /><glyph glyph-name="" unicode="&#x56ed;" d="M578 732 q164 0 301 -11 q8 -193 8 -349 q0 -263 -13 -386 q-135 -9 -357 -9 q-252 0 -349 5 q-15 278 -19 619 q14 4 32 4 q22 0 34 -4 q11 -283 19 -558 q293 0 571 2 l0 615 q-113 4 -240 6 q-164 -4 -301 -4 q-4 15 -4 29 q0 19 2 30 q108 9 316 11 ZM357 598 q140 0 326 -24 q0 -29 -6 -61 q-163 0 -322 26 l0 33 q0 13 2 26 ZM761 416 q3 -15 3 -31 l0 -33 q-236 -26 -479 -38 q-5 33 -5 65 q118 13 239 22 q119 10 242 15 ZM413 265 q31 -8 64 -22 q-29 -74 -79 -149 q-35 8 -60 28 q35 78 75 143 ZM581 250 q18 0 31 -2 q4 -40 9 -82 q43 0 94 4 q5 -12 5 -26 q0 -18 -2 -29 q-21 -8 -88 -8 q-51 0 -66 5 q-13 70 -13 134 q19 4 30 4 Z" /><glyph glyph-name="" unicode="&#x8fd0;" d="M188 626 q59 -7 129 -45 q-8 -31 -24 -59 q-71 6 -125 43 q7 34 20 61 ZM101 404 q109 -9 195 -25 q-15 -72 -39 -133 q41 -11 82 -29 q-4 -51 -25 -131 q129 -17 221 -25 q0 -14 -2 -28 q0 -17 -10 -33 q-148 4 -279 37 q8 57 25 127 q-55 20 -100 33 q20 65 41 127 q-56 12 -113 22 q-2 10 -2 29 q0 12 6 29 ZM467 649 q157 -9 305 -25 q0 -25 -8 -60 q-146 0 -303 23 q0 34 6 62 ZM391 424 q76 2 188 2 q187 0 261 -4 q2 -12 2 -28 l0 -30 q-27 -9 -234 -10 q-32 -84 -70 -170 q69 -8 150 -22 q2 -14 2 -25 q0 -16 -3 -29 q-129 0 -241 27 q39 112 87 219 q-94 1 -140 8 q-4 14 -4 32 q0 18 2 30 ZM774 266 q33 -38 46 -113 q-24 -14 -49 -17 q-38 47 -45 116 q20 10 48 14 Z" /><glyph glyph-name="" unicode="&#x6742;" d="M195 266 q140 0 277 -4 q-2 40 -3 76 q32 4 64 4 q5 -35 10 -82 q139 -4 273 -12 l0 -29 q0 -17 -7 -34 q-130 0 -259 4 q7 -92 15 -216 q-14 -8 -39 -8 q-46 0 -76 4 q-6 21 -6 48 q22 0 45 2 q-8 91 -13 172 q-140 4 -279 12 q-4 19 -4 34 q0 14 2 29 ZM293 138 q40 -9 63 -36 q-31 -56 -89 -116 q-36 8 -55 32 q28 59 81 120 ZM716 135 q57 -28 121 -74 q-11 -27 -33 -57 q-66 26 -125 74 q20 33 37 57 ZM152 672 q119 -7 234 -15 q32 50 65 98 q39 -6 62 -25 q-21 -40 -43 -80 q183 -13 361 -31 q-6 -104 -32 -211 q28 -8 57 -14 q0 -32 -10 -64 q-75 8 -125 26 q12 100 32 200 q-163 13 -322 27 q-77 -131 -168 -260 q-35 2 -66 28 q70 121 146 240 q-99 10 -196 20 q0 30 5 61 Z" /><glyph glyph-name="" unicode="&#x8f7d;" d="M640 629 q21 -65 41 -129 q108 3 220 6 q4 -12 4 -30 q0 -25 -2 -35 q-101 -6 -199 -10 q24 -74 48 -147 q31 34 62 66 q31 -14 53 -31 q-44 -60 -89 -113 q16 -49 32 -96 q26 5 58 10 q9 -19 15 -47 q-48 -19 -118 -25 q-20 51 -37 97 q-68 -81 -106 -115 q-28 15 -43 44 q58 78 120 149 q-38 105 -70 204 q-114 -5 -228 -8 q13 -6 25 -13 q-12 -20 -23 -39 q64 -5 127 -15 l0 -27 q0 -20 -3 -30 q-91 0 -164 5 q-25 -43 -48 -79 q37 -2 74 -5 q1 26 2 50 q13 4 28 4 q17 0 29 -4 q1 -28 2 -54 q35 -2 70 -4 q0 -28 -6 -54 q-33 0 -62 1 q1 -28 1 -53 q0 -3 0 -4 q35 1 69 1 q4 -12 4 -26 q0 -15 -4 -27 q-26 -4 -70 -8 q-1 -45 -5 -81 q-7 -4 -28 -4 q-17 0 -23 4 q-6 37 -8 76 q-60 -4 -141 -8 q-14 21 -14 60 q79 7 153 11 q0 1 0 1 q0 30 1 60 q-129 5 -171 20 q26 49 73 128 q1 1 1 1 q-33 4 -60 9 q-3 6 -3 30 q0 15 5 29 q50 0 99 -3 q15 24 30 47 q-107 -3 -213 -4 q-4 31 -4 64 q74 4 152 7 q-3 34 -4 75 q-52 4 -103 11 l0 34 q0 13 2 27 q48 0 101 -3 q2 37 8 71 q14 4 28 4 q15 0 27 -4 q5 -44 6 -76 q49 -4 102 -10 q0 -29 -5 -62 q-50 0 -97 3 q-1 -40 -3 -67 q121 5 249 9 q-17 57 -32 110 q24 16 65 22 ZM774 666 q33 -37 60 -82 q-24 -22 -57 -37 q-36 38 -60 81 q24 20 57 38 Z" /><glyph glyph-name="" unicode="&#x5728;" d="M158 618 q130 -4 260 -10 q53 62 109 127 q30 -17 57 -40 q-36 -47 -71 -91 q177 -8 355 -18 q6 -15 6 -35 q0 -14 -6 -30 q-209 3 -411 12 q-138 -173 -286 -347 q-32 15 -57 42 q104 141 245 310 q-101 6 -201 13 q-5 18 -5 33 q0 18 5 34 ZM324 287 q24 0 32 -4 q10 -127 10 -266 q-10 -8 -32 -8 q-17 0 -30 4 q-11 134 -12 266 q10 6 32 8 ZM696 393 q17 0 33 -6 q0 -35 -1 -70 q64 -4 126 -10 q0 -26 -6 -58 q-64 0 -121 2 q-2 -78 -6 -164 q66 2 135 2 q2 -11 2 -26 l0 -29 q-168 -14 -331 -14 q-6 28 -6 59 q64 4 131 6 q0 97 2 170 q-75 5 -143 14 q0 30 2 58 q71 -2 143 -6 q2 40 5 70 q15 2 35 2 Z" /><glyph glyph-name="" unicode="&#x9020;" d="M447 730 q39 -4 67 -20 q-14 -51 -28 -93 q67 1 140 2 q-1 51 -1 99 q6 4 34 6 q22 0 32 -4 q4 -50 6 -101 l13 0 q91 0 146 -7 q3 -8 3 -29 q0 -22 -3 -29 q-14 -5 -146 -5 l-11 0 q2 -62 3 -125 q80 7 161 10 q4 -15 4 -32 l0 -33 q-235 -31 -476 -45 q-6 33 -6 67 q118 15 238 26 q6 1 9 1 q-3 69 -5 131 q-116 1 -162 3 q-23 -65 -40 -101 q-40 0 -65 16 q33 151 87 263 ZM830 272 q6 -99 6 -197 q-158 -10 -309 -10 q-17 106 -21 200 q157 7 324 7 ZM579 209 l9 -82 l179 5 l-4 81 l-184 -4 ZM117 367 q104 -9 180 -25 q-12 -62 -41 -136 q46 -9 97 -21 q-10 -70 -26 -145 q96 -7 200 -15 q0 -29 -10 -60 q-133 5 -267 22 q12 81 25 152 q-62 17 -104 29 q20 64 37 123 q-51 7 -98 17 q0 26 7 59 ZM185 586 q57 -6 124 -38 q-7 -29 -23 -55 q-67 5 -119 36 q7 31 18 57 Z" /><glyph glyph-name="" unicode="&#x8d23;" d="M205 728 q74 2 183 2 l63 0 q1 29 3 57 q15 4 33 4 q19 0 33 -4 q2 -29 3 -57 q165 -1 243 -4 q2 -12 2 -28 l0 -29 q-33 -8 -243 -10 q1 -25 1 -48 q136 -1 200 -4 q2 -12 2 -27 l0 -28 q-28 -8 -203 -9 q-1 -31 -3 -58 q137 5 288 9 q4 -12 4 -30 q0 -24 -2 -34 q-310 -18 -635 -22 q-4 30 -4 62 q132 7 280 13 q-3 28 -4 59 l-45 0 q-122 0 -175 8 q-4 13 -4 30 q0 17 2 29 q72 2 179 2 l42 0 q0 24 1 48 l-63 0 q-125 0 -179 8 q-4 14 -4 31 q0 18 2 30 ZM530 77 q114 -33 214 -94 q-7 -24 -26 -50 q-93 25 -210 89 q7 29 22 55 ZM255 361 q17 0 29 -3 q5 -92 5 -169 q0 -61 -7 -108 q-7 -4 -29 -4 q-17 0 -24 4 q-8 47 -8 103 q0 84 5 174 q14 3 29 3 ZM354 369 q204 -4 422 -23 q3 -12 3 -82 q-4 -175 -14 -192 q-7 -4 -32 -4 q-21 0 -30 8 q0 127 -1 205 q-74 0 -174 9 q-138 6 -177 12 q0 40 3 67 ZM477 249 q39 -7 67 -24 q-77 -156 -182 -312 q-36 5 -62 27 q82 162 177 309 Z" /><glyph glyph-name="" unicode="&#x70b8;" d="M270 670 q29 -4 56 -15 q-27 -215 -63 -404 q54 -15 112 -34 q-3 -24 -17 -57 q-57 7 -108 26 q-10 -54 -21 -104 l-38 6 q-14 3 -25 9 q16 148 47 310 q-77 25 -130 64 q11 35 25 58 q60 -25 118 -56 q20 97 44 197 ZM405 478 q23 -18 36 -47 q-30 -35 -97 -77 q-23 24 -34 49 q41 37 95 75 ZM573 725 q33 -4 64 -18 q-20 -65 -41 -126 q165 -1 326 -17 q0 -31 -5 -60 q-103 0 -201 5 q2 -65 3 -133 q67 -2 148 -10 q0 -28 -6 -59 q-72 0 -141 7 q1 -65 2 -130 q74 5 154 5 q2 -12 2 -28 l0 -29 q-79 -10 -156 -12 q1 -59 1 -115 q-14 -4 -36 -4 q-19 0 -37 2 q-9 106 -9 288 q0 154 2 221 q-36 2 -70 5 q-27 -74 -56 -144 q-35 10 -60 26 q52 164 116 326 Z" /><glyph glyph-name="" unicode="&#x62db;" d="M537 600 q-50 0 -97 1 q-5 17 -5 31 q0 14 5 30 q66 7 218 7 q74 0 167 -7 q6 -75 6 -170 l0 -120 q-18 -5 -60 -5 q-43 0 -75 5 q-4 15 -4 30 l0 23 q33 4 65 4 q0 74 -6 168 q-72 1 -139 2 q-17 -62 -44 -124 q-16 -37 -33 -75 q-8 -17 -16 -37 q-8 -20 -22 -41 q-32 7 -63 21 q50 136 103 257 ZM196 500 q-3 43 -5 85 q31 6 64 8 q5 -48 9 -93 q63 -2 104 -7 q4 -9 4 -30 q0 -23 -4 -30 q-11 -4 -97 -5 q5 -49 8 -96 q30 2 60 2 q4 -12 4 -26 q0 -17 -4 -29 q-20 -6 -56 -11 q4 -51 6 -100 q-26 -10 -65 -10 q-5 52 -10 102 q-35 -4 -79 -7 q-14 23 -14 64 q44 7 87 10 q-5 52 -8 101 q-88 0 -96 5 q-4 13 -4 32 q0 17 5 31 q41 3 91 4 ZM555 281 q119 -2 233 -17 q9 -27 9 -122 q0 -79 -4 -116 q-44 -10 -150 -10 q-99 0 -186 15 q-13 32 -13 109 q0 34 6 124 q13 5 32 5 q15 0 30 -5 q0 -35 3 -174 q105 -8 209 -8 q4 20 4 60 q0 26 -2 57 q-134 10 -167 16 q-6 10 -6 35 q0 16 2 31 Z" /><glyph glyph-name="" unicode="&#x8fd9;" d="M203 598 q61 -7 133 -41 q-7 -32 -24 -61 q-74 5 -130 39 q8 34 21 63 ZM101 396 q109 -10 195 -26 q-15 -74 -39 -135 q41 -13 82 -31 q-4 -52 -25 -134 q129 -17 221 -25 q0 -14 -2 -27 q0 -18 -10 -33 q-148 3 -279 37 q8 58 25 130 q-55 20 -100 34 q20 66 41 130 q-56 11 -113 21 q-2 10 -2 29 q0 12 6 30 ZM480 366 q56 -29 112 -60 q71 53 138 99 q26 -19 47 -43 q-56 -50 -115 -95 q59 -34 118 -69 q-9 -26 -37 -46 q-74 35 -140 71 q-56 -40 -115 -78 q-28 19 -45 47 q47 37 92 71 q-47 29 -90 59 q16 28 35 44 ZM409 548 q228 0 451 -15 q0 -33 -5 -64 q-232 0 -454 14 q0 36 8 65 ZM575 698 q81 -15 162 -41 q-2 -32 -16 -62 q-55 0 -162 39 q4 37 16 64 Z" /><glyph glyph-name="" unicode="&#x771f;" d="M507 768 q41 -4 69 -21 q-6 -24 -11 -45 q110 -3 219 -8 l0 -27 q0 -15 -6 -31 q-116 0 -230 2 q-12 -43 -21 -72 q109 -6 218 -17 q-5 -36 -5 -239 q-2 -118 -7 -169 q80 -1 132 -2 q2 -11 2 -27 l0 -28 q-56 -9 -472 -10 q-38 -94 -64 -134 q-41 0 -67 17 q19 65 47 117 q-116 0 -167 8 q-4 13 -4 30 q0 17 2 29 q52 1 122 2 q-13 175 -18 352 q34 6 72 6 q1 -20 2 -39 q104 -8 202 -20 q0 -24 -8 -56 q-93 0 -191 15 q1 -26 2 -52 q18 1 38 1 l141 0 q3 -12 3 -28 q0 -14 -1 -27 q-45 -6 -146 -6 q-19 0 -32 1 q1 -21 2 -41 q29 2 67 3 l111 0 l0 -54 q-67 -8 -176 -9 q2 -23 2 -46 q191 0 324 -1 q1 213 7 347 q-65 0 -153 10 q-121 6 -155 13 q0 36 3 61 q47 -1 91 -3 q8 38 16 70 q-123 3 -245 9 q-4 17 -4 31 q0 14 2 27 q134 0 265 -3 q10 35 22 64 ZM666 63 q39 -41 72 -84 q-20 -27 -56 -41 q-41 38 -74 83 q29 24 58 42 Z" /><glyph glyph-name="" unicode="&#x77e5;" d="M233 490 q-32 -78 -66 -150 q-33 10 -56 25 q56 155 126 307 q31 -4 60 -17 q-19 -53 -39 -103 q127 -13 246 -32 q0 -25 -8 -58 q-61 0 -123 7 q-14 -92 -30 -179 l22 0 q93 0 150 -7 q3 -9 3 -30 q0 -23 -3 -30 q-15 -5 -150 -5 l-36 0 q-25 -127 -54 -241 l-39 5 q-15 4 -26 9 q14 110 37 227 q-108 2 -122 5 q-3 13 -3 32 q0 17 5 31 q64 2 135 3 q21 92 47 188 q-38 5 -76 13 ZM376 129 q70 -14 139 -49 q-4 -26 -17 -57 q-88 17 -143 51 q12 36 21 55 ZM693 474 q107 0 195 -6 q6 -35 6 -188 q0 -103 -8 -119 q-41 -12 -148 -12 q-113 0 -162 19 q-8 43 -8 109 q0 83 10 163 q15 4 35 4 q17 0 31 -4 l0 -227 q17 -6 94 -6 q67 0 86 3 q4 27 4 70 q0 56 -2 131 q-73 0 -133 8 q-4 10 -4 29 q0 16 4 26 Z" /><glyph glyph-name="" unicode="&#x4e4b;" d="M379 735 q112 -36 218 -78 q-9 -35 -24 -67 q-114 32 -216 78 q9 40 22 67 ZM210 499 q272 -2 543 -35 q-31 -168 -86 -330 q-31 4 -64 19 q29 123 59 247 q-227 19 -455 37 q0 29 3 62 ZM345 168 q188 -68 372 -137 q-9 -31 -23 -56 q-169 47 -318 103 q-31 -50 -66 -94 q-37 15 -56 37 q40 73 91 147 Z" /><glyph glyph-name="" unicode="&#x53ea;" d="M378 690 q180 -4 375 -22 q8 -86 8 -193 q0 -139 -6 -180 q-60 -6 -253 -6 q-170 0 -280 24 q-4 29 -4 168 q0 53 16 172 q33 0 72 -5 q-4 -134 -14 -279 q219 -11 393 -11 q0 124 -2 244 q-162 2 -309 21 l0 33 q0 20 4 34 ZM316 198 q32 -9 65 -23 q-29 -78 -80 -157 q-36 9 -61 30 q35 81 76 150 ZM686 170 q43 -49 77 -108 q-23 -21 -55 -36 q-46 51 -76 109 q23 19 54 35 Z" /><glyph glyph-name="" unicode="&#x5fd7;" d="M516 724 q19 0 36 -4 q0 -47 0 -91 q144 -7 284 -15 l0 -27 q0 -21 -4 -35 q-141 2 -281 8 q-1 -76 -3 -146 q0 -12 -2 -24 q128 -1 188 -6 q2 -11 2 -27 l0 -28 q-34 -7 -307 -7 q-122 0 -175 8 q-4 13 -4 30 q0 18 2 29 q73 2 179 2 l41 0 l0 16 q0 77 3 156 q-155 7 -309 18 q-4 12 -4 33 q0 16 7 32 q155 -6 309 -13 q2 45 5 89 q15 2 33 2 ZM291 234 q34 -19 55 -42 q-26 -36 -60 -70 q-17 -17 -36 -33 q-17 -19 -37 -35 q-29 18 -50 46 q55 69 128 134 ZM443 150 q19 0 33 -2 q4 -45 10 -92 q69 0 150 4 q6 -14 6 -30 q0 -19 -2 -31 q-23 -10 -97 -10 q-92 0 -118 6 q-13 79 -13 151 q19 4 31 4 ZM612 240 q44 -53 63 -94 q-16 -14 -49 -27 q-36 36 -64 94 q21 18 50 27 ZM802 205 q25 -47 35 -96 q-29 -11 -58 -11 q-23 47 -31 96 q27 9 54 11 Z" /><glyph glyph-name="" unicode="&#x81f4;" d="M302 275 q22 -2 29 -6 q-1 -36 -3 -71 q55 -4 113 -9 q0 -26 -5 -56 q-57 0 -111 3 q-2 -43 -5 -86 q51 -1 85 -5 q3 -8 3 -26 q0 -21 -3 -27 q-13 -5 -133 -5 q-97 0 -105 5 q-3 11 -3 28 q0 16 4 28 q40 3 86 3 q2 46 4 89 q-55 4 -108 10 l0 30 q0 12 2 25 q52 0 110 -3 q3 38 6 71 q16 2 34 2 ZM107 663 q183 -8 369 -20 l0 -30 q0 -24 -4 -39 q-112 2 -223 8 q-24 -90 -46 -184 q59 -8 194 -26 q4 -12 4 -26 q0 -14 -4 -31 q-160 0 -281 32 q22 128 66 239 q-41 3 -79 6 q-4 13 -4 37 q0 17 8 34 ZM464 465 q26 -38 36 -113 q-28 -16 -56 -19 q-29 47 -34 116 q23 11 54 16 ZM678 627 q35 -11 65 -30 q-27 -68 -55 -129 q96 -8 186 -20 q0 -28 -9 -66 q-101 0 -208 18 q-29 -61 -59 -115 q-35 8 -65 34 q67 153 145 308 ZM749 299 q38 -9 60 -34 q-29 -58 -68 -115 q70 -39 138 -82 q-12 -26 -36 -54 q-80 35 -149 72 q-31 -41 -67 -82 q-34 8 -52 31 q22 46 49 91 q-45 27 -84 54 q16 34 34 62 q48 -24 93 -50 q38 54 82 107 Z" /><glyph glyph-name="" unicode="&#x4e2d;" d="M572 612 q171 0 262 -4 q17 -22 19 -219 q0 -146 -6 -181 q-97 -29 -306 -32 q0 -73 0 -169 q-9 -6 -34 -6 q-26 0 -36 4 q-7 72 -10 170 q-251 1 -324 27 q-6 74 -6 203 q0 71 9 193 l68 0 q-5 -184 -5 -338 q82 -15 256 -15 q-1 58 -1 124 q0 70 1 171 q-88 -4 -152 -4 l0 65 q78 6 153 9 q1 54 2 115 q20 4 39 4 q19 0 37 -4 q0 -63 0 -114 q18 1 34 1 ZM538 543 q1 -133 1 -176 q1 -32 1 -121 q201 5 241 17 l0 137 q0 33 -10 140 q-56 2 -221 4 q-6 0 -12 -1 Z" /><glyph glyph-name="" unicode="&#x79cd;" d="M699 706 q21 0 34 -1 q1 -93 2 -186 q97 -5 178 -14 q0 -203 -20 -300 q-33 -11 -156 -13 q1 -100 1 -199 q-11 -6 -33 -6 q-19 0 -32 2 q-3 101 -5 203 q-94 2 -161 21 q-16 116 -20 274 q31 4 62 4 q13 -106 19 -221 q51 -2 98 -3 q-2 96 -3 192 q-28 3 -54 7 q0 31 2 59 q28 -1 52 -2 q-1 90 -1 180 q17 2 37 3 ZM737 265 q51 -1 98 -1 q0 69 7 181 q-55 2 -106 7 q1 -94 1 -187 ZM442 638 q8 -30 8 -64 q-164 -28 -330 -36 q-14 24 -14 66 q161 21 336 34 ZM108 377 q67 0 143 -4 q1 62 4 125 q16 4 34 4 q19 0 33 -4 q4 -69 5 -129 q59 -4 123 -9 q0 -31 -6 -66 q-59 0 -116 3 l0 -69 q50 -5 96 -12 q-2 -15 -4 -30 q-2 -22 -6 -33 q-32 0 -64 6 q-12 1 -23 3 q-1 -76 -4 -140 q-8 -4 -33 -4 q-20 0 -28 4 q-7 73 -10 152 q-57 -47 -120 -84 q-26 19 -41 43 q66 70 159 124 l0 44 q-74 5 -144 13 l0 35 q0 14 2 28 Z" /><glyph glyph-name="" unicode="&#x5b99;" d="M197 638 q17 0 33 -6 q0 -109 -12 -245 q-11 -4 -35 -4 q-23 0 -33 8 q0 161 12 245 q15 2 35 2 ZM317 620 q74 0 146 -1 q-4 50 -4 100 q17 2 38 4 q22 0 36 -2 q1 -52 1 -104 q158 -3 311 -10 q13 -103 13 -198 q-10 -4 -28 -4 q-13 0 -33 2 q-9 44 -17 137 q-229 0 -461 14 q-4 14 -4 33 q0 14 2 29 ZM355 372 q54 -1 107 -2 q-2 55 -2 110 q17 2 37 4 q21 0 34 -2 q5 -58 8 -115 q109 -4 214 -12 q9 -61 9 -278 q0 -79 -5 -117 q-93 -8 -318 -8 q-99 0 -186 16 q-13 31 -13 108 q0 65 6 234 q13 4 32 4 q15 0 30 -4 q0 -31 1 -110 q60 1 140 1 q11 0 20 0 q-3 50 -5 99 q-75 3 -105 6 q-6 10 -6 35 q0 16 2 31 ZM543 296 q3 -48 5 -96 q74 -1 112 -4 q2 -11 2 -26 l0 -28 q-16 -5 -112 -7 q2 -58 2 -116 q70 -2 137 -2 q4 20 4 60 q0 95 -2 213 q-85 3 -148 6 ZM483 20 q-6 58 -10 114 q-13 0 -26 0 q-87 0 -137 4 q0 -50 1 -112 q88 -4 172 -6 Z" /><glyph glyph-name="" unicode="&#x6ce8;" d="M188 611 q81 -23 153 -63 q-9 -26 -29 -55 q-66 16 -149 56 q9 33 25 62 ZM133 364 q80 -6 152 -18 q-2 -16 -5 -32 q-2 -22 -6 -33 q-37 0 -74 6 q-37 4 -74 12 q0 31 7 65 ZM332 145 q21 -26 24 -58 q-60 -42 -140 -60 q-22 21 -30 57 q64 38 146 61 ZM884 88 q2 -11 2 -25 l0 -26 q-229 -37 -453 -37 q-5 26 -5 54 q89 14 182 22 q-10 74 -16 147 q-79 -5 -156 -5 q-5 27 -5 55 q76 12 154 19 q-5 57 -8 113 q33 6 68 8 q8 -58 14 -115 q87 5 177 5 q2 -10 2 -24 l0 -27 q-87 -15 -172 -23 q8 -75 13 -148 q99 7 203 7 ZM418 542 q97 0 192 -5 q-18 58 -22 130 q25 12 60 17 q27 -53 39 -151 q86 -5 169 -14 l0 -26 q0 -20 -3 -30 q-274 0 -437 20 q-3 6 -3 30 q0 15 5 29 Z" /><glyph glyph-name="" unicode="&#x7740;" d="M670 748 q33 -8 65 -23 q-13 -61 -50 -99 q-25 0 -64 19 q11 53 49 103 ZM220 627 q296 -9 597 -22 l0 -28 q0 -21 -4 -35 q-142 2 -284 7 q-11 -25 -23 -48 q183 -1 265 -4 q2 -10 2 -24 l0 -27 q-36 -8 -298 -9 q-11 -21 -21 -41 q146 2 298 2 q2 -11 2 -26 l0 -27 q-168 -8 -332 -10 q-4 -8 -7 -14 q-35 -62 -58 -110 q-17 -33 -35 -62 q-14 -33 -49 -76 q-31 10 -55 30 q61 122 120 231 l-64 0 q-5 28 -5 57 q51 2 101 3 q13 23 24 43 q-99 1 -144 8 q-3 12 -3 28 q0 15 1 26 q67 2 165 2 l17 0 q14 26 28 50 q-121 5 -242 12 q-4 12 -4 33 q0 16 8 31 ZM373 752 q27 -30 38 -92 q-31 -17 -62 -20 q-30 39 -36 95 q26 12 60 17 ZM546 307 q136 -2 262 -13 q12 -51 12 -147 q0 -134 -6 -195 q-56 -18 -213 -18 q-94 0 -154 11 q-8 72 -12 180 q0 64 10 141 l66 0 l0 -65 q64 -2 138 -11 q0 -30 -9 -54 q-78 0 -129 7 q0 -27 1 -51 q64 2 119 2 q4 -11 4 -24 q0 -15 -4 -26 q-31 -4 -119 -9 q1 -18 1 -34 q34 -5 78 -5 q114 0 153 8 q0 45 -4 234 q-104 6 -200 14 q0 28 6 55 Z" /><glyph glyph-name="" unicode="&#x81ea;" d="M373 632 q23 0 45 -1 q29 61 79 124 q43 -10 67 -39 q-22 -43 -56 -87 q210 -4 257 -12 q13 -216 13 -329 q0 -260 -17 -315 q-44 -12 -260 -12 q-187 0 -286 12 q-14 113 -14 282 q0 182 12 357 q35 0 67 -2 q0 -91 1 -181 q138 -9 269 -25 q0 -24 -8 -57 q-126 0 -260 19 q1 -58 2 -114 q121 -11 235 -28 q0 -25 -8 -57 q-111 0 -226 21 q2 -81 4 -162 q60 -3 208 -4 q138 2 197 4 q4 211 4 258 q0 153 -9 264 q-161 2 -318 16 q0 35 2 68 Z" /><glyph glyph-name="" unicode="&#x5b57;" d="M168 637 q18 0 34 -6 q0 -103 -11 -231 q-12 -3 -35 -3 q-24 0 -33 7 q0 152 10 231 q16 2 35 2 ZM322 653 q87 0 172 -1 q-7 47 -10 95 q33 6 70 6 q6 -53 10 -103 q152 -3 298 -10 l0 -208 q-10 -4 -29 -4 q-12 0 -32 2 q-3 47 -5 147 q-234 0 -472 14 q-4 14 -4 33 q0 14 2 29 ZM329 476 q166 -8 336 -43 q-34 -106 -88 -203 q6 -26 11 -50 q71 2 146 4 q4 -13 4 -32 q0 -26 -2 -37 q-68 -4 -136 -6 q12 -81 12 -153 q-16 -6 -67 -6 q-43 0 -83 18 q0 23 4 45 q46 0 83 -8 q-9 50 -18 101 q-112 -4 -225 -6 q-4 32 -4 67 q101 5 217 10 q-6 32 -11 64 q28 65 59 137 q-123 14 -246 35 q0 34 8 63 Z" /><glyph glyph-name="" unicode="&#x6700;" d="M356 756 q175 -6 356 -22 q13 -36 13 -141 q0 -62 -4 -114 q-14 -19 -328 -19 q-102 0 -161 11 q-10 109 -10 256 l65 0 q2 -46 3 -87 q89 -4 181 -16 q0 -24 -6 -53 q-92 0 -174 12 q1 -28 1 -53 q63 -7 166 -7 q137 0 197 3 q0 71 -6 152 q-148 7 -295 20 q0 31 2 58 ZM855 425 q3 -11 3 -27 q0 -22 -1 -31 q-295 -18 -600 -23 q2 -24 3 -47 q57 7 118 11 q3 -23 3 -48 q-62 -10 -119 -12 q1 -28 2 -54 q53 8 109 12 q3 -22 3 -48 q-58 -13 -111 -15 q1 -23 1 -45 q81 10 165 13 q-8 103 -8 193 q6 4 32 6 q20 0 29 -4 q13 -92 19 -192 l34 0 q2 -11 2 -25 l0 -26 q-18 -3 -34 -5 q1 -40 1 -81 q-11 -3 -32 -3 q-24 0 -31 2 q-4 37 -7 72 q-133 -17 -263 -17 q-6 26 -6 54 q18 3 35 5 q-12 127 -13 253 q-26 -1 -50 -1 q-3 27 -3 56 q318 16 719 27 ZM550 302 q190 -3 263 -10 q-12 -80 -48 -168 q55 -13 106 -26 q-7 -30 -20 -57 q-59 11 -112 23 q-17 -35 -36 -69 q-26 0 -57 18 q12 34 25 66 q-56 13 -108 28 q8 35 19 57 q57 -11 112 -24 q19 52 37 101 q-95 2 -186 6 q0 32 5 55 Z" /><glyph glyph-name="" unicode="&#x4f5c;" d="M343 525 q14 -25 14 -58 q-66 -25 -125 -42 q33 -134 48 -277 q-29 -9 -63 -9 q-34 133 -52 267 q-45 -11 -87 -19 q-12 25 -12 55 q140 69 277 83 ZM542 726 q34 -4 65 -19 q-24 -63 -51 -125 q175 -1 346 -17 q0 -31 -5 -61 q-124 0 -239 6 q1 -65 3 -130 q75 -2 169 -11 q0 -28 -6 -59 q-83 0 -162 9 q1 -67 1 -134 q90 6 188 6 q2 -11 2 -27 l0 -29 q-96 -11 -190 -13 q1 -68 1 -137 q-12 -3 -32 -3 q-17 0 -33 1 q-9 110 -9 298 q0 162 3 233 q-34 2 -65 4 q-44 -98 -92 -192 q-35 10 -61 27 q74 188 167 373 Z" /><glyph glyph-name="" unicode="&#x549a;" d="M324 539 q6 -114 6 -228 q-101 -9 -197 -9 q-15 121 -19 230 q102 7 210 7 ZM182 475 l8 -110 l75 5 l-4 109 l-79 -4 ZM557 728 q35 -8 55 -31 q-19 -38 -42 -74 q112 -13 237 -40 q-16 -44 -65 -106 q-25 -35 -54 -70 q107 -33 210 -69 q-8 -31 -21 -59 q-126 31 -239 71 q-80 -93 -185 -176 q-26 22 -43 49 q84 74 156 153 q-34 12 -64 24 q7 35 19 58 q47 -14 93 -27 q44 52 82 105 q-82 16 -165 29 q-42 -58 -95 -117 q-32 6 -48 28 q58 123 169 252 ZM555 235 q97 0 217 -12 q0 -31 -10 -57 q-139 0 -215 15 q0 27 8 54 ZM752 100 q4 -27 4 -59 q-102 -19 -195 -19 q-6 27 -6 56 q93 15 197 22 Z" /><glyph glyph-name="" unicode="&#x7f1c;" d="M226 669 q33 -8 59 -19 q-40 -106 -87 -216 q46 -2 98 -6 q31 52 65 106 q27 -9 56 -27 q-77 -143 -144 -259 q62 -5 126 -12 q0 -29 -6 -56 q-177 1 -222 21 q31 65 89 167 q1 1 1 1 q-78 3 -147 12 q49 147 112 288 ZM399 125 q12 -29 12 -56 q-122 -33 -255 -42 q-10 27 -12 56 q115 29 255 42 ZM465 696 q89 -2 177 -8 q12 32 27 63 q31 -4 60 -15 q-6 -29 -13 -54 q88 -6 174 -17 q0 -27 -6 -52 q-94 0 -187 6 q-9 -26 -18 -49 l-41 6 q-15 4 -27 10 q4 19 9 38 q-81 6 -161 17 q0 28 6 55 ZM594 465 q59 0 93 -7 q3 -12 3 -27 q0 -13 -2 -24 l-123 0 q1 -23 1 -43 l34 0 q54 0 85 -5 q3 -11 3 -26 q0 -13 -2 -25 q-27 -2 -89 -2 q-17 0 -30 1 l0 -39 l30 0 q58 0 91 -4 q3 -12 3 -27 q0 -13 -2 -25 q-29 -2 -95 -2 q-16 0 -27 1 q1 -21 1 -40 l36 0 q100 0 173 -1 q1 196 8 319 q-33 0 -79 6 q-62 3 -80 7 q0 33 3 56 q110 -3 228 -14 q-6 -33 -6 -221 q-2 -107 -7 -153 q41 -1 69 -2 q2 -11 2 -25 l0 -27 q-33 -9 -287 -9 q-32 -99 -54 -139 q-39 0 -65 16 q17 70 42 123 q-77 2 -115 7 q-4 12 -4 29 q0 16 2 27 q32 0 70 1 q-8 187 -9 370 q11 7 33 9 q24 0 33 -4 q1 -41 3 -81 l30 0 ZM752 85 q62 -23 119 -63 q-12 -28 -34 -46 q-64 26 -115 63 q14 26 30 46 Z" /></font>
</defs>
</svg>
