<?xml version="1.0" standalone="no"?><!DOCTYPE svg PUBLIC "-//W3C//DTD SVG 1.1//EN" "http://www.w3.org/Graphics/SVG/1.1/DTD/svg11.dtd" ><svg xmlns="http://www.w3.org/2000/svg"><metadata></metadata><defs><font id="Lithos Pro" horiz-adv-x="1119"><font-face font-family="Lithos Pro" font-weight="400" font-stretch="normal" units-per-em="1024" panose-1="2 0 6 3 0 0 0 0 0 0" ascent="812" descent="-212" x-height="0" bbox="-80 -128 1086 758" underline-thickness="0" underline-position="50" unicode-range="U+0021-203a" /><missing-glyph horiz-adv-x="307" d="M89 0 L191 0 L191 100 L89 100 L89 0 ZM170 229 Q178 343 194 494 Q209 643 218 717 L109 722 Q113 631 112 484 Q111 337 113 221 L170 229 Z" /><glyph glyph-name="quotedbl" unicode="&quot;" d="M39 733 L59 528 L104 528 L126 733 L39 733 ZM186 733 L207 528 L252 528 L273 733 L186 733 Z" /><glyph glyph-name="numbersign" unicode="#" d="M482 407 L482 473 L398 473 L425 666 L358 666 L332 473 L227 473 L254 666 L187 666 L162 473 L63 473 L63 407 L152 407 L133 264 L38 264 L38 198 L122 198 L96 0 L163 0 L189 198 L293 198 L266 0 L334 0 L359 198 L458 198 L458 264 L371 264 L389 407 L482 407 ZM322 407 L303 264 L200 264 L218 407 L322 407 Z" /><glyph glyph-name="percent" unicode="%" d="M244 395 Q182 388 151 427 Q119 466 118 518 Q118 565 148 610 Q179 656 248 659 Q297 659 331 627 Q365 593 366 522 Q365 458 329 422 Q292 387 244 395 L244 395 ZM242 337 Q351 335 398 402 Q445 470 443 524 Q442 621 391 669 Q340 717 254 717 Q150 713 95 649 Q41 586 41 515 Q41 439 90 385 Q138 331 242 337 L242 337 ZM297 -22 Q322 23 383 128 Q443 233 519 356 Q591 473 653 569 Q716 665 741 702 L677 738 Q653 695 596 603 Q539 510 469 399 Q392 275 328 169 Q263 63 234 22 L297 -22 ZM735 0 Q833 6 880 74 Q927 141 925 196 Q924 292 872 340 Q821 388 735 388 Q631 384 577 321 Q522 257 522 186 Q522 111 571 56 Q620 2 735 0 L735 0 ZM737 55 Q664 55 632 94 Q600 133 599 185 Q599 232 630 278 Q660 324 729 327 Q778 327 812 293 Q846 259 847 188 Q846 124 810 89 Q773 53 737 55 L737 55 Z" /><glyph glyph-name="ampersand" unicode="&amp;" d="M113 169 Q112 215 139 255 Q166 295 206 325 Q238 293 297 243 Q357 193 422 142 Q379 101 333 81 Q287 60 231 60 Q173 61 142 92 Q111 122 113 169 L113 169 ZM651 68 Q635 82 604 104 Q574 127 536 157 Q564 186 588 216 Q611 245 631 271 L565 319 Q553 302 532 271 Q512 241 480 201 Q427 242 382 279 Q338 315 310 341 Q261 384 225 425 Q189 466 187 511 Q195 575 267 611 Q341 648 395 655 L373 733 Q264 708 181 643 Q98 578 94 494 Q94 461 111 432 Q127 403 156 374 Q114 340 68 283 Q23 224 18 151 Q20 75 77 30 Q133 -15 213 -16 Q296 -15 360 15 Q425 46 475 95 Q512 66 543 41 Q574 17 596 0 L651 68 Z" /><glyph glyph-name="comma" unicode="," d="M55 -103 L96 -123 L222 84 L122 129 L55 -103 Z" /><glyph glyph-name="hyphen" unicode="-" d="M30 312 Q73 315 190 319 Q308 325 334 323 L331 387 Q304 386 190 387 Q76 388 25 389 L30 312 Z" /><glyph glyph-name="period" unicode="." d="M81 0 L196 0 L196 114 L81 114 L81 0 Z" /><glyph glyph-name="slash" unicode="/" d="M434 691 L355 713 Q332 671 274 582 Q218 493 151 386 Q74 265 11 164 Q-52 62 -80 24 L-13 -20 Q11 23 72 124 Q131 224 206 344 Q278 457 338 549 Q399 641 434 691 L434 691 Z" /><glyph glyph-name="zero" unicode="0" d="M359 18 Q506 23 596 125 Q685 227 687 366 Q684 517 597 607 Q509 698 370 700 Q236 698 138 606 Q41 515 37 357 Q42 187 135 102 Q229 17 359 18 L359 18 ZM373 100 Q246 102 186 180 Q127 258 127 352 Q129 471 194 545 Q258 618 360 621 Q463 617 528 546 Q595 473 597 370 Q592 231 519 164 Q446 97 373 100 L373 100 Z" /><glyph glyph-name="one" unicode="1" d="M434 0 Q432 24 432 92 Q432 161 432 271 L432 429 Q433 536 436 623 Q440 709 440 737 L437 737 Q402 700 295 599 Q187 498 160 473 L206 418 Q231 443 275 487 Q318 530 344 559 L344 294 Q344 187 341 105 Q338 23 338 0 L434 0 Z" /><glyph glyph-name="two" unicode="2" d="M574 80 L269 69 L268 73 Q344 128 435 224 Q525 322 534 446 Q532 551 438 631 Q343 711 168 734 L150 650 Q247 646 337 595 Q428 544 434 437 Q424 311 304 197 Q184 83 72 10 L74 0 L189 0 Q246 0 308 -1 Q371 -2 428 -3 Q485 -4 524 -5 Q563 -7 574 -8 L574 80 Z" /><glyph glyph-name="three" unicode="3" d="M193 660 Q275 659 345 627 Q415 593 419 529 Q414 469 348 430 Q284 392 216 385 L216 354 Q280 353 353 323 Q426 293 432 224 Q425 135 332 93 Q239 51 144 57 L151 -26 Q298 -19 414 51 Q530 123 537 229 Q535 291 492 328 Q449 364 387 379 L387 381 Q429 399 470 444 Q511 489 514 546 Q506 637 404 686 Q302 734 205 739 L193 660 Z" /><glyph glyph-name="four" unicode="4" d="M512 0 Q511 24 511 55 Q510 88 510 120 L510 168 L615 165 L623 242 L511 239 L511 749 L505 749 L59 175 L61 167 L426 167 L426 131 Q426 88 424 55 Q422 22 421 0 L512 0 ZM428 240 L200 240 Q234 288 314 392 Q393 496 426 544 L428 544 L428 240 Z" /><glyph glyph-name="five" unicode="5" d="M276 640 L542 638 L543 727 Q490 724 370 720 Q250 716 214 715 L172 458 Q295 445 364 404 Q433 362 434 295 Q427 195 333 134 Q240 73 148 57 L171 -23 Q300 7 413 100 Q524 193 531 311 Q536 377 479 437 Q422 499 257 529 L276 640 Z" /><glyph glyph-name="six" unicode="6" d="M438 743 Q328 666 236 521 Q142 378 136 221 Q136 160 153 116 Q168 72 199 40 Q227 10 263 -3 Q299 -16 343 -16 Q437 -14 511 53 Q585 121 589 233 Q586 332 503 392 Q419 452 288 449 Q329 528 389 589 Q450 648 492 673 L438 743 ZM504 218 Q492 150 454 105 Q415 60 350 58 Q296 59 263 103 Q229 148 228 227 Q228 275 236 310 Q243 346 256 378 Q349 384 419 341 Q489 299 504 218 L504 218 Z" /><glyph glyph-name="seven" unicode="7" d="M130 640 L483 638 Q462 586 356 335 Q251 84 221 28 L311 -16 Q342 63 456 359 Q569 656 596 714 L594 717 Q508 717 352 720 Q196 723 126 726 L130 640 Z" /><glyph glyph-name="eight" unicode="8" d="M239 547 Q232 584 263 624 Q294 665 362 667 Q415 667 451 634 Q487 601 488 538 Q487 475 451 439 Q414 404 357 403 Q300 406 267 444 Q234 483 239 547 L239 547 ZM363 -17 Q480 -11 537 56 Q594 124 593 194 Q593 258 560 305 Q527 352 466 378 Q527 408 555 456 Q583 505 583 551 Q581 634 523 683 Q466 732 372 733 Q258 730 199 669 Q139 606 139 534 Q140 479 170 434 Q200 390 251 369 Q199 339 165 289 Q132 238 131 179 Q131 97 185 42 Q240 -14 363 -17 L363 -17 ZM368 51 Q297 52 262 91 Q227 130 226 182 Q226 245 260 289 Q294 333 358 335 Q418 334 456 295 Q495 256 496 187 Q495 124 458 88 Q421 51 368 51 L368 51 Z" /><glyph glyph-name="nine" unicode="9" d="M291 -27 Q400 51 492 194 Q583 336 588 501 Q587 603 530 668 Q473 731 375 733 Q280 731 210 662 Q139 593 136 487 Q139 389 223 331 Q307 272 439 276 Q396 191 338 130 Q280 69 238 44 L291 -27 ZM237 519 Q232 569 269 613 Q307 657 369 659 Q424 659 458 616 Q490 572 492 486 Q492 442 484 406 Q477 369 468 345 Q373 337 304 377 Q234 418 237 519 L237 519 Z" /><glyph glyph-name="colon" unicode=":" d="M83 397 L194 397 L194 507 L83 507 L83 397 ZM83 41 L194 41 L194 151 L83 151 L83 41 Z" /><glyph glyph-name="less" unicode="&lt;" d="M67 242 L545 0 L545 78 L150 271 L150 273 L545 467 L545 545 L67 303 L67 242 Z" /><glyph glyph-name="equal" unicode="=" d="M569 343 L569 411 L41 411 L41 343 L569 343 ZM569 140 L569 208 L41 208 L41 140 L569 140 Z" /><glyph glyph-name="greater" unicode="&gt;" d="M465 273 L465 271 L66 78 L66 0 L545 240 L545 305 L66 545 L66 467 L465 273 Z" /><glyph glyph-name="A" unicode="a" d="M104 -19 Q122 17 163 113 Q205 207 218 232 L573 247 Q588 223 640 123 Q692 23 714 -18 L801 39 Q738 140 607 381 Q476 623 398 753 L396 753 Q361 691 220 416 Q79 139 20 34 L104 -19 ZM253 300 Q266 327 322 442 Q377 558 395 590 Q411 564 469 454 Q527 343 543 312 L253 300 Z" /><glyph glyph-name="B" unicode="b" d="M154 379 Q154 347 153 201 Q153 53 148 -6 L157 -6 Q343 -2 450 69 Q555 139 557 234 Q554 304 503 345 Q453 385 396 394 L396 396 Q475 435 502 480 Q527 525 525 556 Q530 601 486 647 Q443 692 293 711 Q263 714 226 716 Q189 717 148 717 Q151 691 153 608 Q154 524 154 493 L154 379 ZM242 344 Q340 347 396 315 Q454 284 455 228 Q452 157 390 116 Q329 76 242 68 L242 344 ZM242 651 Q300 652 361 631 Q424 610 429 543 Q428 489 378 449 Q328 407 242 402 L242 651 Z" /><glyph glyph-name="C" unicode="c" d="M627 76 Q600 70 569 66 Q539 61 508 61 Q326 65 245 136 Q164 207 165 304 Q170 438 291 531 Q413 625 593 647 L578 733 Q308 679 184 549 Q59 419 61 287 Q56 206 148 100 Q242 -6 498 -16 Q544 -16 579 -13 Q613 -11 637 -6 L627 76 Z" /><glyph glyph-name="D" unicode="d" d="M154 324 Q154 290 153 167 Q151 44 147 -5 Q341 -7 554 100 Q767 208 784 444 Q793 504 722 587 Q652 670 410 707 Q340 715 267 716 Q195 717 148 717 Q152 683 153 581 Q154 478 154 451 L154 324 ZM246 640 Q447 643 564 589 Q682 535 684 418 Q683 305 569 207 Q457 109 246 85 L246 640 Z" /><glyph glyph-name="E" unicode="e" d="M492 78 Q423 74 346 74 Q269 75 246 75 L246 325 Q269 325 346 323 Q423 321 449 321 L445 401 Q401 396 334 393 Q265 390 246 390 L246 647 Q268 647 356 650 Q444 652 479 652 L475 733 Q435 729 310 723 Q184 717 151 716 Q152 687 153 573 Q154 461 154 434 L154 297 Q154 268 154 160 Q153 52 151 0 Q184 -1 325 -5 Q465 -9 496 -10 L492 78 Z" /><glyph glyph-name="F" unicode="f" d="M249 0 Q246 22 246 112 Q246 201 246 224 L246 322 L461 317 L458 396 Q415 393 341 390 Q266 387 246 387 L246 648 L477 653 L473 732 Q428 728 305 723 Q182 718 150 717 Q152 688 153 574 Q154 461 154 434 L154 298 Q154 268 153 160 Q152 52 145 0 L249 0 Z" /><glyph glyph-name="G" unicode="g" d="M666 234 Q666 257 666 276 Q666 295 667 313 L570 313 Q571 307 572 287 Q573 266 573 243 L573 72 Q555 66 525 61 Q497 56 464 56 Q312 60 238 129 Q163 198 163 282 Q168 407 289 507 Q409 607 589 644 L568 733 Q283 647 170 512 Q57 377 61 283 Q63 153 165 70 Q266 -13 442 -16 Q508 -16 570 -6 Q632 3 669 16 Q669 31 668 79 Q666 127 666 160 L666 234 Z" /><glyph glyph-name="H" unicode="h" d="M250 0 Q249 28 248 121 Q246 214 246 258 L246 324 L702 343 L702 237 Q702 212 700 124 Q698 36 696 0 L799 0 Q797 30 796 146 Q795 264 795 289 L795 391 Q795 425 798 554 Q801 683 803 717 L698 717 Q700 689 701 603 Q702 516 702 493 L702 411 L246 391 L246 471 Q246 497 248 594 Q249 691 251 717 L148 717 Q151 684 152 566 Q154 450 154 422 L154 311 Q154 279 153 163 Q153 46 151 0 L250 0 Z" /><glyph glyph-name="I" unicode="i" d="M246 420 Q246 517 248 607 Q249 697 251 717 L148 717 Q151 684 152 566 Q154 450 154 422 L154 311 Q154 279 153 163 Q153 46 151 0 L250 0 Q249 26 248 125 Q246 225 246 309 L246 420 Z" /><glyph glyph-name="J" unicode="j" d="M284 471 Q284 565 286 633 Q287 700 289 717 L186 717 Q188 687 189 592 Q191 498 191 473 L191 313 Q190 180 148 110 Q106 39 34 8 L81 -66 Q162 -32 221 57 Q281 145 284 311 L284 471 Z" /><glyph glyph-name="K" unicode="k" d="M251 -10 Q249 15 248 131 Q246 247 246 317 L246 428 Q246 504 248 605 Q250 706 251 727 L148 727 Q148 700 152 597 Q154 494 154 418 L154 309 Q154 215 152 117 Q151 18 148 -10 L251 -10 ZM683 68 Q641 109 522 225 Q404 342 368 384 Q417 432 513 519 Q608 606 646 641 L587 709 Q552 672 418 539 Q283 406 253 377 Q303 323 446 173 Q590 25 615 -4 L683 68 Z" /><glyph glyph-name="L" unicode="l" d="M150 717 Q152 688 153 574 Q154 461 154 434 L154 298 Q154 268 153 160 Q152 52 145 0 Q182 -1 322 -5 Q461 -9 489 -10 L489 78 Q412 75 340 75 Q268 74 246 74 L246 364 Q246 468 249 581 Q251 692 254 717 L150 717 Z" /><glyph glyph-name="M" unicode="m" d="M127 -27 L301 525 Q337 446 408 305 Q479 165 528 73 L530 73 Q570 139 663 298 Q754 458 791 517 Q811 466 887 260 Q962 54 989 -27 L1077 11 Q1035 117 943 366 Q850 613 814 701 L812 701 Q785 657 684 479 Q583 302 544 239 Q511 297 417 481 Q323 665 289 733 L287 733 Q270 676 170 376 Q71 77 43 5 L127 -27 Z" /><glyph glyph-name="N" unicode="n" d="M216 -7 Q216 47 219 278 Q222 507 223 563 Q269 512 504 271 Q738 31 790 -22 L792 -22 Q796 188 806 422 Q815 654 819 717 L724 722 Q723 669 720 447 Q717 227 717 177 Q664 231 437 468 Q210 703 160 758 L158 758 Q153 648 139 369 Q125 88 120 0 L216 -7 Z" /><glyph glyph-name="O" unicode="o" d="M422 -17 Q628 -6 720 124 Q811 254 809 384 Q806 551 712 642 Q617 732 469 733 Q282 729 173 612 Q63 497 61 322 Q62 182 153 85 Q244 -12 422 -17 L422 -17 ZM431 61 Q299 62 230 141 Q161 219 160 337 Q161 472 239 563 Q316 653 455 657 Q559 657 633 587 Q707 516 710 379 Q706 226 623 143 Q540 60 431 61 L431 61 Z" /><glyph glyph-name="P" unicode="p" d="M246 0 Q245 22 244 77 Q244 132 244 154 L244 214 Q391 245 478 323 Q565 400 567 507 Q566 589 507 638 Q449 687 344 703 Q295 711 241 714 Q186 717 152 717 Q152 694 154 600 Q155 505 155 476 L155 364 Q155 297 153 171 Q152 45 150 0 L246 0 ZM244 641 Q393 633 433 577 Q473 521 468 492 Q466 408 404 356 Q342 306 244 286 L244 641 Z" /><glyph glyph-name="Q" unicode="q" d="M827 -5 Q773 -1 703 7 Q634 15 561 23 L561 27 Q697 85 754 189 Q810 293 808 396 Q805 555 710 643 Q615 732 464 733 Q286 729 175 615 Q65 501 61 331 Q61 250 87 187 Q113 124 158 80 Q227 16 302 -1 Q377 -17 400 -15 Q419 -15 456 -23 Q542 -40 632 -58 Q722 -77 809 -94 L827 -5 ZM428 58 Q300 59 230 139 Q161 219 159 340 Q157 444 224 548 Q293 651 458 659 Q552 659 629 592 Q706 523 710 387 Q707 240 627 150 Q546 59 428 58 L428 58 Z" /><glyph glyph-name="R" unicode="r" d="M246 648 Q387 644 432 606 Q477 568 473 531 Q468 457 416 409 Q362 361 319 341 Q355 292 463 151 Q570 9 592 -18 L670 44 Q638 79 549 189 Q460 300 431 338 Q496 378 534 429 Q572 480 573 546 Q572 611 518 652 Q464 694 361 707 Q301 714 244 715 Q186 717 148 717 Q151 690 153 590 Q154 489 154 455 L154 371 Q154 336 155 186 Q155 37 152 0 L251 0 Q249 26 248 147 Q246 269 246 313 L246 648 Z" /><glyph glyph-name="S" unicode="s" d="M150 -18 Q298 18 375 89 Q453 160 453 238 Q452 298 412 333 Q372 367 312 399 Q276 418 239 444 Q200 471 197 511 Q204 575 281 611 Q356 647 411 654 L389 733 Q279 708 190 642 Q102 577 97 494 Q98 440 138 402 Q178 365 245 331 Q300 302 326 276 Q351 250 351 213 Q346 151 274 113 Q203 74 123 58 L150 -18 Z" /><glyph glyph-name="T" unicode="t" d="M391 0 Q389 24 384 166 Q380 308 379 472 L379 641 Q453 641 551 638 Q649 635 669 632 L669 719 Q623 713 515 710 Q408 707 381 707 L292 707 Q270 707 156 710 Q41 713 -3 719 L-3 632 Q22 635 108 638 Q194 641 287 641 L287 488 Q287 353 286 194 Q285 33 281 0 L391 0 Z" /><glyph glyph-name="U" unicode="u" d="M206 544 Q206 613 208 652 Q209 692 211 712 L114 712 Q114 691 114 648 Q113 604 113 566 L113 511 Q113 330 127 244 Q142 158 178 105 Q234 24 304 2 Q373 -19 417 -16 Q498 -16 558 10 Q617 37 663 92 Q719 162 735 262 Q753 362 751 509 L751 556 Q751 617 751 664 Q750 710 750 727 L652 727 Q654 698 656 655 Q658 611 658 558 L658 522 Q659 401 652 309 Q644 218 608 160 Q584 119 540 91 Q496 63 430 62 Q375 62 329 86 Q284 110 253 162 Q224 212 214 283 Q205 352 206 474 L206 544 Z" /><glyph glyph-name="V" unicode="v" d="M671 733 Q646 678 526 441 Q408 204 379 155 Q350 207 240 438 Q129 670 103 733 L15 684 Q55 611 195 319 Q335 28 368 -34 L370 -34 Q415 52 562 332 Q711 611 755 684 L671 733 Z" /><glyph glyph-name="W" unicode="w" d="M1000 717 Q976 650 896 443 Q816 237 795 175 Q749 255 678 377 Q607 499 558 586 L556 586 Q498 479 422 342 Q345 206 321 154 Q301 215 233 417 Q166 620 133 727 L44 689 Q84 574 174 313 Q264 52 297 -36 L299 -36 Q339 36 426 194 Q514 351 553 423 Q583 370 672 219 Q761 68 798 -1 L800 -1 Q835 78 949 352 Q1064 627 1086 681 L1000 717 Z" /><glyph glyph-name="X" unicode="x" d="M722 53 Q683 100 582 216 Q479 332 445 370 Q474 407 573 511 Q672 614 710 651 L640 721 Q609 682 519 577 Q430 470 394 430 Q334 504 262 595 Q190 685 166 719 L91 650 Q129 606 212 509 Q295 412 333 368 Q297 325 191 203 Q87 81 56 49 L123 -18 Q146 12 254 146 Q360 280 384 308 Q415 272 517 147 Q618 23 648 -16 L722 53 Z" /><glyph glyph-name="Y" unicode="y" d="M403 0 Q401 20 400 66 Q398 111 398 126 L398 222 Q399 304 431 382 Q463 460 516 520 Q560 570 611 604 Q662 639 712 653 L681 733 Q631 716 575 678 Q520 639 484 600 Q443 554 413 505 Q383 456 360 393 L358 393 Q340 458 301 514 Q263 571 225 613 Q204 637 160 672 Q116 707 66 733 L24 653 Q66 635 104 605 Q143 574 174 540 Q228 482 266 402 Q304 323 306 222 L306 145 Q306 130 304 77 Q302 24 301 0 L403 0 Z" /><glyph glyph-name="Z" unicode="z" d="M94 655 Q136 655 298 652 Q461 649 510 649 Q469 591 286 330 Q103 69 46 2 L46 0 Q115 -1 349 -5 Q583 -9 631 -10 L635 75 Q595 72 432 70 Q270 68 210 68 Q241 113 425 375 Q608 637 667 710 L667 712 Q620 713 397 720 Q175 728 98 733 L94 655 Z" /><glyph glyph-name="underscore" unicode="_" d="M0 -128 L512 -128 L512 -77 L0 -77 L0 -128 Z" /><glyph glyph-name="a" unicode="a" d="M93 -18 Q108 11 143 87 Q178 162 191 190 L508 203 Q520 182 566 99 Q612 16 630 -17 L713 33 Q658 119 540 325 Q421 529 352 640 L350 640 Q321 588 194 353 Q66 119 14 27 L93 -18 ZM226 255 Q239 278 286 373 Q334 469 349 496 Q362 474 413 382 Q463 291 476 265 L226 255 Z" /><glyph glyph-name="b" unicode="b" d="M135 323 Q135 295 134 170 Q134 45 130 -5 L148 -5 Q327 -3 424 53 Q522 111 523 200 Q520 258 473 292 Q425 326 371 333 L371 335 Q444 366 470 406 Q497 445 495 473 Q499 512 457 552 Q414 593 278 606 Q249 608 209 609 Q168 609 130 609 Q132 588 134 517 Q135 445 135 419 L135 323 ZM221 290 Q310 294 368 269 Q426 246 428 195 Q425 129 364 97 Q302 67 221 61 L221 290 ZM221 549 Q275 551 338 535 Q399 518 404 462 Q402 417 351 382 Q299 347 221 345 L221 549 Z" /><glyph glyph-name="c" unicode="c" d="M560 70 Q544 66 517 62 Q490 59 462 59 Q297 62 224 121 Q152 178 153 258 Q157 374 265 451 Q373 527 529 547 L515 625 Q278 578 167 468 Q56 359 57 244 Q52 172 136 83 Q219 -6 453 -14 Q496 -14 525 -12 Q556 -9 569 -7 L560 70 Z" /><glyph glyph-name="d" unicode="d" d="M135 275 Q135 247 134 142 Q132 38 129 -4 Q325 -6 502 82 Q678 169 690 376 Q698 428 639 504 Q580 581 359 604 Q297 608 234 609 Q172 609 130 609 Q133 581 134 494 Q135 407 135 383 L135 275 ZM223 541 Q400 545 498 500 Q595 456 596 355 Q596 256 504 172 Q411 88 223 72 L223 541 Z" /><glyph glyph-name="e" unicode="e" d="M459 69 Q389 66 317 66 Q246 66 224 66 L224 272 Q247 272 318 271 Q389 269 420 269 L417 344 Q370 340 306 338 Q243 335 224 335 L224 548 Q245 548 327 550 Q409 552 447 552 L443 626 Q396 623 279 616 Q162 610 132 609 Q133 585 134 488 Q135 391 135 369 L135 253 Q135 228 135 136 Q134 44 132 0 Q162 -1 293 -4 Q423 -8 462 -9 L459 69 Z" /><glyph glyph-name="f" unicode="f" d="M227 0 Q224 18 224 95 Q224 171 224 190 L224 270 L431 267 L428 340 Q381 338 312 335 Q244 332 224 332 L224 545 L445 549 L441 623 Q389 620 275 614 Q161 609 131 609 Q133 585 134 488 Q135 391 135 369 L135 253 Q135 228 134 136 Q133 44 127 0 L227 0 Z" /><glyph glyph-name="g" unicode="g" d="M610 139 L596 266 L505 266 Q506 261 507 244 Q508 226 508 206 L508 65 Q494 59 468 55 Q441 52 412 52 Q274 55 213 112 Q151 168 152 240 Q156 346 263 430 Q370 515 525 546 L507 626 Q254 553 154 438 Q52 324 56 241 Q57 130 145 59 Q232 -12 392 -14 Q453 -14 509 -6 Q565 1 598 13 Q598 26 597 67 Q596 108 610 139 L610 139 Z" /><glyph glyph-name="h" unicode="h" d="M228 0 Q227 24 226 102 Q224 182 224 219 L224 272 L618 289 L618 201 Q618 180 617 105 Q615 31 613 0 L712 0 Q710 25 709 125 Q708 224 708 246 L708 333 Q708 361 711 471 Q713 581 715 609 L615 609 Q616 586 617 512 Q618 438 618 419 L618 353 L224 337 L224 400 Q224 422 226 505 Q227 588 229 609 L130 609 Q132 582 133 482 Q135 382 135 358 L135 264 Q135 237 134 138 Q134 39 132 0 L228 0 Z" /><glyph glyph-name="i" unicode="i" d="M224 357 Q224 440 226 517 Q227 593 229 609 L130 609 Q132 582 133 482 Q135 382 135 358 L135 264 Q135 237 134 138 Q134 39 132 0 L228 0 Q227 22 226 106 Q224 191 224 263 L224 357 Z" /><glyph glyph-name="j" unicode="j" d="M258 400 Q258 480 260 539 Q261 596 263 609 L165 609 Q166 585 167 504 Q169 423 169 402 L169 266 Q168 154 130 93 Q92 33 26 7 L71 -61 Q144 -33 200 45 Q255 123 258 264 L258 400 Z" /><glyph glyph-name="k" unicode="k" d="M228 -9 Q226 13 225 112 Q223 210 223 270 L223 364 Q223 428 225 514 Q227 600 228 618 L130 618 Q130 596 133 508 Q135 420 135 355 L135 263 Q135 183 133 99 Q132 15 130 -9 L228 -9 ZM622 61 Q583 96 476 194 Q370 291 337 327 Q382 368 467 439 Q553 512 588 540 L534 606 Q502 574 380 461 Q257 346 230 321 Q276 273 406 144 Q534 16 558 -8 L622 61 Z" /><glyph glyph-name="l" unicode="l" d="M131 609 Q133 585 134 488 Q135 391 135 369 L135 253 Q135 228 134 136 Q133 44 127 0 Q161 -1 290 -4 Q419 -8 457 -9 L457 73 Q379 70 311 70 Q245 69 224 69 L224 309 Q224 398 227 494 Q229 588 232 609 L131 609 Z" /><glyph glyph-name="m" unicode="m" d="M115 -23 Q128 24 181 199 Q236 374 254 435 Q289 369 350 252 Q413 135 456 55 L458 55 Q496 117 578 255 Q659 392 689 442 Q706 397 766 222 Q827 46 850 -23 L935 9 Q898 100 818 315 Q737 531 709 606 L706 606 Q683 568 592 412 Q501 256 468 201 Q438 255 356 411 Q274 565 245 624 L241 624 Q225 574 139 319 Q53 65 31 4 L115 -23 Z" /><glyph glyph-name="n" unicode="n" d="M198 -6 Q198 41 200 234 Q203 427 202 465 Q239 429 441 227 Q643 26 690 -18 L694 -18 Q698 160 708 358 Q716 556 720 609 L629 613 Q628 568 627 384 Q626 200 626 158 Q580 204 384 400 Q188 597 143 644 L138 644 Q134 551 121 313 Q109 75 103 0 L198 -6 Z" /><glyph glyph-name="o" unicode="o" d="M381 -15 Q570 -6 654 105 Q738 216 736 327 Q733 468 648 546 Q562 623 424 624 Q253 620 156 521 Q58 422 56 273 Q57 155 137 72 Q218 -10 381 -15 L381 -15 ZM389 55 Q272 55 212 121 Q152 186 151 287 Q152 401 219 477 Q288 553 411 556 Q505 556 571 498 Q638 439 641 323 Q638 193 563 124 Q488 54 389 55 L389 55 Z" /><glyph glyph-name="p" unicode="p" d="M224 0 Q223 18 223 66 Q223 114 223 131 L223 180 Q356 205 436 270 Q517 336 519 431 Q518 501 465 543 Q412 585 317 599 Q271 606 218 607 Q165 609 133 609 Q133 590 134 510 Q135 429 135 404 L135 309 Q135 253 134 145 Q133 38 131 0 L224 0 ZM223 541 Q354 535 392 492 Q429 449 425 421 Q423 346 366 305 Q308 263 223 248 L223 541 Z" /><glyph glyph-name="q" unicode="q" d="M753 -1 Q703 2 641 8 Q579 14 516 20 L516 24 Q635 71 686 160 Q736 249 735 337 Q732 472 646 547 Q560 623 422 624 Q259 620 159 523 Q59 426 56 282 Q57 212 81 160 Q105 108 145 70 Q209 15 279 0 Q347 -15 369 -13 Q377 -13 387 -15 Q398 -17 415 -22 Q493 -39 574 -54 Q657 -71 736 -84 L753 -1 ZM389 56 Q274 56 213 122 Q152 186 151 289 Q148 378 208 464 Q267 550 417 556 Q500 556 568 501 Q637 445 641 329 Q639 205 567 130 Q495 56 389 56 L389 56 Z" /><glyph glyph-name="r" unicode="r" d="M224 543 Q351 540 392 511 Q433 481 430 449 Q426 384 378 346 Q330 308 291 291 Q324 249 422 128 Q520 7 540 -16 L610 46 Q582 75 502 163 Q422 251 395 284 Q454 317 490 362 Q526 408 527 462 Q526 519 476 555 Q426 591 333 602 Q273 608 219 609 Q164 609 130 609 Q132 587 134 502 Q135 416 135 386 L135 315 Q135 286 135 159 Q135 32 133 0 L229 0 Q227 23 226 126 Q224 229 224 266 L224 543 Z" /><glyph glyph-name="s" unicode="s" d="M131 -16 Q268 13 342 73 Q416 132 417 202 Q415 255 377 284 Q339 313 285 341 Q252 357 216 379 Q181 399 178 434 Q185 490 255 519 Q326 548 378 554 L358 626 Q255 606 172 551 Q89 495 84 420 Q85 373 123 341 Q161 309 222 281 Q272 257 297 236 Q322 214 322 181 Q317 129 250 99 Q182 69 108 55 L131 -16 Z" /><glyph glyph-name="t" unicode="t" d="M346 0 Q344 19 340 141 Q336 262 335 401 L335 537 Q399 537 486 535 Q573 531 584 528 L584 611 Q550 606 455 603 Q358 601 334 601 L252 601 Q231 601 130 603 Q28 606 -5 611 L-5 528 Q9 531 86 535 Q162 537 246 537 L246 415 Q246 300 245 164 Q244 28 240 0 L346 0 Z" /><glyph glyph-name="u" unicode="u" d="M184 462 Q184 521 186 555 Q187 589 188 605 L96 605 Q96 588 96 551 Q95 513 95 481 L95 434 Q95 281 110 207 Q125 134 157 90 Q208 19 269 1 Q330 -17 370 -14 Q443 -14 497 8 Q549 32 590 79 Q641 138 657 223 Q673 308 672 432 L672 473 Q672 525 672 564 Q671 603 671 618 L578 618 Q579 594 581 557 Q583 520 583 474 L583 444 Q584 341 577 264 Q569 187 539 139 Q516 103 479 81 Q441 57 382 56 Q332 56 293 77 Q254 96 227 140 Q202 181 193 241 Q183 300 184 403 L184 462 Z" /><glyph glyph-name="v" unicode="v" d="M590 625 Q568 578 464 376 Q358 175 334 133 Q308 178 213 375 Q117 570 94 625 L9 582 Q43 520 170 272 Q296 25 325 -29 L327 -29 Q367 45 501 283 Q634 519 672 582 L590 625 Z" /><glyph glyph-name="w" unicode="w" d="M879 613 Q859 557 792 383 Q723 209 703 157 Q664 223 601 325 Q538 426 492 505 L489 505 Q436 410 370 296 Q304 181 281 138 Q263 189 205 359 Q147 528 119 621 L31 586 Q66 488 147 266 Q229 44 259 -31 L263 -31 Q299 30 376 161 Q452 292 486 352 Q513 308 592 182 Q671 57 705 -1 L709 -1 Q740 66 843 299 Q945 532 965 579 L879 613 Z" /><glyph glyph-name="x" unicode="x" d="M637 45 Q600 83 510 182 Q419 281 388 314 Q415 345 503 433 Q591 521 623 552 L560 613 Q531 581 453 492 Q373 402 341 368 Q287 431 223 508 Q160 586 137 614 L70 550 L286 312 Q254 275 160 172 Q65 69 36 42 L100 -18 Q125 8 218 121 Q312 234 332 260 Q359 228 449 123 Q538 16 566 -17 L637 45 Z" /><glyph glyph-name="y" unicode="y" d="M349 0 Q347 17 346 55 Q344 94 344 108 L344 185 Q345 256 373 321 Q401 386 450 437 Q489 479 534 507 Q577 535 614 546 L588 621 Q550 607 501 577 Q453 545 420 511 Q383 472 355 430 Q328 388 307 335 L306 335 Q289 390 254 438 Q219 486 184 522 Q165 543 127 570 Q89 599 50 618 L12 544 Q42 531 76 508 Q110 483 138 454 Q187 404 220 338 Q254 270 255 185 L255 124 Q255 111 253 66 Q251 20 251 0 L349 0 Z" /><glyph glyph-name="z" unicode="z" d="M79 551 Q110 551 253 549 Q396 547 440 547 Q404 499 243 280 Q80 60 31 2 L31 0 Q90 -1 302 -4 Q514 -8 555 -9 L558 68 Q525 66 380 63 Q233 61 179 61 Q207 98 371 321 Q536 542 582 603 L582 605 Q546 606 346 613 Q147 621 83 626 L79 551 Z" /><glyph glyph-name="guilsinglright" unicode="&#x203a;" d="M115 150 Q144 188 202 255 Q258 322 289 359 Q261 391 201 457 Q139 523 115 553 L66 498 Q93 470 136 425 Q178 380 202 354 Q182 327 137 279 Q91 230 63 201 L115 150 Z" /></font>
</defs>
</svg>
