<?xml version="1.0" standalone="no"?><!DOCTYPE svg PUBLIC "-//W3C//DTD SVG 1.1//EN" "http://www.w3.org/Graphics/SVG/1.1/DTD/svg11.dtd" ><svg xmlns="http://www.w3.org/2000/svg"><metadata></metadata><defs><font id="1.000;WYUE;MFLiHei_Noncommercial-Regular" horiz-adv-x="1134"><font-face font-family="MF LiHei (Noncommercial) Regula" font-weight="400" font-stretch="normal" units-per-em="1000" panose-1="0 0 0 0 0 0 0 0 0 0" ascent="880" descent="-120" x-height="0" bbox="12 -402 1095 837" underline-thickness="50" underline-position="-75" unicode-range="U+0022-ff1b" /><missing-glyph horiz-adv-x="1000" d="M263 12 L478 380 L263 748 L263 12 ZM714 -25 L500 343 L285 -25 L714 -25 ZM736 12 L736 748 L522 380 L736 12 ZM714 785 L285 785 L500 417 L714 785 ZM230 830 L770 830 L770 -70 L230 -70 L230 830 Z" /><glyph glyph-name="" unicode="&quot;" d="M499 742 L499 482 L301 482 L301 742 L499 742 ZM247 742 L247 482 L49 482 L49 742 L247 742 Z" /><glyph glyph-name="" unicode="#" d="M359 351 L482 351 L528 521 L405 521 L359 351 ZM58 39 L112 234 L31 234 L31 351 L143 351 L189 521 L67 521 L67 637 L220 637 L264 796 L480 796 L436 637 L560 637 L603 796 L818 796 L775 637 L854 637 L854 521 L743 521 L697 351 L818 351 L818 234 L666 234 L613 39 L398 39 L451 234 L328 234 L274 39 L58 39 Z" /><glyph glyph-name="" unicode="%" d="M513 178 Q513 215 539 242 Q565 268 602 268 L827 268 Q865 268 891 242 Q917 216 917 178 L917 -11 Q917 -48 891 -74 Q864 -101 827 -101 L602 -101 Q565 -101 539 -74 Q513 -48 513 -11 L513 178 ZM764 177 Q764 192 754 203 Q743 213 728 213 L701 213 Q686 213 676 203 Q665 192 665 177 L665 -5 Q665 -20 676 -30 Q686 -41 701 -41 L728 -41 Q743 -41 754 -30 Q764 -20 764 -5 L764 177 ZM86 -105 L668 796 L879 796 L298 -105 L86 -105 ZM38 681 Q38 719 64 745 Q91 771 128 771 L352 771 Q389 771 415 745 Q442 718 442 681 L442 492 Q442 455 415 429 Q389 402 352 402 L128 402 Q91 402 64 429 Q38 455 38 492 L38 681 ZM290 680 Q290 695 280 706 Q269 716 254 716 L226 716 Q211 716 201 706 Q190 695 190 680 L190 498 Q190 483 201 473 Q211 462 226 462 L254 462 Q269 462 280 473 Q290 483 290 498 L290 680 Z" /><glyph glyph-name="" unicode="&amp;" d="M454 492 L454 677 Q454 692 443 703 Q432 713 418 713 L331 713 Q316 713 306 703 Q295 692 295 677 L295 492 L367 447 L454 492 ZM352 272 L260 222 L260 12 Q260 -3 271 -13 Q281 -24 296 -24 L477 -24 L540 154 L352 272 ZM832 357 L781 186 L904 109 L904 -75 L734 31 L693 -105 L134 -105 Q97 -105 71 -79 Q45 -52 45 -15 L45 276 L208 363 L79 443 L79 704 Q79 741 106 767 Q132 794 169 794 L580 794 Q617 794 643 767 Q670 741 670 704 L670 443 L510 357 L593 305 L612 357 L832 357 Z" /><glyph glyph-name="" unicode="," d="M296 189 L242 -86 L29 -86 L84 189 L296 189 Z" /><glyph glyph-name="" unicode="-" d="M49 365 L400 365 L400 293 L49 293 L49 365 Z" /><glyph glyph-name="" unicode="." d="M85 -80 L27 198 L231 198 L290 -80 L85 -80 Z" /><glyph glyph-name="" unicode="/" d="M441 794 L243 -101 L18 -101 L216 794 L441 794 Z" /><glyph glyph-name="" unicode="0" d="M278 721 L278 -38 L513 -38 Q551 -38 577 -11 Q604 16 604 53 L604 721 L278 721 ZM831 794 L831 72 Q831 -4 778 -57 Q724 -111 649 -111 L50 -111 L50 794 L831 794 Z" /><glyph glyph-name="" unicode="1" d="M488 -115 L31 -115 L31 -42 L145 -42 L145 722 L49 722 L49 795 L372 795 L372 -42 L488 -42 L488 -115 Z" /><glyph glyph-name="" unicode="2" d="M34 797 L749 797 L749 491 Q749 411 698 360 Q648 309 566 309 L263 309 L263 -41 L749 -41 L749 -114 L34 -114 L34 382 L420 382 Q458 382 488 411 Q520 443 520 491 L520 723 L34 723 L34 797 Z" /><glyph glyph-name="" unicode="3" d="M749 393 L749 66 Q749 -9 695 -63 Q642 -117 566 -117 L15 -117 L15 -44 L431 -44 Q469 -44 495 -17 Q522 10 522 47 L522 319 L14 319 L14 393 L395 393 Q453 393 490 436 Q522 474 522 520 L522 722 L14 722 L14 795 L749 795 L749 539 Q749 455 692 393 L749 393 Z" /><glyph glyph-name="" unicode="4" d="M863 106 L706 106 L706 -117 L477 -117 L477 106 L26 106 L128 794 L357 794 L266 178 L477 178 L477 795 L706 795 L706 178 L863 178 L863 106 Z" /><glyph glyph-name="" unicode="5" d="M785 722 L263 722 L263 381 L785 381 L785 68 Q785 -7 732 -61 Q678 -115 603 -115 L34 -115 L34 -42 L465 -42 Q503 -42 530 -15 Q557 12 557 49 L557 308 L34 308 L34 796 L785 796 L785 722 Z" /><glyph glyph-name="" unicode="6" d="M481 -40 Q519 -40 546 -13 Q572 13 572 51 L572 358 L278 358 L278 -40 L481 -40 ZM801 722 L278 722 L278 431 L801 431 L801 70 Q801 -6 747 -59 Q694 -113 618 -113 L50 -113 L50 796 L801 796 L801 722 Z" /><glyph glyph-name="" unicode="7" d="M467 722 L12 722 L12 796 L713 796 L422 -112 L194 -112 L467 722 Z" /><glyph glyph-name="" unicode="8" d="M285 722 L285 395 L501 395 Q539 395 561 417 Q583 438 583 476 L583 722 L285 722 ZM358 321 Q319 321 294 299 Q267 277 267 240 L267 -40 L519 -40 Q557 -40 579 -18 Q602 5 602 42 L602 321 L358 321 ZM67 796 L802 796 L802 540 Q802 488 774 441 Q747 396 702 371 L820 371 L820 70 Q820 -6 767 -59 Q713 -113 638 -113 L48 -113 L48 194 Q48 298 141 349 L67 349 L67 796 Z" /><glyph glyph-name="" unicode="9" d="M35 -113 L35 -40 L470 -40 Q508 -40 535 -13 Q562 14 562 51 L562 285 L35 285 L35 795 L789 795 L789 70 Q789 -6 736 -59 Q683 -113 607 -113 L35 -113 ZM264 722 L264 358 L562 358 L562 722 L264 722 Z" /><glyph glyph-name="" unicode=":" d="M231 219 L231 11 L35 11 L35 219 L231 219 ZM231 623 L231 415 L35 415 L35 623 L231 623 Z" /><glyph glyph-name="" unicode="&lt;" d="M13 342 L297 742 L549 742 L266 342 L549 -58 L297 -58 L13 342 Z" /><glyph glyph-name="" unicode="=" d="M49 265 L680 265 L680 166 L49 166 L49 265 ZM49 481 L680 481 L680 382 L49 382 L49 481 Z" /><glyph glyph-name="" unicode="&gt;" d="M289 -58 L36 -58 L319 342 L36 742 L289 742 L571 342 L289 -58 Z" /><glyph glyph-name="" unicode="a" d="M370 256 L588 256 L478 598 L370 256 ZM615 797 L933 -113 L706 -113 L611 183 L346 183 L253 -113 L24 -113 L343 797 L615 797 Z" /><glyph glyph-name="" unicode="b" d="M498 392 Q553 395 588 437 Q618 474 618 519 L618 723 L278 723 L278 392 L498 392 ZM527 -44 Q565 -44 592 -17 Q618 9 618 47 L618 318 L278 318 L278 -44 L527 -44 ZM845 797 L845 538 Q845 452 788 392 L845 392 L845 66 Q845 -9 792 -63 Q738 -117 663 -117 L50 -117 L50 797 L845 797 Z" /><glyph glyph-name="" unicode="c" d="M278 -40 L804 -40 L804 -113 L50 -113 L50 794 L804 794 L804 721 L278 721 L278 -40 Z" /><glyph glyph-name="" unicode="d" d="M675 794 Q750 794 804 740 Q857 686 857 612 L857 74 Q857 0 804 -54 Q750 -108 675 -108 L50 -108 L50 794 L675 794 ZM278 -34 L539 -34 Q577 -34 603 -7 Q630 20 630 57 L630 630 Q630 668 603 694 Q577 721 539 721 L278 721 L278 -34 Z" /><glyph glyph-name="" unicode="e" d="M779 725 L278 725 L278 391 L761 391 L761 318 L278 318 L278 -44 L779 -44 L779 -116 L278 -116 L278 -117 L50 -117 L50 798 L779 798 L779 725 Z" /><glyph glyph-name="" unicode="f" d="M779 725 L278 725 L278 391 L725 391 L725 318 L278 318 L278 -117 L50 -117 L50 798 L779 798 L779 725 Z" /><glyph glyph-name="" unicode="g" d="M907 70 Q907 -6 854 -59 Q801 -113 725 -113 L46 -113 L46 798 L907 798 L907 725 L274 725 L274 -40 L590 -40 Q627 -40 654 -13 Q680 13 680 51 L680 318 L391 318 L391 391 L907 391 L907 70 Z" /><glyph glyph-name="" unicode="h" d="M877 798 L877 -113 L649 -113 L649 318 L278 318 L278 -113 L50 -113 L50 798 L278 798 L278 391 L649 391 L649 798 L877 798 Z" /><glyph glyph-name="" unicode="i" d="M465 724 L364 724 L364 -40 L465 -40 L465 -113 L33 -113 L33 -40 L136 -40 L136 724 L33 724 L33 798 L465 798 L465 724 Z" /><glyph glyph-name="" unicode="j" d="M381 798 L381 -20 Q381 -58 354 -85 Q328 -111 290 -111 L14 -111 L14 -38 L118 -38 Q132 -38 143 -27 Q154 -17 154 -2 L154 798 L381 798 Z" /><glyph glyph-name="" unicode="k" d="M777 773 L486 321 L777 -111 L536 -111 L278 271 L278 -116 L50 -116 L50 794 L278 794 L278 373 L536 773 L777 773 Z" /><glyph glyph-name="" unicode="l" d="M278 795 L278 -40 L623 -40 L623 -113 L50 -113 L50 795 L278 795 Z" /><glyph glyph-name="" unicode="m" d="M470 795 L566 295 L664 795 L947 795 L1095 -112 L885 -112 L788 481 L664 -96 L470 -96 L345 483 L249 -112 L39 -112 L187 795 L470 795 Z" /><glyph glyph-name="" unicode="n" d="M324 793 L604 202 L604 793 L827 793 L827 -116 L561 -116 L273 481 L273 -116 L50 -116 L50 794 L273 794 L273 793 L324 793 Z" /><glyph glyph-name="" unicode="o" d="M858 72 Q858 -4 805 -57 Q751 -111 676 -111 L50 -111 L50 618 Q50 693 104 747 Q157 801 232 801 L858 801 L858 72 ZM540 -38 Q578 -38 604 -11 Q631 16 631 53 L631 727 L369 727 Q331 727 304 700 Q278 674 278 636 L278 -38 L540 -38 Z" /><glyph glyph-name="" unicode="p" d="M278 -114 L50 -114 L50 798 L857 798 L857 433 Q857 357 804 304 Q750 251 675 251 L278 251 L278 -114 ZM278 323 L539 323 Q576 323 603 350 Q630 377 630 415 L630 724 L278 724 L278 323 Z" /><glyph glyph-name="" unicode="q" d="M270 711 L270 -38 L532 -38 Q570 -38 596 -11 Q623 16 623 53 L623 711 L270 711 ZM43 785 L852 785 L852 72 Q852 -4 798 -57 Q744 -111 669 -111 L657 -111 L729 -223 L469 -223 L397 -111 L43 -111 L43 785 Z" /><glyph glyph-name="" unicode="r" d="M278 397 L539 397 Q577 397 603 423 Q630 450 630 488 L630 724 L278 724 L278 397 ZM278 -114 L50 -114 L50 798 L857 798 L857 506 Q857 439 814 388 Q771 337 707 326 L869 -114 L623 -114 L462 323 L278 323 L278 -114 Z" /><glyph glyph-name="" unicode="s" d="M838 724 L351 724 Q314 724 287 697 Q260 671 260 633 L260 392 L838 392 L838 68 Q838 -7 785 -61 Q731 -115 656 -115 L32 -115 L32 -42 L518 -42 Q556 -42 583 -15 Q610 12 610 49 L610 318 L32 318 L32 615 Q32 690 86 744 Q139 798 215 798 L838 798 L838 724 Z" /><glyph glyph-name="" unicode="t" d="M759 724 L501 724 L501 -115 L272 -115 L272 724 L15 724 L15 798 L759 798 L759 724 Z" /><glyph glyph-name="" unicode="u" d="M278 -43 L539 -43 Q577 -43 603 -16 Q630 11 630 48 L630 796 L857 796 L857 67 Q857 -9 804 -62 Q750 -116 675 -116 L50 -116 L50 796 L278 796 L278 -43 Z" /><glyph glyph-name="" unicode="v" d="M255 795 L452 90 L650 795 L878 795 L622 -116 L282 -116 L27 795 L255 795 Z" /><glyph glyph-name="" unicode="w" d="M176 -116 L39 794 L249 794 L345 162 L458 778 L652 778 L765 156 L862 794 L1072 794 L934 -116 L643 -116 L554 364 L466 -116 L176 -116 Z" /><glyph glyph-name="" unicode="x" d="M287 795 L456 531 L624 795 L870 795 L579 339 L870 -116 L624 -116 L456 148 L287 -116 L41 -116 L332 339 L41 795 L287 795 Z" /><glyph glyph-name="" unicode="y" d="M235 794 L424 511 L622 794 L835 794 L538 343 L538 -116 L310 -116 L310 343 L13 794 L235 794 Z" /><glyph glyph-name="" unicode="z" d="M36 796 L855 796 L334 -43 L853 -43 L853 -116 L25 -116 L545 722 L36 722 L36 796 Z" /><glyph glyph-name="" unicode="_" d="M49 39 L506 39 L506 -33 L49 -33 L49 39 Z" /><glyph glyph-name="" unicode="a" d="M272 -44 L427 -44 Q465 -44 491 -17 Q518 10 518 47 L518 174 L272 174 L272 -44 ZM745 66 Q745 -9 691 -63 Q637 -117 563 -117 L45 -117 L45 247 L516 247 L516 399 L45 399 L45 472 L745 472 L745 66 Z" /><glyph glyph-name="" unicode="b" d="M278 477 L775 477 L775 66 Q775 -9 722 -63 Q668 -117 593 -117 L50 -117 L50 799 L278 799 L278 477 ZM278 -44 L457 -44 Q495 -44 521 -17 Q548 10 548 47 L548 405 L278 405 L278 -44 Z" /><glyph glyph-name="" unicode="c" d="M278 -44 L682 -44 L682 -117 L50 -117 L50 475 L682 475 L682 403 L278 403 L278 -44 Z" /><glyph glyph-name="" unicode="d" d="M543 795 L771 795 L771 66 Q771 -9 718 -63 Q664 -117 589 -117 L19 -117 L19 480 L543 480 L543 795 ZM452 -44 Q490 -44 516 -17 Q543 10 543 47 L543 408 L246 408 L246 -44 L452 -44 Z" /><glyph glyph-name="" unicode="e" d="M278 179 L490 179 Q528 179 554 206 Q581 233 581 270 L581 403 L278 403 L278 179 ZM278 107 L278 -44 L809 -44 L809 -117 L50 -117 L50 475 L809 475 L809 243 Q809 187 769 147 Q729 107 672 107 L278 107 Z" /><glyph glyph-name="" unicode="f" d="M404 721 L404 482 L556 482 L556 410 L404 410 L404 -117 L175 -117 L175 410 L13 410 L13 482 L175 482 L175 794 L547 794 L547 721 L404 721 Z" /><glyph glyph-name="" unicode="g" d="M36 -399 L36 -326 L471 -326 Q509 -326 536 -299 Q563 -272 563 -235 L563 -93 L36 -93 L36 475 L790 475 L790 -217 Q790 -293 737 -346 Q684 -399 608 -399 L36 -399 ZM265 403 L265 -20 L563 -20 L563 403 L265 403 Z" /><glyph glyph-name="" unicode="h" d="M50 -117 L50 789 L278 789 L278 433 L764 433 L764 -117 L537 -117 L537 360 L278 360 L278 -117 L50 -117 Z" /><glyph glyph-name="" unicode="i" d="M277 742 L277 543 L49 543 L49 742 L277 742 ZM278 474 L278 -117 L50 -117 L50 474 L278 474 Z" /><glyph glyph-name="" unicode="j" d="M380 469 L380 -309 Q380 -347 354 -373 Q327 -400 289 -400 L12 -400 L12 -327 L116 -327 Q131 -327 142 -316 Q152 -306 152 -291 L152 469 L380 469 ZM380 742 L380 543 L152 543 L152 742 L380 742 Z" /><glyph glyph-name="" unicode="k" d="M736 475 L493 185 L755 -115 L519 -115 L278 163 L278 -115 L50 -115 L50 791 L278 791 L278 209 L501 475 L736 475 Z" /><glyph glyph-name="" unicode="l" d="M278 791 L278 -115 L50 -115 L50 791 L278 791 Z" /><glyph glyph-name="" unicode="m" d="M608 410 L608 -115 L380 -115 L380 410 L278 410 L278 -115 L50 -115 L50 482 L937 482 L937 -115 L710 -115 L710 410 L608 410 Z" /><glyph glyph-name="" unicode="n" d="M278 410 L278 -115 L50 -115 L50 482 L774 482 L774 -115 L546 -115 L546 410 L278 410 Z" /><glyph glyph-name="" unicode="o" d="M48 482 L783 482 L783 72 Q783 -4 730 -57 Q676 -111 601 -111 L48 -111 L48 482 ZM276 410 L276 -38 L464 -38 Q502 -38 528 -11 Q555 16 555 53 L555 410 L276 410 Z" /><glyph glyph-name="" unicode="p" d="M278 -402 L50 -402 L50 478 L857 478 L857 91 Q857 15 804 -38 Q750 -91 675 -91 L278 -91 L278 -402 ZM278 -19 L539 -19 Q577 -19 603 8 Q630 35 630 73 L630 406 L278 406 L278 -19 Z" /><glyph glyph-name="" unicode="q" d="M554 -101 L36 -101 L36 477 L781 477 L781 -401 L554 -401 L554 -101 ZM554 405 L265 405 L265 -28 L554 -28 L554 405 Z" /><glyph glyph-name="" unicode="r" d="M50 -115 L50 475 L278 475 L278 345 L520 484 L520 374 L278 235 L278 -115 L50 -115 Z" /><glyph glyph-name="" unicode="s" d="M756 406 L360 406 Q322 406 295 377 Q269 349 269 311 L269 219 L756 219 L756 22 Q756 -35 716 -75 Q675 -115 618 -115 L41 -115 L41 -42 L436 -42 Q474 -42 501 -15 Q527 11 527 49 L527 146 L41 146 L41 303 Q41 381 82 427 Q128 478 213 478 L756 478 L756 406 Z" /><glyph glyph-name="" unicode="t" d="M394 690 L394 481 L564 481 L564 409 L394 409 L394 -42 L564 -42 L564 -115 L166 -115 L166 409 L15 409 L15 481 L166 481 L166 690 L394 690 Z" /><glyph glyph-name="" unicode="u" d="M784 474 L784 -115 L556 -115 L556 -85 Q518 -115 460 -115 L49 -115 L49 474 L277 474 L277 -42 L420 -42 Q508 -42 556 24 L556 474 L784 474 Z" /><glyph glyph-name="" unicode="v" d="M784 474 L528 -115 L280 -115 L24 474 L253 474 L404 123 L556 474 L784 474 Z" /><glyph glyph-name="" unicode="w" d="M143 -115 L43 481 L225 481 L282 64 L395 449 L554 449 L667 59 L725 481 L907 481 L826 -115 L563 -115 L474 189 L385 -115 L143 -115 Z" /><glyph glyph-name="" unicode="x" d="M539 -115 L413 34 L287 -115 L41 -115 L290 180 L41 476 L287 476 L413 327 L539 476 L785 476 L536 180 L785 -115 L539 -115 Z" /><glyph glyph-name="" unicode="y" d="M279 476 L451 200 L604 476 L850 476 L369 -398 L123 -398 L318 -42 L32 476 L279 476 Z" /><glyph glyph-name="" unicode="z" d="M41 475 L757 475 L358 -42 L762 -42 L762 -115 L37 -115 L436 402 L41 402 L41 475 Z" /><glyph glyph-name="" unicode="&#x3001;" d="M85 -96 L44 121 L232 121 L273 -96 L85 -96 Z" /><glyph glyph-name="" unicode="&#x3002;" d="M53 90 Q53 131 82 161 Q111 190 151 190 L289 190 Q329 190 358 161 Q387 131 387 90 L387 -13 Q387 -54 358 -83 Q330 -112 289 -112 L151 -112 Q110 -112 82 -83 Q53 -54 53 -13 L53 90 ZM270 63 Q270 80 258 92 Q246 104 229 104 L200 104 Q184 104 173 92 Q161 80 161 63 L161 17 Q161 2 173 -9 Q184 -21 200 -21 L229 -21 Q245 -21 258 -9 Q270 2 270 17 L270 63 Z" /><glyph glyph-name="" unicode="&#xff01;" d="M372 119 L372 -115 L147 -115 L147 119 L372 119 ZM371 187 L148 187 L129 823 L390 823 L371 187 Z" /><glyph glyph-name="" unicode="&#xff0c;" d="M277 149 L229 -95 L41 -95 L88 149 L277 149 Z" /><glyph glyph-name="" unicode="&#xff1b;" d="M310 227 L266 -54 L70 -54 L114 227 L310 227 ZM310 631 L310 423 L114 423 L114 631 L310 631 Z" /><glyph glyph-name="" unicode="&#x7231;" d="M433 152 L550 92 L737 184 L328 184 L315 152 L433 152 ZM44 811 L946 811 L946 735 L44 735 L44 811 ZM585 703 L621 570 L688 570 L725 703 L933 703 L897 570 L961 570 L961 412 L738 412 L738 494 L251 494 L251 450 L435 450 L406 378 L938 378 L938 302 L375 302 L358 260 L950 260 L950 104 L733 0 L971 -121 L632 -121 L558 -85 L485 -121 L112 -121 L371 5 L275 52 L251 -7 L28 -7 L153 302 L51 302 L51 378 L183 378 L197 412 L28 412 L28 570 L108 570 L72 703 L281 703 L317 570 L412 570 L376 703 L585 703 Z" /><glyph glyph-name="" unicode="&#x6848;" d="M616 472 L616 494 L383 494 L383 472 L499 435 L616 472 ZM731 620 L731 681 L265 681 L265 620 L30 620 L30 756 L380 756 L380 822 L618 822 L618 756 L969 756 L969 620 L731 620 ZM621 234 L621 178 L973 178 L973 102 L904 102 L973 -121 L756 -121 L687 102 L621 102 L621 -121 L383 -121 L383 102 L321 102 L249 -121 L26 -121 L98 102 L26 102 L26 178 L383 178 L383 234 L621 234 ZM26 570 L130 570 L130 605 L383 605 L383 570 L973 570 L973 494 L869 494 L869 413 L719 365 L893 310 L973 310 L973 248 L648 248 L499 295 L352 248 L27 248 L27 310 L107 310 L280 365 L130 413 L130 494 L26 494 L26 570 Z" /><glyph glyph-name="" unicode="&#x5427;" d="M575 307 L616 307 L616 727 L575 727 L575 307 ZM812 727 L770 727 L770 307 L791 307 Q812 307 812 326 L812 727 ZM229 656 L179 656 L179 -9 L205 -9 Q229 -9 229 19 L229 656 ZM378 10 Q378 -29 353 -57 Q329 -85 295 -85 L29 -85 L29 733 L378 733 L378 10 ZM417 803 L970 803 L970 307 Q970 276 945 254 Q921 232 886 232 L575 232 L575 -48 L970 -48 L970 -123 L417 -123 L417 803 Z" /><glyph glyph-name="" unicode="&#x628a;" d="M796 734 L751 734 L751 310 L774 310 Q796 310 796 329 L796 734 ZM539 310 L584 310 L584 734 L539 734 L539 310 ZM274 828 L274 642 L331 642 L331 565 L274 565 L274 285 L331 300 L331 224 L274 209 L274 -27 Q274 -67 243 -95 Q212 -123 169 -123 L36 -123 L36 -46 L55 -46 Q87 -46 87 -18 L87 162 L31 148 L31 225 L87 239 L87 565 L31 565 L31 642 L87 642 L87 828 L274 828 ZM367 810 L969 810 L969 310 Q969 279 942 256 Q915 234 877 234 L539 234 L539 -46 L969 -46 L969 -122 L367 -122 L367 810 Z" /><glyph glyph-name="" unicode="&#x7248;" d="M32 -121 L32 822 L207 822 L207 497 L246 497 L246 825 L402 825 L402 497 L434 497 L434 421 L207 421 L207 332 L434 332 L434 -121 L264 -121 L264 256 L207 256 L207 -121 L32 -121 ZM629 736 L629 648 L973 648 L973 341 L880 119 L973 -123 L827 -123 L804 -64 L779 -123 L633 -123 L731 120 L645 341 L645 529 L781 529 L781 379 L807 309 L836 379 L836 571 L629 571 L629 -123 L465 -123 L465 813 L975 813 L975 736 L629 736 Z" /><glyph glyph-name="" unicode="&#x62b1;" d="M593 491 L544 491 L544 232 L573 232 Q593 232 593 251 L593 491 ZM631 827 L607 745 L965 745 L965 152 Q965 112 932 85 Q899 57 852 57 L710 57 L710 128 L757 128 Q771 128 782 136 Q792 145 792 156 L792 673 L586 673 L565 601 L353 601 L419 827 L631 827 ZM276 827 L276 641 L336 641 L336 564 L276 564 L276 285 L336 300 L336 223 L276 208 L276 -27 Q276 -67 245 -95 Q213 -123 169 -123 L32 -123 L32 -47 L51 -47 Q83 -47 83 -18 L83 161 L27 148 L27 224 L83 238 L83 564 L27 564 L27 641 L83 641 L83 827 L276 827 ZM759 253 Q759 214 727 188 Q695 161 648 161 L564 161 L564 -39 L973 -39 L973 -115 L366 -115 L366 563 L759 563 L759 253 Z" /><glyph glyph-name="" unicode="&#x5907;" d="M62 -115 L62 311 L945 311 L945 -21 Q945 -61 918 -88 Q890 -115 851 -115 L62 -115 ZM499 424 L313 344 L27 344 L27 423 L84 423 L295 512 L157 572 L29 572 L129 823 L343 823 L326 781 L938 781 L938 614 L703 513 L915 423 L972 423 L972 344 L686 344 L499 424 ZM296 705 L289 689 L499 599 L747 705 L296 705 ZM298 135 L384 135 L384 235 L298 235 L298 135 ZM298 -40 L384 -40 L384 59 L298 59 L298 -40 ZM622 235 L622 135 L706 135 L706 235 L622 235 ZM678 -40 Q706 -40 706 -12 L706 59 L622 59 L622 -40 L678 -40 Z" /><glyph glyph-name="" unicode="&#x672c;" d="M281 80 L377 80 L377 548 L341 548 L281 80 ZM620 80 L720 80 L661 548 L620 548 L620 80 ZM620 822 L620 624 L973 624 L973 548 L889 548 L969 -93 L742 -93 L729 4 L620 4 L620 -122 L377 -122 L377 4 L272 4 L260 -93 L33 -93 L113 548 L26 548 L26 624 L377 624 L377 822 L620 822 Z" /><glyph glyph-name="" unicode="&#x7f16;" d="M837 348 L837 188 L853 188 L853 348 L837 348 ZM649 188 L666 188 L666 348 L649 348 L649 188 ZM741 188 L762 188 L762 348 L741 348 L741 188 ZM30 -41 L318 -18 L318 -94 L30 -117 L30 -41 ZM768 556 Q794 556 794 585 L794 706 L510 706 L510 556 L768 556 ZM317 825 L254 531 L326 531 L251 119 L316 119 L316 43 L39 43 L109 377 L35 377 L131 825 L317 825 ZM534 -124 L534 424 L969 424 L969 -124 L853 -124 L853 112 L837 112 L837 -124 L762 -124 L762 112 L741 112 L741 -124 L666 -124 L666 112 L649 112 L649 -124 L534 -124 ZM341 782 L538 782 L538 825 L773 825 L773 782 L969 782 L969 575 Q969 536 942 508 Q914 480 876 480 L510 480 L510 -124 L341 -124 L341 782 Z" /><glyph glyph-name="" unicode="&#x53d8;" d="M59 623 L213 623 L185 365 L31 365 L59 623 ZM968 365 L813 365 L785 623 L939 623 L968 365 ZM25 747 L380 747 L380 821 L618 821 L618 747 L973 747 L973 671 L756 671 L756 343 L526 343 L526 671 L472 671 L472 343 L242 343 L242 671 L25 671 L25 747 ZM693 29 L902 -66 L975 -66 L975 -123 L629 -123 L501 -62 L373 -123 L26 -123 L26 -66 L99 -66 L308 29 L68 144 L68 212 L291 212 L500 117 L760 235 L46 235 L46 311 L934 311 L934 144 L693 29 Z" /><glyph glyph-name="" unicode="&#x8868;" d="M62 761 L381 761 L381 825 L619 825 L619 761 L938 761 L938 685 L619 685 L619 595 L903 595 L903 520 L619 520 L619 429 L974 429 L974 354 L755 354 L817 223 L974 302 L974 167 L869 115 L974 -105 L742 -105 L522 354 L473 354 L423 263 L535 263 L535 -43 L646 -43 L646 -119 L318 -119 L318 73 L262 -28 L25 -28 L235 354 L25 354 L25 429 L381 429 L381 520 L97 520 L97 595 L381 595 L381 685 L62 685 L62 761 Z" /><glyph glyph-name="" unicode="&#x535a;" d="M540 485 L595 485 L595 534 L540 534 L540 485 ZM756 534 L756 485 L812 485 L812 534 L756 534 ZM540 356 L595 356 L595 409 L540 409 L540 356 ZM756 356 L812 356 L812 409 L756 409 L756 356 ZM937 822 L961 759 L804 759 L781 822 L937 822 ZM604 69 L641 -58 L471 -58 L433 69 L604 69 ZM382 176 L741 176 L741 206 L933 206 L933 176 L973 176 L973 99 L933 99 L933 -29 Q933 -69 907 -96 Q881 -124 843 -124 L666 -124 L666 -48 L714 -48 Q741 -48 741 -19 L741 99 L382 99 L382 176 ZM27 637 L111 637 L111 827 L286 827 L286 637 L370 637 L370 561 L286 561 L286 -124 L111 -124 L111 561 L27 561 L27 637 ZM377 737 L595 737 L595 827 L756 827 L756 737 L973 737 L973 661 L756 661 L756 611 L967 611 L967 227 L812 227 L812 280 L756 280 L756 227 L595 227 L595 280 L540 280 L540 227 L383 227 L383 611 L595 611 L595 661 L377 661 L377 737 Z" /><glyph glyph-name="" unicode="&#x90e8;" d="M352 219 L246 219 L246 -44 L325 -44 Q352 -44 352 -16 L352 219 ZM37 735 L182 735 L182 825 L417 825 L417 735 L561 735 L561 660 L37 660 L37 735 ZM27 422 L76 422 L51 611 L243 611 L269 422 L329 422 L356 611 L548 611 L522 422 L571 422 L571 346 L27 346 L27 422 ZM49 294 L550 294 L550 -6 Q550 -53 517 -87 Q484 -120 437 -120 L49 -120 L49 294 ZM972 809 L951 412 L966 412 L943 -37 L785 -37 L807 390 L792 390 L810 733 L760 733 L760 -124 L596 -124 L596 809 L972 809 Z" /><glyph glyph-name="" unicode="&#x6750;" d="M27 -121 L40 590 L133 590 L119 -121 L27 -121 ZM436 590 L451 -121 L357 -121 L344 590 L436 590 ZM27 704 L146 704 L146 827 L332 827 L332 704 L451 704 L451 628 L332 628 L332 -121 L146 -121 L146 628 L27 628 L27 704 ZM935 828 L935 698 L973 698 L973 622 L935 622 L935 -28 Q935 -68 908 -96 Q881 -124 843 -124 L709 -124 L709 -48 L718 -48 Q746 -48 746 -19 L746 622 L715 622 L641 -124 L469 -124 L543 622 L489 622 L489 698 L746 698 L746 828 L935 828 Z" /><glyph glyph-name="" unicode="&#x91c7;" d="M271 683 L317 432 L85 432 L39 683 L271 683 ZM683 432 L729 683 L961 683 L915 432 L683 432 ZM593 683 L639 432 L407 432 L361 683 L593 683 ZM30 806 L970 806 L970 730 L30 730 L30 806 ZM27 344 L381 344 L381 412 L619 412 L619 344 L973 344 L973 268 L891 268 L973 -124 L745 -124 L663 268 L619 268 L619 -124 L381 -124 L381 268 L336 268 L255 -124 L27 -124 L108 268 L27 268 L27 344 Z" /><glyph glyph-name="" unicode="&#x53c2;" d="M300 290 L691 306 L646 417 L352 417 L300 290 ZM129 116 L871 146 L871 70 L129 40 L129 116 ZM72 -48 L927 -15 L927 -91 L72 -124 L72 -48 ZM412 565 L383 493 L973 493 L973 417 L866 417 L970 159 L751 159 L721 231 L269 213 L247 159 L27 159 L132 417 L28 417 L28 493 L163 493 L192 565 L92 565 L201 819 L434 819 L352 641 L644 641 Q655 641 661 648 Q665 660 662 666 L612 791 L846 791 L905 641 Q914 613 897 588 Q882 565 851 565 L412 565 Z" /><glyph glyph-name="" unicode="&#x7b56;" d="M26 471 L381 471 L381 513 L619 513 L619 471 L974 471 L974 395 L619 395 L619 344 L954 344 L954 209 Q954 170 926 142 Q898 114 859 114 L680 114 L680 190 L700 190 Q728 190 728 219 L728 268 L619 268 L619 -124 L381 -124 L381 268 L273 268 L273 114 L45 114 L45 344 L381 344 L381 395 L26 395 L26 471 ZM494 535 L547 820 L747 820 L736 763 L967 763 L967 687 L930 687 L953 535 L761 535 L738 687 L722 687 L694 535 L494 535 ZM26 535 L79 820 L279 820 L268 763 L499 763 L499 687 L459 687 L485 535 L293 535 L267 687 L254 687 L225 535 L26 535 ZM974 -122 L737 -122 Q710 -27 705 -10 Q703 -3 704 -8 Q705 -11 708 -21 Q713 -42 679 80 L916 80 L974 -122 ZM84 80 L321 80 Q317 65 312 51 Q309 40 306 26 Q298 -1 296 -7 L295 -9 Q294 -11 293 -15 Q292 -19 290 -25 L292 -20 L294 -15 Q290 -30 287 -36 L263 -122 L26 -122 L84 80 ZM294 -14 L295 -12 L294 -14 Z" /><glyph glyph-name="" unicode="&#x5c42;" d="M319 414 L920 414 L920 338 L319 338 L319 414 ZM738 723 L247 723 L247 579 L710 579 Q738 579 738 608 L738 723 ZM281 241 L957 241 L957 165 L624 165 L539 -39 L705 -39 Q719 -39 728 -28 Q736 -17 733 -2 L711 67 L915 67 L946 -29 Q956 -59 937 -88 Q918 -115 883 -115 L289 -115 L402 165 L281 165 L281 241 ZM247 503 L247 -120 L38 -120 L38 800 L962 800 L962 598 Q962 559 934 531 Q906 503 867 503 L247 503 Z" /><glyph glyph-name="" unicode="&#x5bdf;" d="M725 521 L759 445 L787 521 L725 521 ZM372 313 L339 239 Q327 210 310 193 L700 193 L642 317 L642 274 L372 274 L372 313 ZM865 88 L932 -121 L728 -121 L661 88 L865 88 ZM55 -121 L123 88 L327 88 L260 -121 L55 -121 ZM865 161 L865 117 L618 117 L618 -26 Q618 -65 590 -93 Q562 -121 523 -121 L303 -121 L303 -45 L342 -45 Q358 -45 369 -34 Q380 -23 380 -7 L380 117 L133 117 L133 161 L39 161 L39 237 L106 237 Q150 237 174 273 L79 273 L27 362 L183 362 L201 330 L227 383 L85 383 L50 465 L205 465 L234 399 L291 516 L216 516 L203 490 L27 490 L92 614 L28 614 L28 765 L380 765 L380 824 L618 824 L618 765 L970 765 L970 614 L737 614 L737 689 L261 689 L261 656 L290 656 L256 592 L495 592 L388 350 L626 350 L493 636 L673 636 L690 597 L972 597 L847 251 L854 237 L972 237 L972 161 L865 161 Z" /><glyph glyph-name="" unicode="&#x4ea7;" d="M26 758 L381 758 L381 823 L618 823 L618 758 L973 758 L973 682 L26 682 L26 758 ZM371 655 L405 488 L604 488 L638 655 L875 655 L841 488 L973 488 L973 412 L283 412 L283 -123 L46 -123 L46 488 L167 488 L133 655 L371 655 Z" /><glyph glyph-name="" unicode="&#x5e38;" d="M262 527 L738 527 L738 586 L262 586 L262 527 ZM341 451 L341 340 L621 340 Q637 340 648 352 Q659 363 659 378 L659 451 L341 451 ZM712 126 L619 126 L619 -124 L381 -124 L381 126 L287 126 L287 -84 L63 -84 L63 202 L381 202 L381 264 L120 264 L120 471 L29 471 L29 657 L89 657 L49 790 L281 790 L322 657 L383 657 L383 824 L616 824 L616 657 L677 657 L718 790 L951 790 L910 657 L970 657 L970 471 L880 471 L880 359 Q880 320 852 292 Q824 264 785 264 L619 264 L619 202 L937 202 L937 11 Q937 -28 909 -56 Q881 -84 842 -84 L661 -84 L661 -8 L684 -8 Q712 -8 712 20 L712 126 Z" /><glyph glyph-name="" unicode="&#x5ff1;" d="M398 645 L398 61 L323 61 L323 645 L398 645 ZM103 645 L103 61 L28 61 L28 645 L103 645 ZM302 828 L302 -123 L124 -123 L124 828 L302 828 ZM426 730 L611 730 L611 828 L784 828 L784 730 L968 730 L968 392 L813 392 L813 654 L784 654 L784 403 L758 325 L850 325 L850 -48 L972 -48 L972 -124 L678 -124 L678 80 L611 -124 L431 -124 L611 422 L611 654 L581 654 L581 392 L426 392 L426 730 Z" /><glyph glyph-name="" unicode="&#x6210;" d="M929 814 L965 690 L758 690 L724 814 L929 814 ZM743 585 L789 410 L815 457 L968 457 L968 381 L928 381 L842 212 L911 -49 L968 -49 L968 -125 L711 -125 L697 -70 L669 -125 L501 -125 L642 137 L525 585 L243 585 L243 431 L519 431 L519 -27 Q519 -66 491 -94 Q463 -122 424 -122 L278 -122 L278 -46 L294 -46 Q322 -46 322 -18 L322 355 L243 355 L243 -122 L32 -122 L32 660 L506 660 L463 825 L680 825 L723 660 L968 660 L968 585 L743 585 Z" /><glyph glyph-name="" unicode="&#x7a0b;" d="M774 730 L652 730 L652 545 L750 545 Q774 545 774 575 L774 730 ZM420 500 L430 -122 L344 -122 L333 500 L420 500 ZM124 500 L113 -122 L27 -122 L37 500 L124 500 ZM961 565 Q961 525 938 497 Q916 468 884 468 L466 468 L466 807 L961 807 L961 565 ZM462 418 L965 418 L965 341 L814 341 L814 189 L954 189 L954 111 L814 111 L814 -41 L974 -41 L974 -119 L452 -119 L452 -41 L613 -41 L613 111 L472 111 L472 189 L613 189 L613 341 L462 341 L462 418 ZM32 808 L425 808 L425 732 L315 732 L315 640 L430 640 L430 564 L315 564 L315 -122 L143 -122 L143 564 L27 564 L27 640 L143 640 L143 732 L32 732 L32 808 Z" /><glyph glyph-name="" unicode="&#x60e9;" d="M703 211 L726 -14 L542 -14 L519 211 L703 211 ZM238 178 L216 -114 L27 -114 L49 178 L238 178 ZM943 180 L973 -117 L774 -117 L743 180 L943 180 ZM492 202 L492 -42 L746 -42 L746 -121 L262 -121 L262 202 L492 202 ZM340 822 L272 661 L340 661 L284 528 L310 528 L310 232 L96 232 L96 438 L27 438 L94 600 L27 600 L119 822 L340 822 ZM344 309 L381 309 L381 608 L572 608 L572 309 L634 309 L634 712 L357 712 L357 788 L961 788 L961 712 L863 712 L863 550 L950 550 L950 474 L863 474 L863 309 L973 309 L973 234 L344 234 L344 309 Z" /><glyph glyph-name="" unicode="&#x5904;" d="M291 628 L264 530 L308 465 L368 628 L291 628 ZM947 714 L971 157 L852 157 L829 714 L947 714 ZM803 823 L803 57 L627 57 L627 823 L803 823 ZM28 -23 L130 -23 L221 227 L112 388 L28 388 L149 823 L346 823 L312 704 L604 704 L449 258 L642 -23 L972 -23 L972 -115 L452 -115 L365 14 L320 -115 L28 -115 L28 -23 Z" /><glyph glyph-name="" unicode="&#x4f20;" d="M362 837 L309 597 L345 597 L345 -121 L110 -121 L110 386 L26 386 L127 837 L362 837 ZM839 829 L806 712 L946 712 L946 636 L785 636 L737 463 L974 463 L974 386 L716 386 L683 267 L946 267 L818 -43 L914 -43 L914 -120 L443 -120 L443 -43 L576 -43 L679 191 L427 191 L479 386 L383 386 L383 463 L500 463 L546 636 L411 636 L411 712 L567 712 L598 829 L839 829 Z" /><glyph glyph-name="" unicode="&#x7a97;" d="M462 191 L479 177 L533 233 L460 233 L431 191 L462 191 ZM857 596 L967 468 L720 468 L610 596 L857 596 ZM143 596 L33 468 L281 468 L392 596 L143 596 ZM541 -28 L509 0 L483 -28 L281 -28 L398 93 L322 158 L265 158 L265 -42 L702 -42 Q731 -42 731 -14 L731 360 L265 360 L265 208 L357 339 L534 339 L507 300 L707 300 L707 208 L589 84 L724 -28 L541 -28 ZM30 619 L30 766 L381 766 L381 822 L619 822 L619 766 L970 766 L970 619 L733 619 L733 691 L267 691 L267 619 L30 619 ZM62 436 L314 436 L361 514 L599 514 L555 436 L938 436 L938 -23 Q938 -63 910 -90 Q882 -118 843 -118 L62 -118 L62 436 Z" /><glyph glyph-name="" unicode="&#x521b;" d="M599 21 L599 739 L758 739 L758 21 L599 21 ZM301 624 L234 436 L29 436 L174 823 L430 823 L575 436 L371 436 L301 624 ZM794 825 L971 825 L971 -28 Q971 -67 944 -94 Q918 -122 881 -122 L707 -122 L707 -47 L766 -47 Q794 -47 794 -19 L794 825 ZM257 327 L257 -48 L573 -48 L573 -123 L59 -123 L59 403 L541 403 L541 100 Q541 68 519 46 Q498 24 467 24 L298 24 L298 100 L328 100 Q347 100 347 120 L347 327 L257 327 Z" /><glyph glyph-name="" unicode="&#x6625;" d="M636 824 L591 741 L937 741 L937 665 L550 665 L507 586 L927 586 L927 510 L465 510 L430 445 L973 445 L973 369 L869 369 L973 178 L865 178 L865 -22 Q865 -61 838 -89 Q810 -117 772 -117 L134 -117 L134 178 L30 178 L133 369 L26 369 L26 445 L174 445 L209 510 L70 510 L70 586 L251 586 L294 665 L62 665 L62 741 L335 741 L380 824 L636 824 ZM329 257 L674 257 L613 369 L389 369 L329 257 ZM370 108 L626 108 L626 181 L370 181 L370 108 ZM598 -41 Q626 -41 626 -13 L626 32 L370 32 L370 -41 L598 -41 Z" /><glyph glyph-name="" unicode="&#x8fbe;" d="M307 823 L321 647 L84 647 L70 823 L307 823 ZM26 594 L354 594 L278 312 L355 312 L291 -42 L974 -42 L974 -118 L45 -118 L109 202 L35 202 L109 510 L26 510 L26 594 ZM766 823 L722 601 L967 601 L967 525 L870 525 L967 16 L730 16 L670 333 L608 16 L371 16 L470 525 L376 525 L376 601 L485 601 L528 823 L766 823 Z" /><glyph glyph-name="" unicode="&#x2f24;&#x5927;" d="M618 820 L618 554 L972 554 L972 479 L646 479 L936 -41 L972 -41 L972 -117 L726 -117 L499 290 L273 -117 L27 -117 L27 -41 L63 -41 L352 479 L27 479 L27 554 L380 554 L380 820 L618 820 Z" /><glyph glyph-name="" unicode="&#x4ee3;" d="M924 796 L973 571 L801 571 L752 796 L924 796 ZM339 823 L289 587 L323 587 L323 -121 L104 -121 L104 379 L25 379 L119 823 L339 823 ZM378 511 L542 511 L472 823 L710 823 L782 511 L975 511 L975 435 L799 435 L911 -47 L972 -47 L972 -122 L686 -122 L559 435 L378 435 L378 511 Z" /><glyph glyph-name="" unicode="&#x5355;" d="M699 399 L619 399 L619 254 L671 254 Q699 254 699 283 L699 399 ZM619 621 L619 475 L699 475 L699 621 L619 621 ZM300 254 L381 254 L381 399 L300 399 L300 254 ZM300 475 L381 475 L381 621 L300 621 L300 475 ZM834 697 L927 697 L927 292 Q927 245 894 211 Q860 178 813 178 L619 178 L619 105 L974 105 L974 29 L619 29 L619 -122 L381 -122 L381 29 L26 29 L26 105 L381 105 L381 178 L73 178 L73 697 L166 697 L127 823 L364 823 L403 697 L597 697 L636 823 L873 823 L834 697 Z" /><glyph glyph-name="" unicode="&#x6863;" d="M972 811 L960 477 L834 477 L847 811 L972 811 ZM596 811 L608 477 L482 477 L470 811 L596 811 ZM27 -124 L40 571 L130 571 L117 -124 L27 -124 ZM426 571 L439 -124 L349 -124 L336 571 L426 571 ZM27 706 L142 706 L142 828 L324 828 L324 706 L439 706 L439 628 L324 628 L324 -124 L142 -124 L142 628 L27 628 L27 706 ZM492 202 L770 202 L770 366 L468 366 L468 443 L631 443 L631 828 L812 828 L812 443 L962 443 L962 -19 Q962 -59 936 -87 Q911 -115 873 -115 L468 -115 L468 -38 L743 -38 Q770 -38 770 -10 L770 126 L492 126 L492 202 Z" /><glyph glyph-name="" unicode="&#x7684;" d="M266 232 L207 232 L207 -43 L239 -43 Q266 -43 266 -16 L266 232 ZM207 308 L266 308 L266 599 L207 599 L207 308 ZM653 438 L704 85 L522 85 L472 438 L653 438 ZM689 825 L678 756 L974 756 L974 -7 Q974 -54 940 -87 Q906 -120 857 -120 L664 -120 L664 -44 L749 -44 Q779 -44 779 -17 L779 680 L666 680 L637 499 L457 499 L508 825 L689 825 ZM36 675 L97 675 L129 825 L316 825 L284 675 L438 675 L438 -43 Q438 -75 414 -97 Q390 -119 357 -119 L36 -119 L36 675 Z" /><glyph glyph-name="" unicode="&#x7b49;" d="M369 58 L422 -81 L185 -81 L132 58 L369 58 ZM28 537 L81 819 L280 819 L270 769 L503 769 L503 693 L463 693 L490 537 L298 537 L272 693 L256 693 L226 537 L28 537 ZM496 537 L549 819 L748 819 L738 769 L971 769 L971 693 L933 693 L958 537 L766 537 L742 693 L724 693 L695 537 L496 537 ZM619 512 L619 463 L942 463 L942 388 L619 388 L619 320 L974 320 L974 245 L852 245 L852 173 L957 173 L957 97 L852 97 L852 -29 Q852 -69 824 -96 Q797 -124 757 -124 L518 -124 L518 -48 L590 -48 Q619 -48 619 -20 L619 97 L47 97 L47 173 L619 173 L619 245 L25 245 L25 320 L381 320 L381 388 L57 388 L57 463 L381 463 L381 512 L619 512 Z" /><glyph glyph-name="" unicode="&#x5e95;" d="M517 319 L684 319 L660 503 L517 503 L517 319 ZM685 111 L720 -124 L589 -124 L554 111 L685 111 ZM261 656 L261 -121 L34 -121 L34 731 L457 731 L457 822 L694 822 L694 731 L965 731 L965 656 L261 656 ZM873 503 L898 319 L965 319 L965 243 L908 243 L958 -124 L744 -124 L694 243 L517 243 L517 -48 L566 -48 L566 -124 L304 -124 L304 579 L950 579 L950 503 L873 503 Z" /><glyph glyph-name="" unicode="&#x5730;" d="M274 828 L274 633 L334 633 L334 558 L274 558 L274 -4 L334 5 L334 -71 L28 -118 L28 -42 L88 -33 L88 558 L28 558 L28 633 L88 633 L88 828 L274 828 ZM775 82 L775 148 L803 148 L803 602 L766 588 L766 28 L599 28 L599 528 L558 514 L558 -43 L972 -43 L972 -119 L384 -119 L384 451 L347 438 L347 547 L384 560 L384 738 L558 738 L558 623 L599 638 L599 828 L766 828 L766 699 L963 770 L963 176 Q963 82 874 82 L775 82 Z" /><glyph glyph-name="" unicode="&#x70b9;" d="M311 -121 L281 132 L484 132 L514 -121 L311 -121 ZM768 -121 L738 132 L941 132 L971 -121 L768 -121 ZM29 -121 L58 132 L262 132 L231 -121 L29 -121 ZM541 -121 L510 132 L714 132 L744 -121 L541 -121 ZM694 473 L305 473 L305 261 L666 261 Q694 261 694 289 L694 473 ZM619 825 L619 737 L971 737 L971 661 L619 661 L619 549 L931 549 L931 280 Q931 241 903 213 Q876 185 836 185 L69 185 L69 549 L381 549 L381 825 L619 825 Z" /><glyph glyph-name="" unicode="&#x5201;" d="M71 801 L952 801 L952 -6 Q952 -53 919 -86 Q885 -120 838 -120 L516 -120 L516 -44 L687 -44 Q698 -44 707 -35 Q716 -27 716 -15 L716 725 L71 725 L71 801 ZM499 521 L285 -120 L48 -120 L262 521 L499 521 Z" /><glyph glyph-name="" unicode="&#x8c03;" d="M661 252 L620 252 L620 16 L640 16 Q661 16 661 35 L661 252 ZM261 825 L261 628 L71 628 L71 825 L261 825 ZM517 628 L563 628 L563 695 L717 695 L717 628 L763 628 L763 554 L717 554 L717 437 L774 437 L774 362 L507 362 L507 437 L563 437 L563 554 L517 554 L517 628 ZM513 303 L767 303 L767 40 Q767 13 745 -6 Q723 -25 691 -25 L513 -25 L513 303 ZM28 580 L261 580 L261 -47 L294 -47 L294 -123 L71 -123 L71 504 L28 504 L28 580 ZM311 805 L969 805 L969 -12 Q969 -59 935 -91 Q900 -124 851 -124 L728 -124 L728 -49 L764 -49 Q793 -49 793 -21 L793 730 L487 730 L487 -124 L311 -124 L311 805 Z" /><glyph glyph-name="" unicode="&#x8fed;" d="M307 823 L321 647 L84 647 L70 823 L307 823 ZM26 594 L354 594 L278 312 L355 312 L291 -42 L974 -42 L974 -118 L45 -118 L109 202 L35 202 L109 510 L26 510 L26 594 ZM799 823 L799 689 L942 689 L942 613 L799 613 L799 410 L971 410 L971 334 L822 334 L971 -10 L741 -10 L673 148 L606 -10 L377 -10 L521 334 L373 334 L373 410 L568 410 L568 613 L532 613 L518 473 L355 473 L388 789 L550 789 L540 689 L568 689 L568 823 L799 823 Z" /><glyph glyph-name="" unicode="&#x5b9a;" d="M25 725 L377 725 L377 823 L615 823 L615 725 L967 725 L967 531 L736 531 L736 649 L258 649 L258 531 L25 531 L25 725 ZM43 476 L949 476 L949 400 L639 400 L639 215 L934 215 L934 140 L639 140 L639 -41 L974 -41 L974 -117 L318 -117 L250 -24 L238 -122 L25 -122 L80 319 L293 319 L278 202 L406 21 L406 400 L43 400 L43 476 Z" /><glyph glyph-name="" unicode="&#x52a8;" d="M46 781 L463 781 L463 705 L46 705 L46 781 ZM26 511 L483 511 L483 435 L266 435 L227 -47 L264 -47 Q276 -47 284 -39 Q293 -30 292 -19 L269 296 L449 296 L472 -28 Q475 -67 447 -95 Q419 -123 379 -123 L33 -123 L77 435 L26 435 L26 511 ZM775 614 L733 614 L694 -123 L493 -123 L532 614 L492 614 L492 685 L536 685 L544 824 L745 824 L737 685 L974 685 L974 -28 Q974 -67 946 -95 Q918 -123 879 -123 L725 -123 L725 -52 L746 -52 Q775 -52 775 -23 L775 614 Z" /><glyph glyph-name="" unicode="&#x6d1e;" d="M211 827 L255 619 L70 619 L26 827 L211 827 ZM257 322 L211 -123 L26 -123 L71 322 L257 322 ZM211 578 L257 370 L71 370 L26 578 L211 578 ZM294 807 L971 807 L971 -26 Q971 -122 859 -122 L722 -122 L722 -45 L764 -45 Q777 -45 787 -37 Q797 -28 797 -17 L797 730 L467 730 L467 -122 L294 -122 L294 807 ZM489 647 L776 647 L776 580 L489 580 L489 647 ZM498 500 L766 500 L766 80 Q766 51 743 31 Q719 11 686 11 L498 11 L498 500 ZM653 440 L611 440 L611 72 L633 72 Q653 72 653 89 L653 440 Z" /><glyph glyph-name="" unicode="&#x72ec;" d="M566 273 L593 273 L593 610 L566 610 L566 273 ZM803 610 L775 610 L775 273 Q803 273 803 302 L803 610 ZM27 173 L160 276 L160 458 L142 506 L27 415 L27 519 L113 586 L27 825 L230 825 L275 713 L368 786 L368 683 L307 635 L349 533 L349 -25 Q349 -65 320 -92 Q292 -120 251 -120 L89 -120 L89 -43 L130 -43 Q160 -43 160 -15 L160 172 L27 69 L27 173 ZM971 292 Q971 253 943 225 Q915 197 876 197 L775 197 L775 -45 Q804 -45 804 -17 L804 81 L972 81 L972 -26 Q972 -65 944 -93 Q917 -121 877 -121 L395 -121 L395 -45 L593 -45 L593 197 L396 197 L396 686 L593 686 L593 825 L775 825 L775 686 L971 686 L971 292 Z" /><glyph glyph-name="" unicode="&#x7aef;" d="M411 -11 L411 -88 L26 -118 L26 -43 L411 -11 ZM408 715 L408 639 L30 639 L30 715 L128 715 L128 825 L309 825 L309 715 L408 715 ZM225 26 L374 26 L402 570 L253 570 L225 26 ZM211 26 L62 26 L35 570 L184 570 L211 26 ZM830 788 L830 608 Q830 580 801 580 L783 580 L783 825 L622 825 L622 580 L575 580 L575 788 L432 788 L432 504 L896 504 Q928 504 950 526 Q972 549 972 580 L972 788 L830 788 ZM581 -122 L581 223 L603 223 L603 -122 L697 -122 L697 223 L716 223 L716 -122 L811 -122 L811 223 L833 223 L833 -32 Q833 -46 819 -46 L816 -46 L816 -122 L892 -122 Q923 -122 945 -100 Q967 -78 967 -46 L967 300 L758 300 L779 381 L972 381 L972 457 L432 457 L432 381 L590 381 L569 300 L436 300 L436 -122 L581 -122 Z" /><glyph glyph-name="" unicode="&#x961f;" d="M456 -124 L591 822 L801 822 L758 520 L874 520 L969 -124 L759 -124 L712 198 L666 -124 L456 -124 ZM228 727 L228 -124 L32 -124 L32 803 L473 803 Q470 763 461 656 Q452 559 443 467 L468 467 Q465 429 461 356 Q459 328 457 289 L452 220 Q441 43 438 0 L251 0 L275 384 L248 384 L275 727 L228 727 Z" /><glyph glyph-name="" unicode="&#x5bf9;" d="M653 503 L676 117 L514 117 L491 503 L653 503 ZM478 689 L721 689 L721 827 L939 827 L939 689 L973 689 L973 613 L939 613 L939 -24 Q939 -63 912 -91 Q885 -119 847 -119 L606 -119 L606 -43 L694 -43 Q721 -43 721 -15 L721 613 L478 613 L478 689 ZM446 622 L325 249 L460 -122 L285 -122 L242 -6 L205 -122 L29 -122 L147 254 L32 567 L32 620 L190 620 L228 514 L280 679 L31 679 L31 755 L446 755 L446 622 Z" /><glyph glyph-name="" unicode="&#x53d1;" d="M539 359 L645 243 L749 359 L539 359 ZM700 797 L904 797 L949 620 L745 620 L700 797 ZM511 500 L486 435 L963 435 L963 297 L781 93 L976 -121 L704 -121 L646 -58 L590 -121 L319 -121 L509 92 L402 210 L278 -121 L35 -121 L268 500 L25 500 L139 793 L343 793 L262 576 L296 576 L390 825 L633 825 L539 576 L970 576 L970 500 L511 500 Z" /><glyph glyph-name="" unicode="&#x6cd5;" d="M243 578 L294 370 L85 370 L34 578 L243 578 ZM243 827 L292 619 L82 619 L34 827 L243 827 ZM294 322 L243 -123 L34 -123 L85 322 L294 322 ZM338 703 L530 703 L530 823 L759 823 L759 703 L960 703 L960 627 L759 627 L759 417 L973 417 L973 341 L637 341 L547 -42 L735 -42 Q744 -42 750 -33 Q756 -22 755 -11 L724 194 L937 194 L969 6 Q977 -45 952 -80 Q928 -118 891 -118 L317 -118 L425 341 L324 341 L324 417 L530 417 L530 627 L338 627 L338 703 Z" /><glyph glyph-name="" unicode="&#x53cd;" d="M39 802 L960 802 L960 726 L278 726 L278 571 L948 571 L948 338 L768 126 L960 -122 L693 -122 L629 -37 L557 -122 L291 -122 L504 130 L293 411 L549 411 L640 292 L725 392 L725 496 L278 496 L278 -122 L39 -122 L39 802 Z" /><glyph glyph-name="" unicode="&#x8bbf;" d="M295 827 L295 630 L74 630 L74 827 L295 827 ZM25 582 L295 582 L295 -47 L333 -47 L333 -123 L74 -123 L74 505 L25 505 L25 582 ZM341 701 L532 701 L532 825 L793 825 L793 701 L974 701 L974 625 L668 625 L656 484 L965 484 L965 -30 Q965 -69 937 -96 Q909 -124 870 -124 L698 -124 L698 -49 L718 -49 Q752 -49 752 -23 L752 414 L650 414 L605 -124 L382 -124 L445 625 L341 625 L341 701 Z" /><glyph glyph-name="" unicode="&#x2fae;&#x975e;" d="M536 -124 L536 825 L774 825 L774 676 L964 676 L964 600 L774 600 L774 388 L955 388 L955 312 L774 312 L774 100 L974 100 L974 24 L774 24 L774 -124 L536 -124 ZM26 100 L226 100 L226 312 L44 312 L44 388 L226 388 L226 600 L35 600 L35 676 L226 676 L226 825 L464 825 L464 -124 L226 -124 L226 24 L26 24 L26 100 Z" /><glyph glyph-name="" unicode="&#x5206;" d="M434 825 L272 438 L26 438 L187 825 L434 825 ZM811 825 L973 438 L726 438 L564 825 L811 825 ZM45 395 L920 395 L920 -5 Q920 -52 887 -86 Q853 -119 806 -119 L555 -119 L555 -43 L654 -43 Q682 -43 682 -15 L682 319 L408 319 L298 -119 L61 -119 L172 319 L45 319 L45 395 Z" /><glyph glyph-name="" unicode="&#x98ce;" d="M448 648 L480 559 L513 648 L706 648 L706 719 L256 719 L256 648 L448 648 ZM256 640 L256 -52 L383 294 L256 640 ZM706 -54 L706 642 L578 294 L706 -54 ZM37 -125 L37 795 L924 795 L924 -49 L963 -49 L963 -125 L706 -125 L706 -60 L513 -60 L480 28 L448 -60 L256 -60 L256 -125 L37 -125 Z" /><glyph glyph-name="" unicode="&#x670d;" d="M736 307 L795 200 L849 332 L652 332 L652 307 L736 307 ZM200 535 L264 535 L264 742 L200 742 L200 535 ZM200 252 L264 252 L264 459 L200 459 L200 252 ZM264 176 L200 176 L200 -124 L30 -124 L30 813 L437 813 L437 -30 Q437 -69 411 -96 Q384 -124 346 -124 L224 -124 L224 -53 L236 -53 Q264 -53 264 -26 L264 176 ZM972 297 L874 58 L975 -123 L842 -123 L818 -79 L800 -123 L664 -123 L739 62 L652 219 L652 -123 L463 -123 L463 811 L970 811 L970 537 Q970 498 944 470 Q917 441 879 441 L727 441 L727 518 L759 518 Q786 518 786 546 L786 734 L652 734 L652 409 L972 409 L972 297 Z" /><glyph glyph-name="" unicode="&#x8d1f;" d="M383 385 L617 385 L617 187 L701 123 L701 439 L299 439 L299 123 L383 187 L383 385 ZM445 822 L409 752 L910 752 L789 515 L925 515 L925 75 L764 75 L916 -40 L972 -40 L972 -121 L707 -121 L500 33 L292 -121 L28 -121 L28 -40 L83 -40 L235 75 L75 75 L75 515 L547 515 L630 676 L370 676 L310 560 L63 560 L198 822 L445 822 Z" /><glyph glyph-name="" unicode="&#x611f;" d="M472 400 L435 400 L435 247 L455 247 Q472 247 472 266 L472 400 ZM954 826 L972 747 L836 747 L818 826 L954 826 ZM292 580 L616 580 L616 504 L292 504 L292 580 ZM718 171 L741 -16 L546 -16 L523 171 L718 171 ZM942 138 L972 -108 L784 -108 L754 138 L942 138 ZM248 134 L226 -108 L26 -108 L48 134 L248 134 ZM500 154 L500 -45 L754 -45 L754 -122 L271 -122 L271 154 L500 154 ZM616 456 L616 249 Q616 226 599 209 Q581 192 558 192 L292 192 L292 456 L616 456 ZM788 823 L811 724 L972 724 L972 648 L830 648 L875 460 L973 527 L973 426 L896 373 L923 260 L972 260 L972 184 L731 184 L714 251 L633 196 L633 297 L693 338 L617 648 L263 648 L263 184 L39 184 L39 724 L599 724 L575 823 L788 823 Z" /><glyph glyph-name="" unicode="&#x2fbc;&#x9ad8;" d="M464 55 L513 55 Q522 55 528 62 Q534 69 534 78 L534 133 L464 133 L464 55 ZM339 455 L630 455 Q641 455 650 465 Q658 475 658 487 L658 542 L339 542 L339 455 ZM619 821 L619 747 L972 747 L972 671 L27 671 L27 747 L381 747 L381 821 L619 821 ZM290 -15 L290 204 L710 204 L710 56 Q710 27 690 6 Q669 -15 641 -15 L290 -15 ZM104 379 L104 618 L896 618 L896 477 Q896 438 869 409 Q841 379 803 379 L104 379 ZM649 -45 L717 -45 Q728 -45 736 -35 Q744 -26 744 -14 L744 257 L252 257 L252 -121 L40 -121 L40 333 L959 333 L959 -23 Q959 -63 932 -92 Q904 -121 866 -121 L649 -121 L649 -45 Z" /><glyph glyph-name="" unicode="&#x6b4c;" d="M158 627 L158 465 L169 465 Q188 465 188 484 L188 627 L158 627 ZM158 188 L158 20 L169 20 Q188 20 188 39 L188 188 L158 188 ZM310 685 L310 471 Q310 445 293 425 Q275 405 251 405 L34 405 L34 685 L310 685 ZM310 245 L310 25 Q310 -1 293 -20 Q275 -40 251 -40 L34 -40 L34 245 L310 245 ZM338 386 L338 733 L33 733 L33 804 L540 804 L540 733 L508 733 L508 386 L338 386 ZM754 827 L745 753 L972 753 L948 503 L786 503 L803 676 L737 676 L717 503 L551 503 L587 827 L754 827 ZM27 359 L540 359 L540 288 L508 288 L508 -18 Q508 -65 480 -93 Q453 -122 407 -122 L283 -122 L283 -56 L311 -56 Q339 -56 339 -27 L339 288 L27 288 L27 359 ZM759 34 L713 -123 L551 -123 L672 266 L672 488 L845 488 L845 266 L968 -123 L806 -123 L759 34 Z" /><glyph glyph-name="" unicode="&#x5404;" d="M316 669 L308 649 L501 559 L736 669 L316 669 ZM710 170 L306 170 L306 -35 L681 -35 Q710 -35 710 -7 L710 170 ZM78 246 L938 246 L938 3 Q938 -44 905 -78 Q871 -111 824 -111 L78 -111 L78 246 ZM31 360 L78 360 L296 462 L228 495 L28 495 L151 821 L374 821 L344 742 L947 742 L947 577 L706 462 L925 360 L972 360 L972 288 L663 288 L501 365 L339 288 L31 288 L31 360 Z" /><glyph glyph-name="" unicode="&#x8ddf;" d="M962 426 Q962 386 935 359 Q908 331 870 331 L838 331 L879 194 L895 239 L975 239 L916 73 L975 -122 L806 -122 L667 331 L643 331 L643 -46 L716 -46 L716 -122 L462 -122 L462 807 L962 807 L962 426 ZM27 -46 L44 -46 L44 345 L179 345 L179 -46 L205 -46 L205 413 L35 413 L35 810 L427 810 L427 508 Q427 476 410 451 Q392 425 365 417 L365 248 L434 248 L434 172 L365 172 L365 -46 L434 -46 L434 -121 L27 -121 L27 -46 ZM643 605 L789 605 L789 731 L643 731 L643 605 ZM761 407 Q789 407 789 435 L789 529 L643 529 L643 407 L761 407 ZM266 734 L195 734 L195 489 L241 489 Q266 489 266 518 L266 734 Z" /><glyph glyph-name="" unicode="&#x66f4;" d="M611 212 L472 55 L827 -45 L973 -45 L973 -121 L741 -121 L398 -28 L316 -121 L26 -121 L26 -45 L108 -45 L177 31 L31 71 L31 180 L253 117 L339 212 L64 212 L64 640 L382 640 L382 715 L26 715 L26 791 L973 791 L973 715 L624 715 L624 640 L937 640 L937 307 Q937 268 910 240 Q882 212 844 212 L611 212 ZM300 464 L382 464 L382 564 L300 564 L300 464 ZM300 288 L382 288 L382 388 L300 388 L300 288 ZM624 564 L624 464 L699 464 L699 564 L624 564 ZM670 288 Q699 288 699 317 L699 388 L624 388 L624 288 L670 288 Z" /><glyph glyph-name="" unicode="&#x2f2f;&#x5de5;" d="M79 748 L921 748 L921 672 L619 672 L619 -36 L973 -36 L973 -112 L27 -112 L27 -36 L381 -36 L381 672 L79 672 L79 748 Z" /><glyph glyph-name="" unicode="&#x529f;" d="M33 779 L408 779 L408 703 L334 703 L334 3 L408 14 L408 -62 L25 -120 L25 -44 L106 -31 L106 703 L33 703 L33 779 ZM750 616 L705 616 L662 -123 L445 -123 L487 616 L444 616 L444 688 L491 688 L499 827 L717 827 L709 688 L965 688 L965 -28 Q965 -67 935 -95 Q905 -123 863 -123 L695 -123 L695 -52 L718 -52 Q750 -52 750 -23 L750 616 Z" /><glyph glyph-name="" unicode="&#x6c9f;" d="M227 822 L273 615 L79 615 L34 822 L227 822 ZM227 574 L275 367 L81 367 L34 574 L227 574 ZM275 320 L227 -123 L34 -123 L81 320 L275 320 ZM536 494 L481 113 L540 113 Q548 113 554 120 Q559 125 559 135 L550 352 L711 352 L723 102 Q725 75 710 56 Q693 37 667 37 L297 37 L361 494 L536 494 ZM558 823 L540 732 L965 732 L965 -28 Q965 -67 937 -95 Q910 -123 870 -123 L677 -123 L677 -47 L751 -47 Q779 -47 779 -19 L779 656 L525 656 L501 532 L302 532 L359 823 L558 823 Z" /><glyph glyph-name="" unicode="&#x6784;" d="M28 -123 L41 571 L129 571 L115 -123 L28 -123 ZM417 571 L431 -123 L342 -123 L330 571 L417 571 ZM624 473 L601 118 L628 118 Q636 118 642 125 Q645 131 645 140 L638 329 L768 329 L779 107 Q781 80 767 61 Q750 42 728 42 L457 42 L490 473 L624 473 ZM28 706 L140 706 L140 828 L319 828 L319 706 L431 706 L431 629 L319 629 L319 -123 L140 -123 L140 629 L28 629 L28 706 ZM683 827 L666 736 L971 736 L971 -28 Q971 -67 945 -95 Q919 -123 884 -123 L705 -123 L705 -47 L774 -47 Q799 -47 799 -18 L799 659 L653 659 L631 535 L449 535 L501 827 L683 827 Z" /><glyph glyph-name="" unicode="&#x591f;" d="M148 412 L148 84 L157 84 Q176 84 176 103 L176 412 L148 412 ZM38 8 L38 488 L284 488 L284 98 Q284 8 205 8 L38 8 ZM495 133 L567 340 L718 340 L694 273 L975 273 L868 -55 Q845 -120 780 -120 L529 -120 L529 -44 L683 -44 Q716 -44 726 -13 L597 -13 L549 115 L699 115 L736 16 L795 197 L667 197 L644 133 L495 133 ZM491 619 L564 825 L714 825 L691 760 L975 760 L865 421 Q844 357 776 357 L527 357 L527 432 L681 432 Q714 432 724 465 L725 469 L597 469 L549 596 L699 596 L735 499 L795 684 L664 684 L641 619 L491 619 ZM244 825 L226 733 L478 733 L478 -26 Q478 -65 455 -93 Q432 -121 399 -121 L227 -121 L227 -45 L290 -45 Q313 -45 313 -17 L313 657 L211 657 L187 534 L26 534 L84 825 L244 825 Z" /><glyph glyph-name="" unicode="&#x5173;" d="M895 823 L842 647 L954 647 L954 571 L631 571 L631 339 L974 339 L974 263 L701 263 L974 -119 L700 -119 L499 162 L300 -119 L26 -119 L297 263 L26 263 L26 339 L371 339 L371 571 L45 571 L45 647 L157 647 L104 823 L341 823 L395 647 L604 647 L658 823 L895 823 Z" /><glyph glyph-name="" unicode="&#x89c2;" d="M413 620 L302 248 L426 -123 L265 -123 L225 -7 L191 -123 L30 -123 L138 252 L32 565 L32 618 L178 618 L213 513 L260 677 L31 677 L31 753 L413 753 L413 620 ZM854 245 L854 -48 L973 -48 L973 -124 L699 -124 L699 43 L622 -124 L438 -124 L625 251 L625 650 L791 650 L791 273 L832 273 L832 721 L587 721 L587 245 L453 245 L453 797 L967 797 L967 245 L854 245 Z" /><glyph glyph-name="" unicode="&#x7ba1;" d="M86 -121 L86 322 L899 322 L899 197 Q899 165 877 143 Q855 121 824 121 L303 121 L303 79 L954 79 L954 -45 Q954 -76 932 -99 Q910 -121 878 -121 L86 -121 ZM267 359 L30 359 L30 514 L381 514 L381 559 L619 559 L619 514 L970 514 L970 359 L733 359 L733 436 L267 436 L267 359 ZM497 578 L547 822 L748 822 L740 781 L972 781 L972 705 L933 705 L955 578 L762 578 L740 705 L724 705 L699 578 L497 578 ZM28 577 L76 822 L277 822 L269 781 L501 781 L501 705 L461 705 L484 578 L291 578 L268 705 L253 705 L228 577 L28 577 ZM728 -45 Q747 -45 747 -26 L747 3 L303 3 L303 -45 L728 -45 ZM673 197 Q692 197 692 216 L692 246 L303 246 L303 197 L673 197 Z" /><glyph glyph-name="" unicode="&#x2f34;&#x5e7f;" d="M675 823 L675 734 L968 734 L968 659 L268 659 L268 -121 L31 -121 L31 734 L438 734 L438 823 L675 823 Z" /><glyph glyph-name="" unicode="&#x6c49;" d="M240 827 L289 619 L79 619 L30 827 L240 827 ZM240 578 L291 370 L81 370 L30 578 L240 578 ZM291 322 L240 -123 L30 -123 L81 322 L291 322 ZM523 692 L637 485 L769 727 L345 727 L345 805 L966 805 L966 668 L751 277 L972 -124 L742 -124 L636 69 L530 -124 L305 -124 L523 277 L345 605 L345 692 L523 692 Z" /><glyph glyph-name="" unicode="&#x597d;" d="M257 632 L225 240 L244 211 L267 247 L303 632 L257 632 ZM491 804 L970 804 L845 443 L845 389 L974 389 L974 313 L845 313 L845 -31 Q845 -70 815 -97 Q785 -125 743 -125 L542 -125 L542 -50 L605 -50 Q636 -50 636 -21 L636 313 L490 313 L490 389 L636 389 L636 453 L745 747 L491 747 L491 804 ZM27 709 L81 709 L91 828 L274 828 L264 709 L472 709 L433 213 L337 69 L462 -123 L270 -123 L240 -76 L209 -123 L26 -123 L149 65 L42 232 L75 632 L27 632 L27 709 Z" /><glyph glyph-name="" unicode="&#x53f7;" d="M699 722 L311 722 L311 548 L671 548 Q699 548 699 577 L699 722 ZM26 402 L974 402 L974 326 L353 326 L329 210 L927 210 L927 -21 Q927 -60 899 -88 Q872 -116 832 -116 L161 -116 L161 -40 L655 -40 Q683 -40 683 -11 L683 134 L81 134 L116 326 L26 326 L26 402 ZM73 798 L937 798 L937 586 Q937 539 904 505 Q870 472 823 472 L73 472 L73 798 Z" /><glyph glyph-name="" unicode="&#x6838;" d="M423 571 L436 -123 L347 -123 L334 571 L423 571 ZM26 -123 L39 571 L129 571 L115 -123 L26 -123 ZM969 338 L876 175 L974 -124 L824 -124 L780 9 L704 -124 L535 -124 L801 338 L969 338 ZM832 828 L832 757 L969 757 L969 680 L727 680 L609 461 L667 461 L754 615 L920 615 L628 98 L463 98 L624 385 L464 385 L464 490 L563 680 L463 680 L463 757 L623 757 L623 828 L832 828 ZM26 706 L140 706 L140 828 L322 828 L322 706 L436 706 L436 629 L322 629 L322 -123 L140 -123 L140 629 L26 629 L26 706 Z" /><glyph glyph-name="" unicode="&#x548c;" d="M718 708 L718 -47 L771 -47 Q795 -47 795 -19 L795 708 L718 708 ZM495 501 L507 -124 L406 -124 L394 501 L495 501 ZM148 501 L134 -124 L33 -124 L45 501 L148 501 ZM39 809 L502 809 L502 733 L372 733 L372 641 L507 641 L507 565 L372 565 L372 -124 L168 -124 L168 565 L33 565 L33 641 L168 641 L168 733 L39 733 L39 809 ZM547 -123 L547 783 L967 783 L967 -28 Q967 -67 942 -95 Q917 -123 883 -123 L547 -123 Z" /><glyph glyph-name="" unicode="&#x5408;" d="M64 398 L937 398 L937 322 L64 322 L64 398 ZM704 182 L297 182 L297 -38 L676 -38 Q704 -38 704 -10 L704 182 ZM374 821 L631 821 L946 526 L972 526 L972 450 L732 450 L502 678 L263 450 L28 450 L28 526 L60 526 L374 821 ZM69 258 L931 258 L931 0 Q931 -47 898 -81 Q865 -114 818 -114 L69 -114 L69 258 Z" /><glyph glyph-name="" unicode="&#x539a;" d="M720 475 L512 475 L512 413 L696 413 Q720 413 720 438 L720 475 ZM512 542 L720 542 L720 606 L512 606 L512 542 ZM299 293 L926 293 L768 131 L963 131 L963 62 L729 62 L729 -7 Q729 -54 696 -87 Q664 -120 617 -120 L437 -120 L437 -53 L488 -53 Q501 -53 511 -43 Q521 -32 521 -18 L521 62 L280 62 L280 131 L525 131 L619 226 L299 226 L299 293 ZM300 672 L938 672 L938 446 Q938 405 909 375 Q879 346 838 346 L300 346 L300 672 ZM37 798 L963 798 L963 722 L243 722 L243 -125 L37 -125 L37 798 Z" /><glyph glyph-name="" unicode="&#x540e;" d="M703 341 L575 341 L575 -44 L675 -44 Q703 -44 703 -15 L703 341 ZM37 800 L915 800 L915 724 L276 724 L276 591 L963 591 L963 515 L276 515 L276 -124 L37 -124 L37 800 ZM334 417 L941 417 L941 -6 Q941 -53 907 -87 Q874 -120 827 -120 L334 -120 L334 417 Z" /><glyph glyph-name="" unicode="&#x4e92;" d="M376 499 L332 197 L595 197 L630 499 L376 499 ZM37 799 L962 799 L962 723 L408 723 L387 575 L868 575 L800 -36 L974 -36 L974 -112 L26 -112 L26 -36 L568 -36 L586 121 L94 121 L176 723 L37 723 L37 799 Z" /><glyph glyph-name="" unicode="&#x6237;" d="M281 416 L690 416 Q718 416 718 445 L718 643 L281 643 L281 416 ZM381 719 L381 822 L619 822 L619 719 L950 719 L950 435 Q950 396 922 368 Q895 340 855 340 L281 340 L281 -124 L49 -124 L49 719 L381 719 Z" /><glyph glyph-name="" unicode="&#x5212;" d="M500 825 L536 657 L361 657 L327 825 L500 825 ZM568 19 L568 739 L737 739 L737 19 L568 19 ZM774 825 L961 825 L961 -30 Q961 -69 933 -96 Q905 -124 866 -124 L682 -124 L682 -49 L745 -49 Q774 -49 774 -20 L774 825 ZM286 825 L337 585 L536 634 L536 539 L356 495 L403 274 L536 373 L536 248 L426 166 L471 -44 L536 -44 L536 -120 L274 -120 L242 31 L58 -106 L58 17 L220 138 L157 447 L39 418 L39 513 L138 537 L79 825 L286 825 Z" /><glyph glyph-name="" unicode="&#x5316;" d="M390 827 L322 590 L373 590 L373 -121 L140 -121 L140 381 L27 381 L156 827 L390 827 ZM431 335 L573 421 L573 826 L810 826 L810 566 L959 657 L959 517 L810 426 L810 -46 L961 -46 L961 -121 L573 -121 L573 282 L431 196 L431 335 Z" /><glyph glyph-name="" unicode="&#x9ec4;" d="M717 245 L618 245 L618 179 L688 179 Q717 179 717 207 L717 245 ZM282 321 L381 321 L381 387 L282 387 L282 321 ZM282 179 L381 179 L381 245 L282 245 L282 179 ZM618 387 L618 321 L717 321 L717 387 L618 387 ZM405 598 L594 598 L594 677 L405 677 L405 598 ZM373 65 L280 -124 L42 -124 L135 65 L373 65 ZM864 65 L957 -124 L719 -124 L626 65 L864 65 ZM37 753 L167 753 L167 823 L405 823 L405 753 L594 753 L594 823 L832 823 L832 753 L962 753 L962 677 L832 677 L832 598 L973 598 L973 523 L618 523 L618 463 L940 463 L940 217 Q940 170 907 136 Q873 103 826 103 L59 103 L59 463 L381 463 L381 523 L26 523 L26 598 L167 598 L167 677 L37 677 L37 753 Z" /><glyph glyph-name="" unicode="&#x6d3b;" d="M227 822 L273 615 L79 615 L34 822 L227 822 ZM227 574 L275 367 L81 367 L34 574 L227 574 ZM749 238 L538 238 L538 -46 L720 -46 Q749 -46 749 -18 L749 238 ZM275 320 L227 -123 L34 -123 L81 320 L275 320 ZM336 810 L951 810 L951 734 L748 734 L748 556 L970 556 L970 480 L748 480 L748 314 L953 314 L953 -27 Q953 -66 925 -94 Q897 -122 858 -122 L334 -122 L334 314 L530 314 L530 480 L318 480 L318 556 L530 556 L530 734 L336 734 L336 810 Z" /><glyph glyph-name="" unicode="&#x6216;" d="M226 399 L226 154 L303 154 Q318 154 318 169 L318 399 L226 399 ZM927 810 L965 662 L775 662 L737 810 L927 810 ZM26 -35 L501 -6 L501 -81 L26 -111 L26 -35 ZM45 79 L45 479 L501 479 L501 126 Q501 107 487 93 Q473 79 453 79 L45 79 ZM685 825 L734 636 L974 636 L974 561 L753 561 L793 407 L822 457 L974 457 L974 381 L939 381 L845 209 L912 -49 L974 -49 L974 -125 L716 -125 L698 -57 L661 -125 L489 -125 L645 149 L540 561 L26 561 L26 636 L520 636 L472 825 L685 825 Z" /><glyph glyph-name="" unicode="&#x57fa;" d="M374 352 L627 352 L627 413 L374 413 L374 352 ZM374 489 L627 489 L627 551 L374 551 L374 489 ZM374 627 L627 627 L627 690 L374 690 L374 627 ZM628 205 L628 120 L947 120 L947 44 L628 44 L628 -29 L969 -29 L969 -105 L31 -105 L31 -29 L372 -29 L372 44 L53 44 L53 120 L372 120 L372 205 L628 205 ZM883 825 L883 766 L947 766 L947 690 L883 690 L883 352 L972 352 L972 276 L919 276 L971 142 L726 142 L674 276 L326 276 L274 142 L30 142 L81 276 L28 276 L28 352 L117 352 L117 690 L53 690 L53 766 L117 766 L117 825 L374 825 L374 766 L627 766 L627 825 L883 825 Z" /><glyph glyph-name="" unicode="&#x673a;" d="M26 -121 L39 590 L132 590 L118 -121 L26 -121 ZM436 590 L451 -121 L357 -121 L344 590 L436 590 ZM26 705 L145 705 L145 828 L332 828 L332 705 L451 705 L451 628 L332 628 L332 -121 L145 -121 L145 628 L26 628 L26 705 ZM474 812 L931 812 L931 -47 L973 -47 L973 -123 L727 -123 L727 737 L678 737 L678 -123 L474 -123 L474 812 Z" /><glyph glyph-name="" unicode="&#x7ee9;" d="M765 120 L793 88 L793 298 L549 298 L549 84 L580 120 L580 260 L765 260 L765 120 ZM24 -41 L337 -18 L337 -94 L24 -117 L24 -41 ZM377 765 L556 765 L556 827 L786 827 L786 765 L965 765 L965 690 L786 690 L786 630 L948 630 L948 553 L786 553 L786 494 L972 494 L972 418 L370 418 L370 494 L556 494 L556 553 L395 553 L395 630 L556 630 L556 690 L377 690 L377 765 ZM337 827 L267 532 L346 532 L264 120 L335 120 L335 44 L34 44 L110 378 L31 378 L135 827 L337 827 ZM370 -123 L519 50 L390 50 L390 373 L951 373 L951 50 L826 50 L976 -123 L759 -123 L673 -26 L587 -123 L370 -123 Z" /><glyph glyph-name="" unicode="&#x8f91;" d="M653 19 L762 19 L762 90 L653 90 L653 19 ZM653 324 L762 324 L762 401 L653 401 L653 324 ZM653 165 L762 165 L762 248 L653 248 L653 165 ZM634 593 L759 593 Q784 593 784 619 L784 726 L634 726 L634 593 ZM948 609 Q948 571 925 544 Q901 518 868 518 L466 518 L466 802 L948 802 L948 609 ZM243 722 L426 722 L426 645 L232 645 L191 357 L222 357 L222 545 L344 545 L344 357 L426 357 L426 280 L344 280 L344 158 L422 165 L422 84 L344 77 L344 -124 L171 -124 L171 61 L28 49 L28 130 L171 142 L171 280 L26 280 L76 645 L28 645 L28 722 L87 722 L102 827 L258 827 L243 722 ZM440 477 L974 477 L974 401 L941 401 L941 19 L974 19 L974 -57 L941 -57 L941 -121 L762 -121 L762 -57 L440 -57 L440 19 L474 19 L474 401 L440 401 L440 477 Z" /><glyph glyph-name="" unicode="&#x53ca;" d="M422 716 L374 463 L570 268 L657 405 L477 405 L656 716 L422 716 ZM62 791 L946 791 L767 482 L970 482 L730 109 L963 -122 L678 -122 L619 -64 L582 -122 L320 -122 L457 92 L327 218 L262 -122 L29 -122 L184 716 L62 716 L62 791 Z" /><glyph glyph-name="" unicode="&#x6025;" d="M723 200 L746 -14 L550 -14 L528 200 L723 200 ZM947 163 L973 -109 L789 -109 L762 163 L947 163 ZM240 166 L218 -109 L29 -109 L51 166 L240 166 ZM501 183 L501 -46 L755 -46 L755 -120 L267 -120 L267 183 L501 183 ZM69 440 L693 440 L693 504 L44 504 L44 580 L606 580 L655 682 L331 682 L293 607 L55 607 L162 825 L403 825 L369 758 L932 758 L848 580 L930 580 L930 320 Q930 280 902 253 Q875 225 835 225 L44 225 L44 301 L664 301 Q693 301 693 329 L693 364 L69 364 L69 440 Z" /><glyph glyph-name="" unicode="&#x7ea7;" d="M26 -41 L333 -18 L333 -94 L26 -117 L26 -41 ZM641 738 L608 438 L707 285 L763 441 L653 441 L724 738 L641 738 ZM332 825 L264 531 L341 531 L262 119 L330 119 L330 43 L36 43 L110 377 L32 377 L134 825 L332 825 ZM388 814 L927 814 L855 517 L973 517 L825 104 L971 -121 L784 -121 L758 -81 L744 -121 L562 -121 L641 99 L582 189 L549 -121 L368 -121 L459 738 L388 738 L388 814 Z" /><glyph glyph-name="" unicode="&#x2f30;&#x5df1;" d="M58 772 L897 772 L897 416 Q897 377 869 349 Q841 321 802 321 L296 321 L296 -35 L941 -35 L941 -111 L58 -111 L58 397 L622 397 Q637 397 649 409 Q660 420 660 435 L660 697 L58 697 L58 772 Z" /><glyph glyph-name="" unicode="&#x6280;" d="M316 827 L316 641 L383 641 L383 564 L316 564 L316 285 L383 300 L383 223 L316 209 L316 -27 Q316 -67 280 -95 Q243 -123 192 -123 L34 -123 L34 -47 L56 -47 Q71 -47 82 -38 Q93 -30 93 -18 L93 161 L28 148 L28 224 L93 238 L93 564 L28 564 L28 641 L93 641 L93 827 L316 827 ZM409 727 L567 727 L567 827 L813 827 L813 727 L972 727 L972 651 L813 651 L813 513 L972 513 L972 388 L800 142 L972 -124 L730 -124 L674 -37 L613 -124 L373 -124 L557 143 L419 357 L419 391 L640 391 L682 325 L760 437 L412 437 L412 513 L567 513 L567 651 L409 651 L409 727 Z" /><glyph glyph-name="" unicode="&#x8ba1;" d="M305 822 L305 626 L100 626 L100 822 L305 822 ZM26 578 L305 578 L305 -47 L369 -47 L369 -123 L100 -123 L100 502 L26 502 L26 578 ZM356 468 L556 468 L556 824 L778 824 L778 468 L972 468 L972 392 L778 392 L778 -124 L556 -124 L556 392 L356 392 L356 468 Z" /><glyph glyph-name="" unicode="&#x4f73;" d="M409 692 L561 692 L561 823 L797 823 L797 692 L949 692 L949 616 L797 616 L797 456 L975 456 L975 380 L383 380 L383 456 L561 456 L561 616 L409 616 L409 692 ZM410 196 L561 196 L561 337 L797 337 L797 196 L948 196 L948 121 L797 121 L797 -48 L973 -48 L973 -124 L385 -124 L385 -48 L561 -48 L561 121 L410 121 L410 196 ZM341 823 L291 587 L325 587 L325 -121 L106 -121 L106 379 L27 379 L121 823 L341 823 Z" /><glyph glyph-name="" unicode="&#x52a0;" d="M712 718 L712 -44 L767 -44 Q793 -44 793 -16 L793 718 L712 718 ZM299 615 L259 615 L221 -121 L28 -121 L65 615 L27 615 L27 686 L69 686 L76 825 L270 825 L262 686 L491 686 L491 -26 Q491 -65 464 -93 Q437 -121 399 -121 L251 -121 L251 -50 L271 -50 Q299 -50 299 -21 L299 615 ZM534 -120 L534 794 L972 794 L972 -25 Q972 -64 946 -92 Q920 -120 884 -120 L534 -120 Z" /><glyph glyph-name="" unicode="&#x9274;" d="M339 249 L661 249 L500 344 L339 249 ZM937 617 L973 396 L771 396 L735 617 L937 617 ZM36 430 L36 791 L191 791 L191 430 L36 430 ZM477 486 L525 824 L751 824 L738 736 L973 736 L973 660 L727 660 L703 486 L477 486 ZM65 267 L267 396 L225 396 L225 824 L452 824 L452 469 L617 469 L934 267 L973 267 L973 191 L759 191 L713 218 L713 183 L616 183 L616 141 L923 141 L923 70 L616 70 L616 -47 L665 -47 L694 37 L890 37 L861 -47 L973 -47 L973 -118 L27 -118 L27 -47 L139 -47 L110 37 L305 37 L334 -47 L384 -47 L384 70 L77 70 L77 141 L384 141 L384 183 L287 183 L287 218 L240 191 L26 191 L26 267 L65 267 Z" /><glyph glyph-name="" unicode="&#x8df5;" d="M276 733 L202 733 L202 489 L249 489 Q276 489 276 517 L276 733 ZM816 671 L789 808 L944 808 L973 671 L816 671 ZM478 545 L582 565 L529 825 L737 825 L783 603 L973 640 L973 559 L800 525 L828 391 L973 420 L973 339 L844 314 L870 193 L973 253 L973 158 L887 108 L920 -47 L973 -47 L973 -123 L723 -123 L698 -1 L496 -119 L496 -24 L680 83 L641 274 L478 243 L478 323 L625 352 L598 487 L478 464 L478 545 ZM27 -45 L45 -45 L45 344 L185 344 L185 -45 L211 -45 L211 413 L35 413 L35 809 L441 809 L441 508 Q441 475 423 449 Q405 424 377 416 L377 247 L450 247 L450 171 L377 171 L377 -45 L450 -45 L450 -120 L27 -120 L27 -45 Z" /><glyph glyph-name="" unicode="&#x89c1;" d="M617 672 L617 227 L699 227 L699 725 L301 725 L301 189 L379 281 L379 672 L617 672 ZM706 160 L706 -49 L967 -49 L967 -125 L470 -125 L470 50 L322 -125 L33 -125 L278 163 L64 163 L64 801 L936 801 L936 160 L706 160 Z" /><glyph glyph-name="" unicode="&#x4ef6;" d="M319 820 L272 584 L304 584 L304 -123 L99 -123 L99 376 L26 376 L113 820 L319 820 ZM576 773 L546 590 L602 590 L602 820 L805 820 L805 590 L954 590 L954 514 L805 514 L805 194 L973 194 L973 118 L805 118 L805 -124 L602 -124 L602 118 L343 118 L343 194 L602 194 L602 514 L534 514 L504 326 L324 326 L395 773 L576 773 Z" /><glyph glyph-name="" unicode="&#x5956;" d="M661 602 L700 474 L767 687 L648 687 L619 602 L661 602 ZM53 608 L27 804 L176 804 L203 608 L53 608 ZM203 578 L176 291 L27 291 L53 578 L203 578 ZM226 291 L226 821 L410 821 L410 291 L226 291 ZM503 558 L429 558 L520 821 L695 821 L678 773 L972 773 L847 369 Q822 295 751 295 L471 295 L471 380 L635 380 Q672 380 682 417 L685 427 L544 427 L503 558 ZM28 230 L371 230 L371 275 L627 275 L627 230 L971 230 L971 154 L693 154 L939 -54 L971 -54 L971 -122 L722 -122 L499 64 L278 -122 L28 -122 L28 -54 L61 -54 L305 154 L28 154 L28 230 Z" /><glyph glyph-name="" unicode="&#x4ea4;" d="M839 642 L973 395 L737 395 L602 642 L839 642 ZM397 642 L263 395 L26 395 L160 642 L397 642 ZM618 823 L618 744 L973 744 L973 669 L26 669 L26 744 L381 744 L381 823 L618 823 ZM42 -124 L362 158 L128 365 L403 365 L499 280 L596 365 L871 365 L637 158 L957 -124 L681 -124 L499 36 L318 -124 L42 -124 Z" /><glyph glyph-name="" unicode="&#x2f93;&#x89d2;" d="M287 341 L393 341 L393 467 L287 467 L287 341 ZM630 467 L630 341 L737 341 L737 467 L630 467 ZM287 129 L393 129 L393 265 L287 265 L287 129 ZM630 129 L737 129 L737 265 L630 265 L630 129 ZM393 -119 L393 53 L287 53 L287 -124 L59 -124 L59 543 L585 543 L642 694 L327 694 L277 572 L34 572 L139 825 L381 825 L358 770 L915 770 L827 543 L965 543 L965 -29 Q965 -68 937 -96 Q909 -124 870 -124 L687 -124 L687 -48 L708 -48 Q737 -48 737 -20 L737 53 L630 53 L630 -119 L393 -119 Z" /><glyph glyph-name="" unicode="&#x8f83;" d="M703 634 L644 394 L474 394 L532 634 L703 634 ZM915 634 L975 394 L804 394 L745 634 L915 634 ZM831 825 L831 743 L975 743 L975 667 L474 667 L474 743 L618 743 L618 825 L831 825 ZM961 353 L821 126 L975 -124 L781 -124 L724 -32 L668 -124 L474 -124 L627 126 L487 353 L683 353 L724 285 L766 353 L961 353 ZM255 720 L450 720 L450 644 L244 644 L201 356 L233 356 L233 544 L363 544 L363 356 L450 356 L450 279 L363 279 L363 157 L446 164 L446 83 L363 76 L363 -124 L179 -124 L179 60 L27 48 L27 129 L179 141 L179 279 L25 279 L79 644 L27 644 L27 720 L90 720 L106 825 L271 825 L255 720 Z" /><glyph glyph-name="" unicode="&#x7ed3;" d="M725 238 L639 238 L639 -48 L697 -48 Q725 -48 725 -19 L725 238 ZM25 -41 L355 -18 L355 -94 L25 -117 L25 -41 ZM389 721 L557 721 L557 827 L807 827 L807 721 L974 721 L974 644 L807 644 L807 467 L957 467 L957 391 L407 391 L407 467 L557 467 L557 644 L389 644 L389 721 ZM354 824 L281 530 L364 530 L279 119 L352 119 L352 43 L36 43 L115 376 L32 376 L142 824 L354 824 ZM941 -29 Q941 -68 914 -96 Q886 -124 847 -124 L422 -124 L422 314 L941 314 L941 -29 Z" /><glyph glyph-name="" unicode="&#x89e3;" d="M315 138 L343 138 L343 266 L315 266 L315 138 ZM163 138 L192 138 L192 266 L163 266 L163 138 ZM315 481 L315 342 L343 342 L343 481 L315 481 ZM163 342 L192 342 L192 481 L163 481 L163 342 ZM507 423 L552 710 L493 710 L493 786 L959 786 L959 518 Q959 479 931 451 Q904 423 864 423 L732 423 L732 499 L755 499 Q783 499 783 528 L783 710 L713 710 L669 423 L507 423 ZM493 142 L528 379 L648 379 L637 304 L682 304 L682 396 L858 396 L858 304 L960 304 L960 228 L858 228 L858 84 L973 84 L973 8 L858 8 L858 -124 L682 -124 L682 8 L503 8 L503 84 L682 84 L682 228 L625 228 L613 142 L493 142 ZM343 61 L315 61 L315 -123 L192 -123 L192 61 L163 61 L163 -123 L31 -123 L31 552 L252 552 L284 677 L225 677 L205 591 L26 591 L81 825 L261 825 L243 753 L468 753 L418 552 L476 552 L476 -57 Q476 -84 456 -103 Q436 -123 409 -123 L325 -123 L325 -52 L326 -52 Q343 -52 343 -35 L343 61 Z" /><glyph glyph-name="" unicode="&#x754c;" d="M699 529 L622 529 L622 412 L671 412 Q699 412 699 441 L699 529 ZM622 722 L622 605 L699 605 L699 722 L622 722 ZM307 412 L385 412 L385 529 L307 529 L307 412 ZM307 605 L385 605 L385 722 L307 722 L307 605 ZM672 193 L582 336 L416 336 L326 193 L412 193 L324 -122 L82 -122 L151 127 L29 127 L152 336 L70 336 L70 798 L937 798 L937 431 Q937 393 910 365 Q884 338 846 336 L970 127 L822 127 L822 -122 L585 -122 L585 193 L672 193 Z" /><glyph glyph-name="" unicode="&#x7d27;" d="M37 -119 L265 -119 L314 69 L87 69 L37 -119 ZM960 -119 L731 -119 L681 69 L911 69 L960 -119 ZM42 471 L42 801 L224 801 L224 471 L42 471 ZM259 449 L259 823 L451 823 L451 449 L259 449 ZM459 449 L603 575 L484 682 L484 718 L663 718 L714 672 L794 742 L475 742 L475 815 L963 815 L963 697 L827 574 L970 449 L745 449 L717 474 L690 449 L459 449 ZM520 364 L448 322 L395 322 L582 432 L336 432 L29 246 L317 246 L77 106 L381 106 L381 -17 Q381 -45 353 -45 L319 -45 L319 -121 L506 -121 Q553 -121 586 -88 Q620 -54 620 -7 L620 106 L904 106 Q941 106 956 140 Q970 173 946 202 L894 261 L667 261 L717 206 Q722 197 718 190 Q716 182 706 182 L516 182 L800 364 L520 364 Z" /><glyph glyph-name="" unicode="&#x8fdb;" d="M634 322 L711 322 L711 584 L634 584 L634 322 ZM307 820 L321 672 L84 672 L70 820 L307 820 ZM26 644 L330 644 L259 314 L336 314 L268 -45 L974 -45 L974 -121 L40 -121 L109 204 L35 204 L104 559 L26 559 L26 644 ZM378 660 L429 660 L429 820 L634 820 L634 660 L711 660 L711 820 L917 820 L917 660 L963 660 L963 584 L917 584 L917 322 L970 322 L970 246 L917 246 L917 -5 L711 -5 L711 246 L623 246 L578 -5 L372 -5 L419 246 L371 246 L371 322 L429 322 L429 584 L378 584 L378 660 Z" /><glyph glyph-name="" unicode="&#x7ecf;" d="M26 -41 L381 -17 L381 -93 L26 -117 L26 -41 ZM425 319 L960 319 L960 243 L811 243 L811 -42 L973 -42 L973 -118 L412 -118 L412 -42 L574 -42 L574 243 L425 243 L425 319 ZM411 365 L688 725 L430 725 L430 810 L909 810 L909 704 L820 590 L974 365 L762 365 L707 444 L646 365 L411 365 ZM380 825 L302 531 L392 531 L300 119 L378 119 L378 43 L38 43 L124 377 L34 377 L152 825 L380 825 Z" /><glyph glyph-name="" unicode="&#x666f;" d="M623 477 L623 419 L973 419 L973 344 L26 344 L26 419 L380 419 L380 477 L73 477 L73 788 L926 788 L926 572 Q926 533 899 505 Q871 477 832 477 L623 477 ZM627 101 L627 -27 Q627 -66 600 -94 Q572 -122 534 -122 L305 -122 L305 -46 L358 -46 Q386 -46 386 -18 L386 101 L82 101 L82 312 L917 312 L917 196 Q917 157 890 129 Q862 101 824 101 L627 101 ZM285 64 L249 -107 L26 -107 L62 64 L285 64 ZM936 64 L973 -107 L750 -107 L714 64 L936 64 ZM318 168 L650 168 Q679 168 679 196 L679 247 L318 247 L318 168 ZM309 665 L687 665 L687 722 L309 722 L309 665 ZM659 544 Q687 544 687 572 L687 600 L309 600 L309 544 L659 544 Z" /><glyph glyph-name="" unicode="&#x636e;" d="M812 143 L739 143 L739 -46 L782 -46 Q794 -46 803 -38 Q812 -30 812 -18 L812 143 ZM751 602 Q781 602 781 629 L781 737 L556 737 L556 602 L751 602 ZM866 497 L866 404 L974 404 L974 329 L866 329 L866 218 L965 218 L965 -56 Q965 -83 944 -102 Q924 -121 896 -121 L586 -121 L586 218 L678 218 L678 329 L576 329 L576 404 L678 404 L678 497 L866 497 ZM281 828 L281 642 L340 642 L340 565 L281 565 L281 285 L340 300 L340 224 L281 209 L281 -27 Q281 -67 249 -95 Q217 -123 172 -123 L34 -123 L34 -46 L54 -46 Q86 -46 86 -18 L86 162 L29 148 L29 225 L86 238 L86 565 L29 565 L29 642 L86 642 L86 828 L281 828 ZM363 812 L974 812 L974 620 Q974 582 945 554 Q915 526 875 526 L556 526 L556 -123 L363 -123 L363 812 Z" /><glyph glyph-name="" unicode="&#x5177;" d="M345 176 L655 176 L655 256 L345 256 L345 176 ZM345 332 L655 332 L655 413 L345 413 L345 332 ZM345 728 L345 647 L655 647 L655 728 L345 728 ZM345 489 L655 489 L655 571 L345 571 L345 489 ZM362 71 L273 -121 L35 -121 L126 71 L362 71 ZM875 71 L965 -121 L727 -121 L638 71 L875 71 ZM26 176 L108 176 L108 804 L892 804 L892 176 L974 176 L974 100 L26 100 L26 176 Z" /><glyph glyph-name="" unicode="&#x89c9;" d="M913 651 L677 651 L719 821 L957 821 L913 651 ZM401 651 L638 651 Q629 683 616 736 Q601 795 595 821 L357 821 L401 651 ZM82 651 L319 651 L277 821 L39 821 L82 651 ZM967 466 L967 626 L29 626 L29 469 L262 469 L262 550 L735 550 L735 466 L967 466 ZM375 332 L375 181 L304 118 L304 361 L692 361 L692 96 L925 96 L925 437 L72 437 L72 99 L281 99 L28 -124 L356 -124 L432 -51 L432 -124 L972 -124 L972 -48 L669 -48 L669 142 L622 142 L622 332 L375 332 Z" /><glyph glyph-name="" unicode="&#x5f00;" d="M402 336 L621 336 L621 733 L402 733 L402 336 ZM91 -121 L156 260 L26 260 L26 336 L165 336 L165 733 L53 733 L53 809 L947 809 L947 733 L858 733 L858 336 L974 336 L974 260 L858 260 L858 -124 L621 -124 L621 260 L397 260 L328 -121 L91 -121 Z" /><glyph glyph-name="" unicode="&#x51ef;" d="M529 800 L529 589 Q529 553 509 528 Q490 503 462 503 L28 503 L28 800 L175 800 L175 579 L203 579 L203 825 L355 825 L355 579 L362 579 Q370 579 377 590 Q382 600 382 612 L382 800 L529 800 ZM520 456 L520 238 Q520 197 498 167 Q476 138 445 138 L215 138 L215 -46 L532 -46 L532 -122 L34 -122 L34 213 L317 213 Q339 213 339 244 L339 380 L27 380 L27 456 L520 456 ZM551 815 L937 815 L937 -49 L972 -49 L972 -125 L765 -125 L765 739 L723 739 L723 -125 L551 -125 L551 815 Z" /><glyph glyph-name="" unicode="&#x8003;" d="M566 823 L566 728 L832 728 L832 652 L566 652 L566 531 L618 531 L963 693 L963 609 L797 531 L973 531 L973 455 L635 455 L420 354 L929 354 L929 278 L401 278 L401 173 L950 173 L950 -22 Q950 -62 922 -89 Q895 -117 855 -117 L240 -117 L240 -41 L684 -41 Q713 -41 713 -13 L713 97 L153 97 L153 228 L28 170 L28 253 L457 455 L26 455 L26 531 L329 531 L329 652 L63 652 L63 728 L329 728 L329 823 L566 823 Z" /><glyph glyph-name="" unicode="&#x5e93;" d="M262 656 L262 -118 L36 -118 L36 732 L457 732 L457 822 L694 822 L694 732 L964 732 L964 656 L262 656 ZM773 391 L773 263 L941 263 L941 187 L773 187 L773 95 L964 95 L964 19 L773 19 L773 -124 L545 -124 L545 19 L293 19 L293 95 L545 95 L545 187 L282 187 L357 467 L293 467 L293 543 L377 543 L396 613 L590 613 L573 543 L949 543 L949 467 L555 467 L507 263 L545 263 L545 391 L773 391 Z" /><glyph glyph-name="" unicode="&#x78ca;" d="M794 104 L734 104 L734 -44 L765 -44 Q794 -44 794 -15 L794 104 ZM312 104 L252 104 L252 -44 L283 -44 Q312 -44 312 -15 L312 104 ZM708 579 L442 579 L442 460 L680 460 Q708 460 708 488 L708 579 ZM26 347 L486 347 L486 271 L258 271 L234 180 L478 180 L478 -6 Q478 -53 445 -86 Q411 -120 364 -120 L86 -120 L86 25 L28 25 L93 271 L26 271 L26 347 ZM507 347 L967 347 L967 271 L740 271 L716 180 L960 180 L960 -6 Q960 -52 926 -86 Q893 -120 846 -120 L567 -120 L567 25 L509 25 L574 271 L507 271 L507 347 ZM26 811 L973 811 L973 735 L412 735 L363 654 L945 654 L945 498 Q945 450 911 417 Q878 384 831 384 L205 384 L205 485 L28 485 L179 735 L26 735 L26 811 Z" /><glyph glyph-name="" unicode="&#x7406;" d="M967 395 Q967 355 939 328 Q912 300 872 300 L757 300 L757 179 L952 179 L952 103 L757 103 L757 -41 L974 -41 L974 -117 L360 -117 L360 -41 L577 -41 L577 103 L382 103 L382 179 L577 179 L577 300 L367 300 L367 814 L967 814 L967 395 ZM34 789 L314 789 L314 717 L266 717 L266 371 L309 371 L309 299 L266 299 L266 -37 L321 -37 L321 -109 L26 -109 L26 -37 L81 -37 L81 299 L38 299 L38 371 L81 371 L81 717 L34 717 L34 789 ZM532 595 L577 595 L577 739 L532 739 L532 595 ZM577 376 L577 519 L532 519 L532 376 L577 376 ZM757 739 L757 595 L801 595 L801 739 L757 739 ZM773 376 Q801 376 801 404 L801 519 L757 519 L757 376 L773 376 Z" /><glyph glyph-name="" unicode="&#x2f12;&#x529b;" d="M45 633 L251 633 L299 822 L536 822 L488 633 L954 633 L954 -6 Q954 -53 921 -87 Q888 -120 841 -120 L532 -120 L532 -44 L689 -44 Q718 -44 718 -16 L718 558 L470 558 L300 -120 L64 -120 L233 558 L45 558 L45 633 Z" /><glyph glyph-name="" unicode="&#x8054;" d="M226 562 L267 562 L267 734 L226 734 L226 562 ZM226 309 L267 309 L267 486 L226 486 L226 309 ZM226 53 L267 55 L267 233 L226 233 L226 53 ZM955 825 L919 692 L963 692 L963 616 L828 616 L828 386 L973 386 L973 310 L842 310 L973 -122 L794 -122 L727 98 L661 -122 L483 -122 L613 310 L483 310 L483 386 L626 386 L626 616 L492 616 L492 692 L535 692 L500 825 L669 825 L704 692 L750 692 L786 825 L955 825 ZM26 810 L468 810 L468 734 L437 734 L437 67 L468 69 L468 -7 L437 -9 L437 -124 L267 -124 L267 -20 L26 -36 L26 40 L56 42 L56 734 L26 734 L26 810 Z" /><glyph glyph-name="" unicode="&#x7ec3;" d="M581 477 L558 323 L586 323 L586 477 L581 477 ZM25 -41 L339 -18 L339 -94 L25 -117 L25 -41 ZM947 218 L972 -115 L831 -115 L805 218 L947 218 ZM556 218 L520 -115 L379 -115 L414 218 L556 218 ZM338 827 L269 532 L349 532 L267 120 L338 120 L338 44 L35 44 L111 378 L32 378 L136 827 L338 827 ZM357 718 L439 718 L455 827 L635 827 L618 718 L972 718 L972 641 L606 641 L593 553 L780 553 L780 323 L974 323 L974 247 L780 247 L780 -28 Q780 -67 753 -95 Q726 -123 690 -123 L548 -123 L548 -47 L560 -47 Q586 -47 586 -19 L586 247 L370 247 L403 477 L366 477 L366 553 L414 553 L427 641 L357 641 L357 718 Z" /><glyph glyph-name="" unicode="&#x826f;" d="M689 -118 L427 312 L278 312 L278 -42 L485 -42 L485 -118 L41 -118 L41 746 L368 746 L368 825 L605 825 L605 746 L933 746 L933 407 Q933 368 905 340 Q877 312 838 312 L685 312 L757 199 L778 244 L959 244 L861 35 L959 -118 L689 -118 ZM278 564 L696 564 L696 670 L278 670 L278 564 ZM667 388 Q696 388 696 417 L696 488 L278 488 L278 388 L667 388 Z" /><glyph glyph-name="" unicode="&#x4e86;" d="M34 802 L965 802 L640 401 L640 -29 Q640 -68 612 -96 Q584 -124 545 -124 L226 -124 L226 -48 L372 -48 Q400 -48 400 -19 L400 443 L633 726 L34 726 L34 802 Z" /><glyph glyph-name="" unicode="&#x5ed6;" d="M376 562 L389 492 L270 492 L258 562 L376 562 ZM737 562 L749 492 L630 492 L618 562 L737 562 ZM258 381 L270 477 L389 477 L376 381 L258 381 ZM618 381 L630 477 L749 477 L737 381 L618 381 ZM261 -47 L969 -23 L969 -98 L261 -122 L261 -47 ZM261 57 L969 81 L969 5 L261 -19 L261 57 ZM261 162 L969 186 L969 110 L261 86 L261 162 ZM595 381 L408 381 L408 579 L258 579 L258 654 L595 654 L595 381 ZM955 381 L768 381 L768 579 L618 579 L618 654 L955 654 L955 381 ZM498 361 L725 361 L928 281 L965 281 L965 205 L781 205 L611 275 L446 205 L258 205 L258 281 L299 281 L498 361 ZM690 825 L690 760 L969 760 L969 684 L234 684 L234 -122 L30 -122 L30 760 L453 760 L453 825 L690 825 Z" /><glyph glyph-name="" unicode="&#x6599;" d="M120 819 L145 504 L54 504 L28 819 L120 819 ZM486 819 L460 504 L369 504 L394 819 L486 819 ZM135 388 L125 -119 L34 -119 L44 388 L135 388 ZM464 388 L474 -119 L383 -119 L373 388 L464 388 ZM719 205 L539 205 L507 464 L687 464 L719 205 ZM719 528 L539 528 L507 788 L687 788 L719 528 ZM355 827 L355 488 L486 488 L486 412 L355 412 L355 -124 L157 -124 L157 412 L26 412 L26 488 L157 488 L157 827 L355 827 ZM507 125 L740 154 L740 827 L946 827 L946 179 L975 183 L975 103 L946 99 L946 -122 L740 -122 L740 74 L507 45 L507 125 Z" /><glyph glyph-name="" unicode="&#x7075;" d="M225 345 L297 124 L100 124 L29 345 L225 345 ZM974 345 L904 124 L706 124 L777 345 L974 345 ZM499 19 L320 -124 L26 -124 L384 178 L385 372 L615 372 L615 178 L972 -124 L679 -124 L499 19 ZM67 648 L710 648 L710 738 L49 738 L49 814 L947 814 L947 502 Q947 462 919 435 Q892 408 852 408 L49 408 L49 483 L681 483 Q710 483 710 511 L710 573 L67 573 L67 648 Z" /><glyph glyph-name="" unicode="&#x8bba;" d="M294 827 L294 630 L74 630 L74 827 L294 827 ZM635 371 L635 198 L965 266 L965 189 L635 121 L635 -46 L974 -46 L974 -121 L420 -121 L420 371 L635 371 ZM26 581 L294 581 L294 -48 L331 -48 L331 -125 L74 -125 L74 505 L26 505 L26 581 ZM671 650 L577 406 L370 406 L530 827 L812 827 L972 406 L765 406 L671 650 Z" /><glyph glyph-name="" unicode="&#x903b;" d="M626 526 L658 526 L658 729 L626 729 L626 526 ZM456 526 L491 526 L491 729 L456 729 L456 526 ZM792 729 L792 526 L828 526 L828 729 L792 729 ZM264 822 L283 646 L84 646 L65 822 L264 822 ZM26 608 L306 608 L240 292 L308 292 L252 -43 L974 -43 L974 -119 L35 -119 L94 182 L31 182 L90 523 L26 523 L26 608 ZM330 73 L519 73 Q550 73 566 100 L571 108 L416 108 L349 237 L553 237 L598 150 L700 313 L546 313 L518 262 L319 262 L424 450 L323 450 L323 806 L960 806 L960 526 Q960 494 938 472 Q916 450 885 450 L623 450 L591 394 L971 394 L761 56 Q725 -2 657 -2 L330 -2 L330 73 Z" /><glyph glyph-name="" unicode="&#x843d;" d="M568 465 L561 452 L638 408 L737 465 L568 465 ZM732 82 L542 82 L542 -43 L704 -43 Q732 -43 732 -15 L732 82 ZM65 397 L34 573 L263 573 L294 397 L65 397 ZM65 182 L34 360 L263 360 L294 182 L65 182 ZM294 137 L256 -122 L27 -122 L65 137 L294 137 ZM27 750 L161 750 L161 824 L398 824 L398 750 L602 750 L602 824 L839 824 L839 750 L973 750 L973 674 L839 674 L839 599 L602 599 L602 674 L398 674 L398 599 L161 599 L161 674 L27 674 L27 750 ZM323 -119 L323 158 L950 158 L950 -24 Q950 -64 922 -91 Q895 -119 855 -119 L323 -119 ZM402 577 L630 577 L610 541 L948 541 L948 407 L796 319 L898 262 L973 262 L973 186 L711 186 L638 228 L564 186 L306 186 L306 262 L381 262 L483 320 L381 380 L293 380 L402 577 Z" /><glyph glyph-name="" unicode="&#x7edc;" d="M643 675 L634 652 L701 575 L795 675 L643 675 ZM27 -41 L357 -18 L357 -94 L27 -117 L27 -41 ZM766 158 L634 158 L634 -46 L737 -46 Q766 -46 766 -18 L766 158 ZM432 234 L967 234 L967 -8 Q967 -55 934 -89 Q900 -122 852 -122 L432 -122 L432 234 ZM356 824 L283 530 L366 530 L281 119 L354 119 L354 43 L38 43 L117 376 L34 376 L144 824 L356 824 ZM705 825 L674 750 L956 750 L956 613 L806 455 L974 263 L757 263 L693 335 L625 263 L410 263 L589 454 L507 547 L409 547 L512 825 L705 825 Z" /><glyph glyph-name="" unicode="&#x7801;" d="M463 144 L739 144 L739 67 L463 67 L463 144 ZM284 439 L240 439 L240 -49 L262 -49 Q284 -49 284 -20 L284 439 ZM666 644 L666 345 L741 345 L741 729 L470 729 L470 806 L937 806 L937 345 L971 345 L971 -29 Q971 -68 945 -96 Q920 -124 884 -124 L595 -124 L595 -49 L755 -49 Q765 -49 773 -40 Q781 -30 781 -19 L781 269 L488 269 L488 644 L666 644 ZM28 794 L443 794 L443 718 L274 718 L239 515 L428 515 L428 -30 Q428 -69 407 -97 Q385 -125 355 -125 L96 -125 L96 213 L28 213 L112 718 L28 718 L28 794 Z" /><glyph glyph-name="" unicode="&#x5a92;" d="M647 438 L743 438 Q753 438 762 447 Q770 456 770 467 L770 522 L647 522 L647 438 ZM647 599 L770 599 L770 684 L647 684 L647 599 ZM232 631 L204 239 L220 210 L241 246 L272 631 L232 631 ZM28 708 L76 708 L85 827 L246 827 L237 708 L423 708 L389 212 L303 68 L414 -124 L243 -124 L216 -77 L189 -124 L27 -124 L136 64 L41 231 L70 631 L28 631 L28 708 ZM796 -124 L621 -124 L621 237 L612 237 L590 -124 L444 -124 L466 237 L444 237 L444 313 L621 313 L621 362 L465 362 L465 684 L444 684 L444 760 L465 760 L465 827 L647 827 L647 760 L770 760 L770 827 L951 827 L951 760 L973 760 L973 684 L951 684 L951 457 Q951 418 924 390 Q897 362 860 362 L796 362 L796 313 L973 313 L973 237 L950 237 L973 -124 L827 -124 L805 237 L796 237 L796 -124 Z" /><glyph glyph-name="" unicode="&#x95e8;" d="M685 -44 Q701 -44 712 -33 Q723 -22 723 -6 L723 710 L365 710 L365 786 L960 786 L960 -25 Q960 -64 932 -92 Q904 -120 865 -120 L625 -120 L625 -44 L685 -44 ZM53 -120 L53 570 L291 570 L291 -120 L53 -120 ZM53 636 L39 822 L277 822 L291 636 L53 636 Z" /><glyph glyph-name="" unicode="&#x4eec;" d="M566 825 L577 688 L375 688 L365 825 L566 825 ZM577 643 L577 -124 L375 -124 L375 643 L577 643 ZM763 712 L614 712 L614 783 L970 783 L970 -29 Q970 -68 939 -96 Q909 -124 866 -124 L687 -124 L687 -53 L732 -53 Q763 -53 763 -24 L763 712 ZM317 825 L270 588 L301 588 L301 -121 L99 -121 L99 380 L27 380 L113 825 L317 825 Z" /><glyph glyph-name="" unicode="&#x5bc6;" d="M649 619 L682 456 L507 456 L473 619 L649 619 ZM937 381 L965 208 L799 208 L771 381 L937 381 ZM29 315 L53 524 L205 524 L181 315 L29 315 ZM29 752 L381 752 L381 824 L619 824 L619 752 L971 752 L971 574 L738 574 L738 676 L262 676 L262 574 L29 574 L29 752 ZM30 272 L234 326 L234 555 L445 555 L445 382 L970 521 L970 445 L445 306 L445 276 L766 276 L766 200 L234 200 L234 250 L30 196 L30 272 ZM272 -44 L389 -44 L389 174 L611 174 L611 -44 L690 -44 Q706 -44 717 -33 Q728 -23 728 -7 L728 142 L946 142 L946 -25 Q946 -64 918 -92 Q891 -120 851 -120 L53 -120 L53 142 L272 142 L272 -44 Z" /><glyph glyph-name="" unicode="&#x2faf;&#x9762;" d="M467 179 L533 179 L533 309 L467 309 L467 179 ZM467 385 L533 385 L533 525 L467 525 L467 385 ZM467 -44 L533 -44 L533 103 L467 103 L467 -44 ZM755 525 L704 525 L704 -44 L726 -44 Q737 -44 746 -35 Q755 -27 755 -15 L755 525 ZM245 -44 L296 -44 L296 525 L245 525 L245 -44 ZM25 802 L974 802 L974 726 L615 726 L579 601 L953 601 L953 -25 Q953 -64 925 -92 Q898 -120 858 -120 L46 -120 L46 601 L342 601 L378 726 L25 726 L25 802 Z" /><glyph glyph-name="" unicode="&#x654f;" d="M323 153 L338 -9 L250 -9 L236 153 L323 153 ZM323 469 L338 305 L250 305 L236 469 L323 469 ZM349 193 L225 193 L225 -42 L322 -42 Q349 -42 349 -14 L349 193 ZM225 269 L349 269 L349 506 L225 506 L225 269 ZM280 828 L263 758 L530 758 L530 682 L244 682 L224 599 L25 599 L81 828 L280 828 ZM756 828 L739 703 L974 703 L974 637 L957 637 L957 360 L848 143 L975 -125 L773 -125 L743 -64 L713 -125 L509 -125 L644 143 L540 361 L540 476 L729 476 L729 395 L750 351 L772 395 L772 627 L729 627 L712 503 L528 503 L572 828 L756 828 ZM28 269 L64 269 L64 582 L510 582 L510 269 L530 269 L530 193 L510 193 L510 -42 Q510 -74 490 -96 Q469 -118 439 -118 L64 -118 L64 193 L28 193 L28 269 Z" /><glyph glyph-name="" unicode="&#x2f6c;&#x76ee;" d="M319 251 L680 251 L680 449 L319 449 L319 251 ZM680 175 L319 175 L319 -34 L651 -34 Q680 -34 680 -5 L680 175 ZM319 525 L680 525 L680 735 L319 735 L319 525 ZM82 810 L917 810 L917 4 Q917 -43 884 -77 Q850 -110 803 -110 L82 -110 L82 810 Z" /><glyph glyph-name="" unicode="&#x8010;" d="M724 503 L742 117 L617 117 L598 503 L724 503 ZM588 689 L777 689 L777 827 L946 827 L946 689 L973 689 L973 613 L946 613 L946 -24 Q946 -63 925 -91 Q904 -119 875 -119 L688 -119 L688 -43 L755 -43 Q777 -43 777 -15 L777 613 L588 613 L588 689 ZM313 -124 L313 551 L283 551 L283 -124 L185 -124 L185 551 L154 551 L154 -124 L32 -124 L32 627 L189 627 L205 737 L24 737 L24 813 L565 813 L565 737 L400 737 L382 627 L562 627 L562 -49 Q562 -80 542 -102 Q522 -124 494 -124 L423 -124 L423 -49 L433 -49 Q441 -49 441 -39 L441 551 L412 551 L412 -124 L313 -124 Z" /><glyph glyph-name="" unicode="&#x8111;" d="M598 520 L598 114 L654 315 L598 520 ZM823 102 L823 519 L765 313 L823 102 ZM194 253 L256 253 L256 459 L194 459 L194 253 ZM194 535 L256 535 L256 743 L194 743 L194 535 ZM598 8 L598 -44 L797 -44 Q823 -44 823 -16 L823 8 L740 8 L709 118 L678 8 L598 8 ZM446 746 L601 746 L601 825 L820 825 L820 746 L975 746 L975 670 L446 670 L446 746 ZM256 177 L194 177 L194 -124 L31 -124 L31 815 L423 815 L423 -30 Q423 -68 397 -96 Q371 -124 335 -124 L218 -124 L218 -53 L228 -53 Q256 -53 256 -25 L256 177 ZM452 -120 L452 585 L580 585 L568 629 L678 629 L710 512 L743 629 L854 629 L841 585 L968 585 L968 -25 Q968 -64 943 -92 Q917 -120 880 -120 L452 -120 Z" /><glyph glyph-name="" unicode="&#x5185;" d="M255 99 L368 628 L255 628 L255 99 ZM586 628 L558 500 L660 500 L746 98 L746 628 L586 628 ZM628 822 L602 704 L954 704 L954 -24 Q954 -63 926 -91 Q898 -119 859 -119 L645 -119 L645 -43 L718 -43 Q746 -43 746 -15 L746 38 L541 38 L500 228 L459 38 L255 38 L255 -119 L46 -119 L46 704 L384 704 L410 822 L628 822 Z" /><glyph glyph-name="" unicode="&#x80fd;" d="M296 -45 Q324 -45 324 -17 L324 38 L226 38 L226 -121 L36 -121 L36 451 L514 451 L514 -26 Q514 -66 486 -93 Q458 -121 419 -121 L279 -121 L279 -45 L296 -45 ZM783 328 L783 215 L973 262 L973 186 L783 139 L783 -49 L973 -49 L973 -125 L554 -125 L554 328 L783 328 ZM783 822 L783 683 L973 730 L973 654 L783 607 L783 445 L973 445 L973 369 L554 369 L554 822 L783 822 ZM238 565 L300 565 Q316 565 323 576 Q330 584 328 600 L318 690 L512 690 L523 609 Q528 554 507 527 Q478 489 431 489 L26 489 L78 822 L281 822 L238 565 ZM226 114 L324 114 L324 212 L226 212 L226 114 ZM226 375 L226 288 L324 288 L324 375 L226 375 Z" /><glyph glyph-name="" unicode="&#x6d53;" d="M484 581 L518 665 L484 665 L484 581 ZM216 827 L261 619 L72 619 L27 827 L216 827 ZM216 578 L263 370 L73 370 L27 578 L216 578 ZM263 322 L216 -123 L27 -123 L73 322 L263 322 ZM673 442 L856 442 L885 303 L975 391 L975 244 L911 181 L972 -107 L783 -107 L673 442 ZM306 741 L548 741 L583 827 L784 827 L749 741 L972 741 L972 529 L795 529 L795 665 L719 665 L586 333 L645 333 L645 -48 L706 -48 L706 -124 L450 -124 L450 37 L265 37 L463 529 L306 529 L306 741 Z" /><glyph glyph-name="" unicode="&#x6392;" d="M269 827 L269 641 L326 641 L326 564 L269 564 L269 285 L326 300 L326 223 L269 208 L269 -27 Q269 -67 239 -95 Q209 -123 166 -123 L34 -123 L34 -47 L52 -47 Q83 -47 83 -18 L83 162 L28 148 L28 224 L83 238 L83 564 L28 564 L28 641 L83 641 L83 827 L269 827 ZM975 25 L880 25 L880 -124 L688 -124 L688 827 L880 827 L880 681 L975 681 L975 604 L880 604 L880 392 L975 392 L975 315 L880 315 L880 102 L975 102 L975 25 ZM347 392 L442 392 L442 604 L347 604 L347 681 L442 681 L442 827 L635 827 L635 -124 L442 -124 L442 25 L347 25 L347 102 L442 102 L442 315 L347 315 L347 392 Z" /><glyph glyph-name="" unicode="&#x914d;" d="M253 649 L265 649 L265 727 L253 727 L253 649 ZM167 339 L167 573 L149 573 L149 229 L167 339 ZM352 573 L352 195 L367 195 L367 573 L352 573 ZM367 -1 L149 -1 L149 -44 L337 -44 Q367 -44 367 -15 L367 -1 ZM217 120 L149 120 L149 75 L367 75 L367 120 L265 120 L265 573 L253 573 L253 339 L217 120 ZM517 800 L961 800 L961 421 Q961 382 938 355 Q914 327 880 327 L709 327 L709 -47 L973 -47 L973 -122 L517 -122 L517 402 L746 402 Q771 402 771 430 L771 725 L517 725 L517 800 ZM26 802 L490 802 L490 727 L382 727 L382 649 L484 649 L484 -25 Q484 -64 454 -92 Q424 -120 382 -120 L33 -120 L33 649 L136 649 L136 727 L26 727 L26 802 Z" /><glyph glyph-name="" unicode="&#x9891;" d="M830 478 L830 193 L851 144 L851 552 L665 552 L665 149 L685 193 L685 478 L830 478 ZM192 328 L168 26 L25 26 L49 328 L192 328 ZM381 386 L381 229 L391 262 L529 262 L448 -33 Q436 -74 404 -97 Q374 -119 335 -119 L37 -119 L37 -43 L269 -43 Q301 -43 307 -14 L320 30 L213 30 L213 386 L381 386 ZM426 825 L426 706 L518 706 L518 630 L426 630 L426 497 L529 497 L529 421 L25 421 L25 497 L51 497 L51 738 L211 738 L211 497 L250 497 L250 825 L426 825 ZM547 809 L975 809 L975 733 L866 733 L846 625 L966 625 L966 114 L864 114 L966 -122 L805 -122 L757 -7 L705 -122 L541 -122 L649 114 L554 114 L554 625 L657 625 L677 733 L547 733 L547 809 Z" /><glyph glyph-name="" unicode="&#x54c1;" d="M775 282 L716 282 L716 -39 L747 -39 Q775 -39 775 -10 L775 282 ZM284 282 L224 282 L224 -39 L256 -39 Q284 -39 284 -10 L284 282 ZM659 725 L341 725 L341 490 L630 490 Q659 490 659 519 L659 725 ZM965 -20 Q965 -59 937 -87 Q910 -115 870 -115 L526 -115 L526 359 L965 359 L965 -20 ZM474 -20 Q474 -59 446 -87 Q419 -115 379 -115 L34 -115 L34 359 L474 359 L474 -20 ZM896 509 Q896 470 868 442 Q840 414 801 414 L104 414 L104 802 L896 802 L896 509 Z" /><glyph glyph-name="" unicode="&#x5e73;" d="M675 344 L726 672 L946 672 L895 344 L675 344 ZM105 344 L53 672 L275 672 L326 344 L105 344 ZM39 806 L962 806 L962 730 L619 730 L619 285 L973 285 L973 209 L619 209 L619 -125 L381 -125 L381 209 L27 209 L27 285 L381 285 L381 730 L39 730 L39 806 Z" /><glyph glyph-name="" unicode="&#x8bc4;" d="M297 825 L297 628 L75 628 L75 825 L297 825 ZM509 681 L528 363 L371 363 L352 681 L509 681 ZM971 681 L953 363 L796 363 L813 681 L971 681 ZM26 580 L297 580 L297 -47 L335 -47 L335 -123 L75 -123 L75 504 L26 504 L26 580 ZM358 807 L965 807 L965 730 L767 730 L767 307 L974 307 L974 230 L767 230 L767 -123 L556 -123 L556 230 L349 230 L349 307 L556 307 L556 730 L358 730 L358 807 Z" /><glyph glyph-name="" unicode="&#x8feb;" d="M392 3 L392 695 L523 695 L546 823 L762 823 L739 695 L957 695 L957 98 Q957 59 930 31 Q902 3 863 3 L392 3 ZM26 594 L354 594 L278 312 L355 312 L291 -42 L974 -42 L974 -118 L45 -118 L109 202 L35 202 L109 510 L26 510 L26 594 ZM307 823 L321 647 L84 647 L70 823 L307 823 ZM604 387 L747 387 L747 619 L604 619 L604 387 ZM714 79 Q726 79 736 88 Q747 96 747 108 L747 311 L604 311 L604 79 L714 79 Z" /><glyph glyph-name="" unicode="&#x671f;" d="M227 180 L309 180 L309 285 L227 285 L227 180 ZM227 550 L309 550 L309 656 L227 656 L227 550 ZM227 361 L309 361 L309 474 L227 474 L227 361 ZM706 527 L798 527 L798 733 L706 733 L706 527 ZM706 244 L798 244 L798 450 L706 450 L706 244 ZM233 73 L197 -123 L31 -123 L67 73 L233 73 ZM460 73 L497 -123 L330 -123 L294 73 L460 73 ZM478 827 L478 733 L507 733 L507 656 L478 656 L478 180 L507 180 L507 104 L30 104 L30 180 L58 180 L58 656 L30 656 L30 733 L58 733 L58 827 L227 827 L227 733 L309 733 L309 827 L478 827 ZM798 167 L706 167 L706 -122 L532 -122 L532 804 L969 804 L969 -28 Q969 -66 942 -94 Q914 -122 876 -122 L754 -122 L754 -51 L770 -51 Q798 -51 798 -23 L798 167 Z" /><glyph glyph-name="" unicode="&#x5176;" d="M363 191 L636 191 L636 291 L363 291 L363 191 ZM363 367 L636 367 L636 477 L363 477 L363 367 ZM363 553 L636 553 L636 667 L363 667 L363 553 ZM353 93 L262 -124 L26 -124 L115 93 L353 93 ZM884 93 L974 -124 L737 -124 L646 93 L884 93 ZM873 824 L873 743 L960 743 L960 667 L873 667 L873 191 L974 191 L974 115 L26 115 L26 191 L126 191 L126 667 L39 667 L39 743 L126 743 L126 824 L363 824 L363 743 L636 743 L636 824 L873 824 Z" /><glyph glyph-name="" unicode="&#x5668;" d="M776 107 L691 107 L691 -55 L758 -55 Q776 -55 776 -37 L776 107 ZM776 750 L691 750 L691 587 L758 587 Q776 587 776 606 L776 750 ZM297 107 L211 107 L211 -55 L279 -55 Q297 -55 297 -37 L297 107 ZM297 750 L211 750 L211 587 L279 587 Q297 587 297 606 L297 750 ZM952 166 L952 -53 Q952 -78 934 -96 Q916 -114 891 -114 L517 -114 L517 166 L952 166 ZM952 809 L952 590 Q952 565 934 547 Q916 529 891 529 L517 529 L517 809 L952 809 ZM472 809 L472 590 Q472 565 454 547 Q437 529 412 529 L37 529 L37 809 L472 809 ZM472 166 L472 -53 Q472 -78 454 -96 Q437 -114 412 -114 L37 -114 L37 166 L472 166 ZM878 490 L895 435 L973 435 L973 359 L734 359 L909 254 L973 254 L973 197 L682 197 L499 316 L319 197 L26 197 L26 254 L87 254 L264 359 L26 359 L26 435 L382 435 L382 502 L617 502 L617 435 L702 435 L685 490 L878 490 Z" /><glyph glyph-name="" unicode="&#x524d;" d="M236 386 L340 386 L340 522 L236 522 L236 386 ZM236 165 L340 165 L340 310 L236 310 L236 165 ZM576 568 L728 568 L728 14 L576 14 L576 568 ZM26 724 L138 724 L98 823 L335 823 L375 724 L623 724 L663 823 L901 823 L860 724 L973 724 L973 648 L26 648 L26 724 ZM960 593 L960 -7 Q960 -54 926 -88 Q893 -121 846 -121 L661 -121 L661 -45 L737 -45 Q765 -45 765 -17 L765 593 L960 593 ZM41 598 L535 598 L535 -6 Q535 -53 502 -87 Q468 -120 421 -120 L283 -120 L283 -44 L312 -44 Q340 -44 340 -16 L340 89 L236 89 L236 -120 L41 -120 L41 598 Z" /><glyph glyph-name="" unicode="&#x5f3a;" d="M813 373 L784 373 L784 167 L786 167 Q796 167 805 176 Q813 185 813 196 L813 373 ZM580 167 L610 167 L610 373 L580 373 L580 167 ZM779 736 L616 736 L616 611 L752 611 Q779 611 779 640 L779 736 ZM29 810 L398 810 L398 546 Q398 506 371 478 Q344 450 305 450 L197 450 L197 248 L386 248 L386 -24 Q386 -64 359 -91 Q332 -119 293 -119 L34 -119 L34 -43 L187 -43 Q215 -43 215 -14 L215 172 L31 172 L31 527 L199 527 Q227 527 227 555 L227 734 L29 734 L29 810 ZM949 812 L949 630 Q949 591 922 563 Q895 535 857 535 L794 535 L794 449 L968 449 L968 186 Q968 147 941 119 Q914 91 877 91 L794 91 L794 -43 L804 -43 Q832 -43 832 -15 L832 46 L970 46 L970 -24 Q970 -64 943 -91 Q916 -119 878 -119 L417 -119 L417 -43 L600 -43 L600 91 L423 91 L423 449 L597 449 L599 535 L442 535 L442 812 L949 812 Z" /><glyph glyph-name="" unicode="&#x4e14;" d="M351 -30 L649 -30 L649 157 L351 157 L351 -30 ZM351 233 L649 233 L649 437 L351 437 L351 233 ZM351 512 L649 512 L649 718 L351 718 L351 512 ZM887 -30 L973 -30 L973 -106 L27 -106 L27 -30 L113 -30 L113 794 L887 794 L887 -30 Z" /><glyph glyph-name="" unicode="&#x60c5;" d="M657 220 L770 220 L770 276 L657 276 L657 220 ZM657 86 L770 86 L770 144 L657 144 L657 86 ZM107 644 L107 61 L28 61 L28 644 L107 644 ZM418 644 L418 61 L339 61 L339 644 L418 644 ZM462 758 L610 758 L610 828 L816 828 L816 758 L964 758 L964 682 L816 682 L816 614 L939 614 L939 538 L816 538 L816 472 L972 472 L972 396 L454 396 L454 472 L610 472 L610 538 L488 538 L488 614 L610 614 L610 682 L462 682 L462 758 ZM318 827 L318 -123 L129 -123 L129 827 L318 827 ZM480 -124 L480 353 L946 353 L946 -29 Q946 -69 920 -96 Q894 -124 856 -124 L713 -124 L713 -48 L743 -48 Q770 -48 770 -19 L770 9 L657 9 L657 -124 L480 -124 Z" /><glyph glyph-name="" unicode="&#x6c42;" d="M904 811 L948 671 L731 671 L686 811 L904 811 ZM667 285 L734 509 L945 509 L879 285 L667 285 ZM121 285 L54 509 L266 509 L333 285 L121 285 ZM879 241 L972 -113 L761 -113 L667 241 L879 241 ZM333 241 L239 -113 L28 -113 L121 241 L333 241 ZM28 650 L385 650 L385 819 L622 819 L622 650 L972 650 L972 574 L622 574 L622 -30 Q622 -68 595 -96 Q567 -124 528 -124 L301 -124 L301 -48 L357 -48 Q385 -48 385 -21 L385 574 L28 574 L28 650 Z" /><glyph glyph-name="" unicode="&#x8da3;" d="M507 595 L547 595 L547 736 L507 736 L507 595 ZM507 385 L547 385 L547 529 L507 529 L507 385 ZM507 164 L547 164 L547 319 L507 319 L507 164 ZM727 802 L967 802 L967 466 L897 254 L973 -11 L866 -11 L839 79 L810 -11 L702 -11 L788 254 L727 466 L727 679 L832 679 L832 481 L846 430 L863 481 L863 737 L727 737 L727 802 ZM357 802 L697 802 L697 736 L677 736 L677 164 L697 164 L697 97 L677 97 L677 -11 L547 -11 L547 97 L357 97 L357 164 L377 164 L377 736 L357 736 L357 802 ZM36 686 L101 686 L101 821 L284 821 L284 686 L349 686 L349 610 L284 610 L284 445 L357 445 L357 369 L318 369 L318 222 L346 222 L346 146 L318 146 L318 31 L463 -43 L973 -43 L973 -119 L352 -119 L135 -15 L132 -123 L27 -123 L37 294 L143 294 L138 124 L163 111 L163 369 L28 369 L28 445 L101 445 L101 610 L36 610 L36 686 Z" /><glyph glyph-name="" unicode="&#x7136;" d="M832 645 L813 792 L955 792 L973 645 L832 645 ZM249 93 L228 -123 L28 -123 L50 93 L249 93 ZM478 93 L499 -123 L300 -123 L278 93 L478 93 ZM949 93 L971 -123 L771 -123 L750 93 L949 93 ZM714 93 L736 -123 L535 -123 L514 93 L714 93 ZM26 583 L85 822 L283 822 L260 734 L518 734 L393 234 Q366 127 273 127 L51 127 L51 203 L154 203 Q187 203 195 238 L201 263 L56 263 L26 385 L201 385 L216 325 L242 426 L66 426 L35 548 L215 548 L244 436 L300 658 L240 658 L220 583 L26 583 ZM500 615 L559 615 L612 822 L810 822 L757 615 L973 615 L973 539 L926 539 L973 127 L775 127 L730 511 L632 127 L434 127 L539 539 L500 539 L500 615 Z" /><glyph glyph-name="" unicode="&#x70ed;" d="M765 -121 L736 127 L938 127 L968 -121 L765 -121 ZM538 -121 L508 127 L711 127 L740 -121 L538 -121 ZM308 -121 L278 127 L481 127 L511 -121 L308 -121 ZM25 -121 L55 127 L259 127 L228 -121 L25 -121 ZM25 710 L93 710 L93 823 L321 823 L321 710 L375 710 L375 634 L321 634 L321 487 L375 497 L375 421 L321 411 L321 263 Q321 223 293 195 Q266 168 226 168 L35 168 L35 244 L66 244 Q93 244 93 271 L93 368 L25 355 L25 431 L93 444 L93 634 L25 634 L25 710 ZM406 731 L464 731 L474 823 L694 823 L684 731 L943 731 L943 243 L974 243 L974 167 L720 167 L720 656 L675 656 L647 408 L699 377 L699 291 L638 327 L621 171 L401 171 L432 453 L400 473 L400 558 L441 533 L455 656 L406 656 L406 731 Z" /><glyph glyph-name="" unicode="&#x2f08;&#x4eba;" d="M701 819 L575 540 L963 -124 L726 -124 L469 308 L274 -124 L36 -124 L464 819 L701 819 Z" /><glyph glyph-name="" unicode="&#x4efb;" d="M376 827 L320 589 L357 589 L357 -123 L114 -123 L114 380 L26 380 L130 827 L376 827 ZM452 801 L950 820 L950 744 L831 739 L831 417 L974 417 L974 340 L831 340 L831 -48 L960 -48 L960 -125 L443 -125 L443 -48 L574 -48 L574 340 L431 340 L431 417 L574 417 L574 729 L452 725 L452 801 Z" /><glyph glyph-name="" unicode="&#x5bb9;" d="M340 204 L658 204 L499 380 L340 204 ZM351 -37 L610 -37 Q626 -37 637 -26 Q648 -15 648 1 L648 129 L351 129 L351 -37 ZM31 746 L380 746 L380 824 L618 824 L618 746 L968 746 L968 557 L832 557 L971 407 L762 407 L584 600 L736 600 L736 670 L263 670 L263 600 L415 600 L236 407 L28 407 L166 557 L31 557 L31 746 ZM379 507 L617 507 L968 129 L867 129 L867 -18 Q867 -59 844 -85 Q819 -113 781 -113 L132 -113 L132 129 L31 129 L379 507 Z" /><glyph glyph-name="" unicode="&#x2f0a;&#x5165;" d="M514 823 L952 -124 L705 -124 L506 306 L294 -124 L48 -124 L385 566 L267 823 L514 823 Z" /><glyph glyph-name="" unicode="&#x8f6f;" d="M722 825 L712 751 L973 751 L946 502 L759 502 L778 674 L702 674 L679 502 L489 502 L530 825 L722 825 ZM728 34 L675 -123 L489 -123 L627 266 L627 487 L827 487 L827 266 L968 -123 L782 -123 L728 34 ZM274 720 L483 720 L483 644 L262 644 L216 356 L250 356 L250 544 L390 544 L390 356 L483 356 L483 279 L390 279 L390 157 L479 164 L479 83 L390 76 L390 -124 L192 -124 L192 60 L29 48 L29 129 L192 141 L192 279 L27 279 L85 644 L29 644 L29 720 L97 720 L114 825 L291 825 L274 720 Z" /><glyph glyph-name="" unicode="&#x9510;" d="M611 594 L611 334 L731 334 Q760 334 760 362 L760 594 L611 594 ZM281 824 L262 735 L375 735 L375 660 L247 660 L225 552 L26 552 L82 824 L281 824 ZM31 512 L362 512 L362 436 L302 436 L302 261 L373 261 L373 185 L302 185 L302 -47 L360 -47 L360 -123 L93 -123 L93 185 L27 185 L27 261 L93 261 L93 436 L31 436 L31 512 ZM618 825 L652 670 L719 670 L753 825 L954 825 L920 670 L965 670 L965 353 Q965 322 946 297 Q928 273 899 263 L899 -47 L973 -47 L973 -123 L699 -123 L699 258 L659 258 L600 -123 L400 -123 L460 258 L406 258 L406 670 L450 670 L416 825 L618 825 Z" /><glyph glyph-name="" unicode="&#x6563;" d="M239 542 L303 542 L303 660 L239 660 L239 542 ZM226 266 L316 266 L316 350 L226 350 L226 266 ZM226 102 L316 102 L316 190 L226 190 L226 102 ZM239 826 L239 736 L303 736 L303 826 L475 826 L475 736 L511 736 L511 660 L475 660 L475 542 L516 542 L516 466 L26 466 L26 542 L67 542 L67 660 L31 660 L31 736 L67 736 L67 826 L239 826 ZM502 -27 Q502 -66 474 -94 Q446 -122 407 -122 L265 -122 L265 -46 L287 -46 Q316 -46 316 -18 L316 26 L226 26 L226 -122 L40 -122 L40 426 L502 426 L502 -27 ZM757 828 L740 703 L974 703 L974 637 L957 637 L957 360 L848 143 L975 -125 L774 -125 L744 -63 L714 -125 L512 -125 L646 142 L542 361 L542 476 L729 476 L729 395 L750 350 L773 395 L773 627 L730 627 L713 503 L531 503 L574 828 L757 828 Z" /><glyph glyph-name="" unicode="&#x5584;" d="M701 59 L298 59 L298 -39 L673 -39 Q701 -39 701 -11 L701 59 ZM939 -20 Q939 -59 911 -87 Q883 -114 844 -114 L60 -114 L60 135 L939 135 L939 -20 ZM28 754 L129 754 L110 824 L347 824 L366 754 L632 754 L652 824 L889 824 L869 754 L971 754 L971 678 L618 678 L618 607 L938 607 L938 531 L618 531 L618 459 L958 459 L958 383 L618 383 L618 253 L670 253 L696 358 L923 358 L898 253 L971 253 L971 177 L28 177 L28 253 L100 253 L75 358 L303 358 L328 253 L381 253 L381 383 L41 383 L41 459 L381 459 L381 531 L61 531 L61 607 L381 607 L381 678 L28 678 L28 754 Z" /><glyph glyph-name="" unicode="&#x8d4f;" d="M681 489 L318 489 L318 412 L655 412 Q681 412 681 438 L681 489 ZM74 306 L925 306 L925 64 L701 64 L701 230 L298 230 L298 64 L74 64 L74 306 ZM616 181 L616 107 L916 -58 L971 -58 L971 -121 L645 -121 L500 -39 L354 -121 L28 -121 L28 -58 L83 -58 L383 107 L383 181 L616 181 ZM28 701 L100 701 L79 809 L300 809 L321 701 L389 701 L389 824 L610 824 L610 701 L678 701 L699 809 L921 809 L899 701 L971 701 L971 575 L748 575 L748 626 L251 626 L251 575 L28 575 L28 701 ZM86 560 L913 560 L913 447 Q913 403 882 372 Q851 341 807 341 L86 341 L86 560 Z" /><glyph glyph-name="" unicode="&#x4e0a;" d="M582 824 L582 510 L927 510 L927 434 L582 434 L582 -38 L974 -38 L974 -114 L26 -114 L26 -38 L344 -38 L344 824 L582 824 Z" /><glyph glyph-name="" unicode="&#x5c11;" d="M29 164 L86 714 L295 714 L238 164 L29 164 ZM913 714 L970 291 L761 291 L704 714 L913 714 ZM381 70 L381 822 L619 822 L619 70 L381 70 ZM953 250 L843 -16 Q828 -62 791 -89 Q754 -118 706 -118 L80 -118 L80 -42 L548 -42 Q600 -42 622 10 L731 250 L953 250 Z" /><glyph glyph-name="" unicode="&#x6444;" d="M593 681 L741 681 L741 731 L593 731 L593 681 ZM593 427 L741 427 L741 479 L593 479 L593 427 ZM593 554 L741 554 L741 606 L593 606 L593 554 ZM367 303 L654 303 L654 177 L573 33 L660 -123 L526 -123 L505 -87 L485 -123 L351 -123 L436 32 L367 154 L367 209 L475 209 L504 156 L545 229 L367 229 L367 303 ZM673 303 L960 303 L960 177 L881 33 L971 -123 L837 -123 L815 -87 L796 -123 L662 -123 L745 32 L673 154 L673 209 L781 209 L811 155 L851 229 L673 229 L673 303 ZM281 828 L281 642 L340 642 L340 565 L281 565 L281 286 L340 300 L340 224 L281 209 L281 -27 Q281 -67 249 -95 Q216 -123 171 -123 L32 -123 L32 -46 L52 -46 Q84 -46 84 -18 L84 162 L27 148 L27 225 L84 238 L84 565 L27 565 L27 642 L84 642 L84 828 L281 828 ZM359 807 L974 807 L974 731 L929 731 L929 427 L974 427 L974 351 L929 351 L929 317 L741 317 L741 351 L359 351 L359 427 L406 427 L406 731 L359 731 L359 807 Z" /><glyph glyph-name="" unicode="&#x793e;" d="M430 468 L430 -125 L351 -125 L351 468 L430 468 ZM339 825 L339 723 L411 723 L319 458 L319 -122 L119 -122 L119 200 L26 200 L178 656 L27 656 L27 723 L113 723 L113 825 L339 825 ZM480 527 L604 527 L604 820 L832 820 L832 527 L957 527 L957 452 L832 452 L832 -44 L973 -44 L973 -120 L464 -120 L464 -44 L604 -44 L604 452 L480 452 L480 527 Z" /><glyph glyph-name="" unicode="&#x8bbe;" d="M308 825 L308 628 L77 628 L77 825 L308 825 ZM26 580 L308 580 L308 -47 L348 -47 L348 -123 L77 -123 L77 504 L26 504 L26 580 ZM624 740 L624 441 L383 441 L383 816 L932 816 L932 518 L974 518 L974 441 L692 441 L692 740 L624 740 ZM797 84 L974 -124 L712 -124 L664 -68 L615 -124 L357 -124 L536 82 L392 252 L392 311 L606 311 L669 236 L758 339 L383 339 L383 415 L954 415 L954 263 L797 84 Z" /><glyph glyph-name="" unicode="&#x5ba1;" d="M385 -124 L385 -31 L61 -31 L61 494 L385 494 L385 582 L613 582 L613 494 L937 494 L937 64 Q937 25 909 -3 Q881 -31 842 -31 L613 -31 L613 -124 L385 -124 ZM31 732 L380 732 L380 823 L618 823 L618 732 L968 732 L968 548 L736 548 L736 656 L262 656 L262 538 L31 538 L31 732 ZM280 45 L385 45 L385 194 L280 194 L280 45 ZM280 270 L385 270 L385 418 L280 418 L280 270 ZM613 418 L613 270 L718 270 L718 418 L613 418 ZM680 45 Q696 45 707 56 Q718 67 718 83 L718 194 L613 194 L613 45 L680 45 Z" /><glyph glyph-name="" unicode="&#x72ee;" d="M414 752 L414 57 L318 57 L318 752 L414 752 ZM553 827 L553 80 L494 -124 L375 -124 L435 86 L435 827 L553 827 ZM27 70 L131 173 L131 -15 Q131 -43 108 -43 L75 -43 L75 -120 L203 -120 Q234 -120 256 -92 Q279 -64 279 -25 L279 535 L246 636 L294 684 L294 788 L221 715 L186 827 L27 827 L94 588 L27 520 L27 417 L117 507 L131 459 L131 277 L27 174 L27 70 ZM580 737 L714 737 L714 632 L576 632 L576 -2 L688 -2 L688 557 L714 557 L714 -124 L835 -124 L835 557 L860 557 L860 75 L851 75 L851 -2 L897 -2 Q929 -2 951 20 Q973 42 973 75 L973 632 L835 632 L835 737 L968 737 L968 813 L580 813 L580 737 Z" /><glyph glyph-name="" unicode="&#x65bd;" d="M665 828 L645 723 L973 723 L973 646 L631 646 L606 513 L423 513 L481 828 L665 828 ZM27 703 L116 703 L116 828 L308 828 L308 703 L396 703 L396 627 L221 627 L217 542 L400 542 L400 -36 Q400 -72 375 -98 Q351 -124 317 -124 L204 -124 L204 -54 L220 -54 Q244 -54 244 -27 L244 472 L214 472 L186 -124 L33 -124 L67 627 L27 627 L27 703 ZM801 568 L801 423 L973 477 L973 85 L820 85 L820 362 L801 355 L801 19 L639 19 L639 302 L619 295 L619 -42 L973 -42 L973 -118 L449 -118 L449 239 L432 234 L432 310 L449 315 L449 471 L619 471 L619 367 L639 373 L639 568 L801 568 Z" /><glyph glyph-name="" unicode="&#x8bd7;" d="M293 827 L293 630 L73 630 L73 827 L293 827 ZM577 178 L616 -68 L436 -68 L397 178 L577 178 ZM25 582 L293 582 L293 -47 L331 -47 L331 -123 L73 -123 L73 505 L25 505 L25 582 ZM781 827 L781 700 L957 700 L957 624 L781 624 L781 475 L973 475 L973 399 L925 399 L925 300 L960 300 L960 224 L925 224 L925 -26 Q925 -66 897 -94 Q869 -122 829 -122 L641 -122 L641 -46 L677 -46 Q705 -46 705 -17 L705 224 L377 224 L377 300 L705 300 L705 399 L370 399 L370 475 L562 475 L562 624 L384 624 L384 700 L562 700 L562 827 L781 827 Z" /><glyph glyph-name="" unicode="&#x65f6;" d="M260 312 L206 312 L206 -7 L227 -7 Q260 -7 260 22 L260 312 ZM206 388 L260 388 L260 707 L206 707 L206 388 ZM646 504 L670 117 L504 117 L479 504 L646 504 ZM466 689 L717 689 L717 828 L941 828 L941 689 L975 689 L975 614 L941 614 L941 -24 Q941 -63 913 -91 Q885 -119 846 -119 L599 -119 L599 -43 L688 -43 Q717 -43 717 -15 L717 614 L466 614 L466 689 ZM438 783 L438 12 Q438 -27 406 -55 Q373 -84 327 -84 L29 -84 L29 783 L438 783 Z" /><glyph glyph-name="" unicode="&#x5b9e;" d="M65 437 L65 522 L395 498 L395 412 L65 437 ZM65 309 L65 396 L395 371 L395 285 L65 309 ZM29 743 L381 743 L381 823 L619 823 L619 743 L971 743 L971 540 L738 540 L738 667 L262 667 L262 540 L29 540 L29 743 ZM32 251 L444 251 L444 590 L685 590 L685 251 L968 251 L968 175 L715 175 L934 -43 L968 -43 L968 -119 L718 -119 L498 107 L280 -119 L29 -119 L29 -43 L63 -43 L282 175 L32 175 L32 251 Z" /><glyph glyph-name="" unicode="&#x8bc6;" d="M298 827 L298 630 L75 630 L75 827 L298 827 ZM739 734 L604 734 L604 396 L707 396 Q720 396 729 405 Q739 414 739 425 L739 734 ZM630 263 L585 -124 L370 -124 L415 263 L630 263 ZM928 263 L974 -124 L758 -124 L713 263 L928 263 ZM26 582 L298 582 L298 -47 L336 -47 L336 -123 L75 -123 L75 505 L26 505 L26 582 ZM957 416 Q957 375 926 346 Q896 318 852 318 L386 318 L386 813 L957 813 L957 416 Z" /><glyph glyph-name="" unicode="&#x4f7f;" d="M805 483 L762 483 L762 299 L777 299 Q805 299 805 327 L805 483 ZM512 299 L559 299 L559 483 L512 483 L512 299 ZM321 825 L274 588 L306 588 L306 -124 L100 -124 L100 379 L26 379 L114 825 L321 825 ZM970 318 Q970 278 943 251 Q916 223 878 223 L742 223 L646 50 L882 -56 L973 -56 L973 -122 L786 -122 L596 -41 L551 -122 L342 -122 L427 31 L346 66 L346 185 L479 125 L533 223 L346 223 L346 560 L559 560 L559 639 L346 639 L346 715 L559 715 L559 825 L762 825 L762 715 L973 715 L973 639 L762 639 L762 560 L970 560 L970 318 Z" /><glyph glyph-name="" unicode="&#x4e8b;" d="M615 300 L615 239 L705 239 L705 300 L615 300 ZM705 163 L615 163 L615 96 L677 96 Q688 96 697 105 Q705 114 705 125 L705 163 ZM701 581 L615 581 L615 495 L673 495 Q684 495 693 504 Q701 513 701 524 L701 581 ZM300 495 L385 495 L385 581 L300 581 L300 495 ZM27 775 L385 775 L385 825 L615 825 L615 775 L974 775 L974 699 L615 699 L615 657 L928 657 L928 514 Q928 475 900 447 Q873 419 833 419 L615 419 L615 376 L932 376 L932 239 L974 239 L974 163 L932 163 L932 115 Q932 76 905 48 Q877 20 838 20 L615 20 L615 -28 Q615 -67 587 -95 Q559 -123 520 -123 L230 -123 L230 -47 L357 -47 Q385 -47 385 -19 L385 20 L76 20 L76 96 L385 96 L385 163 L26 163 L26 239 L385 239 L385 300 L76 300 L76 376 L385 376 L385 419 L72 419 L72 657 L385 657 L385 699 L27 699 L27 775 Z" /><glyph glyph-name="" unicode="&#x89c6;" d="M398 466 L398 -125 L325 -125 L325 466 L398 466 ZM315 822 L315 720 L381 720 L297 459 L297 -122 L111 -122 L111 199 L26 199 L167 654 L27 654 L27 720 L107 720 L107 822 L315 822 ZM850 246 L850 -47 L974 -47 L974 -123 L685 -123 L685 44 L604 -123 L410 -123 L607 253 L607 652 L782 652 L782 275 L825 275 L825 723 L567 723 L567 246 L425 246 L425 799 L967 799 L967 246 L850 246 Z" /><glyph glyph-name="" unicode="&#x719f;" d="M328 595 L179 595 L179 533 L300 533 Q328 533 328 562 L328 595 ZM951 58 L972 -124 L773 -124 L751 58 L951 58 ZM251 58 L229 -124 L30 -124 L51 58 L251 58 ZM479 58 L501 -124 L300 -124 L280 58 L479 58 ZM716 58 L737 -124 L537 -124 L515 58 L716 58 ZM26 771 L155 771 L155 822 L342 822 L342 771 L481 771 L481 700 L26 700 L26 771 ZM43 671 L463 671 L463 552 Q463 513 436 485 Q408 457 369 457 L43 457 L43 671 ZM31 424 L462 424 L363 296 L468 296 L468 225 L336 225 L336 184 Q336 98 255 98 L78 98 L78 169 L125 169 Q148 169 148 198 L148 225 L32 225 L32 296 L157 296 L207 358 L31 358 L31 424 ZM501 735 L559 735 L566 822 L744 822 L737 735 L936 735 L936 174 L974 174 L974 98 L767 98 L767 659 L731 659 L708 371 L756 337 L756 231 L700 270 L687 98 L509 98 L532 391 L497 416 L497 522 L540 491 L553 659 L501 659 L501 735 Z" /><glyph glyph-name="" unicode="&#x672f;" d="M895 800 L923 606 L706 606 L679 800 L895 800 ZM618 822 L618 576 L973 576 L973 500 L871 500 L973 -119 L756 -119 L654 500 L618 500 L618 -122 L380 -122 L380 500 L347 500 L244 -119 L28 -119 L130 500 L26 500 L26 576 L380 576 L380 822 L618 822 Z" /><glyph glyph-name="" unicode="&#x6570;" d="M231 208 L231 151 L283 112 L338 151 L338 208 L231 208 ZM156 810 L171 668 L40 668 L26 810 L156 810 ZM531 810 L517 668 L386 668 L400 810 L531 810 ZM26 336 L40 549 L171 549 L156 336 L26 336 ZM400 336 L386 549 L517 549 L531 336 L400 336 ZM26 647 L187 647 L187 828 L369 828 L369 647 L531 647 L531 571 L369 571 L369 336 L187 336 L187 571 L26 571 L26 647 ZM26 283 L56 283 L56 315 L231 315 L231 283 L547 283 L547 208 L512 208 L512 84 L414 15 L501 -48 L529 -48 L529 -124 L340 -124 L279 -79 L215 -124 L26 -124 L26 -48 L54 -48 L147 17 L56 84 L56 208 L26 208 L26 283 ZM767 828 L751 703 L973 703 L973 637 L957 637 L957 360 L853 143 L974 -125 L783 -125 L755 -63 L726 -125 L534 -125 L661 143 L563 361 L563 476 L741 476 L741 395 L761 350 L782 395 L782 627 L741 627 L725 503 L552 503 L593 828 L767 828 Z" /><glyph glyph-name="" unicode="&#x601d;" d="M62 317 L62 801 L940 801 L940 412 Q940 373 912 345 Q884 317 845 317 L62 317 ZM500 268 L500 -46 L757 -46 L757 -121 L270 -121 L270 268 L500 268 ZM243 249 L217 -104 L28 -104 L53 249 L243 249 ZM942 235 L972 -111 L789 -111 L757 235 L942 235 ZM718 283 L741 -5 L557 -5 L534 283 L718 283 ZM289 393 L382 393 L382 521 L289 521 L289 393 ZM620 725 L620 597 L713 597 L713 725 L620 725 ZM289 597 L382 597 L382 725 L289 725 L289 597 ZM684 393 Q695 393 704 402 Q713 410 713 422 L713 521 L620 521 L620 393 L684 393 Z" /><glyph glyph-name="" unicode="&#x7b97;" d="M305 363 L694 363 L694 398 L305 398 L305 363 ZM694 297 L305 297 L305 259 L669 259 Q694 259 694 283 L694 297 ZM305 464 L694 464 L694 503 L305 503 L305 464 ZM26 597 L76 823 L277 823 L268 782 L501 782 L501 718 L460 718 L484 597 L291 597 L267 718 L253 718 L226 597 L26 597 ZM498 597 L547 823 L748 823 L739 782 L972 782 L972 718 L933 718 L956 597 L762 597 L740 718 L725 718 L699 597 L498 597 ZM26 101 L132 101 L148 172 L386 172 L370 101 L616 101 L616 172 L853 172 L853 101 L974 101 L974 25 L853 25 L853 -119 L616 -119 L616 25 L352 25 L320 -119 L83 -119 L115 25 L26 25 L26 101 ZM68 568 L932 568 L932 291 Q932 250 904 222 Q875 193 834 193 L68 193 L68 568 Z" /><glyph glyph-name="" unicode="&#x575b;" d="M407 813 L937 813 L937 736 L407 736 L407 813 ZM300 821 L300 628 L367 628 L367 553 L300 553 L300 -5 L367 4 L367 -72 L28 -119 L28 -43 L94 -34 L94 553 L28 553 L28 628 L94 628 L94 821 L300 821 ZM373 468 L972 468 L972 391 L676 391 L611 -41 L731 -41 Q743 -41 750 -32 Q756 -23 754 -11 L720 222 L932 222 L967 8 Q975 -41 957 -75 Q935 -118 879 -118 L382 -118 L463 391 L373 391 L373 468 Z" /><glyph glyph-name="" unicode="&#x7279;" d="M621 178 L655 -68 L494 -68 L460 178 L621 178 ZM155 753 L145 580 L172 580 L172 827 L355 827 L355 580 L422 580 L422 504 L355 504 L355 218 L422 229 L422 151 L355 140 L355 -122 L172 -122 L172 109 L26 85 L26 164 L172 188 L172 504 L141 504 L131 332 L28 332 L53 753 L155 753 ZM802 827 L802 700 L959 700 L959 624 L802 624 L802 475 L973 475 L973 399 L930 399 L930 300 L962 300 L962 224 L930 224 L930 -26 Q930 -66 905 -94 Q880 -122 845 -122 L678 -122 L678 -46 L710 -46 Q735 -46 735 -17 L735 224 L442 224 L442 300 L735 300 L735 399 L435 399 L435 475 L606 475 L606 624 L449 624 L449 700 L606 700 L606 827 L802 827 Z" /><glyph glyph-name="" unicode="&#x4f53;" d="M486 55 L545 55 L545 640 L529 640 L486 55 ZM756 55 L815 55 L772 640 L756 640 L756 55 ZM314 825 L268 588 L299 588 L299 -123 L98 -123 L98 379 L26 379 L111 825 L314 825 ZM756 825 L756 716 L973 716 L973 640 L918 640 L973 -105 L827 -105 L821 -21 L756 -21 L756 -124 L545 -124 L545 -21 L481 -21 L475 -105 L329 -105 L382 640 L329 640 L329 716 L545 716 L545 825 L756 825 Z" /><glyph glyph-name="" unicode="&#x8d34;" d="M333 227 L351 185 L351 725 L166 725 L166 180 L187 227 L187 676 L333 676 L333 227 ZM684 314 L684 -43 L775 -43 Q798 -43 798 -15 L798 314 L684 314 ZM828 827 L828 658 L973 658 L973 582 L828 582 L828 390 L966 390 L966 -24 Q966 -64 944 -91 Q922 -119 890 -119 L515 -119 L515 390 L655 390 L655 827 L828 827 ZM32 802 L486 802 L486 140 L370 140 L486 -126 L320 -126 L260 25 L196 -126 L28 -126 L148 140 L32 140 L32 802 Z" /><glyph glyph-name="" unicode="&#x901a;" d="M733 228 L784 228 L784 315 L733 315 L733 228 ZM507 228 L559 228 L559 315 L507 315 L507 228 ZM733 485 L733 391 L784 391 L784 485 L733 485 ZM507 391 L559 391 L559 485 L507 485 L507 391 ZM264 822 L283 646 L84 646 L65 822 L264 822 ZM26 608 L306 608 L240 293 L308 293 L252 -43 L974 -43 L974 -119 L35 -119 L94 182 L31 182 L90 523 L26 523 L26 608 ZM577 676 L627 594 L705 718 L328 718 L328 794 L966 794 L809 561 L955 561 L955 94 Q955 54 927 27 Q899 -1 860 -1 L751 -1 L751 70 L756 70 Q784 70 784 98 L784 152 L733 152 L733 -1 L559 -1 L559 152 L507 152 L507 -1 L337 -1 L337 561 L449 561 L379 676 L577 676 Z" /><glyph glyph-name="" unicode="&#x7edf;" d="M26 -41 L372 -18 L372 -94 L26 -117 L26 -41 ZM371 825 L295 531 L381 531 L292 119 L368 119 L368 43 L38 43 L121 377 L33 377 L148 825 L371 825 ZM794 825 L794 713 L973 713 L973 637 L687 637 L630 373 L719 373 Q729 373 734 380 Q738 387 737 397 L715 536 L930 536 L961 366 Q967 340 949 319 Q933 297 905 297 L905 -47 L973 -47 L973 -123 L699 -123 L699 297 L653 297 L591 -123 L385 -123 L446 297 L395 297 L471 637 L385 637 L385 713 L563 713 L563 825 L794 825 Z" /><glyph glyph-name="" unicode="&#x75db;" d="M744 91 L794 91 L794 163 L744 163 L744 91 ZM534 91 L584 91 L584 163 L534 163 L534 91 ZM534 239 L584 239 L584 313 L534 313 L534 239 ZM744 313 L744 239 L794 239 L794 313 L744 313 ZM127 682 L150 362 L49 362 L26 682 L127 682 ZM26 -86 L49 312 L150 312 L127 -86 L26 -86 ZM974 648 L338 648 L338 -123 L165 -123 L165 724 L499 724 L499 822 L754 822 L754 724 L974 724 L974 648 ZM598 485 L651 393 L736 522 L369 522 L369 597 L974 597 L835 389 L957 389 L957 -56 Q957 -84 937 -103 Q918 -122 890 -122 L769 -122 L769 -51 L775 -51 Q794 -51 794 -32 L794 15 L744 15 L744 -122 L584 -122 L584 15 L534 15 L534 -122 L372 -122 L372 389 L464 389 L409 485 L598 485 Z" /><glyph glyph-name="" unicode="&#x56e2;" d="M471 68 L490 68 Q519 68 519 96 L519 493 L493 493 L434 2 L265 2 L324 493 L256 493 L256 569 L519 569 L519 673 L704 673 L704 569 L743 569 L743 493 L704 493 L704 96 Q704 57 676 30 Q648 2 609 2 L471 2 L471 68 ZM240 721 L240 -33 L737 -33 Q759 -33 759 -10 L759 721 L240 721 ZM46 791 L953 791 L953 -27 Q953 -58 931 -80 Q910 -102 878 -102 L46 -102 L46 791 Z" /><glyph glyph-name="" unicode="&#x63a8;" d="M604 194 L686 194 L686 341 L604 341 L604 194 ZM604 -29 L686 -29 L686 118 L604 118 L604 -29 ZM604 417 L686 417 L686 564 L604 564 L604 417 ZM869 820 L897 674 L702 674 L674 820 L869 820 ZM286 828 L286 642 L348 642 L348 565 L286 565 L286 285 L348 300 L348 224 L286 209 L286 -27 Q286 -67 253 -95 Q221 -123 175 -123 L33 -123 L33 -46 L53 -46 Q86 -46 86 -18 L86 162 L27 148 L27 225 L86 239 L86 565 L27 565 L27 642 L86 642 L86 828 L286 828 ZM642 825 L599 640 L973 640 L973 564 L880 564 L880 417 L968 417 L968 341 L880 341 L880 194 L968 194 L968 118 L880 118 L880 -29 L973 -29 L973 -105 L604 -105 L604 -123 L410 -123 L410 452 L351 452 L437 825 L642 825 Z" /><glyph glyph-name="" unicode="&#x5916;" d="M794 631 L948 631 L972 57 L818 57 L794 631 ZM572 825 L780 825 L780 -124 L572 -124 L572 825 ZM28 395 L115 825 L306 825 L269 644 L538 644 L416 -47 Q403 -123 321 -123 L57 -123 L57 -47 L181 -47 Q218 -47 225 -1 L238 69 L87 69 L43 325 L219 325 L251 134 L334 568 L254 568 L219 395 L28 395 Z" /><glyph glyph-name="" unicode="&#x2f79;&#x7f51;" d="M763 81 L763 608 L695 345 L763 81 ZM237 612 L237 78 L305 345 L237 612 ZM636 573 L663 678 L763 678 L763 732 L237 732 L237 678 L338 678 L364 575 L391 678 L609 678 L636 573 ZM500 47 L577 345 L500 643 L423 345 L500 47 ZM42 808 L958 808 L958 -4 Q958 -51 925 -84 Q891 -118 844 -118 L668 -118 L668 -42 L735 -42 Q763 -42 763 -13 L763 12 L663 12 L636 116 L609 12 L391 12 L364 115 L338 12 L237 12 L237 -118 L42 -118 L42 808 Z" /><glyph glyph-name="" unicode="&#x5fae;" d="M267 345 L622 345 L622 421 L267 421 L267 345 ZM267 781 L267 480 L566 480 Q625 480 625 546 L625 781 L526 781 L526 558 L504 558 L504 826 L389 826 L389 558 L367 558 L367 781 L267 781 ZM272 293 L272 -123 L416 -123 L416 236 L469 236 L469 -123 L640 -123 L640 -66 L613 -66 L613 293 L272 293 ZM72 -123 L72 308 L26 308 L73 555 L26 555 L84 828 L258 828 L212 609 L258 609 L216 390 L243 390 L243 -123 L72 -123 ZM974 708 L811 708 L829 826 L682 826 L633 500 L779 500 L799 631 L824 631 L824 425 L802 357 L794 380 L794 478 L651 478 L651 360 L730 136 L646 -122 L793 -122 L806 -80 L821 -122 L963 -122 L875 139 L958 401 L958 631 L974 631 L974 708 Z" /><glyph glyph-name="" unicode="&#x4e3a;" d="M243 804 L280 600 L83 600 L47 804 L243 804 ZM661 344 L702 71 L510 71 L470 344 L661 344 ZM289 561 L379 825 L616 825 L528 561 L964 561 L964 -27 Q964 -66 936 -94 Q908 -122 869 -122 L608 -122 L608 -46 L699 -46 Q727 -46 727 -18 L727 485 L503 485 L300 -124 L58 -124 L264 485 L35 485 L35 561 L289 561 Z" /><glyph glyph-name="" unicode="&#x7eac;" d="M26 -41 L341 -18 L341 -94 L26 -117 L26 -41 ZM340 827 L271 532 L351 532 L269 120 L339 120 L339 44 L36 44 L112 378 L33 378 L138 827 L340 827 ZM734 822 L734 734 L953 734 L953 658 L734 658 L734 516 L937 516 L937 440 L734 440 L734 299 L973 299 L973 19 Q973 -9 954 -28 Q934 -48 907 -48 L756 -48 L756 28 L777 28 Q795 28 795 47 L795 223 L734 223 L734 -122 L518 -122 L518 223 L375 223 L375 299 L518 299 L518 440 L391 440 L391 516 L518 516 L518 658 L375 658 L375 734 L518 734 L518 822 L734 822 Z" /><glyph glyph-name="" unicode="&#x2f42;&#x6587;" d="M619 820 L619 688 L973 688 L973 612 L891 612 L607 262 L951 -122 L706 -122 L490 119 L294 -122 L49 -122 L362 262 L97 558 L342 558 L479 405 L647 612 L26 612 L26 688 L381 688 L381 820 L619 820 Z" /><glyph glyph-name="" unicode="&#x95fb;" d="M473 145 L541 145 L541 229 L473 229 L473 145 ZM473 472 L541 472 L541 558 L473 558 L473 472 ZM473 305 L541 305 L541 396 L473 396 L473 305 ZM47 643 L33 819 L227 819 L242 643 L47 643 ZM47 -122 L47 582 L242 582 L242 -122 L47 -122 ZM735 -46 Q751 -46 762 -35 Q773 -24 773 -8 L773 707 L287 707 L287 783 L967 783 L967 -27 Q967 -66 939 -94 Q912 -122 872 -122 L718 -122 L718 -46 L735 -46 ZM541 -42 L541 69 L273 69 L273 145 L302 145 L302 558 L273 558 L273 634 L741 634 L741 558 L712 558 L712 145 L741 145 L741 69 L712 69 L712 -42 L541 -42 Z" /><glyph glyph-name="" unicode="&#x6211;" d="M953 804 L973 617 L813 617 L790 804 L953 804 ZM749 825 L790 536 L973 536 L973 460 L801 460 L816 350 L844 378 L970 378 L970 302 L939 302 L838 197 L873 -46 L973 -46 L973 -122 L641 -122 L627 -22 L565 -87 L394 -87 L606 132 L562 460 L367 460 L367 270 L473 289 L473 208 L367 189 L367 -30 Q367 -69 339 -97 Q311 -125 272 -125 L45 -125 L45 -49 L108 -49 Q136 -49 136 -21 L136 148 L27 129 L27 209 L136 228 L136 460 L27 460 L27 536 L136 536 L136 739 L36 739 L36 815 L456 815 L456 739 L367 739 L367 536 L552 536 L513 825 L749 825 Z" /><glyph glyph-name="" unicode="&#x63e1;" d="M758 631 Q772 631 782 640 Q792 648 792 660 L792 738 L516 738 L516 631 L758 631 ZM260 821 L260 636 L314 636 L314 560 L260 560 L260 284 L314 298 L314 222 L260 208 L260 -27 Q260 -66 230 -94 Q201 -122 160 -122 L32 -122 L32 -46 L50 -46 Q80 -46 80 -18 L80 161 L27 147 L27 223 L80 237 L80 560 L27 560 L27 636 L80 636 L80 821 L260 821 ZM543 507 L971 507 L971 430 L758 430 L721 283 L788 283 Q798 283 805 290 Q808 293 810 298 Q811 302 810 306 L798 379 L955 379 L972 272 Q977 248 956 227 Q936 207 905 207 L850 207 L850 126 L961 126 L961 49 L850 49 L850 -43 L971 -43 L971 -119 L543 -119 L543 -43 L676 -43 L676 49 L553 49 L553 126 L676 126 L676 207 L541 207 L597 430 L543 430 L543 507 ZM336 -123 L336 815 L972 815 L972 650 Q972 611 939 583 Q905 554 858 554 L516 554 L516 -123 L336 -123 Z" /><glyph glyph-name="" unicode="&#x6b66;" d="M831 599 L791 803 L932 803 L973 599 L831 599 ZM75 721 L489 721 L489 645 L75 645 L75 721 ZM26 -30 L59 -30 L59 355 L253 355 L253 -30 L293 -30 L293 417 L507 417 L507 265 L601 265 L601 189 L507 189 L507 -30 L608 -30 L608 -106 L26 -106 L26 -30 ZM26 556 L578 556 L527 822 L750 822 L802 556 L973 556 L973 480 L817 480 L920 -44 L973 -44 L973 -120 L707 -120 L592 480 L26 480 L26 556 Z" /><glyph glyph-name="" unicode="&#x7269;" d="M143 753 L134 580 L159 580 L159 827 L324 827 L324 580 L386 580 L386 504 L324 504 L324 218 L386 229 L386 151 L324 139 L324 -122 L159 -122 L159 109 L27 85 L27 164 L159 188 L159 504 L130 504 L122 332 L29 332 L50 753 L143 753 ZM819 501 L734 -122 L605 -122 L712 662 L688 662 L581 -122 L449 -122 L556 662 L534 662 L504 426 L397 426 L448 827 L556 827 L544 739 L963 739 L963 -28 Q963 -67 936 -95 Q909 -123 872 -123 L771 -123 L771 -47 L792 -47 Q819 -47 819 -19 L819 501 Z" /><glyph glyph-name="" unicode="&#x52a1;" d="M715 656 L715 684 L365 684 L345 652 L518 574 L715 656 ZM68 224 L233 224 L270 296 L489 296 L453 224 L924 224 L924 -26 Q924 -65 896 -93 Q868 -121 829 -121 L560 -121 L560 -47 L670 -47 Q699 -47 699 -19 L699 148 L416 148 L285 -121 L57 -121 L194 148 L68 148 L68 224 ZM28 492 L233 822 L455 822 L413 758 L924 758 L924 580 L701 490 L897 401 L972 401 L972 328 L702 328 L510 413 L299 328 L30 328 L30 401 L104 401 L328 494 L262 524 L241 492 L28 492 Z" /><glyph glyph-name="" unicode="&#x6790;" d="M447 571 L461 -123 L367 -123 L353 571 L447 571 ZM27 -123 L41 571 L136 571 L122 -123 L27 -123 ZM27 706 L148 706 L148 828 L340 828 L340 706 L461 706 L461 629 L340 629 L340 -123 L148 -123 L148 629 L27 629 L27 706 ZM944 725 L694 725 L694 556 L972 556 L972 479 L935 479 L935 -124 L745 -124 L745 479 L694 479 L694 -124 L489 -124 L489 802 L944 802 L944 725 Z" /><glyph glyph-name="" unicode="&#x6089;" d="M664 556 L705 695 L939 695 L898 556 L664 556 ZM102 556 L61 695 L295 695 L336 556 L102 556 ZM716 224 L738 -15 L547 -15 L524 224 L716 224 ZM939 200 L973 -103 L781 -103 L747 200 L939 200 ZM238 196 L216 -114 L27 -114 L49 196 L238 196 ZM494 210 L494 -51 L751 -51 L751 -123 L264 -123 L264 210 L494 210 ZM53 797 L947 797 L947 721 L619 721 L619 533 L973 533 L973 457 L884 457 L973 248 L743 248 L654 457 L619 457 L619 248 L381 248 L381 457 L345 457 L256 248 L26 248 L115 457 L27 457 L27 533 L381 533 L381 721 L53 721 L53 797 Z" /><glyph glyph-name="" unicode="&#x7cfb;" d="M79 175 L307 175 L258 -119 L31 -119 L79 175 ZM966 -119 L738 -119 L690 175 L917 175 L966 -119 ZM812 618 L509 305 L691 305 Q709 305 721 320 Q732 338 727 354 L696 450 L923 450 L952 348 Q964 304 934 266 Q905 229 860 229 L621 229 L621 -7 Q621 -54 587 -88 Q554 -121 507 -121 L319 -121 L319 -45 L354 -45 Q382 -45 382 -17 L382 229 L74 229 L361 486 L28 486 L273 740 L28 740 L28 816 L972 816 L972 740 L568 740 L401 562 L446 562 L509 618 L812 618 Z" /><glyph glyph-name="" unicode="&#x7ec6;" d="M794 305 L753 305 L753 -43 L769 -43 Q794 -43 794 -15 L794 305 ZM542 -43 L583 -43 L583 305 L542 305 L542 -43 ZM753 730 L753 381 L794 381 L794 730 L753 730 ZM542 381 L583 381 L583 730 L542 730 L542 381 ZM33 -41 L327 -18 L327 -94 L33 -117 L33 -41 ZM326 825 L261 531 L336 531 L259 119 L324 119 L324 43 L43 43 L114 377 L38 377 L137 825 L326 825 ZM966 -24 Q966 -63 942 -91 Q917 -119 884 -119 L370 -119 L370 806 L966 806 L966 -24 Z" /><glyph glyph-name="" unicode="&#x4e0b;" d="M867 546 L960 22 L738 22 L645 546 L867 546 ZM26 795 L974 795 L974 719 L582 719 L582 -124 L344 -124 L344 719 L26 719 L26 795 Z" /><glyph glyph-name="" unicode="&#x5148;" d="M642 824 L642 667 L914 667 L914 591 L642 591 L642 359 L968 359 L968 283 L830 283 L830 -43 L965 -43 L965 -118 L593 -118 L593 283 L447 283 L307 -123 L66 -123 L205 283 L31 283 L31 359 L405 359 L405 591 L279 591 L250 422 L38 422 L101 786 L313 786 L292 667 L405 667 L405 824 L642 824 Z" /><glyph glyph-name="" unicode="&#x9c9c;" d="M352 236 L316 236 L316 88 L323 88 Q352 88 352 115 L352 236 ZM316 460 L316 312 L352 312 L352 460 L316 460 ZM156 312 L192 312 L192 460 L156 460 L156 312 ZM156 88 L192 88 L192 236 L156 236 L156 88 ZM27 -40 L478 -12 L478 -88 L27 -116 L27 -40 ZM507 676 L550 676 L528 825 L692 825 L715 676 L766 676 L791 825 L956 825 L932 676 L975 676 L975 600 L842 600 L842 401 L965 401 L965 325 L842 325 L842 129 L975 129 L975 53 L842 53 L842 -124 L641 -124 L641 53 L507 53 L507 129 L641 129 L641 325 L517 325 L517 401 L641 401 L641 600 L507 600 L507 676 ZM27 563 L82 825 L245 825 L234 773 L476 773 L426 536 L476 536 L476 106 Q476 67 448 40 Q421 12 381 12 L32 12 L32 536 L267 536 L301 697 L217 697 L189 563 L27 563 Z" /><glyph glyph-name="" unicode="&#x73b0;" d="M34 790 L322 790 L322 718 L273 718 L273 371 L318 371 L318 299 L273 299 L273 -37 L330 -37 L330 -109 L26 -109 L26 -37 L83 -37 L83 299 L38 299 L38 371 L83 371 L83 718 L34 718 L34 790 ZM839 250 L839 -47 L974 -47 L974 -124 L661 -124 L661 43 L574 -124 L365 -124 L578 257 L578 660 L767 660 L767 279 L813 279 L813 732 L534 732 L534 250 L381 250 L381 809 L966 809 L966 250 L839 250 Z" /><glyph glyph-name="" unicode="&#x7ebf;" d="M799 671 L768 808 L941 808 L973 671 L799 671 ZM26 -41 L364 -18 L364 -94 L26 -117 L26 -41 ZM363 827 L289 532 L374 532 L286 120 L361 120 L361 44 L37 44 L118 378 L33 378 L146 827 L363 827 ZM424 545 L540 565 L481 825 L711 825 L762 603 L973 640 L973 559 L780 525 L811 391 L973 420 L973 339 L829 314 L857 192 L973 253 L973 158 L877 108 L913 -47 L973 -47 L973 -123 L697 -123 L669 -1 L444 -119 L444 -24 L649 83 L606 275 L424 243 L424 323 L588 352 L558 487 L424 464 L424 545 Z" /><glyph glyph-name="" unicode="&#x76f8;" d="M686 241 L774 241 L774 444 L686 444 L686 241 ZM774 165 L686 165 L686 -45 L747 -45 Q774 -45 774 -17 L774 165 ZM686 520 L774 520 L774 731 L686 731 L686 520 ZM447 589 L461 -121 L366 -121 L352 589 L447 589 ZM27 -121 L41 589 L136 589 L122 -121 L27 -121 ZM27 703 L148 703 L148 825 L339 825 L339 703 L461 703 L461 627 L339 627 L339 -121 L148 -121 L148 627 L27 627 L27 703 ZM488 -121 L488 806 L971 806 L971 -26 Q971 -65 945 -93 Q919 -121 882 -121 L488 -121 Z" /><glyph glyph-name="" unicode="&#x60f3;" d="M499 242 L499 793 L965 793 L965 336 Q965 297 937 270 Q909 242 870 242 L499 242 ZM27 740 L151 740 L151 823 L350 823 L350 740 L475 740 L475 664 L350 664 L350 242 L151 242 L151 664 L27 664 L27 740 ZM489 200 L489 -51 L757 -51 L757 -122 L259 -122 L259 200 L489 200 ZM238 189 L216 -111 L27 -111 L49 189 L238 189 ZM943 181 L973 -115 L785 -115 L755 181 L943 181 ZM722 213 L741 -13 L534 -13 L515 213 L722 213 ZM465 628 L475 242 L378 242 L368 628 L465 628 ZM133 628 L123 242 L27 242 L37 628 L133 628 ZM680 717 L680 631 L785 631 L785 717 L680 717 ZM756 317 Q785 317 785 345 L785 403 L680 403 L680 317 L756 317 ZM680 479 L785 479 L785 555 L680 555 L680 479 Z" /><glyph glyph-name="" unicode="&#x9879;" d="M790 482 L790 196 L817 146 L817 557 L582 557 L582 154 L606 196 L606 482 L790 482 ZM34 794 L394 794 L394 717 L323 717 L323 4 L394 15 L394 -62 L25 -120 L25 -43 L104 -30 L104 717 L34 717 L34 794 ZM431 815 L975 815 L975 739 L837 739 L812 630 L964 630 L964 116 L833 116 L964 -122 L758 -122 L699 -6 L632 -122 L423 -122 L560 116 L440 116 L440 630 L572 630 L597 739 L431 739 L431 815 Z" /><glyph glyph-name="" unicode="&#x50cf;" d="M791 545 L756 545 L756 416 L758 416 Q791 416 791 444 L791 545 ZM541 416 L577 416 L577 545 L541 545 L541 416 ZM935 165 L973 -97 L838 -97 L800 165 L838 295 L973 295 L935 165 ZM325 827 L277 589 L310 589 L310 -121 L102 -121 L102 381 L27 381 L116 827 L325 827 ZM362 248 L544 340 L362 340 L362 622 L684 622 L714 700 L609 700 L585 640 L362 640 L438 827 L661 827 L640 776 L960 776 L898 622 L971 622 L971 435 Q971 395 939 368 Q907 340 862 340 L731 340 L659 304 L789 304 L789 -30 Q789 -69 757 -96 Q725 -124 680 -124 L528 -124 L528 -54 L545 -54 Q558 -54 568 -45 Q578 -36 578 -25 L578 -16 L362 -124 L362 -31 L578 78 L578 123 L362 15 L362 108 L578 217 L578 238 L527 238 L362 155 L362 248 Z" /><glyph glyph-name="" unicode="&#x6821;" d="M691 636 L629 396 L453 396 L514 636 L691 636 ZM911 636 L973 396 L795 396 L735 636 L911 636 ZM823 828 L823 746 L973 746 L973 669 L453 669 L453 746 L603 746 L603 828 L823 828 ZM429 571 L442 -123 L352 -123 L338 571 L429 571 ZM26 -123 L39 571 L130 571 L117 -123 L26 -123 ZM959 355 L814 127 L973 -124 L772 -124 L713 -31 L654 -124 L453 -124 L612 127 L467 355 L670 355 L713 287 L756 355 L959 355 ZM26 706 L142 706 L142 828 L326 828 L326 706 L442 706 L442 629 L326 629 L326 -123 L142 -123 L142 629 L26 629 L26 706 Z" /><glyph glyph-name="" unicode="&#x8096;" d="M304 449 L304 342 L696 342 L696 449 L304 449 ZM304 138 L696 138 L696 266 L304 266 L304 138 ZM944 808 L900 561 L675 561 L718 808 L944 808 ZM282 808 L325 561 L99 561 L56 808 L282 808 ZM619 821 L619 524 L932 524 L932 -26 Q932 -65 904 -93 Q876 -121 837 -121 L587 -121 L587 -45 L667 -45 Q696 -45 696 -17 L696 62 L304 62 L304 -121 L67 -121 L67 524 L381 524 L381 821 L619 821 Z" /><glyph glyph-name="" unicode="&#x6548;" d="M260 636 L199 396 L25 396 L85 636 L260 636 ZM476 636 L537 396 L362 396 L302 636 L476 636 ZM390 828 L390 746 L537 746 L537 669 L25 669 L25 746 L172 746 L172 828 L390 828 ZM523 355 L381 127 L534 -119 L660 143 L561 361 L561 476 L739 476 L739 395 L759 350 L781 395 L781 627 L740 627 L724 503 L550 503 L592 828 L766 828 L750 703 L973 703 L973 637 L957 637 L957 360 L853 143 L974 -125 L782 -125 L754 -64 L725 -125 L532 -125 L533 -123 L338 -123 L281 -32 L224 -123 L25 -123 L181 127 L38 355 L239 355 L281 287 L323 355 L523 355 Z" /><glyph glyph-name="" unicode="&#x534f;" d="M370 11 L388 553 L473 553 L455 11 L370 11 ZM890 11 L875 553 L961 553 L975 11 L890 11 ZM28 637 L115 637 L115 827 L297 827 L297 637 L383 637 L383 561 L297 561 L297 -124 L115 -124 L115 561 L28 561 L28 637 ZM410 718 L499 718 L503 827 L671 827 L667 718 L864 718 L864 -30 Q864 -69 837 -97 Q809 -125 770 -125 L655 -125 L655 -49 L668 -49 Q696 -49 696 -20 L696 641 L664 641 L638 -125 L470 -125 L496 641 L410 641 L410 718 Z" /><glyph glyph-name="" unicode="&#x5199;" d="M27 115 L671 115 L671 39 L27 39 L27 115 ZM268 721 L268 596 L32 596 L32 797 L972 797 L972 587 L736 587 L736 721 L268 721 ZM302 567 L302 480 L953 480 L953 404 L302 404 L302 284 L953 284 L953 -29 Q953 -68 925 -96 Q897 -124 858 -124 L505 -124 L505 -48 L688 -48 Q699 -48 708 -39 Q717 -30 717 -19 L717 208 L55 208 L55 567 L302 567 Z" /><glyph glyph-name="" unicode="&#x65b0;" d="M50 193 L165 193 L144 -118 L29 -118 L50 193 ZM516 -118 L400 -118 L379 193 L495 193 L516 -118 ZM35 752 L175 752 L175 826 L364 826 L364 752 L503 752 L503 676 L35 676 L35 752 ZM55 639 L212 639 L238 503 L301 503 L327 639 L484 639 L458 503 L513 503 L513 428 L366 428 L366 324 L498 324 L498 249 L366 249 L366 -11 Q366 -58 333 -91 Q299 -124 252 -124 L155 -124 L155 -69 L160 -69 Q188 -69 188 -41 L188 249 L40 249 L40 324 L188 324 L188 428 L26 428 L26 503 L81 503 L55 639 ZM948 723 L727 723 L727 553 L973 553 L973 477 L940 477 L940 -124 L773 -124 L773 477 L727 477 L727 -124 L547 -124 L547 799 L948 799 L948 723 Z" /><glyph glyph-name="" unicode="&#x2f3c;&#x5fc3;" d="M60 648 L30 -86 L210 -86 L241 648 L60 648 ZM706 825 L738 119 L549 119 L516 825 L706 825 ZM931 672 L969 -77 L783 -77 L744 672 L931 672 ZM493 733 L263 733 L263 -119 L756 -119 L756 -44 L493 -44 L493 733 Z" /><glyph glyph-name="" unicode="&#x661f;" d="M641 413 L641 319 L942 319 L942 243 L641 243 L641 140 L911 140 L911 64 L641 64 L641 -39 L973 -39 L973 -114 L66 -114 L66 -39 L398 -39 L398 64 L128 64 L128 140 L398 140 L398 243 L273 243 L251 176 L26 176 L95 385 L320 385 L298 319 L398 319 L398 413 L105 413 L105 790 L933 790 L933 508 Q933 469 906 441 Q878 413 840 413 L641 413 ZM340 639 L695 639 L695 714 L340 714 L340 639 ZM666 489 Q695 489 695 518 L695 564 L340 564 L340 489 L666 489 Z" /><glyph glyph-name="" unicode="&#x5174;" d="M26 400 L974 400 L974 324 L26 324 L26 400 ZM269 795 L317 477 L94 477 L47 795 L269 795 ZM577 795 L620 477 L397 477 L355 795 L577 795 ZM955 795 L891 477 L669 477 L733 795 L955 795 ZM390 256 L275 -125 L37 -125 L153 256 L390 256 ZM852 256 L968 -125 L731 -125 L615 256 L852 256 Z" /><glyph glyph-name="" unicode="&#x578b;" d="M256 538 L311 538 L311 729 L266 729 L256 538 ZM748 783 L748 380 L585 380 L585 783 L748 783 ZM694 341 L757 341 Q780 341 780 364 L780 823 L964 823 L964 346 Q964 315 942 293 Q920 271 889 271 L694 271 L694 341 ZM622 249 L622 169 L932 169 L932 93 L622 93 L622 -35 L970 -35 L970 -111 L31 -111 L31 -35 L379 -35 L379 93 L70 93 L70 169 L379 169 L379 249 L622 249 ZM35 805 L545 805 L545 729 L496 729 L496 538 L550 538 L550 462 L496 462 L496 271 L311 271 L311 462 L252 462 L243 271 L57 271 L67 462 L29 462 L29 538 L71 538 L81 729 L35 729 L35 805 Z" /><glyph glyph-name="" unicode="&#x2f8f;&#x884c;" d="M401 732 L937 732 L937 808 L401 808 L401 732 ZM366 418 L630 418 L630 -20 Q630 -48 602 -48 L522 -48 L522 -124 L762 -124 Q801 -124 829 -96 Q857 -68 857 -29 L857 418 L973 418 L973 493 L366 493 L366 418 ZM86 -123 L86 306 L26 306 L87 552 L26 552 L101 824 L323 824 L265 606 L323 606 L270 388 L304 388 L304 -123 L86 -123 Z" /><glyph glyph-name="" unicode="&#x6027;" d="M106 642 L106 60 L28 60 L28 642 L106 642 ZM413 642 L413 60 L335 60 L335 642 L413 642 ZM313 824 L313 -123 L128 -123 L128 824 L313 824 ZM444 417 L471 776 L622 776 L610 627 L645 627 L645 825 L849 825 L849 627 L971 627 L971 551 L849 551 L849 287 L965 287 L965 211 L849 211 L849 -42 L971 -42 L971 -118 L452 -118 L452 -42 L645 -42 L645 211 L471 211 L471 287 L645 287 L645 551 L605 551 L595 417 L444 417 Z" /><glyph glyph-name="" unicode="&#x79c0;" d="M29 -119 L172 213 L29 213 L29 289 L917 289 L867 166 L965 166 L965 -24 Q965 -64 937 -91 Q910 -119 870 -119 L594 -119 L594 -43 L698 -43 Q726 -43 726 -15 L726 90 L583 90 L633 213 L410 213 L266 -119 L29 -119 ZM64 817 L936 817 L936 741 L619 741 L619 660 L972 660 L972 584 L919 584 L972 320 L735 320 L682 584 L619 584 L619 320 L381 320 L381 584 L317 584 L265 320 L28 320 L80 584 L28 584 L28 660 L381 660 L381 741 L64 741 L64 817 Z" /><glyph glyph-name="" unicode="&#x9700;" d="M368 463 L386 382 L253 382 L235 463 L368 463 ZM368 574 L386 493 L253 493 L235 574 L368 574 ZM744 463 L762 382 L629 382 L611 463 L744 463 ZM744 575 L762 493 L629 493 L611 575 L744 575 ZM53 812 L947 812 L947 736 L604 736 L604 689 L966 689 L966 382 L776 382 L776 613 L604 613 L604 382 L395 382 L395 613 L224 613 L224 382 L34 382 L34 689 L395 689 L395 736 L53 736 L53 812 ZM713 131 L713 -124 L523 -124 L523 131 L476 131 L476 -124 L287 -124 L287 131 L234 131 L234 -124 L39 -124 L39 206 L339 206 L363 268 L29 268 L29 343 L970 343 L970 268 L596 268 L571 206 L961 206 L961 -29 Q961 -69 933 -96 Q905 -124 866 -124 L726 -124 L726 -48 L737 -48 Q766 -48 766 -20 L766 131 L713 131 Z" /><glyph glyph-name="" unicode="&#x5e8f;" d="M670 823 L670 734 L965 734 L965 659 L272 659 L272 -121 L34 -121 L34 734 L433 734 L433 823 L670 823 ZM562 450 L600 366 L670 511 L309 511 L309 587 L942 587 L811 313 L965 313 L965 70 L768 70 L768 237 L705 237 L705 -26 Q705 -65 678 -93 Q650 -121 611 -121 L377 -121 L377 -45 L432 -45 Q447 -45 459 -34 Q470 -23 470 -7 L470 237 L301 237 L301 313 L397 313 L334 450 L562 450 Z" /><glyph glyph-name="" unicode="&#x5ba3;" d="M66 11 L66 415 L934 415 L934 106 Q934 67 906 39 Q878 11 839 11 L66 11 ZM31 750 L381 750 L381 822 L619 822 L619 750 L968 750 L968 572 L736 572 L736 674 L263 674 L263 572 L31 572 L31 750 ZM26 -33 L973 -33 L973 -109 L26 -109 L26 -33 ZM55 535 L945 535 L945 459 L55 459 L55 535 ZM668 87 Q684 87 695 98 Q706 109 706 125 L706 176 L294 176 L294 87 L668 87 ZM294 339 L294 251 L706 251 L706 339 L294 339 Z" /><glyph glyph-name="" unicode="&#x5b66;" d="M581 821 L614 681 L685 681 L720 821 L937 821 L902 681 L970 681 L970 473 L756 473 L756 605 L243 605 L243 473 L29 473 L29 681 L85 681 L51 821 L267 821 L302 681 L398 681 L364 821 L581 821 ZM130 443 L848 443 L651 208 L970 208 L970 132 L619 132 L619 -28 Q619 -67 591 -95 Q563 -123 524 -123 L255 -123 L255 -47 L366 -47 Q395 -47 395 -19 L395 132 L29 132 L29 208 L399 208 L537 367 L130 367 L130 443 Z" /><glyph glyph-name="" unicode="&#x7814;" d="M696 417 L744 417 L744 735 L696 735 L696 417 ZM285 439 L241 439 L241 -48 L264 -48 Q285 -48 285 -20 L285 439 ZM29 794 L444 794 L444 718 L275 718 L240 515 L429 515 L429 -29 Q429 -69 408 -96 Q386 -124 356 -124 L97 -124 L97 213 L29 213 L113 718 L29 718 L29 794 ZM465 811 L971 811 L971 735 L938 735 L938 417 L974 417 L974 341 L938 341 L938 -112 L744 -112 L744 341 L691 341 L653 -112 L460 -112 L498 341 L461 341 L461 417 L503 417 L503 735 L465 735 L465 811 Z" /><glyph glyph-name="" unicode="&#x2f94;&#x8a00;" d="M56 400 L944 400 L944 324 L56 324 L56 400 ZM56 571 L944 571 L944 495 L56 495 L56 571 ZM713 165 L287 165 L287 -39 L684 -39 Q713 -39 713 -11 L713 165 ZM25 743 L381 743 L381 825 L619 825 L619 743 L974 743 L974 667 L25 667 L25 743 ZM59 241 L941 241 L941 -20 Q941 -60 913 -87 Q885 -115 846 -115 L59 -115 L59 241 Z" /><glyph glyph-name="" unicode="&#x9a8c;" d="M27 88 L242 88 L242 165 L27 165 L27 88 ZM491 330 L944 330 L944 405 L491 405 L491 330 ZM476 279 L495 -4 L625 -4 L606 279 L476 279 ZM642 279 L661 -4 L791 -4 L772 279 L642 279 ZM958 279 L940 -4 L809 -4 L828 279 L958 279 ZM461 -114 L974 -114 L974 -40 L461 -40 L461 -114 ZM591 810 L843 810 L975 442 L800 442 L717 669 L634 442 L460 442 L591 810 ZM27 734 L245 734 L245 365 L187 365 L187 659 L35 659 L35 287 L277 287 L277 -16 Q277 -44 250 -44 L147 -44 L147 -121 L345 -121 Q383 -121 410 -93 Q436 -66 436 -26 L436 365 L406 365 L406 810 L27 810 L27 734 Z" /><glyph glyph-name="" unicode="&#x8981;" d="M479 667 L520 667 L520 722 L479 722 L479 667 ZM743 591 L703 591 L703 429 L715 429 Q743 429 743 458 L743 591 ZM479 429 L520 429 L520 591 L479 591 L479 429 ZM256 429 L297 429 L297 591 L256 591 L256 429 ZM499 115 L656 178 L656 219 L343 219 L343 178 L499 115 ZM25 295 L116 295 L116 335 L343 335 L343 295 L974 295 L974 219 L884 219 L884 88 L726 25 L914 -49 L974 -49 L974 -125 L652 -125 L500 -64 L348 -125 L25 -125 L25 -49 L86 -49 L273 25 L116 88 L116 219 L25 219 L25 295 ZM25 798 L974 798 L974 722 L703 722 L703 667 L943 667 L943 448 Q943 409 915 381 Q887 353 848 353 L57 353 L57 667 L297 667 L297 722 L25 722 L25 798 Z" /><glyph glyph-name="" unicode="&#x9875;" d="M621 207 L712 121 L712 539 L288 539 L288 122 L379 207 L379 479 L621 479 L621 207 ZM25 805 L974 805 L974 729 L623 729 L594 615 L944 615 L944 111 L723 111 L974 -125 L652 -125 L500 14 L348 -125 L25 -125 L276 111 L55 111 L55 615 L356 615 L385 729 L25 729 L25 805 Z" /><glyph glyph-name="" unicode="&#x4e1a;" d="M58 55 L31 740 L194 740 L221 55 L58 55 ZM969 740 L942 55 L778 55 L806 740 L969 740 ZM747 825 L747 -32 L974 -32 L974 -108 L26 -108 L26 -32 L253 -32 L253 825 L472 825 L472 -32 L528 -32 L528 825 L747 825 Z" /><glyph glyph-name="" unicode="&#x2f00;&#x4e00;" d="M27 399 L973 399 L973 323 L27 323 L27 399 Z" /><glyph glyph-name="" unicode="&#x4f9d;" d="M973 -34 L780 -34 L696 566 L889 566 L906 443 L972 495 L972 382 L920 341 L973 -34 ZM349 829 L297 591 L333 591 L333 -121 L107 -121 L107 382 L26 382 L123 829 L349 829 ZM389 716 L561 716 L561 829 L802 829 L802 716 L972 716 L972 639 L691 639 L632 375 L681 375 L681 -49 L764 -49 L764 -124 L470 -124 L470 93 L365 93 L484 639 L389 639 L389 716 Z" /><glyph glyph-name="" unicode="&#x4ee5;" d="M456 731 L482 216 L321 216 L296 731 L456 731 ZM262 824 L262 -44 L418 -44 L418 -120 L39 -120 L39 824 L262 824 ZM800 824 L753 496 L881 496 L961 -120 L763 -120 L716 234 L666 -120 L464 -120 L597 824 L800 824 Z" /><glyph glyph-name="" unicode="&#x610f;" d="M306 352 L697 352 L697 402 L306 402 L306 352 ZM697 281 L306 281 L306 229 L668 229 Q697 229 697 258 L697 281 ZM719 135 L738 -32 L543 -32 L524 135 L719 135 ZM949 110 L972 -112 L776 -112 L755 110 L949 110 ZM242 117 L220 -112 L27 -112 L49 117 L242 117 ZM493 123 L493 -55 L758 -55 L758 -122 L260 -122 L260 123 L493 123 ZM54 766 L381 766 L381 822 L619 822 L619 766 L946 766 L946 690 L54 690 L54 766 ZM358 667 L386 586 L614 586 L642 667 L878 667 L850 586 L972 586 L972 510 L27 510 L27 586 L150 586 L122 667 L358 667 ZM930 473 L930 253 Q930 214 902 186 Q875 158 835 158 L70 158 L70 473 L930 473 Z" /><glyph glyph-name="" unicode="&#x5e94;" d="M278 -42 L966 -42 L966 -117 L278 -117 L278 -42 ZM738 8 L767 576 L939 576 L910 8 L738 8 ZM468 576 L496 8 L324 8 L296 576 L468 576 ZM689 576 L718 8 L545 8 L517 576 L689 576 ZM253 656 L253 -121 L33 -121 L33 731 L463 731 L463 822 L699 822 L699 731 L966 731 L966 656 L253 656 Z" /><glyph glyph-name="" unicode="&#x8425;" d="M644 351 L355 351 L355 249 L617 249 Q644 249 644 278 L644 351 ZM692 63 L307 63 L307 -43 L663 -43 Q692 -43 692 -15 L692 63 ZM961 591 L961 449 L723 449 L723 515 L277 515 L277 449 L39 449 L39 591 L961 591 ZM27 760 L149 760 L149 823 L386 823 L386 760 L613 760 L613 823 L851 823 L851 760 L973 760 L973 684 L851 684 L851 620 L613 620 L613 684 L386 684 L386 620 L149 620 L149 684 L27 684 L27 760 ZM117 173 L117 427 L882 427 L882 268 Q882 229 854 201 Q826 173 787 173 L117 173 ZM71 -119 L71 139 L929 139 L929 -24 Q929 -63 901 -91 Q874 -119 834 -119 L71 -119 Z" /><glyph glyph-name="" unicode="&#x5f71;" d="M204 696 L428 696 L428 744 L204 744 L204 696 ZM428 629 L204 629 L204 580 L399 580 Q428 580 428 608 L428 629 ZM418 264 L213 264 L213 199 L390 199 Q418 199 418 227 L418 264 ZM25 -110 L53 92 L192 92 L165 -110 L25 -110 ZM468 -110 L439 92 L579 92 L607 -110 L468 -110 ZM25 438 L208 438 L208 486 L424 486 L424 438 L607 438 L607 372 L25 372 L25 438 ZM777 820 L974 820 L869 586 Q843 533 788 533 L633 533 L633 608 L665 608 Q682 608 689 624 L777 820 ZM777 166 L974 166 L869 -68 Q843 -121 788 -121 L633 -121 L633 -45 L665 -45 Q683 -45 689 -29 L777 166 ZM777 501 L974 501 L869 267 Q843 214 788 214 L633 214 L633 290 L665 290 Q683 290 689 306 L777 501 ZM424 129 L424 -29 Q424 -69 396 -96 Q368 -124 328 -124 L182 -124 L182 -54 L194 -54 Q223 -54 223 -25 L223 129 L36 129 L36 335 L595 335 L595 224 Q595 184 567 157 Q539 129 499 129 L424 129 ZM36 509 L36 814 L595 814 L595 604 Q595 565 567 537 Q539 509 499 509 L36 509 Z" /><glyph glyph-name="" unicode="&#x62e5;" d="M512 540 L567 540 L567 743 L512 743 L512 540 ZM743 743 L743 540 L798 540 L798 743 L743 743 ZM512 233 L567 233 L567 464 L512 464 L512 233 ZM743 233 L798 233 L798 464 L743 464 L743 233 ZM261 828 L261 642 L315 642 L315 565 L261 565 L261 285 L315 300 L315 224 L261 209 L261 -27 Q261 -67 232 -95 Q203 -123 162 -123 L34 -123 L34 -46 L53 -46 Q82 -46 82 -18 L82 162 L30 148 L30 225 L82 238 L82 565 L30 565 L30 642 L82 642 L82 828 L261 828 ZM798 157 L743 157 L743 -124 L567 -124 L567 157 L512 157 L512 -124 L342 -124 L342 815 L969 815 L969 -28 Q969 -67 941 -95 Q913 -124 874 -124 L762 -124 L762 -52 L770 -52 Q798 -52 798 -23 L798 157 Z" /><glyph glyph-name="" unicode="&#x2f64;&#x7528;" d="M614 209 L706 209 L706 415 L614 415 L614 209 ZM294 209 L386 209 L386 415 L294 415 L294 209 ZM614 706 L614 491 L706 491 L706 706 L614 706 ZM294 491 L386 491 L386 706 L294 706 L294 491 ZM386 -122 L386 133 L294 133 L294 -122 L65 -122 L65 782 L934 782 L934 -27 Q934 -67 906 -94 Q878 -122 839 -122 L660 -122 L660 -46 L678 -46 Q706 -46 706 -19 L706 133 L614 133 L614 -122 L386 -122 Z" /><glyph glyph-name="" unicode="&#x4f18;" d="M810 632 L780 806 L936 806 L967 632 L810 632 ZM358 825 L305 588 L341 588 L341 -122 L110 -122 L110 380 L26 380 L126 825 L358 825 ZM745 825 L745 598 L974 598 L974 522 L896 522 L896 -48 L973 -48 L973 -124 L687 -124 L687 380 L577 -124 L358 -124 L503 522 L374 522 L374 598 L511 598 L511 825 L745 825 Z" /><glyph glyph-name="" unicode="&#x6709;" d="M398 130 L677 130 L677 232 L398 232 L398 130 ZM398 308 L677 308 L677 413 L398 413 L398 308 ZM508 822 L458 688 L973 688 L973 612 L429 612 L383 489 L915 489 L915 -30 Q915 -69 888 -97 Q860 -125 822 -125 L607 -125 L607 -49 L648 -49 Q677 -49 677 -21 L677 54 L398 54 L398 -125 L163 -125 L163 179 L26 179 L187 612 L26 612 L26 688 L215 688 L265 822 L508 822 Z" /><glyph glyph-name="" unicode="&#x53f3;" d="M676 332 L407 332 L407 -32 L647 -32 Q658 -32 667 -24 Q676 -15 676 -4 L676 332 ZM26 664 L260 664 L330 823 L569 823 L499 664 L973 664 L973 588 L465 588 L386 408 L912 408 L912 6 Q912 -41 879 -75 Q845 -108 798 -108 L170 -108 L170 135 L27 135 L226 588 L26 588 L26 664 Z" /><glyph glyph-name="" unicode="&#x4e8e;" d="M43 799 L957 799 L957 723 L619 723 L619 414 L974 414 L974 338 L619 338 L619 -30 Q619 -69 591 -97 Q563 -125 524 -125 L204 -125 L204 -49 L353 -49 Q381 -49 381 -20 L381 338 L26 338 L26 414 L381 414 L381 723 L43 723 L43 799 Z" /><glyph glyph-name="" unicode="&#x4e0e;" d="M26 181 L631 181 L631 105 L26 105 L26 181 ZM334 824 L334 679 L973 679 L973 603 L334 603 L334 403 L956 403 L956 -24 Q956 -63 928 -91 Q900 -119 861 -119 L512 -119 L512 -43 L691 -43 Q719 -43 719 -15 L719 327 L96 327 L96 824 L334 824 Z" /><glyph glyph-name="" unicode="&#x8bed;" d="M636 560 L605 380 L747 380 L747 560 L636 560 ZM277 822 L277 626 L72 626 L72 822 L277 822 ZM763 185 L559 185 L559 -41 L734 -41 Q763 -41 763 -13 L763 185 ZM26 578 L277 578 L277 -47 L312 -47 L312 -123 L72 -123 L72 502 L26 502 L26 578 ZM358 261 L961 261 L961 -3 Q961 -50 926 -83 Q892 -116 843 -116 L358 -116 L358 261 ZM969 737 L666 737 L649 636 L952 636 L952 380 L974 380 L974 305 L344 305 L344 380 L400 380 L431 560 L345 560 L345 636 L444 636 L461 737 L338 737 L338 813 L969 813 L969 737 Z" /><glyph glyph-name="" unicode="&#x5143;" d="M67 777 L932 777 L932 701 L67 701 L67 777 ZM25 475 L974 475 L974 399 L810 399 L810 -45 L969 -45 L969 -121 L572 -121 L572 399 L411 399 L280 -125 L43 -125 L173 399 L25 399 L25 475 Z" /><glyph glyph-name="" unicode="&#x539f;" d="M503 450 L749 450 L749 545 L503 545 L503 450 ZM749 382 L503 382 L503 286 L723 286 Q749 286 749 311 L749 382 ZM924 164 L954 -120 L793 -120 L762 164 L924 164 ZM489 164 L449 -120 L282 -120 L322 164 L489 164 ZM37 798 L963 798 L963 722 L257 722 L257 -125 L37 -125 L37 798 ZM300 612 L454 612 L488 700 L700 700 L667 612 L951 612 L951 320 Q951 278 922 249 Q893 219 851 219 L730 219 L730 -11 Q730 -58 697 -91 Q663 -125 616 -125 L473 -125 L473 -49 L502 -49 Q530 -49 530 -20 L530 219 L300 219 L300 612 Z" /><glyph glyph-name="" unicode="&#x56ed;" d="M275 624 L723 624 L723 548 L275 548 L275 624 ZM235 441 L764 441 L764 365 L703 365 L703 88 L764 88 L764 14 L530 14 L530 365 L481 365 L428 14 L250 14 L303 365 L235 365 L235 441 ZM213 722 L213 -38 L766 -38 Q785 -38 785 -19 L785 722 L213 722 ZM38 791 L961 791 L961 -33 Q961 -61 942 -83 Q922 -107 896 -107 L38 -107 L38 791 Z" /><glyph glyph-name="" unicode="&#x5458;" d="M669 730 L330 730 L330 574 L641 574 Q669 574 669 602 L669 730 ZM59 449 L939 449 L939 98 L721 98 L721 373 L278 373 L278 98 L59 98 L59 449 ZM624 331 L624 147 L928 -52 L970 -52 L970 -120 L644 -120 L499 -16 L354 -120 L29 -120 L29 -52 L70 -52 L374 147 L374 331 L624 331 ZM92 806 L906 806 L906 612 Q906 565 873 531 Q839 498 792 498 L92 498 L92 806 Z" /><glyph glyph-name="" unicode="&#x733f;" d="M587 423 L587 311 L746 311 Q773 311 773 340 L773 423 L587 423 ZM412 763 L570 763 L570 825 L791 825 L791 763 L948 763 L948 687 L791 687 L791 616 L973 616 L973 539 L389 539 L389 616 L570 616 L570 687 L412 687 L412 763 ZM26 173 L160 277 L160 458 L142 506 L26 415 L26 519 L113 587 L26 825 L229 825 L275 713 L368 786 L368 683 L307 635 L349 533 L349 -25 Q349 -65 320 -92 Q292 -120 251 -120 L88 -120 L88 -43 L130 -43 Q160 -43 160 -15 L160 173 L26 69 L26 173 ZM916 83 L973 -98 L789 -98 L679 235 L661 235 L620 129 L671 129 L671 -45 L715 -45 L715 -120 L495 -120 L495 -8 L389 -8 L483 235 L409 235 L409 499 L952 499 L952 330 Q952 293 927 265 Q903 238 868 235 L884 185 L973 210 L973 99 L916 83 Z" /><glyph glyph-name="" unicode="&#x6e90;" d="M797 404 L679 404 L679 307 L766 307 Q797 307 797 336 L797 404 ZM679 480 L797 480 L797 576 L679 576 L679 480 ZM482 -100 L506 192 L619 192 L595 -100 L482 -100 ZM858 -100 L840 192 L953 192 L972 -100 L858 -100 ZM221 819 L266 613 L74 613 L30 819 L221 819 ZM221 572 L268 365 L76 365 L30 572 L221 572 ZM268 319 L221 -123 L30 -123 L76 319 L268 319 ZM289 -124 L289 813 L972 813 L972 737 L470 737 L470 -124 L289 -124 ZM820 231 L820 -29 Q820 -68 790 -96 Q760 -124 717 -124 L611 -124 L611 -53 L620 -53 Q650 -53 650 -24 L650 231 L508 231 L508 652 L589 652 L616 719 L823 719 L796 652 L968 652 L968 326 Q968 287 938 259 Q908 231 865 231 L820 231 Z" /><glyph glyph-name="" unicode="&#x8fd0;" d="M409 778 L933 778 L933 703 L409 703 L409 778 ZM307 823 L321 647 L84 647 L70 823 L307 823 ZM367 510 L974 510 L974 434 L670 434 L613 96 L721 96 Q730 96 736 103 Q741 111 739 119 L711 303 L933 303 L970 89 Q975 63 957 41 Q940 20 914 20 L371 20 L446 434 L367 434 L367 510 ZM26 594 L354 594 L278 312 L355 312 L291 -42 L974 -42 L974 -118 L45 -118 L109 202 L35 202 L109 510 L26 510 L26 594 Z" /><glyph glyph-name="" unicode="&#x518d;" d="M619 123 L698 123 L698 302 L619 302 L619 123 ZM619 558 L619 378 L698 378 L698 558 L619 558 ZM301 123 L381 123 L381 302 L301 302 L301 123 ZM301 378 L381 378 L381 558 L301 558 L301 378 ZM27 803 L973 803 L973 727 L619 727 L619 634 L935 634 L935 123 L973 123 L973 47 L935 47 L935 -29 Q935 -68 907 -96 Q879 -124 840 -124 L584 -124 L584 -48 L669 -48 Q681 -48 690 -39 Q698 -30 698 -19 L698 47 L301 47 L301 -124 L65 -124 L65 47 L27 47 L27 123 L65 123 L65 634 L381 634 L381 727 L27 727 L27 803 Z" /><glyph glyph-name="" unicode="&#x5728;" d="M819 515 L819 339 L940 339 L940 263 L819 263 L819 -39 L973 -39 L973 -115 L423 -115 L423 -39 L577 -39 L577 263 L456 263 L456 339 L577 339 L577 515 L819 515 ZM503 822 L443 668 L973 668 L973 592 L414 592 L348 420 L390 420 L390 -119 L148 -119 L148 227 L27 227 L167 592 L28 592 L28 668 L196 668 L256 822 L503 822 Z" /><glyph glyph-name="" unicode="&#x9020;" d="M575 69 L726 69 Q754 69 754 97 L754 239 L575 239 L575 69 ZM288 813 L302 637 L84 637 L70 813 L288 813 ZM364 -7 L364 314 L967 314 L967 88 Q967 49 940 21 Q913 -7 875 -7 L364 -7 ZM560 782 L546 681 L580 681 L580 822 L809 822 L809 681 L953 681 L953 605 L809 605 L809 444 L970 444 L970 368 L352 368 L352 444 L580 444 L580 605 L535 605 L523 513 L346 513 L383 782 L560 782 ZM26 593 L335 593 L259 312 L336 312 L272 -42 L974 -42 L974 -118 L45 -118 L109 202 L35 202 L109 510 L26 510 L26 593 Z" /><glyph glyph-name="" unicode="&#x8d23;" d="M617 302 L617 162 L702 103 L702 335 L299 335 L299 102 L384 162 L384 302 L617 302 ZM48 781 L381 781 L381 823 L619 823 L619 781 L953 781 L953 705 L619 705 L619 657 L917 657 L917 581 L619 581 L619 529 L974 529 L974 453 L26 453 L26 529 L381 529 L381 581 L84 581 L84 657 L381 657 L381 705 L48 705 L48 781 ZM75 411 L925 411 L925 80 L735 80 L917 -47 L972 -47 L972 -121 L708 -121 L500 20 L293 -121 L29 -121 L29 -47 L84 -47 L266 80 L75 80 L75 411 Z" /><glyph glyph-name="" unicode="&#x7ad9;" d="M451 -8 L451 -83 L28 -114 L28 -38 L451 -8 ZM655 312 L655 -43 L756 -43 Q781 -43 781 -15 L781 312 L655 312 ZM447 712 L447 636 L31 636 L31 712 L140 712 L140 820 L339 820 L339 712 L447 712 ZM277 567 L440 567 L410 29 L246 29 L277 567 ZM231 29 L67 29 L37 567 L201 567 L231 29 ZM814 823 L814 655 L975 655 L975 579 L814 579 L814 388 L967 388 L967 -24 Q967 -63 942 -91 Q917 -119 882 -119 L469 -119 L469 388 L623 388 L623 823 L814 823 Z" /><glyph glyph-name="" unicode="&#x5f20;" d="M969 817 L913 490 L741 490 L797 817 L969 817 ZM28 812 L457 812 L457 547 Q457 507 426 479 Q394 451 349 451 L224 451 L224 249 L443 249 L443 -23 Q443 -63 412 -91 Q380 -119 335 -119 L34 -119 L34 -42 L212 -42 Q243 -42 243 -14 L243 172 L30 172 L30 528 L225 528 Q238 528 248 536 Q258 545 258 556 L258 735 L28 735 L28 812 ZM710 819 L710 440 L972 440 L972 364 L916 364 L970 -123 L790 -123 L736 364 L710 364 L710 -48 L756 -48 L756 -123 L511 -123 L511 364 L473 364 L473 440 L511 440 L511 819 L710 819 Z" /><glyph glyph-name="" unicode="&#x8d26;" d="M329 231 L347 189 L347 732 L164 732 L164 183 L185 231 L185 683 L329 683 L329 231 ZM969 825 L916 495 L755 495 L807 825 L969 825 ZM725 827 L725 445 L972 445 L972 368 L919 368 L970 -123 L800 -123 L749 368 L725 368 L725 -47 L768 -47 L768 -123 L538 -123 L538 368 L502 368 L502 445 L538 445 L538 827 L725 827 ZM31 810 L481 810 L481 144 L366 144 L481 -124 L318 -124 L257 28 L193 -124 L27 -124 L146 144 L31 144 L31 810 Z" /><glyph glyph-name="" unicode="&#x62db;" d="M605 -42 L717 -42 Q743 -42 743 -13 L743 248 L605 248 L605 -42 ZM970 807 L970 453 Q970 413 944 385 Q918 357 882 357 L669 357 L669 434 L721 434 Q748 434 748 463 L748 730 L665 730 L599 357 L378 357 L447 730 L378 730 L378 807 L970 807 ZM300 828 L300 642 L365 642 L365 565 L300 565 L300 285 L365 300 L365 224 L300 209 L300 -27 Q300 -67 266 -95 Q232 -123 185 -123 L35 -123 L35 -46 L56 -46 Q91 -46 91 -18 L91 162 L30 148 L30 225 L91 238 L91 565 L30 565 L30 642 L91 642 L91 828 L300 828 ZM967 -22 Q967 -62 941 -90 Q915 -119 879 -119 L377 -119 L377 325 L967 325 L967 -22 Z" /><glyph glyph-name="" unicode="&#x8005;" d="M694 60 L397 60 L397 -40 L665 -40 Q694 -40 694 -12 L694 60 ZM397 136 L694 136 L694 236 L397 236 L397 136 ZM567 823 L567 715 L832 715 L832 639 L567 639 L567 500 L606 500 L964 668 L964 585 L783 500 L974 500 L974 424 L622 424 L386 313 L931 313 L931 -21 Q931 -61 903 -88 Q876 -116 836 -116 L160 -116 L160 206 L29 145 L29 229 L444 424 L26 424 L26 500 L330 500 L330 639 L64 639 L64 715 L330 715 L330 823 L567 823 Z" /><glyph glyph-name="" unicode="&#x6574;" d="M159 525 L187 525 L187 626 L159 626 L159 525 ZM346 626 L346 525 L357 525 Q376 525 376 544 L376 626 L346 626 ZM27 254 L45 441 L174 441 L156 254 L27 254 ZM377 254 L359 441 L489 441 L507 254 L377 254 ZM27 785 L187 785 L187 824 L346 824 L346 785 L507 785 L507 719 L346 719 L346 683 L497 683 L497 534 Q497 507 478 488 Q458 468 431 468 L346 468 L346 254 L187 254 L187 468 L37 468 L37 683 L187 683 L187 719 L27 719 L27 785 ZM512 576 L568 824 L737 824 L723 756 L974 756 L974 689 L941 689 L941 527 L836 401 L974 254 L778 254 L744 290 L714 254 L512 254 L636 408 L512 543 L705 543 L726 520 L772 576 L772 689 L709 689 L686 576 L512 576 ZM26 -58 L94 -58 L94 120 L332 120 L332 -58 L467 -58 L467 153 L35 153 L35 220 L965 220 L965 153 L704 153 L704 81 L933 81 L933 15 L704 15 L704 -58 L974 -58 L974 -124 L26 -124 L26 -58 Z" /><glyph glyph-name="" unicode="&#x653f;" d="M749 827 L731 702 L974 702 L974 636 L957 636 L957 360 L844 143 L975 -125 L766 -125 L736 -64 L704 -125 L494 -125 L633 143 L526 361 L526 475 L720 475 L720 395 L742 350 L765 395 L765 626 L720 626 L703 502 L514 502 L559 827 L749 827 ZM27 -43 L57 -39 L57 639 L208 639 L208 -19 L248 -14 L248 729 L27 729 L27 804 L504 804 L504 729 L441 729 L441 422 L500 422 L500 347 L441 347 L441 10 L504 18 L504 -58 L27 -119 L27 -43 Z" /><glyph glyph-name="" unicode="&#x75c7;" d="M137 683 L167 363 L57 363 L28 683 L137 683 ZM28 -85 L57 313 L167 313 L137 -85 L28 -85 ZM971 649 L375 649 L375 -122 L184 -122 L184 725 L506 725 L506 823 L763 823 L763 725 L971 725 L971 649 ZM423 568 L960 568 L960 493 L864 493 L864 267 L943 267 L943 192 L864 192 L864 -35 L971 -35 L971 -111 L412 -111 L412 -35 L442 -35 L442 365 L610 365 L610 -35 L667 -35 L667 493 L423 493 L423 568 Z" /><glyph glyph-name="" unicode="&#x7ec7;" d="M26 -41 L355 -18 L355 -94 L26 -117 L26 -41 ZM750 727 L623 727 L623 392 L720 392 Q750 392 750 421 L750 727 ZM929 259 L973 -124 L768 -124 L725 259 L929 259 ZM646 259 L604 -124 L399 -124 L442 259 L646 259 ZM354 825 L281 531 L364 531 L279 119 L352 119 L352 43 L37 43 L116 377 L33 377 L143 825 L354 825 ZM957 411 Q957 371 928 343 Q899 314 858 314 L414 314 L414 805 L957 805 L957 411 Z" /><glyph glyph-name="" unicode="&#x6267;" d="M292 827 L292 641 L355 641 L355 564 L292 564 L292 285 L355 300 L355 223 L292 208 L292 -27 Q292 -67 259 -95 Q226 -123 179 -123 L34 -123 L34 -47 L53 -47 Q67 -47 78 -38 Q88 -30 88 -18 L88 162 L28 148 L28 224 L88 238 L88 564 L28 564 L28 641 L88 641 L88 827 L292 827 ZM704 827 L690 672 L948 672 L948 -48 L972 -48 L972 -124 L723 -124 L723 596 L683 596 L650 229 L697 205 L697 110 L642 138 L619 -123 L394 -123 L427 249 L395 266 L395 361 L436 340 L459 596 L395 596 L395 672 L466 672 L480 827 L704 827 Z" /><glyph glyph-name="" unicode="&#x2f84;&#x81f3;" d="M619 365 L619 217 L953 217 L953 141 L619 141 L619 -33 L973 -33 L973 -109 L27 -109 L27 -33 L381 -33 L381 141 L47 141 L47 217 L381 217 L381 365 L55 365 L241 711 L37 711 L37 787 L963 787 L963 711 L492 711 L345 441 L673 441 Q691 441 698 455 Q705 467 698 483 L642 572 L889 572 L931 506 Q960 463 930 412 Q903 365 849 365 L619 365 Z" /><glyph glyph-name="" unicode="&#x5236;" d="M601 19 L601 739 L759 739 L759 19 L601 19 ZM793 825 L969 825 L969 -30 Q969 -69 943 -96 Q917 -124 880 -124 L708 -124 L708 -49 L767 -49 Q793 -49 793 -20 L793 825 ZM184 783 L177 694 L206 694 L206 824 L407 824 L407 694 L553 694 L553 618 L407 618 L407 485 L577 485 L577 409 L407 409 L407 331 L577 331 L577 -73 L435 -73 L435 260 L407 260 L407 -117 L206 -117 L206 260 L175 260 L175 -73 L33 -73 L33 331 L206 331 L206 409 L27 409 L27 485 L206 485 L206 618 L171 618 L165 530 L27 530 L47 783 L184 783 Z" /><glyph glyph-name="" unicode="&#x4e2d;" d="M290 154 L381 154 L381 547 L290 547 L290 154 ZM711 547 L619 547 L619 154 L682 154 Q711 154 711 183 L711 547 ZM947 173 Q947 134 919 106 Q892 78 852 78 L619 78 L619 -123 L381 -123 L381 78 L53 78 L53 623 L381 623 L381 824 L619 824 L619 623 L947 623 L947 173 Z" /><glyph glyph-name="" unicode="&#x79cd;" d="M599 159 L631 159 L631 569 L599 569 L599 159 ZM834 569 L797 569 L797 159 L810 159 Q834 159 834 188 L834 569 ZM424 494 L433 -124 L347 -124 L337 494 L424 494 ZM127 494 L116 -124 L29 -124 L39 494 L127 494 ZM33 800 L429 800 L429 725 L318 725 L318 634 L433 634 L433 558 L318 558 L318 -124 L145 -124 L145 558 L29 558 L29 634 L145 634 L145 725 L33 725 L33 800 ZM631 642 L631 825 L797 825 L797 642 L969 642 L969 183 Q969 144 945 116 Q921 88 888 88 L797 88 L797 -124 L631 -124 L631 88 L459 88 L459 642 L631 642 Z" /><glyph glyph-name="" unicode="&#x91cd;" d="M75 807 L925 807 L925 746 L619 746 L619 669 L973 669 L973 607 L619 607 L619 530 L933 530 L933 251 Q933 212 905 184 Q877 156 838 156 L619 156 L619 87 L947 87 L947 25 L619 25 L619 -48 L973 -48 L973 -110 L27 -110 L27 -48 L381 -48 L381 25 L53 25 L53 87 L381 87 L381 156 L67 156 L67 530 L381 530 L381 607 L27 607 L27 669 L381 669 L381 746 L75 746 L75 807 ZM619 454 L619 375 L729 375 L729 454 L619 454 ZM691 232 Q707 232 718 243 Q729 254 729 270 L729 313 L619 313 L619 232 L691 232 ZM276 232 L381 232 L381 313 L276 313 L276 232 ZM276 375 L381 375 L381 454 L276 454 L276 375 Z" /><glyph glyph-name="" unicode="&#x52a9;" d="M226 -24 L307 -19 L307 170 L226 170 L226 -24 ZM226 519 L307 519 L307 715 L226 715 L226 519 ZM226 245 L307 245 L307 443 L226 443 L226 245 ZM786 614 L747 614 L711 -122 L525 -122 L561 614 L524 614 L524 685 L564 685 L571 824 L758 824 L751 685 L972 685 L972 -27 Q972 -66 946 -94 Q920 -122 884 -122 L740 -122 L740 -51 L759 -51 Q786 -51 786 -22 L786 614 ZM28 -36 L53 -34 L53 787 L480 787 L480 -8 L506 -7 L506 -82 L28 -112 L28 -36 Z" /><glyph glyph-name="" unicode="&#x6ce8;" d="M760 823 L784 697 L547 697 L522 823 L760 823 ZM228 822 L273 615 L79 615 L34 822 L228 822 ZM228 574 L275 367 L81 367 L34 574 L228 574 ZM275 320 L228 -123 L34 -123 L81 320 L275 320 ZM323 662 L963 662 L963 586 L753 586 L753 315 L951 315 L951 239 L753 239 L753 -48 L974 -48 L974 -124 L312 -124 L312 -48 L534 -48 L534 239 L335 239 L335 315 L534 315 L534 586 L323 586 L323 662 Z" /><glyph glyph-name="" unicode="&#x8f6c;" d="M255 720 L450 720 L450 644 L244 644 L201 356 L233 356 L233 544 L363 544 L363 356 L450 356 L450 279 L363 279 L363 157 L446 164 L446 83 L363 76 L363 -124 L179 -124 L179 60 L27 48 L27 129 L179 141 L179 279 L25 279 L79 644 L27 644 L27 720 L90 720 L106 825 L271 825 L255 720 ZM857 825 L829 709 L950 709 L950 633 L810 633 L769 460 L975 460 L975 384 L750 384 L722 265 L951 265 L840 -44 L923 -44 L923 -120 L513 -120 L513 -44 L628 -44 L718 189 L499 189 L544 384 L461 384 L461 460 L562 460 L602 633 L485 633 L485 709 L620 709 L647 825 L857 825 Z" /><glyph glyph-name="" unicode="&#x64b0;" d="M795 736 L795 634 L822 634 Q841 634 841 653 L841 736 L795 736 ZM462 736 L462 634 L490 634 Q508 634 508 653 L508 736 L462 736 ZM611 129 L693 129 L693 233 L611 233 L611 129 ZM898 20 L968 -123 L773 -123 L701 20 L898 20 ZM611 20 L540 -123 L343 -123 L414 20 L611 20 ZM662 807 L973 807 L973 639 Q973 608 952 585 Q930 563 900 563 L795 563 L795 487 L973 487 L973 417 L662 417 L662 807 ZM329 807 L641 807 L641 639 Q641 608 619 585 Q597 563 566 563 L462 563 L462 487 L641 487 L641 417 L329 417 L329 807 ZM611 381 L611 309 L693 309 L693 381 L890 381 L890 309 L954 309 L954 233 L890 233 L890 129 L974 129 L974 53 L329 53 L329 129 L414 129 L414 233 L351 233 L351 309 L414 309 L414 381 L611 381 ZM252 828 L252 642 L305 642 L305 565 L252 565 L252 285 L305 300 L305 224 L252 209 L252 -27 Q252 -67 223 -95 Q195 -123 155 -123 L31 -123 L31 -46 L49 -46 Q77 -46 77 -18 L77 162 L26 148 L26 225 L77 238 L77 565 L26 565 L26 642 L77 642 L77 828 L252 828 Z" /><glyph glyph-name="" unicode="&#x51c6;" d="M574 195 L661 195 L661 342 L574 342 L574 195 ZM574 419 L661 419 L661 566 L574 566 L574 419 ZM574 -29 L661 -29 L661 119 L574 119 L574 -29 ZM857 823 L889 677 L679 677 L648 823 L857 823 ZM253 800 L295 443 L82 443 L39 800 L253 800 ZM29 -121 L82 395 L295 395 L242 -121 L29 -121 ZM613 828 L567 642 L970 642 L970 566 L870 566 L870 419 L965 419 L965 342 L870 342 L870 195 L965 195 L965 119 L870 119 L870 -29 L970 -29 L970 -105 L574 -105 L574 -123 L364 -123 L364 454 L301 454 L394 828 L613 828 Z" /><glyph glyph-name="" unicode="&#x7422;" d="M529 214 L574 255 L574 346 L510 291 L529 214 ZM509 539 L361 410 L467 410 L574 508 L574 539 L509 539 ZM819 -98 L775 413 L808 620 L959 620 L927 413 L970 -98 L819 -98 ZM33 790 L301 790 L301 718 L255 718 L255 371 L297 371 L297 299 L255 299 L255 -37 L308 -37 L308 -109 L26 -109 L26 -37 L79 -37 L79 299 L37 299 L37 371 L79 371 L79 718 L33 718 L33 790 ZM325 26 L488 176 L413 176 L406 201 L325 130 L325 279 L375 325 L356 405 L325 378 L325 538 L532 730 L325 730 L325 807 L974 807 L974 730 L728 730 L597 616 L756 616 L756 -28 Q756 -67 726 -95 Q696 -124 654 -124 L488 -124 L488 -47 L544 -47 Q574 -47 574 -17 L574 93 L325 -124 L325 26 Z" /><glyph glyph-name="" unicode="&#x8d44;" d="M737 646 L737 642 L744 702 L537 702 L529 646 L737 646 ZM67 640 L285 640 L250 804 L33 804 L67 640 ZM383 225 L383 129 L291 72 L291 274 L709 274 L709 72 L617 129 L617 225 L383 225 ZM67 601 L285 601 L250 384 L33 384 L67 601 ZM308 591 L341 824 L554 824 L547 774 L971 774 L955 591 L737 591 L737 583 L973 384 L730 384 L629 465 L530 384 L286 384 L523 583 L523 598 L522 591 L308 591 ZM60 45 L246 45 L82 -56 L26 -56 L26 -123 L334 -123 L500 -20 L666 -123 L973 -123 L973 -56 L918 -56 L753 45 L940 45 L940 349 L60 349 L60 45 Z" /><glyph glyph-name="" unicode="&#x2f26;&#x5b50;" d="M27 398 L375 398 L375 490 L577 729 L73 729 L73 805 L928 805 L613 434 L613 398 L973 398 L973 322 L613 322 L613 -28 Q613 -67 585 -95 Q557 -123 519 -123 L231 -123 L231 -47 L346 -47 Q357 -47 366 -38 Q375 -29 375 -18 L375 322 L27 322 L27 398 Z" /><glyph glyph-name="" unicode="&#x2f83;&#x81ea;" d="M67 687 L270 687 L329 822 L576 822 L517 687 L932 687 L932 -7 Q932 -46 904 -73 Q876 -101 837 -101 L67 -101 L67 687 ZM667 -26 Q678 -26 687 -17 Q695 -8 695 3 L695 140 L304 140 L304 -26 L667 -26 ZM304 216 L695 216 L695 380 L304 380 L304 216 ZM304 456 L695 456 L695 612 L304 612 L304 456 Z" /><glyph glyph-name="" unicode="&#x5b57;" d="M382 736 L382 823 L620 823 L620 736 L971 736 L971 520 L762 520 L762 660 L239 660 L239 520 L30 520 L30 736 L382 736 ZM130 494 L848 494 L652 241 L973 241 L973 165 L629 165 L629 -27 Q629 -66 601 -94 Q573 -122 534 -122 L269 -122 L269 -46 L376 -46 Q405 -46 405 -18 L405 165 L27 165 L27 241 L414 241 L552 418 L130 418 L130 494 Z" /><glyph glyph-name="" unicode="&#x7ec4;" d="M634 242 L731 242 L731 440 L634 440 L634 242 ZM634 -40 L731 -40 L731 165 L634 165 L634 -40 ZM634 518 L731 518 L731 736 L634 736 L634 518 ZM26 -41 L351 -17 L351 -93 L26 -117 L26 -41 ZM350 825 L279 531 L360 531 L276 119 L348 119 L348 43 L37 43 L115 377 L33 377 L141 825 L350 825 ZM391 -40 L425 -40 L425 810 L940 810 L940 -40 L974 -40 L974 -118 L391 -118 L391 -40 Z" /><glyph glyph-name="" unicode="&#x5de6;" d="M486 824 L436 650 L973 650 L973 574 L414 574 L357 374 L941 374 L941 298 L672 298 L672 -36 L973 -36 L973 -112 L113 -112 L113 -36 L445 -36 L445 298 L335 298 L259 33 L26 33 L182 574 L59 574 L59 650 L204 650 L254 824 L486 824 Z" /><glyph glyph-name="" unicode="&#x505a;" d="M484 234 L426 234 L426 -47 L456 -47 Q484 -47 484 -19 L484 234 ZM267 825 L228 588 L254 588 L254 -123 L86 -123 L86 379 L26 379 L98 825 L267 825 ZM813 823 L798 679 L973 679 L973 622 L956 622 L956 386 L872 164 L968 -124 L835 -124 L801 -23 L763 -124 L630 -124 L738 165 L639 464 L773 464 L809 354 L822 388 L822 622 L792 622 L780 498 L646 498 L680 823 L813 823 ZM543 824 L545 616 L624 616 L624 540 L546 540 L549 311 L626 311 L626 -28 Q626 -67 599 -95 Q572 -123 534 -123 L283 -123 L283 311 L374 311 L371 540 L284 540 L284 616 L370 616 L367 824 L543 824 Z" /><glyph glyph-name="" unicode="&#x4f5c;" d="M341 823 L291 587 L325 587 L325 -121 L106 -121 L106 379 L27 379 L121 823 L341 823 ZM619 824 L598 691 L974 691 L974 615 L802 615 L802 414 L959 414 L959 338 L802 338 L802 139 L959 139 L959 63 L802 63 L802 -123 L583 -123 L583 589 L551 383 L351 383 L419 824 L619 824 Z" /><glyph glyph-name="" unicode="&#x55b5;" d="M801 -18 Q801 -46 774 -46 L766 -46 L766 144 L801 144 L801 -18 ZM801 409 L801 220 L766 220 L766 409 L801 409 ZM572 409 L607 409 L607 220 L572 220 L572 409 ZM572 144 L607 144 L607 -46 L572 -46 L572 144 ZM230 20 Q230 -8 205 -8 L179 -8 L179 659 L230 659 L230 20 ZM726 520 L726 645 L647 645 L647 520 L450 520 L450 645 L399 645 L399 721 L450 721 L450 825 L647 825 L647 721 L726 721 L726 825 L925 825 L925 721 L975 721 L975 645 L925 645 L925 520 L726 520 ZM381 736 L27 736 L27 -84 L297 -84 Q331 -84 356 -56 Q381 -28 381 11 L381 736 ZM871 -121 Q910 -121 938 -93 Q965 -66 965 -27 L965 484 L409 484 L409 -121 L871 -121 Z" /><glyph glyph-name="" unicode="&#x7f1c;" d="M602 146 L754 146 L754 186 L602 186 L602 146 ZM602 262 L754 262 L754 305 L602 305 L602 262 ZM602 381 L754 381 L754 425 L602 425 L602 381 ZM602 501 L754 501 L754 545 L602 545 L602 501 ZM26 -41 L335 -17 L335 -93 L26 -117 L26 -41 ZM377 -119 L425 38 L628 38 L582 -119 L377 -119 ZM768 -119 L721 38 L925 38 L973 -119 L768 -119 ZM334 827 L265 532 L343 532 L263 120 L332 120 L332 44 L36 44 L110 378 L32 378 L135 827 L334 827 ZM377 766 L557 766 L557 827 L798 827 L798 766 L973 766 L973 690 L798 690 L798 622 L947 622 L947 146 L973 146 L973 69 L377 69 L377 146 L407 146 L407 622 L557 622 L557 690 L377 690 L377 766 Z" /><glyph glyph-name="" unicode="&#x946b;" d="M206 169 L311 169 L259 254 L206 169 ZM688 169 L794 169 L741 254 L688 169 ZM371 656 L628 656 L500 713 L371 656 ZM84 141 L27 141 L153 344 L363 344 L490 141 L433 141 L433 114 L351 114 L351 78 L469 78 L469 23 L351 23 L351 -68 L372 -68 L383 -2 L469 -2 L457 -68 L490 -68 L490 -123 L27 -123 L27 -68 L60 -68 L49 -2 L134 -2 L145 -68 L166 -68 L166 23 L49 23 L49 78 L166 78 L166 114 L84 114 L84 141 ZM566 141 L509 141 L636 344 L847 344 L973 141 L916 141 L916 114 L833 114 L833 78 L951 78 L951 23 L833 23 L833 -68 L854 -68 L866 -2 L951 -2 L940 -68 L973 -68 L973 -123 L509 -123 L509 -68 L543 -68 L531 -2 L617 -2 L628 -68 L649 -68 L649 23 L531 23 L531 78 L649 78 L649 114 L566 114 L566 141 ZM65 672 L358 817 L626 817 L934 672 L973 672 L973 596 L764 596 L713 618 L713 601 L616 601 L616 564 L923 564 L923 508 L616 508 L616 424 L672 424 L694 479 L890 479 L868 424 L973 424 L973 369 L27 369 L27 424 L131 424 L110 479 L305 479 L327 424 L384 424 L384 508 L77 508 L77 564 L384 564 L384 601 L287 601 L287 619 L235 596 L26 596 L26 672 L65 672 Z" /></font>
</defs>
</svg>
