<?xml version="1.0" encoding="utf-8"?>
<svg version="1.2" xmlns="http://www.w3.org/2000/svg" xmlns:xlink="http://www.w3.org/1999/xlink" x="0px" y="0px" width="640px" height="640px" viewBox="-320 -320 640 640" overflow="scroll" xml:space="preserve">
  <polygon fill="#1a1734" points="277,0 281.9507,-0.0005 282.027,-0.0023 282.1415,-0.0063 282.294,-0.0135 282.4845,-0.0246 282.7129,-0.0406 282.9792,-0.0624 283.2832,-0.0908 283.6248,-0.1268 284.0039,-0.1711 284.4202,-0.2247 284.8738,-0.2885 285.3643,-0.3633 285.8915,-0.45 286.4553,-0.5494 287.0554,-0.6625 287.6916,-0.7901 288.3635,-0.9329 289.071,-1.092 289.8138,-1.268 290.5914,-1.462 291.4037,-1.6746 292.2503,-1.9068 293.1308,-2.1593 294.0448,-2.433 294.9921,-2.7286 295.9721,-3.0471 296.9845,-3.3892 298.0289,-3.7556 299.1048,-4.1473 300.2118,-4.5649 301.3494,-5.0092 302.5172,-5.4811 303.7146,-5.9812 304.9411,-6.5103 306.1963,-7.0692 307.4796,-7.6586 308.7904,-8.2792 310.1282,-8.9317 311.4925,-9.6169 312.8825,-10.3354 314.2979,-11.088 315.7378,-11.8753 317.2018,-12.698 318.6892,-13.5568 319.6745,-14.4286 318.7801,-27.9148 317.6882,-28.6488 316.1005,-29.3036 314.5407,-29.9258 313.0094,-30.516 311.507,-31.0751 310.0343,-31.6038 308.5915,-32.1028 307.1792,-32.573 305.7979,-33.015 304.448,-33.4298 303.13,-33.818 301.8444,-34.1805 300.5914,-34.5181 299.3716,-34.8316 298.1852,-35.1218 297.0328,-35.3895 295.9146,-35.6357 294.8309,-35.861 293.7822,-36.0664 292.7687,-36.2526 291.7907,-36.4206 290.8485,-36.5712 289.9424,-36.7052 289.0726,-36.8235 288.2393,-36.927 287.4429,-37.0166 286.6834,-37.093 285.9611,-37.1572 285.2761,-37.2101 284.6287,-37.2525 284.0189,-37.2853 283.4469,-37.3095 282.9128,-37.3258 282.4168,-37.3351 281.9588,-37.3385 281.539,-37.3366 281.1574,-37.3305 280.814,-37.321 280.5089,-37.3091 280.2421,-37.2955 280.0135,-37.2812 279.8232,-37.267 279.6711,-37.254 279.5572,-37.2429 279.4813,-37.2346 274.5739,-36.5813 270.9469,-57.5915 275.7893,-58.6213 275.8636,-58.639 275.9747,-58.6667 276.1224,-58.7054 276.3064,-58.7559 276.5265,-58.8191 276.7824,-58.8957 277.0739,-58.9867 277.4005,-59.0929 277.7621,-59.2151 278.1583,-59.3541 278.5886,-59.5108 279.0528,-59.6859 279.5505,-59.8804 280.0813,-60.0948 280.6448,-60.3302 281.2405,-60.5872 281.8681,-60.8667 282.5271,-61.1694 283.217,-61.496 283.9373,-61.8474 284.6877,-62.2242 285.4675,-62.6273 286.2762,-63.0574 287.1134,-63.5152 287.9785,-64.0013 288.8709,-64.5166 289.79,-65.0617 290.7354,-65.6373 291.7064,-66.244 292.7024,-66.8827 293.7227,-67.5538 294.7669,-68.2582 295.8341,-68.9963 296.9239,-69.7689 298.0354,-70.5765 299.1681,-71.4198 300.3213,-72.2994 301.4942,-73.2158 302.6861,-74.1697 303.8965,-75.1615 305.1244,-76.1919 306.3692,-77.2614 307.6301,-78.3705 308.9064,-79.5197 309.689,-80.5774 306.0102,-93.5829 304.7896,-94.0739 303.1004,-94.3843 301.4453,-94.6685 299.8247,-94.9275 298.239,-95.162 296.6885,-95.3729 295.1735,-95.5611 293.6943,-95.7273 292.2513,-95.8725 290.8447,-95.9975 289.4748,-96.1033 288.1418,-96.1905 286.846,-96.2602 285.5877,-96.3133 284.3669,-96.3505 283.184,-96.3728 282.0391,-96.381 280.9323,-96.3761 279.8637,-96.359 278.8337,-96.3304 277.8421,-96.2914 276.8892,-96.2428 275.975,-96.1855 275.0996,-96.1204 274.263,-96.0484 273.4654,-95.9704 272.7066,-95.8873 271.9867,-95.7999 271.3057,-95.7092 270.6636,-95.6161 270.0604,-95.5214 269.4959,-95.4261 268.9701,-95.331 268.4829,-95.237 268.0342,-95.1451 267.624,-95.056 267.252,-94.9707 266.9181,-94.89 266.6221,-94.8148 266.364,-94.7461 266.1434,-94.6846 265.9602,-94.6312 265.8141,-94.5868 265.705,-94.5522 265.6324,-94.5284 260.9681,-92.869 253.0521,-112.6661 257.5746,-114.6801 257.6436,-114.7128 257.7465,-114.7631 257.8829,-114.8316 258.0524,-114.9193 258.2546,-115.0268 258.489,-115.155 258.7551,-115.3046 259.0526,-115.4764 259.3808,-115.6711 259.7394,-115.8894 260.1278,-116.1322 260.5455,-116.4 260.9919,-116.6936 261.4664,-117.0138 261.9687,-117.3612 262.498,-117.7364 263.0537,-118.1403 263.6354,-118.5733 264.2423,-119.0363 264.8738,-119.5298 265.5294,-120.0544 266.2084,-120.6108 266.91,-121.1996 267.6337,-121.8214 268.3788,-122.4768 269.1446,-123.1664 269.9303,-123.8907 270.7354,-124.6502 271.559,-125.4456 272.4004,-126.2774 273.259,-127.146 274.1338,-128.052 275.0243,-128.9959 275.9296,-129.9782 276.849,-130.9993 277.7816,-132.0597 278.7266,-133.1598 279.6834,-134.3 280.651,-135.4809 281.6286,-136.7027 282.6155,-137.9659 283.6107,-139.2708 284.6135,-140.6178 285.623,-142.0073 286.1686,-143.2045 279.8662,-155.161 278.5701,-155.3874 276.8533,-155.3398 275.1753,-155.2738 273.5363,-155.1902 271.9365,-155.0899 270.376,-154.9738 268.8549,-154.8428 267.3735,-154.6979 265.9319,-154.5399 264.53,-154.3698 263.1681,-154.1884 261.8461,-153.9966 260.5641,-153.7954 259.3223,-153.5856 258.1204,-153.3682 256.9587,-153.1441 255.8371,-152.9141 254.7555,-152.6792 253.7139,-152.4402 252.7122,-152.1982 251.7505,-151.9538 250.8285,-151.7082 249.9462,-151.4621 249.1035,-151.2164 248.3001,-150.972 247.5361,-150.7299 246.8112,-150.4908 246.1252,-150.2557 245.478,-150.0254 244.8693,-149.8008 244.2989,-149.5827 243.7665,-149.3721 243.272,-149.1698 242.815,-148.9766 242.3953,-148.7934 242.0125,-148.6209 241.6663,-148.4601 241.3565,-148.3118 241.0827,-148.1768 240.8445,-148.0558 240.6415,-147.9498 240.4734,-147.8595 240.3397,-147.7857 240.2401,-147.7292 240.1742,-147.6908 235.9568,-145.0979 224.0977,-162.8165 228.1026,-165.7269 228.1633,-165.7732 228.2535,-165.8437 228.3727,-165.9391 228.5203,-166.0601 228.6957,-166.2073 228.8983,-166.3815 229.1275,-166.5831 229.3828,-166.813 229.6634,-167.0717 229.9687,-167.3598 230.2981,-167.678 230.651,-168.0268 231.0266,-168.4069 231.4242,-168.8187 231.8433,-169.2629 232.283,-169.74 232.7426,-170.2506 233.2215,-170.7951 233.7189,-171.3741 234.2341,-171.9881 234.7662,-172.6376 235.3147,-173.323 235.8786,-174.0448 236.4572,-174.8035 237.0497,-175.5995 237.6554,-176.4332 238.2734,-177.305 238.9029,-178.2154 239.5432,-179.1646 240.1933,-180.1532 240.8525,-181.1813 241.5198,-182.2494 242.1946,-183.3578 242.8759,-184.5068 243.5629,-185.6968 244.2546,-186.9279 244.9503,-188.2004 245.6491,-189.5147 246.35,-190.8709 247.0523,-192.2693 247.7549,-193.71 248.4571,-195.1934 249.1579,-196.7194 249.8565,-198.2885 250.1412,-199.573 241.4906,-209.9578 240.1758,-209.9098 238.5064,-209.5063 236.8788,-209.0929 235.293,-208.6703 233.749,-208.2396 232.2467,-207.8016 230.7862,-207.3572 229.3673,-206.9075 227.99,-206.4532 226.6541,-205.9953 225.3597,-205.5347 224.1064,-205.0723 222.8943,-204.6089 221.7232,-204.1455 220.5929,-203.683 219.5031,-203.2222 218.4538,-202.7641 217.4447,-202.3094 216.4755,-201.8591 215.5461,-201.4141 214.6561,-200.9752 213.8054,-200.5432 212.9935,-200.119 212.2203,-199.7035 211.4853,-199.2974 210.7884,-198.9017 210.129,-198.5171 209.5069,-198.1445 208.9217,-197.7847 208.373,-197.4385 207.8604,-197.1066 207.3834,-196.7899 206.9418,-196.4892 206.5349,-196.2052 206.1625,-195.9387 205.8239,-195.6904 205.5188,-195.4612 205.2465,-195.2517 205.0068,-195.0627 204.7989,-194.8948 204.6224,-194.7489 204.4767,-194.6256 204.3614,-194.5257 204.2757,-194.4497 204.2192,-194.3984 200.633,-190.9854 185.3492,-205.8511 188.6615,-209.5306 188.7112,-209.5885 188.7848,-209.6762 188.8815,-209.7943 189.0007,-209.9433 189.1417,-210.1238 189.3036,-210.3363 189.4859,-210.5812 189.6878,-210.8591 189.9085,-211.1705 190.1473,-211.5158 190.4034,-211.8955 190.676,-212.3101 190.9643,-212.7599 191.2677,-213.2454 191.5852,-213.767 191.9161,-214.3251 192.2596,-214.9201 192.6148,-215.5523 192.9809,-216.2221 193.3572,-216.9298 193.7427,-217.6757 194.1366,-218.4601 194.5381,-219.2834 194.9463,-220.1459 195.3604,-221.0476 195.7795,-221.989 196.2028,-222.9703 196.6293,-223.9917 197.0582,-225.0533 197.4885,-226.1554 197.9195,-227.2981 198.3503,-228.4816 198.7798,-229.7061 199.2074,-230.9717 199.6319,-232.2784 200.0526,-233.6264 200.4685,-235.0158 200.8787,-236.4467 201.2824,-237.919 201.6786,-239.4328 202.0663,-240.9882 202.4448,-242.5851 202.813,-244.2235 203.17,-245.9035 203.1815,-247.2191 192.5608,-255.5784 191.2847,-255.2582 189.7357,-254.5164 188.2296,-253.7735 186.7663,-253.0305 185.3456,-252.2882 183.9672,-251.5474 182.631,-250.8091 181.3366,-250.0742 180.0838,-249.3435 178.8724,-248.6179 177.7019,-247.8982 176.5723,-247.1853 175.483,-246.48 174.4338,-245.7833 173.4243,-245.0959 172.4542,-244.4186 171.523,-243.7523 170.6305,-243.0978 169.7761,-242.4558 168.9596,-241.8273 168.1803,-241.2129 167.438,-240.6135 166.732,-240.0298 166.0621,-239.4625 165.4276,-238.9126 164.8281,-238.3806 164.2631,-237.8673 163.7321,-237.3735 163.2345,-236.8999 162.7697,-236.4471 162.3373,-236.0159 161.9367,-235.607 161.5672,-235.221 161.2283,-234.8586 160.9194,-234.5205 160.6398,-234.2073 160.389,-233.9196 160.1663,-233.6581 159.9711,-233.4234 159.8026,-233.216 159.6603,-233.0366 159.5435,-232.8857 159.4514,-232.7639 159.3834,-232.6718 159.3388,-232.6099 156.5406,-228.5258 138.5,-239.889 140.9749,-244.1767 141.0115,-244.2437 141.0652,-244.3448 141.1353,-244.4805 141.2209,-244.651 141.3213,-244.8569 141.4355,-245.0983 141.5629,-245.3758 141.7026,-245.6896 141.8537,-246.0401 142.0155,-246.4275 142.187,-246.8522 142.3675,-247.3144 142.556,-247.8143 142.7518,-248.3523 142.9539,-248.9285 143.1616,-249.5432 143.3738,-250.1966 143.5898,-250.8888 143.8087,-251.6201 144.0296,-252.3905 144.2516,-253.2003 144.4738,-254.0495 144.6954,-254.9383 144.9154,-255.8668 145.133,-256.8349 145.3472,-257.8429 145.5571,-258.8907 145.762,-259.9784 145.9608,-261.106 146.1526,-262.2735 146.3366,-263.4809 146.5118,-264.7281 146.6774,-266.0151 146.8325,-267.3419 146.9761,-268.7084 147.1073,-270.1144 147.2252,-271.5599 147.329,-273.0448 147.4178,-274.5688 147.4905,-276.1319 147.5464,-277.7339 147.5846,-279.3746 147.6041,-281.0538 147.6041,-282.7713 147.3418,-284.0606 135.2152,-290.0291 134.0335,-289.4505 132.6726,-288.4029 131.3538,-287.3631 130.077,-286.3321 128.8417,-285.3106 127.6474,-284.2994 126.4939,-283.2995 125.3806,-282.3115 124.3071,-281.3363 123.273,-280.3746 122.2778,-279.4273 121.321,-278.4951 120.4022,-277.5788 119.5208,-276.6792 118.6763,-275.7969 117.8682,-274.9327 117.0959,-274.0874 116.3589,-273.2616 115.6567,-272.456 114.9887,-271.6714 114.3542,-270.9085 113.7527,-270.1678 113.1835,-269.4501 112.6462,-268.756 112.1399,-268.0861 111.6641,-267.4411 111.2182,-266.8216 110.8014,-266.2282 110.4132,-265.6614 110.0527,-265.1219 109.7194,-264.6103 109.4125,-264.127 109.1314,-263.6726 108.8752,-263.2477 108.6433,-262.8527 108.435,-262.4882 108.2495,-262.1547 108.086,-261.8526 107.9439,-261.5824 107.8222,-261.3445 107.7203,-261.1394 107.6374,-260.9676 107.5727,-260.8293 107.5253,-260.7251 107.4945,-260.6552 105.6066,-256.0786 85.5977,-263.4427 87.1271,-268.1512 87.1489,-268.2244 87.1805,-268.3344 87.2208,-268.4817 87.2691,-268.6663 87.3244,-268.8885 87.386,-269.1485 87.4529,-269.4464 87.5243,-269.7824 87.5993,-270.1566 87.677,-270.5692 87.7565,-271.0202 87.8369,-271.5098 87.9174,-272.038 87.997,-272.605 88.0749,-273.2106 88.1502,-273.8551 88.222,-274.5383 88.2893,-275.2603 88.3514,-276.0211 88.4073,-276.8206 88.4561,-277.6589 88.4969,-278.5357 88.5288,-279.4512 88.551,-280.4051 88.5625,-281.3973 88.5624,-282.4278 88.55,-283.4964 88.5242,-284.6029 88.4842,-285.7472 88.4291,-286.929 88.358,-288.1483 88.2701,-289.4047 88.1645,-290.698 88.0403,-292.028 87.8967,-293.3945 87.7327,-294.7971 87.5475,-296.2355 87.3403,-297.7095 87.1103,-299.2187 86.8565,-300.7628 86.5781,-302.3414 86.2743,-303.9542 85.9442,-305.6007 85.5871,-307.2807 85.0625,-308.4872 71.9599,-311.8041 70.9244,-310.9924 69.811,-309.6847 68.7373,-308.3935 67.7027,-307.1196 66.7068,-305.8635 65.7489,-304.6262 64.8284,-303.4082 63.9449,-302.2104 63.0976,-301.0333 62.286,-299.8776 61.5095,-298.7441 60.7675,-297.6334 60.0592,-296.5461 59.3841,-295.4828 58.7415,-294.4442 58.1307,-293.4309 57.5511,-292.4435 57.0019,-291.4825 56.4826,-290.5486 55.9922,-289.6422 55.5302,-288.764 55.0959,-287.9145 54.6884,-287.0941 54.3071,-286.3035 53.9512,-285.543 53.6199,-284.8131 53.3125,-284.1145 53.0282,-283.4473 52.7663,-282.8123 52.5259,-282.2096 52.3062,-281.6398 52.1065,-281.1033 51.926,-280.6004 51.7638,-280.1315 51.6191,-279.697 51.4911,-279.2971 51.379,-278.9323 51.2819,-278.6028 51.199,-278.309 51.1295,-278.051 51.0724,-277.8292 51.0271,-277.6439 50.9925,-277.4952 50.9678,-277.3834 50.9523,-277.3086 50.0571,-272.4395 28.9544,-275.4826 29.4714,-280.4062 29.4776,-280.4823 29.4855,-280.5965 29.4943,-280.7489 29.5032,-280.9396 29.5111,-281.1684 29.5173,-281.4355 29.5208,-281.7408 29.5208,-282.0843 29.5163,-282.4659 29.5065,-282.8856 29.4905,-283.3434 29.4674,-283.839 29.4363,-284.3724 29.3963,-284.9435 29.3466,-285.5521 29.2862,-286.1981 29.2144,-286.8814 29.1302,-287.6016 29.0327,-288.3587 28.9211,-289.1524 28.7946,-289.9824 28.6522,-290.8486 28.4931,-291.7507 28.3164,-292.6883 28.1214,-293.6613 27.9071,-294.6692 27.6727,-295.7119 27.4174,-296.7888 27.1404,-297.8998 26.8408,-299.0444 26.5178,-300.2222 26.1706,-301.4329 25.7984,-302.676 25.4004,-303.9511 24.9758,-305.2579 24.5238,-306.5957 24.0436,-307.9642 23.5345,-309.3629 22.9956,-310.7913 22.4263,-312.2489 21.8258,-313.7351 21.1933,-315.2495 20.5282,-316.7914 19.8296,-318.3604 19.0655,-319.4315 5.5597,-319.9517 4.7156,-318.9425 3.8984,-317.4319 3.1166,-315.9457 2.3695,-314.4845 1.6565,-313.0488 0.9767,-311.6393 0.3296,-310.2566 -0.2856,-308.9012 -0.8696,-307.5737 -1.4231,-306.2746 -1.947,-305.0044 -2.4419,-303.7637 -2.9086,-302.5529 -3.3479,-301.3725 -3.7605,-300.223 -4.1473,-299.1048 -4.5089,-298.0185 -4.8463,-296.9643 -5.1602,-295.9428 -5.4514,-294.9543 -5.7207,-293.9992 -5.9689,-293.0779 -6.1969,-292.1908 -6.4055,-291.3381 -6.5955,-290.5202 -6.7678,-289.7375 -6.9232,-288.9902 -7.0626,-288.2785 -7.1868,-287.6029 -7.2966,-286.9634 -7.393,-286.3604 -7.4768,-285.7941 -7.5488,-285.2646 -7.61,-284.7723 -7.6612,-284.3171 -7.7033,-283.8994 -7.7371,-283.5193 -7.7635,-283.1768 -7.7835,-282.8721 -7.7979,-282.6053 -7.8076,-282.3765 -7.8134,-282.1858 -7.8163,-282.0332 -7.8172,-281.9187 -7.8169,-281.8423 -7.6801,-276.8935 -28.9544,-275.4826 -29.4724,-280.4061 -29.4822,-280.4818 -29.4981,-280.5952 -29.5212,-280.7461 -29.5521,-280.9344 -29.592,-281.1599 -29.6414,-281.4225 -29.7015,-281.7218 -29.7729,-282.0578 -29.8567,-282.4302 -29.9535,-282.8387 -30.0643,-283.283 -30.19,-283.763 -30.3313,-284.2783 -30.4892,-284.8286 -30.6643,-285.4136 -30.8577,-286.033 -31.07,-286.6863 -31.3021,-287.3733 -31.5549,-288.0936 -31.829,-288.8467 -32.1254,-289.6323 -32.4448,-290.45 -32.788,-291.2993 -33.1557,-292.1797 -33.5488,-293.0908 -33.9679,-294.0322 -34.414,-295.0033 -34.8876,-296.0037 -35.3895,-297.0328 -35.9206,-298.0901 -36.4814,-299.175 -37.0727,-300.287 -37.6952,-301.4256 -38.3497,-302.5901 -39.0367,-303.78 -39.757,-304.9946 -40.5112,-306.2334 -41.3,-307.4957 -42.124,-308.7808 -42.9839,-310.0882 -43.8803,-311.4171 -44.8138,-312.7669 -45.7851,-314.1368 -46.7946,-315.5263 -47.7646,-316.4151 -61.0835,-314.1159 -61.6993,-312.9533 -62.1846,-311.3058 -62.6403,-309.6895 -63.0673,-308.1049 -63.4662,-306.5523 -63.8381,-305.0324 -64.1835,-303.5453 -64.5035,-302.0916 -64.7987,-300.6717 -65.0701,-299.2859 -65.3184,-297.9345 -65.5446,-296.618 -65.7493,-295.3366 -65.9336,-294.0907 -66.0982,-292.8805 -66.244,-291.7064 -66.3719,-290.5686 -66.4828,-289.4673 -66.5774,-288.4029 -66.6567,-287.3754 -66.7215,-286.3852 -66.7728,-285.4325 -66.8114,-284.5173 -66.8381,-283.6399 -66.854,-282.8004 -66.8597,-281.9989 -66.8564,-281.2356 -66.8447,-280.5106 -66.8257,-279.8238 -66.8002,-279.1755 -66.7691,-278.5656 -66.7333,-277.9943 -66.6937,-277.4614 -66.6512,-276.9671 -66.6066,-276.5113 -66.5609,-276.0939 -66.515,-275.7151 -66.4696,-275.3746 -66.4258,-275.0724 -66.3844,-274.8085 -66.3463,-274.5827 -66.3124,-274.3949 -66.2835,-274.245 -66.2605,-274.1328 -66.2444,-274.0582 -65.0817,-269.2459 -85.5977,-263.4427 -87.128,-268.1509 -87.1533,-268.2229 -87.1925,-268.3305 -87.2465,-268.4733 -87.3159,-268.6511 -87.4017,-268.8634 -87.5047,-269.1099 -87.6257,-269.3902 -87.7654,-269.704 -87.9247,-270.0508 -88.1044,-270.4303 -88.3052,-270.8419 -88.5279,-271.2853 -88.7733,-271.7599 -89.0421,-272.2654 -89.3351,-272.8012 -89.653,-273.3668 -89.9965,-273.9617 -90.3664,-274.5854 -90.7634,-275.2374 -91.1881,-275.9171 -91.6413,-276.6239 -92.1237,-277.3573 -92.636,-278.1167 -93.1787,-278.9014 -93.7527,-279.7109 -94.3584,-280.5446 -94.9966,-281.4017 -95.6678,-282.2818 -96.3728,-283.184 -97.112,-284.1078 -97.8862,-285.0524 -98.6958,-286.0172 -99.5414,-287.0015 -100.4237,-288.0045 -101.3431,-289.0255 -102.3001,-290.0638 -103.2954,-291.1187 -104.3294,-292.1894 -105.4027,-293.2752 -106.5156,-294.3752 -107.6687,-295.4886 -108.8624,-296.6148 -110.0973,-297.7529 -111.3736,-298.9021 -112.5073,-299.5699 -125.057,-294.5518 -125.4177,-293.2865 -125.5498,-291.5741 -125.6595,-289.8984 -125.7477,-288.2596 -125.8152,-286.6581 -125.8628,-285.094 -125.8916,-283.5676 -125.9023,-282.0792 -125.8959,-280.6289 -125.8732,-279.2169 -125.8351,-277.8435 -125.7826,-276.5087 -125.7165,-275.2127 -125.6377,-273.9557 -125.5471,-272.7378 -125.4456,-271.559 -125.3342,-270.4195 -125.2136,-269.3192 -125.0848,-268.2584 -124.9488,-267.2369 -124.8063,-266.2549 -124.6584,-265.3122 -124.5058,-264.4091 -124.3496,-263.5453 -124.1905,-262.7208 -124.0296,-261.9357 -123.8676,-261.1897 -123.7055,-260.4829 -123.5441,-259.8152 -123.3843,-259.1863 -123.2271,-258.5962 -123.0733,-258.0448 -122.9238,-257.5318 -122.7794,-257.0571 -122.641,-256.6205 -122.5096,-256.2218 -122.3858,-255.8608 -122.2707,-255.5372 -122.165,-255.2507 -122.0697,-255.0011 -121.9854,-254.7882 -121.9132,-254.6116 -121.8538,-254.4709 -121.808,-254.366 -121.7767,-254.2964 -119.6389,-249.831 -138.5,-239.889 -140.9758,-244.1762 -141.0155,-244.2414 -141.0762,-244.3385 -141.1587,-244.467 -141.2635,-244.6264 -141.3916,-244.8162 -141.5436,-245.0359 -141.7202,-245.285 -141.9222,-245.5629 -142.1501,-245.869 -142.4047,-246.2028 -142.6867,-246.5637 -142.9968,-246.951 -143.3355,-247.3643 -143.7035,-247.8028 -144.1014,-248.266 -144.53,-248.7532 -144.9897,-249.2637 -145.4812,-249.7969 -146.005,-250.3521 -146.5618,-250.9286 -147.1521,-251.5257 -147.7764,-252.1428 -148.4354,-252.779 -149.1294,-253.4338 -149.8591,-254.1063 -150.6249,-254.7958 -151.4274,-255.5015 -152.2669,-256.2228 -153.1441,-256.9587 -154.0592,-257.7086 -155.0128,-258.4716 -156.0053,-259.247 -157.0371,-260.034 -158.1087,-260.8316 -159.2202,-261.6392 -160.3723,-262.4559 -161.5652,-263.2808 -162.7992,-264.1131 -164.0747,-264.9519 -165.392,-265.7965 -166.7514,-266.6459 -168.1532,-267.4993 -169.5977,-268.3558 -171.0851,-269.2145 -172.3328,-269.632 -183.565,-262.1143 -183.6547,-260.8017 -183.4279,-259.0992 -183.1868,-257.4373 -182.9323,-255.816 -182.6654,-254.2355 -182.3868,-252.6956 -182.0976,-251.1966 -181.7986,-249.7385 -181.4908,-248.3212 -181.175,-246.9449 -180.8523,-245.6093 -180.5233,-244.3146 -180.1892,-243.0608 -179.8508,-241.8476 -179.509,-240.6751 -179.1646,-239.5432 -178.8187,-238.4517 -178.472,-237.4006 -178.1255,-236.3897 -177.78,-235.4188 -177.4365,-234.4879 -177.0958,-233.5966 -176.7588,-232.7449 -176.4264,-231.9324 -176.0994,-231.1591 -175.7787,-230.4245 -175.4652,-229.7286 -175.1596,-229.0709 -174.863,-228.4513 -174.576,-227.8694 -174.2995,-227.3249 -174.0344,-226.8175 -173.7815,-226.3468 -173.5416,-225.9125 -173.3155,-225.5143 -173.104,-225.1516 -172.9079,-224.8242 -172.728,-224.5315 -172.565,-224.2733 -172.4199,-224.049 -172.2932,-223.8583 -172.1858,-223.7005 -172.0985,-223.5753 -172.0319,-223.4822 -171.9867,-223.4206 -168.9673,-219.4973 -185.3492,-205.8511 -188.6622,-209.5299 -188.7146,-209.5854 -188.7942,-209.6677 -188.9015,-209.7763 -189.0373,-209.9104 -189.202,-210.0694 -189.3964,-210.2528 -189.6209,-210.4597 -189.8762,-210.6895 -190.1628,-210.9415 -190.4813,-211.2151 -190.8322,-211.5094 -191.2159,-211.8239 -191.6332,-212.1577 -192.0843,-212.5101 -192.5699,-212.8804 -193.0903,-213.2678 -193.6462,-213.6716 -194.2378,-214.091 -194.8656,-214.5251 -195.5301,-214.9733 -196.2316,-215.4346 -196.9706,-215.9084 -197.7474,-216.3938 -198.5624,-216.8899 -199.416,-217.396 -200.3084,-217.9112 -201.2401,-218.4347 -202.2112,-218.9656 -203.2222,-219.5031 -204.2733,-220.0463 -205.3647,-220.5944 -206.4967,-221.1465 -207.6696,-221.7017 -208.8835,-222.2592 -210.1388,-222.818 -211.4354,-223.3773 -212.7737,-223.9362 -214.1538,-224.4937 -215.5759,-225.0491 -217.04,-225.6013 -218.5463,-226.1495 -220.0949,-226.6928 -221.6859,-227.2302 -223.3193,-227.7609 -224.6266,-227.9099 -234.0503,-218.2212 -233.8651,-216.9186 -233.2893,-215.3005 -232.708,-213.725 -232.122,-212.1921 -231.5322,-210.7015 -230.9396,-209.2533 -230.345,-207.8472 -229.7494,-206.4831 -229.1537,-205.1608 -228.5586,-203.8801 -227.9652,-202.6409 -227.3744,-201.4429 -226.7868,-200.2858 -226.2036,-199.1696 -225.6254,-198.0938 -225.0533,-197.0582 -224.4879,-196.0625 -223.9303,-195.1064 -223.3812,-194.1896 -222.8414,-193.3118 -222.3119,-192.4726 -221.7933,-191.6717 -221.2866,-190.9086 -220.7925,-190.183 -220.3119,-189.4946 -219.8455,-188.8428 -219.3941,-188.2272 -218.9585,-187.6474 -218.5395,-187.1031 -218.1378,-186.5935 -217.7541,-186.1184 -217.3893,-185.6772 -217.0441,-185.2694 -216.7191,-184.8945 -216.4151,-184.5519 -216.1329,-184.2412 -215.873,-183.9616 -215.6362,-183.7128 -215.4231,-183.4941 -215.2345,-183.3049 -215.0709,-183.1446 -214.9331,-183.0127 -214.8216,-182.9084 -214.7371,-182.8311 -214.6802,-182.7803 -210.911,-179.5705 -224.0977,-162.8165 -228.1032,-165.7261 -228.166,-165.7695 -228.261,-165.8335 -228.3885,-165.9173 -228.5492,-166.0203 -228.7434,-166.1416 -228.9716,-166.2805 -229.2343,-166.4362 -229.5318,-166.6079 -229.8645,-166.7949 -230.2329,-166.9962 -230.6373,-167.2112 -231.0781,-167.439 -231.5556,-167.6788 -232.0702,-167.9297 -232.6221,-168.1909 -233.2117,-168.4617 -233.8393,-168.7411 -234.5052,-169.0283 -235.2096,-169.3224 -235.9527,-169.6226 -236.7349,-169.928 -237.5562,-170.2378 -238.417,-170.551 -239.3173,-170.8669 -240.2574,-171.1845 -241.2375,-171.5029 -242.2576,-171.8212 -243.318,-172.1386 -244.4186,-172.4542 -245.5596,-172.767 -246.7412,-173.0762 -247.9632,-173.3809 -249.2259,-173.6801 -250.5292,-173.973 -251.8732,-174.2586 -253.2578,-174.5361 -254.683,-174.8045 -256.1489,-175.0629 -257.6554,-175.3105 -259.2023,-175.5462 -260.7897,-175.7693 -262.4174,-175.9787 -264.0854,-176.1736 -265.7934,-176.3531 -267.103,-176.227 -274.3064,-164.7907 -273.8545,-163.5551 -272.9549,-162.0921 -272.0587,-160.6719 -271.1668,-159.2943 -270.28,-157.9589 -269.3992,-156.6656 -268.5253,-155.4138 -267.6591,-154.2033 -266.8014,-153.0338 -265.9531,-151.9048 -265.1151,-150.8161 -264.288,-149.7671 -263.4728,-148.7575 -262.6702,-147.7869 -261.881,-146.8548 -261.106,-145.9608 -260.346,-145.1044 -259.6018,-144.2851 -258.8741,-143.5026 -258.1636,-142.7561 -257.4711,-142.0454 -256.7974,-141.3698 -256.1431,-140.7287 -255.509,-140.1217 -254.8957,-139.5482 -254.3039,-139.0076 -253.7344,-138.4994 -253.1878,-138.0229 -252.6648,-137.5775 -252.1659,-137.1626 -251.6919,-136.7777 -251.2433,-136.4219 -250.8208,-136.0948 -250.425,-135.7957 -250.0565,-135.5238 -249.7157,-135.2785 -249.4034,-135.0591 -249.1201,-134.865 -248.8662,-134.6953 -248.6423,-134.5495 -248.449,-134.4267 -248.2868,-134.3263 -248.156,-134.2475 -248.0573,-134.1895 -247.9911,-134.1516 -243.6369,-131.7956 -253.0521,-112.6661 -257.575,-114.6792 -257.6455,-114.7086 -257.7516,-114.7515 -257.8938,-114.807 -258.0724,-114.8743 -258.2876,-114.9526 -258.5397,-115.041 -258.829,-115.1387 -259.1557,-115.2448 -259.52,-115.3585 -259.9222,-115.4788 -260.3625,-115.605 -260.841,-115.7362 -261.3579,-115.8715 -261.9134,-116.0099 -262.5076,-116.1507 -263.1407,-116.2929 -263.8126,-116.4357 -264.5237,-116.5782 -265.2738,-116.7195 -266.0631,-116.8586 -266.8917,-116.9947 -267.7595,-117.127 -268.6665,-117.2544 -269.6129,-117.3762 -270.5985,-117.4913 -271.6233,-117.599 -272.6874,-117.6983 -273.7905,-117.7883 -274.9327,-117.8682 -276.1138,-117.9369 -277.3338,-117.9937 -278.5926,-118.0376 -279.8898,-118.0678 -281.2256,-118.0833 -282.5995,-118.0832 -284.0116,-118.0668 -285.4615,-118.033 -286.9491,-117.981 -288.4741,-117.9099 -290.0362,-117.8189 -291.6353,-117.7071 -293.271,-117.5735 -294.943,-117.4174 -296.6511,-117.2378 -297.9059,-116.8422 -302.5741,-104.1581 -301.8752,-103.0435 -300.691,-101.7995 -299.5191,-100.5966 -298.3603,-99.4346 -297.2152,-98.3128 -296.0848,-97.2308 -294.9697,-96.1881 -293.8708,-95.1842 -292.7887,-94.2185 -291.7242,-93.2906 -290.6781,-92.3998 -289.651,-91.5457 -288.6437,-90.7277 -287.6568,-89.9452 -286.6911,-89.1975 -285.7472,-88.4842 -284.8257,-87.8045 -283.9274,-87.1579 -283.0529,-86.5437 -282.2028,-85.9613 -281.3777,-85.4101 -280.5782,-84.8893 -279.8049,-84.3983 -279.0584,-83.9364 -278.3393,-83.503 -277.6481,-83.0972 -276.9854,-82.7185 -276.3516,-82.366 -275.7474,-82.0391 -275.1732,-81.7371 -274.6295,-81.459 -274.1168,-81.2044 -273.6355,-80.9722 -273.1861,-80.7619 -272.7691,-80.5726 -272.3848,-80.4035 -272.0337,-80.2539 -271.7162,-80.1229 -271.4326,-80.0097 -271.1833,-79.9136 -270.9687,-79.8337 -270.7891,-79.7692 -270.6449,-79.7193 -270.5362,-79.6831 -270.4635,-79.6598 -265.7147,-78.2606 -270.9469,-57.5915 -275.7895,-58.6204 -275.8645,-58.6345 -275.9773,-58.6543 -276.128,-58.679 -276.3166,-58.7077 -276.5434,-58.7396 -276.8084,-58.7736 -277.1116,-58.809 -277.4533,-58.8449 -277.8333,-58.8804 -278.2517,-58.9145 -278.7086,-58.9464 -279.2039,-58.9752 -279.7376,-59 -280.3098,-59.02 -280.9203,-59.0341 -281.5691,-59.0416 -282.2561,-59.0416 -282.9812,-59.0331 -283.7443,-59.0153 -284.5453,-58.9873 -285.384,-58.9482 -286.2603,-58.8971 -287.1741,-58.8332 -288.1251,-58.7556 -289.1131,-58.6633 -290.1379,-58.5555 -291.1993,-58.4314 -292.2971,-58.2901 -293.4309,-58.1307 -294.6006,-57.9524 -295.8057,-57.7543 -297.046,-57.5356 -298.3213,-57.2953 -299.631,-57.0328 -300.975,-56.7471 -302.3527,-56.4374 -303.7639,-56.1029 -305.2082,-55.7428 -306.6851,-55.3562 -308.1942,-54.9424 -309.735,-54.5005 -311.3072,-54.0298 -312.9102,-53.5294 -314.5436,-52.9987 -315.6888,-52.3508 -317.6178,-38.9733 -316.7024,-38.0283 -315.2855,-37.0577 -313.8891,-36.1248 -312.514,-35.2291 -311.1608,-34.3699 -309.8301,-33.5466 -308.5226,-32.7585 -307.2389,-32.005 -305.9797,-31.2854 -304.7456,-30.5991 -303.5371,-29.9453 -302.3549,-29.3234 -301.1995,-28.7327 -300.0715,-28.1724 -298.9714,-27.6419 -297.8998,-27.1404 -296.8572,-26.6672 -295.8441,-26.2215 -294.861,-25.8025 -293.9083,-25.4096 -292.9866,-25.042 -292.0963,-24.6988 -291.2379,-24.3793 -290.4117,-24.0827 -289.6182,-23.8082 -288.8577,-23.5551 -288.1307,-23.3224 -287.4376,-23.1094 -286.7786,-22.9153 -286.1541,-22.7392 -285.5645,-22.5803 -285.01,-22.4378 -284.491,-22.3108 -284.0077,-22.1985 -283.5604,-22.1 -283.1494,-22.0145 -282.7749,-21.9411 -282.437,-21.879 -282.1361,-21.8273 -281.8723,-21.7851 -281.6458,-21.7516 -281.4567,-21.7258 -281.3052,-21.707 -281.1914,-21.6942 -281.1155,-21.6865 -276.1794,-21.3052 -277,0 -281.9507,0.0005 -282.027,0.0023 -282.1415,0.0063 -282.294,0.0135 -282.4845,0.0246 -282.7129,0.0406 -282.9792,0.0624 -283.2832,0.0908 -283.6248,0.1268 -284.0039,0.1711 -284.4202,0.2247 -284.8738,0.2885 -285.3643,0.3633 -285.8915,0.45 -286.4553,0.5494 -287.0554,0.6625 -287.6916,0.7901 -288.3635,0.9329 -289.071,1.092 -289.8138,1.268 -290.5914,1.462 -291.4037,1.6746 -292.2503,1.9068 -293.1308,2.1593 -294.0448,2.433 -294.9921,2.7286 -295.9721,3.0471 -296.9845,3.3892 -298.0289,3.7556 -299.1048,4.1473 -300.2118,4.5649 -301.3494,5.0092 -302.5172,5.4811 -303.7146,5.9812 -304.9411,6.5103 -306.1963,7.0692 -307.4796,7.6586 -308.7904,8.2792 -310.1282,8.9317 -311.4925,9.6169 -312.8825,10.3354 -314.2979,11.088 -315.7378,11.8753 -317.2018,12.698 -318.6892,13.5568 -319.6745,14.4286 -318.7801,27.9148 -317.6882,28.6488 -316.1005,29.3036 -314.5407,29.9258 -313.0094,30.516 -311.507,31.0751 -310.0343,31.6038 -308.5915,32.1028 -307.1792,32.573 -305.7979,33.015 -304.448,33.4298 -303.13,33.818 -301.8444,34.1805 -300.5914,34.5181 -299.3716,34.8316 -298.1852,35.1218 -297.0328,35.3895 -295.9146,35.6357 -294.8309,35.861 -293.7822,36.0664 -292.7687,36.2526 -291.7907,36.4206 -290.8485,36.5712 -289.9424,36.7052 -289.0726,36.8235 -288.2393,36.927 -287.4429,37.0166 -286.6834,37.093 -285.9611,37.1572 -285.2761,37.2101 -284.6287,37.2525 -284.0189,37.2853 -283.4469,37.3095 -282.9128,37.3258 -282.4168,37.3351 -281.9588,37.3385 -281.539,37.3366 -281.1574,37.3305 -280.814,37.321 -280.5089,37.3091 -280.2421,37.2955 -280.0135,37.2812 -279.8232,37.267 -279.6711,37.254 -279.5572,37.2429 -279.4813,37.2346 -274.5739,36.5813 -270.9469,57.5915 -275.7893,58.6213 -275.8636,58.639 -275.9747,58.6667 -276.1224,58.7054 -276.3064,58.7559 -276.5265,58.8191 -276.7824,58.8957 -277.0739,58.9867 -277.4005,59.0929 -277.7621,59.2151 -278.1583,59.3541 -278.5886,59.5108 -279.0528,59.6859 -279.5505,59.8804 -280.0813,60.0948 -280.6448,60.3302 -281.2405,60.5872 -281.8681,60.8667 -282.5271,61.1694 -283.217,61.496 -283.9373,61.8474 -284.6877,62.2242 -285.4675,62.6273 -286.2762,63.0574 -287.1134,63.5152 -287.9785,64.0013 -288.8709,64.5166 -289.79,65.0617 -290.7354,65.6373 -291.7064,66.244 -292.7024,66.8827 -293.7227,67.5538 -294.7669,68.2582 -295.8341,68.9963 -296.9239,69.7689 -298.0354,70.5765 -299.1681,71.4198 -300.3213,72.2994 -301.4942,73.2158 -302.6861,74.1697 -303.8965,75.1615 -305.1244,76.1919 -306.3692,77.2614 -307.6301,78.3705 -308.9064,79.5197 -309.689,80.5774 -306.0102,93.5829 -304.7896,94.0739 -303.1004,94.3843 -301.4453,94.6685 -299.8247,94.9275 -298.239,95.162 -296.6885,95.3729 -295.1735,95.5611 -293.6943,95.7273 -292.2513,95.8725 -290.8447,95.9975 -289.4748,96.1033 -288.1418,96.1905 -286.846,96.2602 -285.5877,96.3133 -284.3669,96.3505 -283.184,96.3728 -282.0391,96.381 -280.9323,96.3761 -279.8637,96.359 -278.8337,96.3304 -277.8421,96.2914 -276.8892,96.2428 -275.975,96.1855 -275.0996,96.1204 -274.263,96.0484 -273.4654,95.9704 -272.7066,95.8873 -271.9867,95.7999 -271.3057,95.7092 -270.6636,95.6161 -270.0604,95.5214 -269.4959,95.4261 -268.9701,95.331 -268.4829,95.237 -268.0342,95.1451 -267.624,95.056 -267.252,94.9707 -266.9181,94.89 -266.6221,94.8148 -266.364,94.7461 -266.1434,94.6846 -265.9602,94.6312 -265.8141,94.5868 -265.705,94.5522 -265.6324,94.5284 -260.9681,92.869 -253.0521,112.6661 -257.5746,114.6801 -257.6436,114.7128 -257.7465,114.7631 -257.8829,114.8316 -258.0524,114.9193 -258.2546,115.0268 -258.489,115.155 -258.7551,115.3046 -259.0526,115.4764 -259.3808,115.6711 -259.7394,115.8894 -260.1278,116.1322 -260.5455,116.4 -260.9919,116.6936 -261.4664,117.0138 -261.9687,117.3612 -262.498,117.7364 -263.0537,118.1403 -263.6354,118.5733 -264.2423,119.0363 -264.8738,119.5298 -265.5294,120.0544 -266.2084,120.6108 -266.91,121.1996 -267.6337,121.8214 -268.3788,122.4768 -269.1446,123.1664 -269.9303,123.8907 -270.7354,124.6502 -271.559,125.4456 -272.4004,126.2774 -273.259,127.146 -274.1338,128.052 -275.0243,128.9959 -275.9296,129.9782 -276.849,130.9993 -277.7816,132.0597 -278.7266,133.1598 -279.6834,134.3 -280.651,135.4809 -281.6286,136.7027 -282.6155,137.9659 -283.6107,139.2708 -284.6135,140.6178 -285.623,142.0073 -286.1686,143.2045 -279.8662,155.161 -278.5701,155.3874 -276.8533,155.3398 -275.1753,155.2738 -273.5363,155.1902 -271.9365,155.0899 -270.376,154.9738 -268.8549,154.8428 -267.3735,154.6979 -265.9319,154.5399 -264.53,154.3698 -263.1681,154.1884 -261.8461,153.9966 -260.5641,153.7954 -259.3223,153.5856 -258.1204,153.3682 -256.9587,153.1441 -255.8371,152.9141 -254.7555,152.6792 -253.7139,152.4402 -252.7122,152.1982 -251.7505,151.9538 -250.8285,151.7082 -249.9462,151.4621 -249.1035,151.2164 -248.3001,150.972 -247.5361,150.7299 -246.8112,150.4908 -246.1252,150.2557 -245.478,150.0254 -244.8693,149.8008 -244.2989,149.5827 -243.7665,149.3721 -243.272,149.1698 -242.815,148.9766 -242.3953,148.7934 -242.0125,148.6209 -241.6663,148.4601 -241.3565,148.3118 -241.0827,148.1768 -240.8445,148.0558 -240.6415,147.9498 -240.4734,147.8595 -240.3397,147.7857 -240.2401,147.7292 -240.1742,147.6908 -235.9568,145.0979 -224.0977,162.8165 -228.1026,165.7269 -228.1633,165.7732 -228.2535,165.8437 -228.3727,165.9391 -228.5203,166.0601 -228.6957,166.2073 -228.8983,166.3815 -229.1275,166.5831 -229.3828,166.813 -229.6634,167.0717 -229.9687,167.3598 -230.2981,167.678 -230.651,168.0268 -231.0266,168.4069 -231.4242,168.8187 -231.8433,169.2629 -232.283,169.74 -232.7426,170.2506 -233.2215,170.7951 -233.7189,171.3741 -234.2341,171.9881 -234.7662,172.6376 -235.3147,173.323 -235.8786,174.0448 -236.4572,174.8035 -237.0497,175.5995 -237.6554,176.4332 -238.2734,177.305 -238.9029,178.2154 -239.5432,179.1646 -240.1933,180.1532 -240.8525,181.1813 -241.5198,182.2494 -242.1946,183.3578 -242.8759,184.5068 -243.5629,185.6968 -244.2546,186.9279 -244.9503,188.2004 -245.6491,189.5147 -246.35,190.8709 -247.0523,192.2693 -247.7549,193.71 -248.4571,195.1934 -249.1579,196.7194 -249.8565,198.2885 -250.1412,199.573 -241.4906,209.9578 -240.1758,209.9098 -238.5064,209.5063 -236.8788,209.0929 -235.293,208.6703 -233.749,208.2396 -232.2467,207.8016 -230.7862,207.3572 -229.3673,206.9075 -227.99,206.4532 -226.6541,205.9953 -225.3597,205.5347 -224.1064,205.0723 -222.8943,204.6089 -221.7232,204.1455 -220.5929,203.683 -219.5031,203.2222 -218.4538,202.7641 -217.4447,202.3094 -216.4755,201.8591 -215.5461,201.4141 -214.6561,200.9752 -213.8054,200.5432 -212.9935,200.119 -212.2203,199.7035 -211.4853,199.2974 -210.7884,198.9017 -210.129,198.5171 -209.5069,198.1445 -208.9217,197.7847 -208.373,197.4385 -207.8604,197.1066 -207.3834,196.7899 -206.9418,196.4892 -206.5349,196.2052 -206.1625,195.9387 -205.8239,195.6904 -205.5188,195.4612 -205.2465,195.2517 -205.0068,195.0627 -204.7989,194.8948 -204.6224,194.7489 -204.4767,194.6256 -204.3614,194.5257 -204.2757,194.4497 -204.2192,194.3984 -200.633,190.9854 -185.3492,205.8511 -188.6615,209.5306 -188.7112,209.5885 -188.7848,209.6762 -188.8815,209.7943 -189.0007,209.9433 -189.1417,210.1238 -189.3036,210.3363 -189.4859,210.5812 -189.6878,210.8591 -189.9085,211.1705 -190.1473,211.5158 -190.4034,211.8955 -190.676,212.3101 -190.9643,212.7599 -191.2677,213.2454 -191.5852,213.767 -191.9161,214.3251 -192.2596,214.9201 -192.6148,215.5523 -192.9809,216.2221 -193.3572,216.9298 -193.7427,217.6757 -194.1366,218.4601 -194.5381,219.2834 -194.9463,220.1459 -195.3604,221.0476 -195.7795,221.989 -196.2028,222.9703 -196.6293,223.9917 -197.0582,225.0533 -197.4885,226.1554 -197.9195,227.2981 -198.3503,228.4816 -198.7798,229.7061 -199.2074,230.9717 -199.6319,232.2784 -200.0526,233.6264 -200.4685,235.0158 -200.8787,236.4467 -201.2824,237.919 -201.6786,239.4328 -202.0663,240.9882 -202.4448,242.5851 -202.813,244.2235 -203.17,245.9035 -203.1815,247.2191 -192.5608,255.5784 -191.2847,255.2582 -189.7357,254.5164 -188.2296,253.7735 -186.7663,253.0305 -185.3456,252.2882 -183.9672,251.5474 -182.631,250.8091 -181.3366,250.0742 -180.0838,249.3435 -178.8724,248.6179 -177.7019,247.8982 -176.5723,247.1853 -175.483,246.48 -174.4338,245.7833 -173.4243,245.0959 -172.4542,244.4186 -171.523,243.7523 -170.6305,243.0978 -169.7761,242.4558 -168.9596,241.8273 -168.1803,241.2129 -167.438,240.6135 -166.732,240.0298 -166.0621,239.4625 -165.4276,238.9126 -164.8281,238.3806 -164.2631,237.8673 -163.7321,237.3735 -163.2345,236.8999 -162.7697,236.4471 -162.3373,236.0159 -161.9367,235.607 -161.5672,235.221 -161.2283,234.8586 -160.9194,234.5205 -160.6398,234.2073 -160.389,233.9196 -160.1663,233.6581 -159.9711,233.4234 -159.8026,233.216 -159.6603,233.0366 -159.5435,232.8857 -159.4514,232.7639 -159.3834,232.6718 -159.3388,232.6099 -156.5406,228.5258 -138.5,239.889 -140.9749,244.1767 -141.0115,244.2437 -141.0652,244.3448 -141.1353,244.4805 -141.2209,244.651 -141.3213,244.8569 -141.4355,245.0983 -141.5629,245.3758 -141.7026,245.6896 -141.8537,246.0401 -142.0155,246.4275 -142.187,246.8522 -142.3675,247.3144 -142.556,247.8143 -142.7518,248.3523 -142.9539,248.9285 -143.1616,249.5432 -143.3738,250.1966 -143.5898,250.8888 -143.8087,251.6201 -144.0296,252.3905 -144.2516,253.2003 -144.4738,254.0495 -144.6954,254.9383 -144.9154,255.8668 -145.133,256.8349 -145.3472,257.8429 -145.5571,258.8907 -145.762,259.9784 -145.9608,261.106 -146.1526,262.2735 -146.3366,263.4809 -146.5118,264.7281 -146.6774,266.0151 -146.8325,267.3419 -146.9761,268.7084 -147.1073,270.1144 -147.2252,271.5599 -147.329,273.0448 -147.4178,274.5688 -147.4905,276.1319 -147.5464,277.7339 -147.5846,279.3746 -147.6041,281.0538 -147.6041,282.7713 -147.3418,284.0606 -135.2152,290.0291 -134.0335,289.4505 -132.6726,288.4029 -131.3538,287.3631 -130.077,286.3321 -128.8417,285.3106 -127.6474,284.2994 -126.4939,283.2995 -125.3806,282.3115 -124.3071,281.3363 -123.273,280.3746 -122.2778,279.4273 -121.321,278.4951 -120.4022,277.5788 -119.5208,276.6792 -118.6763,275.7969 -117.8682,274.9327 -117.0959,274.0874 -116.3589,273.2616 -115.6567,272.456 -114.9887,271.6714 -114.3542,270.9085 -113.7527,270.1678 -113.1835,269.4501 -112.6462,268.756 -112.1399,268.0861 -111.6641,267.4411 -111.2182,266.8216 -110.8014,266.2282 -110.4132,265.6614 -110.0527,265.1219 -109.7194,264.6103 -109.4125,264.127 -109.1314,263.6726 -108.8752,263.2477 -108.6433,262.8527 -108.435,262.4882 -108.2495,262.1547 -108.086,261.8526 -107.9439,261.5824 -107.8222,261.3445 -107.7203,261.1394 -107.6374,260.9676 -107.5727,260.8293 -107.5253,260.7251 -107.4945,260.6552 -105.6066,256.0786 -85.5977,263.4427 -87.1271,268.1512 -87.1489,268.2244 -87.1805,268.3344 -87.2208,268.4817 -87.2691,268.6663 -87.3244,268.8885 -87.386,269.1485 -87.4529,269.4464 -87.5243,269.7824 -87.5993,270.1566 -87.677,270.5692 -87.7565,271.0202 -87.8369,271.5098 -87.9174,272.038 -87.997,272.605 -88.0749,273.2106 -88.1502,273.8551 -88.222,274.5383 -88.2893,275.2603 -88.3514,276.0211 -88.4073,276.8206 -88.4561,277.6589 -88.4969,278.5357 -88.5288,279.4512 -88.551,280.4051 -88.5625,281.3973 -88.5624,282.4278 -88.55,283.4964 -88.5242,284.6029 -88.4842,285.7472 -88.4291,286.929 -88.358,288.1483 -88.2701,289.4047 -88.1645,290.698 -88.0403,292.028 -87.8967,293.3945 -87.7327,294.7971 -87.5475,296.2355 -87.3403,297.7095 -87.1103,299.2187 -86.8565,300.7628 -86.5781,302.3414 -86.2743,303.9542 -85.9442,305.6007 -85.5871,307.2807 -85.0625,308.4872 -71.9599,311.8041 -70.9244,310.9924 -69.811,309.6847 -68.7373,308.3935 -67.7027,307.1196 -66.7068,305.8635 -65.7489,304.6262 -64.8284,303.4082 -63.9449,302.2104 -63.0976,301.0333 -62.286,299.8776 -61.5095,298.7441 -60.7675,297.6334 -60.0592,296.5461 -59.3841,295.4828 -58.7415,294.4442 -58.1307,293.4309 -57.5511,292.4435 -57.0019,291.4825 -56.4826,290.5486 -55.9922,289.6422 -55.5302,288.764 -55.0959,287.9145 -54.6884,287.0941 -54.3071,286.3035 -53.9512,285.543 -53.6199,284.8131 -53.3125,284.1145 -53.0282,283.4473 -52.7663,282.8123 -52.5259,282.2096 -52.3062,281.6398 -52.1065,281.1033 -51.926,280.6004 -51.7638,280.1315 -51.6191,279.697 -51.4911,279.2971 -51.379,278.9323 -51.2819,278.6028 -51.199,278.309 -51.1295,278.051 -51.0724,277.8292 -51.0271,277.6439 -50.9925,277.4952 -50.9678,277.3834 -50.9523,277.3086 -50.0571,272.4395 -28.9544,275.4826 -29.4714,280.4062 -29.4776,280.4823 -29.4855,280.5965 -29.4943,280.7489 -29.5032,280.9396 -29.5111,281.1684 -29.5173,281.4355 -29.5208,281.7408 -29.5208,282.0843 -29.5163,282.4659 -29.5065,282.8856 -29.4905,283.3434 -29.4674,283.839 -29.4363,284.3724 -29.3963,284.9435 -29.3466,285.5521 -29.2862,286.1981 -29.2144,286.8814 -29.1302,287.6016 -29.0327,288.3587 -28.9211,289.1524 -28.7946,289.9824 -28.6522,290.8486 -28.4931,291.7507 -28.3164,292.6883 -28.1214,293.6613 -27.9071,294.6692 -27.6727,295.7119 -27.4174,296.7888 -27.1404,297.8998 -26.8408,299.0444 -26.5178,300.2222 -26.1706,301.4329 -25.7984,302.676 -25.4004,303.9511 -24.9758,305.2579 -24.5238,306.5957 -24.0436,307.9642 -23.5345,309.3629 -22.9956,310.7913 -22.4263,312.2489 -21.8258,313.7351 -21.1933,315.2495 -20.5282,316.7914 -19.8296,318.3604 -19.0655,319.4315 -5.5597,319.9517 -4.7156,318.9425 -3.8984,317.4319 -3.1166,315.9457 -2.3695,314.4845 -1.6565,313.0488 -0.9767,311.6393 -0.3296,310.2566 0.2856,308.9012 0.8696,307.5737 1.4231,306.2746 1.947,305.0044 2.4419,303.7637 2.9086,302.5529 3.3479,301.3725 3.7605,300.223 4.1473,299.1048 4.5089,298.0185 4.8463,296.9643 5.1602,295.9428 5.4514,294.9543 5.7207,293.9992 5.9689,293.0779 6.1969,292.1908 6.4055,291.3381 6.5955,290.5202 6.7678,289.7375 6.9232,288.9902 7.0626,288.2785 7.1868,287.6029 7.2966,286.9634 7.393,286.3604 7.4768,285.7941 7.5488,285.2646 7.61,284.7723 7.6612,284.3171 7.7033,283.8994 7.7371,283.5193 7.7635,283.1768 7.7835,282.8721 7.7979,282.6053 7.8076,282.3765 7.8134,282.1858 7.8163,282.0332 7.8172,281.9187 7.8169,281.8423 7.6801,276.8935 28.9544,275.4826 29.4724,280.4061 29.4822,280.4818 29.4981,280.5952 29.5212,280.7461 29.5521,280.9344 29.592,281.1599 29.6414,281.4225 29.7015,281.7218 29.7729,282.0578 29.8567,282.4302 29.9535,282.8387 30.0643,283.283 30.19,283.763 30.3313,284.2783 30.4892,284.8286 30.6643,285.4136 30.8577,286.033 31.07,286.6863 31.3021,287.3733 31.5549,288.0936 31.829,288.8467 32.1254,289.6323 32.4448,290.45 32.788,291.2993 33.1557,292.1797 33.5488,293.0908 33.9679,294.0322 34.414,295.0033 34.8876,296.0037 35.3895,297.0328 35.9206,298.0901 36.4814,299.175 37.0727,300.287 37.6952,301.4256 38.3497,302.5901 39.0367,303.78 39.757,304.9946 40.5112,306.2334 41.3,307.4957 42.124,308.7808 42.9839,310.0882 43.8803,311.4171 44.8138,312.7669 45.7851,314.1368 46.7946,315.5263 47.7646,316.4151 61.0835,314.1159 61.6993,312.9533 62.1846,311.3058 62.6403,309.6895 63.0673,308.1049 63.4662,306.5523 63.8381,305.0324 64.1835,303.5453 64.5035,302.0916 64.7987,300.6717 65.0701,299.2859 65.3184,297.9345 65.5446,296.618 65.7493,295.3366 65.9336,294.0907 66.0982,292.8805 66.244,291.7064 66.3719,290.5686 66.4828,289.4673 66.5774,288.4029 66.6567,287.3754 66.7215,286.3852 66.7728,285.4325 66.8114,284.5173 66.8381,283.6399 66.854,282.8004 66.8597,281.9989 66.8564,281.2356 66.8447,280.5106 66.8257,279.8238 66.8002,279.1755 66.7691,278.5656 66.7333,277.9943 66.6937,277.4614 66.6512,276.9671 66.6066,276.5113 66.5609,276.0939 66.515,275.7151 66.4696,275.3746 66.4258,275.0724 66.3844,274.8085 66.3463,274.5827 66.3124,274.3949 66.2835,274.245 66.2605,274.1328 66.2444,274.0582 65.0817,269.2459 85.5977,263.4427 87.128,268.1509 87.1533,268.2229 87.1925,268.3305 87.2465,268.4733 87.3159,268.6511 87.4017,268.8634 87.5047,269.1099 87.6257,269.3902 87.7654,269.704 87.9247,270.0508 88.1044,270.4303 88.3052,270.8419 88.5279,271.2853 88.7733,271.7599 89.0421,272.2654 89.3351,272.8012 89.653,273.3668 89.9965,273.9617 90.3664,274.5854 90.7634,275.2374 91.1881,275.9171 91.6413,276.6239 92.1237,277.3573 92.636,278.1167 93.1787,278.9014 93.7527,279.7109 94.3584,280.5446 94.9966,281.4017 95.6678,282.2818 96.3728,283.184 97.112,284.1078 97.8862,285.0524 98.6958,286.0172 99.5414,287.0015 100.4237,288.0045 101.3431,289.0255 102.3001,290.0638 103.2954,291.1187 104.3294,292.1894 105.4027,293.2752 106.5156,294.3752 107.6687,295.4886 108.8624,296.6148 110.0973,297.7529 111.3736,298.9021 112.5073,299.5699 125.057,294.5518 125.4177,293.2865 125.5498,291.5741 125.6595,289.8984 125.7477,288.2596 125.8152,286.6581 125.8628,285.094 125.8916,283.5676 125.9023,282.0792 125.8959,280.6289 125.8732,279.2169 125.8351,277.8435 125.7826,276.5087 125.7165,275.2127 125.6377,273.9557 125.5471,272.7378 125.4456,271.559 125.3342,270.4195 125.2136,269.3192 125.0848,268.2584 124.9488,267.2369 124.8063,266.2549 124.6584,265.3122 124.5058,264.4091 124.3496,263.5453 124.1905,262.7208 124.0296,261.9357 123.8676,261.1897 123.7055,260.4829 123.5441,259.8152 123.3843,259.1863 123.2271,258.5962 123.0733,258.0448 122.9238,257.5318 122.7794,257.0571 122.641,256.6205 122.5096,256.2218 122.3858,255.8608 122.2707,255.5372 122.165,255.2507 122.0697,255.0011 121.9854,254.7882 121.9132,254.6116 121.8538,254.4709 121.808,254.366 121.7767,254.2964 119.6389,249.831 138.5,239.889 140.9758,244.1762 141.0155,244.2414 141.0762,244.3385 141.1587,244.467 141.2635,244.6264 141.3916,244.8162 141.5436,245.0359 141.7202,245.285 141.9222,245.5629 142.1501,245.869 142.4047,246.2028 142.6867,246.5637 142.9968,246.951 143.3355,247.3643 143.7035,247.8028 144.1014,248.266 144.53,248.7532 144.9897,249.2637 145.4812,249.7969 146.005,250.3521 146.5618,250.9286 147.1521,251.5257 147.7764,252.1428 148.4354,252.779 149.1294,253.4338 149.8591,254.1063 150.6249,254.7958 151.4274,255.5015 152.2669,256.2228 153.1441,256.9587 154.0592,257.7086 155.0128,258.4716 156.0053,259.247 157.0371,260.034 158.1087,260.8316 159.2202,261.6392 160.3723,262.4559 161.5652,263.2808 162.7992,264.1131 164.0747,264.9519 165.392,265.7965 166.7514,266.6459 168.1532,267.4993 169.5977,268.3558 171.0851,269.2145 172.3328,269.632 183.565,262.1143 183.6547,260.8017 183.4279,259.0992 183.1868,257.4373 182.9323,255.816 182.6654,254.2355 182.3868,252.6956 182.0976,251.1966 181.7986,249.7385 181.4908,248.3212 181.175,246.9449 180.8523,245.6093 180.5233,244.3146 180.1892,243.0608 179.8508,241.8476 179.509,240.6751 179.1646,239.5432 178.8187,238.4517 178.472,237.4006 178.1255,236.3897 177.78,235.4188 177.4365,234.4879 177.0958,233.5966 176.7588,232.7449 176.4264,231.9324 176.0994,231.1591 175.7787,230.4245 175.4652,229.7286 175.1596,229.0709 174.863,228.4513 174.576,227.8694 174.2995,227.3249 174.0344,226.8175 173.7815,226.3468 173.5416,225.9125 173.3155,225.5143 173.104,225.1516 172.9079,224.8242 172.728,224.5315 172.565,224.2733 172.4199,224.049 172.2932,223.8583 172.1858,223.7005 172.0985,223.5753 172.0319,223.4822 171.9867,223.4206 168.9673,219.4973 185.3492,205.8511 188.6622,209.5299 188.7146,209.5854 188.7942,209.6677 188.9015,209.7763 189.0373,209.9104 189.202,210.0694 189.3964,210.2528 189.6209,210.4597 189.8762,210.6895 190.1628,210.9415 190.4813,211.2151 190.8322,211.5094 191.2159,211.8239 191.6332,212.1577 192.0843,212.5101 192.5699,212.8804 193.0903,213.2678 193.6462,213.6716 194.2378,214.091 194.8656,214.5251 195.5301,214.9733 196.2316,215.4346 196.9706,215.9084 197.7474,216.3938 198.5624,216.8899 199.416,217.396 200.3084,217.9112 201.2401,218.4347 202.2112,218.9656 203.2222,219.5031 204.2733,220.0463 205.3647,220.5944 206.4967,221.1465 207.6696,221.7017 208.8835,222.2592 210.1388,222.818 211.4354,223.3773 212.7737,223.9362 214.1538,224.4937 215.5759,225.0491 217.04,225.6013 218.5463,226.1495 220.0949,226.6928 221.6859,227.2302 223.3193,227.7609 224.6266,227.9099 234.0503,218.2212 233.8651,216.9186 233.2893,215.3005 232.708,213.725 232.122,212.1921 231.5322,210.7015 230.9396,209.2533 230.345,207.8472 229.7494,206.4831 229.1537,205.1608 228.5586,203.8801 227.9652,202.6409 227.3744,201.4429 226.7868,200.2858 226.2036,199.1696 225.6254,198.0938 225.0533,197.0582 224.4879,196.0625 223.9303,195.1064 223.3812,194.1896 222.8414,193.3118 222.3119,192.4726 221.7933,191.6717 221.2866,190.9086 220.7925,190.183 220.3119,189.4946 219.8455,188.8428 219.3941,188.2272 218.9585,187.6474 218.5395,187.1031 218.1378,186.5935 217.7541,186.1184 217.3893,185.6772 217.0441,185.2694 216.7191,184.8945 216.4151,184.5519 216.1329,184.2412 215.873,183.9616 215.6362,183.7128 215.4231,183.4941 215.2345,183.3049 215.0709,183.1446 214.9331,183.0127 214.8216,182.9084 214.7371,182.8311 214.6802,182.7803 210.911,179.5705 224.0977,162.8165 228.1032,165.7261 228.166,165.7695 228.261,165.8335 228.3885,165.9173 228.5492,166.0203 228.7434,166.1416 228.9716,166.2805 229.2343,166.4362 229.5318,166.6079 229.8645,166.7949 230.2329,166.9962 230.6373,167.2112 231.0781,167.439 231.5556,167.6788 232.0702,167.9297 232.6221,168.1909 233.2117,168.4617 233.8393,168.7411 234.5052,169.0283 235.2096,169.3224 235.9527,169.6226 236.7349,169.928 237.5562,170.2378 238.417,170.551 239.3173,170.8669 240.2574,171.1845 241.2375,171.5029 242.2576,171.8212 243.318,172.1386 244.4186,172.4542 245.5596,172.767 246.7412,173.0762 247.9632,173.3809 249.2259,173.6801 250.5292,173.973 251.8732,174.2586 253.2578,174.5361 254.683,174.8045 256.1489,175.0629 257.6554,175.3105 259.2023,175.5462 260.7897,175.7693 262.4174,175.9787 264.0854,176.1736 265.7934,176.3531 267.103,176.227 274.3064,164.7907 273.8545,163.5551 272.9549,162.0921 272.0587,160.6719 271.1668,159.2943 270.28,157.9589 269.3992,156.6656 268.5253,155.4138 267.6591,154.2033 266.8014,153.0338 265.9531,151.9048 265.1151,150.8161 264.288,149.7671 263.4728,148.7575 262.6702,147.7869 261.881,146.8548 261.106,145.9608 260.346,145.1044 259.6018,144.2851 258.8741,143.5026 258.1636,142.7561 257.4711,142.0454 256.7974,141.3698 256.1431,140.7287 255.509,140.1217 254.8957,139.5482 254.3039,139.0076 253.7344,138.4994 253.1878,138.0229 252.6648,137.5775 252.1659,137.1626 251.6919,136.7777 251.2433,136.4219 250.8208,136.0948 250.425,135.7957 250.0565,135.5238 249.7157,135.2785 249.4034,135.0591 249.1201,134.865 248.8662,134.6953 248.6423,134.5495 248.449,134.4267 248.2868,134.3263 248.156,134.2475 248.0573,134.1895 247.9911,134.1516 243.6369,131.7956 253.0521,112.6661 257.575,114.6792 257.6455,114.7086 257.7516,114.7515 257.8938,114.807 258.0724,114.8743 258.2876,114.9526 258.5397,115.041 258.829,115.1387 259.1557,115.2448 259.52,115.3585 259.9222,115.4788 260.3625,115.605 260.841,115.7362 261.3579,115.8715 261.9134,116.0099 262.5076,116.1507 263.1407,116.2929 263.8126,116.4357 264.5237,116.5782 265.2738,116.7195 266.0631,116.8586 266.8917,116.9947 267.7595,117.127 268.6665,117.2544 269.6129,117.3762 270.5985,117.4913 271.6233,117.599 272.6874,117.6983 273.7905,117.7883 274.9327,117.8682 276.1138,117.9369 277.3338,117.9937 278.5926,118.0376 279.8898,118.0678 281.2256,118.0833 282.5995,118.0832 284.0116,118.0668 285.4615,118.033 286.9491,117.981 288.4741,117.9099 290.0362,117.8189 291.6353,117.7071 293.271,117.5735 294.943,117.4174 296.6511,117.2378 297.9059,116.8422 302.5741,104.1581 301.8752,103.0435 300.691,101.7995 299.5191,100.5966 298.3603,99.4346 297.2152,98.3128 296.0848,97.2308 294.9697,96.1881 293.8708,95.1842 292.7887,94.2185 291.7242,93.2906 290.6781,92.3998 289.651,91.5457 288.6437,90.7277 287.6568,89.9452 286.6911,89.1975 285.7472,88.4842 284.8257,87.8045 283.9274,87.1579 283.0529,86.5437 282.2028,85.9613 281.3777,85.4101 280.5782,84.8893 279.8049,84.3983 279.0584,83.9364 278.3393,83.503 277.6481,83.0972 276.9854,82.7185 276.3516,82.366 275.7474,82.0391 275.1732,81.7371 274.6295,81.459 274.1168,81.2044 273.6355,80.9722 273.1861,80.7619 272.7691,80.5726 272.3848,80.4035 272.0337,80.2539 271.7162,80.1229 271.4326,80.0097 271.1833,79.9136 270.9687,79.8337 270.7891,79.7692 270.6449,79.7193 270.5362,79.6831 270.4635,79.6598 265.7147,78.2606 270.9469,57.5915 275.7895,58.6204 275.8645,58.6345 275.9773,58.6543 276.128,58.679 276.3166,58.7077 276.5434,58.7396 276.8084,58.7736 277.1116,58.809 277.4533,58.8449 277.8333,58.8804 278.2517,58.9145 278.7086,58.9464 279.2039,58.9752 279.7376,59 280.3098,59.02 280.9203,59.0341 281.5691,59.0416 282.2561,59.0416 282.9812,59.0331 283.7443,59.0153 284.5453,58.9873 285.384,58.9482 286.2603,58.8971 287.1741,58.8332 288.1251,58.7556 289.1131,58.6633 290.1379,58.5555 291.1993,58.4314 292.2971,58.2901 293.4309,58.1307 294.6006,57.9524 295.8057,57.7543 297.046,57.5356 298.3213,57.2953 299.631,57.0328 300.975,56.7471 302.3527,56.4374 303.7639,56.1029 305.2082,55.7428 306.6851,55.3562 308.1942,54.9424 309.735,54.5005 311.3072,54.0298 312.9102,53.5294 314.5436,52.9987 315.6888,52.3508 317.6178,38.9733 316.7024,38.0283 315.2855,37.0577 313.8891,36.1248 312.514,35.2291 311.1608,34.3699 309.8301,33.5466 308.5226,32.7585 307.2389,32.005 305.9797,31.2854 304.7456,30.5991 303.5371,29.9453 302.3549,29.3234 301.1995,28.7327 300.0715,28.1724 298.9714,27.6419 297.8998,27.1404 296.8572,26.6672 295.8441,26.2215 294.861,25.8025 293.9083,25.4096 292.9866,25.042 292.0963,24.6988 291.2379,24.3793 290.4117,24.0827 289.6182,23.8082 288.8577,23.5551 288.1307,23.3224 287.4376,23.1094 286.7786,22.9153 286.1541,22.7392 285.5645,22.5803 285.01,22.4378 284.491,22.3108 284.0077,22.1985 283.5604,22.1 283.1494,22.0145 282.7749,21.9411 282.437,21.879 282.1361,21.8273 281.8723,21.7851 281.6458,21.7516 281.4567,21.7258 281.3052,21.707 281.1914,21.6942 281.1155,21.6865 276.1794,21.3052"/>
  <circle cx="0" cy="0" r="80" fill="#090112"/>
  <mask id="gear-hole">
    <rect x="-320" y="-320" width="640" height="640" fill="white"/>
    <circle cx="0" cy="0" r="80" fill="black"/>
  </mask>
</svg>
