<svg version="1.2" xmlns="http://www.w3.org/2000/svg" width="640" height="640" viewBox="-320 -320 640 640" overflow="scroll"><path fill="#1a1734" d="M277 0h4.95l.077-.002.115-.004.152-.007.19-.012.229-.016.266-.021.304-.029.342-.036.379-.044.416-.054.454-.063.49-.075.528-.087.563-.1.6-.112.637-.128.671-.143.708-.159.743-.176.777-.194.813-.213.846-.232.88-.252.915-.274.947-.296.98-.318 1.013-.342 1.044-.367 1.076-.391 1.107-.418 1.137-.444 1.168-.472 1.198-.5 1.226-.53 1.255-.558 1.284-.59 1.31-.62 1.338-.653 1.365-.685 1.39-.718 1.415-.753 1.44-.787 1.464-.823 1.487-.859.986-.872-.895-13.486-1.092-.734-1.587-.655-1.56-.622-1.532-.59-1.502-.56-1.473-.528-1.442-.499-1.413-.47-1.381-.442-1.35-.415-1.318-.388-1.286-.363-1.253-.337-1.22-.314-1.186-.29-1.152-.267-1.118-.247-1.084-.225-1.049-.205-1.013-.187-.978-.168-.942-.15-.907-.134-.87-.119-.833-.103-.796-.09-.76-.076-.722-.064-.685-.053-.647-.042-.61-.033-.572-.025-.534-.016-.496-.01-.458-.003-.42.002-.382.007-.343.009-.305.012-.267.014-.228.014-.19.014-.153.013-.114.011-.076.008-4.907.654-3.627-21.01 4.842-1.03.075-.018.11-.028.148-.038.184-.05.22-.064.256-.077.292-.09.327-.107.361-.122.396-.14.43-.156.465-.175.498-.194.53-.215.564-.235.596-.257.627-.28.66-.302.689-.327.72-.351.75-.377.78-.403.81-.43.836-.458.865-.486.893-.516.919-.545.945-.575.971-.607.996-.639 1.02-.67 1.045-.705 1.067-.738 1.09-.773 1.111-.807 1.133-.844 1.153-.88 1.173-.916 1.192-.954 1.21-.992 1.228-1.03 1.245-1.07 1.261-1.109 1.276-1.149.783-1.057-3.679-13.006-1.22-.49-1.69-.311-1.655-.284-1.62-.26-1.586-.234-1.55-.21-1.516-.19-1.479-.165-1.443-.145-1.406-.126-1.37-.105-1.333-.088-1.296-.07-1.258-.052-1.221-.037-1.183-.023-1.145-.008-1.107.005-1.068.017-1.03.029-.992.039-.953.048-.914.057-.875.066-.837.072-.798.078-.758.083-.72.087-.681.09-.642.094-.604.095-.564.095-.526.095-.487.094-.449.092-.41.089-.372.085-.334.081-.296.075-.258.069-.22.061-.184.054-.146.044-.109.035-.073.024-4.664 1.659-7.916-19.797 4.523-2.014.069-.033.103-.05.136-.069.17-.087.202-.108.234-.128.266-.15.298-.171.328-.195.358-.218.389-.243.418-.268.446-.294.474-.32.503-.347.529-.375.556-.404.581-.433.607-.463.632-.494.655-.524.68-.557.701-.589.724-.621.745-.656.766-.69.785-.724.805-.76.824-.795.841-.831.859-.869.875-.906.89-.944.906-.982.919-1.021.933-1.06.945-1.1.956-1.141.968-1.18.978-1.223.986-1.263.996-1.305 1.002-1.347 1.01-1.39.546-1.196-6.303-11.957-1.296-.226-1.717.047-1.678.066-1.639.084-1.6.1-1.56.116-1.521.131-1.482.145-1.441.158-1.402.17-1.362.182-1.322.191-1.282.202-1.242.21-1.202.217-1.161.224-1.122.23-1.081.235-1.042.239-1.002.242-.962.244-.922.246-.882.246-.843.246-.803.244-.764.242-.725.24-.686.234-.647.23-.609.225-.57.218-.532.21-.495.203-.457.193-.42.184-.383.172-.346.16-.31.15-.273.134-.238.121-.203.106-.169.09-.133.074-.1.057-.066.038-4.217 2.593-11.86-17.718 4.006-2.91.06-.047.09-.07.12-.096.147-.121.176-.147.202-.174.23-.202.255-.23.28-.259.306-.288.33-.318.352-.349.376-.38.397-.412.42-.444.439-.477.46-.51.478-.545.498-.58.515-.613.532-.65.549-.685.564-.722.578-.759.593-.796.605-.833.618-.872.63-.91.64-.95.65-.988.66-1.028.667-1.068.675-1.109.68-1.149.688-1.19.692-1.23.695-1.273.7-1.315.7-1.356.702-1.398.703-1.441.702-1.483.7-1.526.7-1.57.284-1.284-8.65-10.385-1.315.048-1.67.404-1.627.413-1.586.423-1.544.43-1.502.438-1.46.445-1.42.45-1.377.454-1.336.458-1.294.46-1.254.463-1.212.463-1.17.464-1.131.462-1.09.46-1.05.459-1.008.455-.97.45-.929.445-.89.439-.85.432-.813.424-.773.416-.735.406-.697.395-.659.385-.622.373-.585.36-.549.345-.513.332-.477.317-.441.3-.407.285-.373.266-.338.249-.305.229-.273.21-.24.188-.207.168-.177.146-.145.123-.116.1-.085.076-.057.052-3.586 3.413-15.284-14.866 3.313-3.68.05-.058.073-.087.096-.118.12-.15.14-.18.163-.212.182-.245.202-.278.22-.311.24-.346.255-.38.273-.414.288-.45.304-.485.317-.522.331-.558.344-.595.355-.632.366-.67.376-.708.386-.746.394-.784.401-.823.408-.863.414-.902.42-.941.423-.981.426-1.022.43-1.061.43-1.102.43-1.143.431-1.184.43-1.224.427-1.266.425-1.306.42-1.348.417-1.39.41-1.43.403-1.473.397-1.514.387-1.555.379-1.597.368-1.638.357-1.68.012-1.316-10.621-8.36-1.276.32-1.55.743-1.505.742-1.464.744-1.42.742-1.379.74-1.336.739-1.294.735-1.253.73-1.212.726-1.17.72-1.13.713-1.089.705-1.05.697-1.009.687-.97.677-.931.667-.892.654-.855.642-.816.629-.78.614-.742.6-.706.583-.67.567-.634.55-.6.532-.565.514-.53.493-.499.474-.464.453-.433.431-.4.409-.37.386-.339.362-.309.339-.28.313-.25.287-.223.262-.195.235-.168.207-.143.18-.117.15-.092.122-.068.092-.044.062-2.798 4.084-18.041-11.363 2.475-4.288.037-.067.053-.1.07-.137.086-.17.1-.206.114-.241.128-.278.14-.314.15-.35.162-.388.172-.424.18-.462.189-.5.196-.538.202-.577.208-.614.212-.654.216-.692.219-.731.22-.77.223-.81.222-.85.221-.888.22-.929.218-.968.214-1.008.21-1.048.205-1.087.199-1.128.192-1.168.184-1.207.175-1.247.165-1.287.156-1.327.143-1.366.131-1.406.118-1.446.104-1.485.089-1.524.072-1.563.056-1.602.039-1.64.02-1.68v-1.717l-.263-1.29-12.127-5.968-1.181.579-1.361 1.047-1.32 1.04-1.276 1.03-1.235 1.022-1.195 1.012-1.153 1-1.113.987-1.074.976-1.034.961-.995.948-.957.932-.919.916-.881.9-.845.882-.808.864-.772.846-.737.825-.702.806-.668.785-.635.762-.601.741-.57.718-.537.694-.506.67-.476.645-.446.62-.417.593-.388.567-.36.54-.334.51-.306.484-.282.454-.256.425-.232.395-.208.365-.186.333-.163.302-.142.27-.122.239-.102.205-.083.171-.064.139-.048.104-.03.07-1.888 4.576-20.01-7.364 1.53-4.708.022-.073.031-.11.04-.148.05-.184.054-.223.062-.26.067-.297.071-.336.075-.375.078-.412.08-.451.08-.49.08-.528.08-.567.078-.606.075-.644.072-.683.067-.722.062-.761.056-.8.05-.838.04-.877.032-.915.022-.954.011-.992v-1.03l-.012-1.07-.026-1.106-.04-1.144-.055-1.182-.071-1.22-.088-1.256-.105-1.293-.125-1.33-.143-1.366-.164-1.403-.186-1.438-.207-1.474-.23-1.51-.254-1.544-.278-1.578-.304-1.613-.33-1.647-.357-1.68-.525-1.206-13.102-3.317-1.036.812-1.113 1.307-1.074 1.291-1.034 1.274-.996 1.257-.958 1.237-.92 1.218-.884 1.198-.847 1.177-.812 1.155-.776 1.134-.742 1.11-.709 1.088-.675 1.063-.642 1.039-.611 1.013-.58.988-.55.96-.518.934-.49.907-.463.878-.434.85-.408.82-.38.79-.357.761-.331.73-.307.698-.285.668-.262.635-.24.602-.22.57-.2.537-.18.503-.162.469-.145.434-.128.4-.112.365-.097.33-.083.293-.07.258-.057.222-.045.185-.035.149-.024.112-.016.074-.895 4.87-21.103-3.044.517-4.923.007-.076.007-.114.01-.153.008-.19.008-.23.006-.267.004-.305v-.343l-.005-.382-.01-.42-.015-.457-.024-.496-.03-.533-.04-.571-.05-.61-.06-.645-.073-.683-.084-.72-.097-.758-.112-.793-.126-.83-.143-.867-.159-.902-.177-.937-.195-.973-.214-1.008-.234-1.043-.256-1.077-.277-1.11-.3-1.145-.322-1.178-.347-1.21-.373-1.244-.398-1.275-.424-1.307-.452-1.338-.48-1.368-.51-1.399-.538-1.428-.57-1.458-.6-1.486-.633-1.514-.665-1.542-.698-1.57-.764-1.07-13.506-.52-.844 1.009-.818 1.51-.781 1.486-.748 1.462-.713 1.435-.68 1.41-.646 1.382-.616 1.356-.584 1.327-.553 1.3-.524 1.27-.495 1.24-.467 1.211-.439 1.18-.413 1.15-.386 1.118-.362 1.087-.337 1.054-.314 1.021-.291.989-.27.955-.248.921-.228.887-.208.853-.19.818-.173.782-.155.748-.14.712-.124.675-.11.64-.096.603-.084.566-.072.53-.061.492-.051.455-.042.418-.034.38-.026.342-.02.305-.015.267-.01.228-.005.191-.003.153-.001.114v.077l.137 4.948-21.274 1.411-.518-4.923-.01-.076-.016-.113-.023-.151-.031-.188-.04-.226-.05-.262-.06-.3-.07-.336-.085-.372-.096-.409-.111-.444-.126-.48-.141-.515-.158-.55-.175-.586-.194-.619-.212-.653-.232-.687-.253-.72-.274-.754-.296-.785-.32-.818-.343-.85-.368-.88-.393-.91-.419-.942-.446-.971-.474-1-.502-1.03-.53-1.057-.561-1.085-.592-1.112-.622-1.139-.655-1.164-.687-1.19-.72-1.215-.754-1.238-.789-1.263-.824-1.285-.86-1.307-.896-1.33-.934-1.349-.971-1.37-1.01-1.39-.97-.888-13.319 2.3-.615 1.162-.486 1.647-.455 1.616-.427 1.585-.4 1.553-.371 1.52-.345 1.487-.32 1.453-.296 1.42-.271 1.386-.248 1.351-.227 1.317-.204 1.281-.185 1.246-.164 1.21-.146 1.175-.128 1.137-.11 1.102-.095 1.064-.08 1.028-.065.99-.05.952-.04.916-.026.877-.016.84-.006.801.004.763.011.725.02.687.025.649.03.61.037.57.04.534.042.494.044.456.046.417.046.379.045.34.044.303.042.264.038.225.034.188.028.15.024.112.016.075 1.162 4.812-20.516 5.803-1.53-4.708-.025-.072-.04-.107-.053-.143-.07-.178-.086-.212-.103-.247-.12-.28-.14-.314-.16-.347-.18-.38-.2-.41-.223-.444-.245-.475-.27-.505-.292-.536-.318-.566-.343-.595-.37-.623-.397-.652-.425-.68-.453-.707-.483-.733-.512-.76-.543-.784-.574-.81-.605-.834-.639-.857-.67-.88-.706-.902-.739-.924-.774-.944-.81-.965-.845-.985-.883-1.002-.92-1.022-.956-1.038-.995-1.055-1.034-1.07-1.074-1.086-1.113-1.1-1.153-1.114-1.193-1.126-1.235-1.138-1.277-1.15-1.133-.667-12.55 5.018-.36 1.266-.133 1.712-.11 1.676-.088 1.638-.067 1.602-.048 1.564-.029 1.526-.01 1.489.006 1.45.023 1.412.038 1.373.052 1.335.067 1.296.078 1.257.09 1.218.102 1.179.112 1.14.12 1.1.13 1.06.135 1.022.143.982.148.943.152.903.156.864.16.824.16.785.162.746.162.707.162.668.16.629.157.59.154.551.15.513.144.475.138.437.131.398.124.361.115.324.106.286.095.25.085.213.072.176.06.141.045.105.031.07 2.138 4.465-18.861 9.942-2.476-4.287-.04-.065-.06-.097-.083-.129-.105-.16-.128-.19-.152-.219-.176-.249-.202-.278-.228-.306-.255-.334-.282-.36-.31-.388-.338-.413-.368-.439-.398-.463-.429-.487-.46-.51-.491-.534-.524-.555-.557-.577-.59-.597-.624-.617-.66-.636-.693-.655-.73-.672-.766-.69-.802-.706-.84-.72-.877-.737-.915-.75-.954-.763-.992-.775-1.032-.787-1.072-.798-1.111-.807-1.152-.817-1.193-.825-1.234-.832-1.276-.839-1.317-.844-1.36-.85-1.401-.853-1.445-.857-1.487-.858-1.248-.418-11.232 7.518-.09 1.312.227 1.703.241 1.662.255 1.621.267 1.58.278 1.54.29 1.5.298 1.458.308 1.417.316 1.376.323 1.336.329 1.294.334 1.254.338 1.213.342 1.173.344 1.132.346 1.091.347 1.051.347 1.011.345.971.344.931.34.891.337.852.333.813.327.773.32.734.314.696.305.658.297.62.287.582.276.544.266.507.252.471.24.435.227.398.211.362.196.328.18.293.163.258.145.224.127.19.107.159.088.125.066.093.045.061 3.02 3.924-16.382 13.646-3.313-3.679-.053-.055-.08-.083-.107-.108-.135-.134-.165-.16-.194-.183-.225-.207-.255-.23-.287-.251-.318-.274-.351-.294-.384-.315-.417-.334-.451-.352-.486-.37-.52-.388-.556-.404-.592-.419-.628-.434-.664-.448-.702-.462-.739-.473-.776-.486-.815-.496-.854-.506-.892-.515-.932-.524-.971-.53-1.011-.538-1.051-.543-1.092-.548-1.132-.553-1.173-.555-1.214-.557-1.255-.559-1.296-.56-1.339-.558-1.38-.558-1.422-.555-1.464-.552-1.506-.548-1.549-.544-1.59-.537-1.634-.53-1.308-.15-9.423 9.689.185 1.302.576 1.619.581 1.575.586 1.533.59 1.49.592 1.449.595 1.406.596 1.364.595 1.322.595 1.28.594 1.24.59 1.198.588 1.157.583 1.116.579 1.076.572 1.036.565.995.558.957.549.916.54.878.53.84.518.8.506.763.495.726.48.688.467.652.45.616.437.58.418.544.402.51.384.475.365.44.345.409.325.375.304.342.282.31.26.28.237.25.213.218.189.19.163.16.138.131.111.105.085.077.057.05 3.769 3.21-13.187 16.755-4.005-2.91-.063-.043-.095-.064-.127-.084-.161-.103-.194-.122-.229-.138-.262-.156-.298-.172-.332-.187-.369-.201-.404-.215-.441-.228-.478-.24-.514-.25-.552-.262-.59-.27-.627-.28-.666-.287-.705-.294-.743-.3-.782-.306-.821-.31-.861-.313-.9-.316-.94-.318-.98-.318-1.02-.318-1.061-.318-1.1-.315-1.142-.313-1.181-.31-1.222-.304-1.263-.3-1.303-.292-1.344-.286-1.385-.277-1.425-.268-1.466-.259-1.506-.248-1.547-.235-1.588-.223-1.627-.21-1.668-.195-1.708-.18-1.31.127-7.203 11.436.452 1.236.9 1.463.895 1.42.892 1.378.887 1.335.88 1.293.875 1.252.866 1.21.858 1.17.848 1.13.838 1.088.827 1.049.815 1.01.803.97.789.932.775.894.76.857.744.819.728.782.71.747.693.71.674.676.654.641.634.607.613.574.592.54.57.509.546.476.523.446.5.414.473.385.449.356.422.327.396.3.369.271.34.245.313.22.283.194.254.17.224.145.193.123.162.1.131.08.099.058.066.037 4.354 2.356-9.415 19.13-4.523-2.013-.07-.03-.107-.042-.142-.056-.178-.067-.216-.079-.252-.088-.289-.098-.327-.106-.364-.114-.402-.12-.44-.126-.479-.131-.517-.135-.555-.139-.595-.14-.633-.143-.672-.143-.71-.142-.75-.141-.79-.14-.829-.136-.868-.132-.906-.127-.947-.122-.986-.115-1.024-.108-1.064-.1-1.103-.09-1.143-.08-1.18-.068-1.22-.057-1.26-.044-1.297-.03-1.336-.015h-1.373l-1.413.016-1.45.034-1.487.052-1.525.071-1.562.091-1.6.112-1.635.133-1.672.157-1.708.18-1.255.395-4.668 12.684.699 1.115 1.184 1.244 1.172 1.202 1.159 1.162 1.145 1.122 1.13 1.082 1.115 1.043 1.1 1.004 1.081.965 1.065.928 1.046.891 1.027.854 1.007.818.987.783.966.747.944.714.921.68.899.646.874.614.85.583.825.55.8.522.773.49.747.463.719.433.69.406.664.378.633.353.605.327.574.302.543.278.513.255.482.232.449.21.417.19.384.169.351.15.318.13.283.113.25.096.214.08.18.065.144.05.109.036.072.023 4.75 1.4-5.233 20.669-4.842-1.03-.076-.014-.112-.02-.151-.024-.189-.029-.226-.032-.265-.034-.304-.035-.341-.036-.38-.035-.419-.034-.457-.032-.495-.03-.534-.024-.572-.02-.61-.014-.65-.008h-.686l-.725.009-.763.018-.801.028-.839.039-.876.05-.914.065-.951.077-.988.093-1.025.107-1.061.125-1.098.14-1.134.16-1.17.179-1.205.198-1.24.218-1.275.24-1.31.263-1.344.286-1.378.31-1.41.334-1.445.36-1.477.387-1.51.414-1.54.441-1.572.471-1.603.5-1.634.531-1.145.648-1.929 13.378.916.945 1.416.97 1.397.933 1.375.896 1.353.86 1.33.822 1.308.788 1.284.754 1.26.72 1.233.686 1.209.654 1.182.622 1.156.59 1.127.56 1.1.531 1.072.502 1.043.473 1.013.446.983.419.953.392.921.368.89.343.86.32.825.296.794.275.76.253.727.233.693.213.66.194.624.176.59.159.554.142.519.127.483.113.448.098.41.085.375.074.338.062.3.052.265.042.226.033.19.026.15.019.115.013.075.008 4.937.38L-277 0h-4.95l-.077.002-.115.004-.152.007-.19.012-.229.016-.266.021-.304.029-.342.036-.379.044-.416.054-.454.063-.49.075-.528.087-.563.1-.6.112-.637.128-.671.143-.708.159-.743.176-.777.194-.813.213-.846.232-.88.252-.915.274-.947.296-.98.318-1.013.342-1.044.367-1.076.391-1.107.418-1.137.444-1.168.472-1.198.5-1.226.53-1.255.558-1.284.59-1.31.62-1.338.653-1.365.685-1.39.718-1.415.753-1.44.787-1.464.823-1.487.859-.986.872.895 13.486 1.092.734 1.587.655 1.56.622 1.532.59 1.502.56 1.473.528 1.442.499 1.413.47 1.381.442 1.35.415 1.318.388 1.286.363 1.253.337 1.22.314 1.186.29 1.152.267 1.118.247 1.084.225 1.049.205 1.013.187.978.168.942.15.907.134.87.119.833.103.796.09.76.076.722.064.685.053.647.042.61.033.572.025.534.016.496.01.458.003.42-.002.382-.007.343-.009.305-.012.267-.014.228-.014.19-.014.153-.013.114-.011.076-.008 4.907-.654 3.627 21.01-4.842 1.03-.075.018-.11.028-.148.038-.184.05-.22.064-.256.077-.292.09-.327.107-.361.122-.396.14-.43.156-.465.175-.498.194-.53.215-.564.235-.596.257-.627.28-.66.302-.689.327-.72.351-.75.377-.78.403-.81.43-.836.458-.865.486-.893.516-.919.545-.945.575-.971.607-.996.639-1.02.67-1.045.705-1.067.738-1.09.773-1.111.807-1.133.844-1.153.88-1.173.916-1.192.954-1.21.992-1.228 1.03-1.245 1.07-1.261 1.109-1.276 1.149-.783 1.057 3.679 13.006 1.22.49 1.69.311 1.655.284 1.62.26 1.586.234 1.55.21 1.516.19 1.479.165 1.443.145 1.406.126 1.37.105 1.333.088 1.296.07 1.258.052 1.221.037 1.183.023 1.145.008 1.107-.005 1.068-.017 1.03-.029.992-.039.953-.048.914-.057.875-.066.837-.072.798-.078.758-.083.72-.087.681-.09.642-.094.604-.095.564-.095.526-.095.487-.094.449-.092.41-.089.372-.085.334-.081.296-.075.258-.069.22-.061.184-.054.146-.044.109-.035.073-.024 4.664-1.659 7.916 19.797-4.523 2.014-.069.033-.103.05-.136.069-.17.087-.202.108-.234.128-.266.15-.298.171-.328.195-.358.218-.389.243-.418.268-.446.294-.474.32-.503.347-.529.375-.556.404-.581.433-.607.463-.632.494-.655.524-.68.557-.701.589-.724.621-.745.656-.766.69-.785.724-.805.76-.824.795-.841.831-.859.869-.875.906-.89.944-.906.982-.919 1.021-.933 1.06-.945 1.1-.956 1.141-.968 1.18-.978 1.223-.986 1.263-.996 1.305-1.002 1.347-1.01 1.39-.546 1.196 6.303 11.957 1.296.226 1.717-.047 1.678-.066 1.639-.084 1.6-.1 1.56-.116 1.521-.131 1.482-.145 1.441-.158 1.402-.17 1.362-.182 1.322-.191 1.282-.202 1.242-.21 1.202-.217 1.161-.224 1.122-.23 1.081-.235 1.042-.239 1.002-.242.962-.244.922-.246.882-.246.843-.246.803-.244.764-.242.725-.24.686-.234.647-.23.609-.225.57-.218.532-.21.495-.203.457-.193.42-.184.383-.172.346-.16.31-.15.273-.134.238-.121.203-.106.169-.09.133-.074.1-.057.066-.038 4.217-2.593 11.86 17.718-4.006 2.91-.06.047-.09.07-.12.096-.147.121-.176.147-.202.174-.23.202-.255.23-.28.259-.306.288-.33.318-.352.349-.376.38-.397.412-.42.444-.439.477-.46.51-.478.545-.498.58-.515.613-.532.65-.549.685-.564.722-.578.759-.593.796-.605.833-.618.872-.63.91-.64.95-.65.988-.66 1.028-.667 1.068-.675 1.109-.68 1.149-.688 1.19-.692 1.23-.695 1.273-.7 1.315-.7 1.356-.702 1.398-.703 1.441-.702 1.483-.7 1.526-.7 1.57-.284 1.284 8.65 10.385 1.315-.048 1.67-.404 1.627-.413 1.586-.423 1.544-.43 1.502-.438 1.46-.445 1.42-.45 1.377-.454 1.336-.458 1.294-.46 1.254-.463 1.212-.463 1.17-.464 1.131-.462 1.09-.46 1.05-.459 1.008-.455.97-.45.929-.445.89-.439.85-.432.813-.424.773-.416.735-.406.697-.395.659-.385.622-.373.585-.36.549-.345.513-.332.477-.317.441-.3.407-.285.373-.266.338-.249.305-.229.273-.21.24-.188.207-.168.177-.146.145-.123.116-.1.085-.076.057-.052 3.586-3.413 15.284 14.866-3.313 3.68-.05.058-.073.087-.096.118-.12.15-.14.18-.163.212-.182.245-.202.278-.22.311-.24.346-.255.38-.273.414-.288.45-.304.485-.317.522-.331.558-.344.595-.355.632-.366.67-.376.708-.386.746-.394.784-.401.823-.408.863-.414.902-.42.941-.423.981-.426 1.022-.43 1.061-.43 1.102-.43 1.143-.431 1.184-.43 1.224-.427 1.266-.425 1.306-.42 1.348-.417 1.39-.41 1.43-.403 1.473-.397 1.514-.387 1.555-.379 1.597-.368 1.638-.357 1.68-.012 1.316 10.621 8.36 1.276-.32 1.55-.743 1.505-.742 1.464-.744 1.42-.742 1.379-.74 1.336-.739 1.294-.735 1.253-.73 1.212-.726 1.17-.72 1.13-.713 1.089-.705 1.05-.697 1.009-.687.97-.677.931-.667.892-.654.855-.642.816-.629.78-.614.742-.6.706-.583.67-.567.634-.55.6-.532.565-.514.53-.493.499-.474.464-.453.433-.431.4-.409.37-.386.339-.362.309-.339.28-.313.25-.287.223-.262.195-.235.168-.207.143-.18.117-.15.092-.122.068-.092.044-.062 2.798-4.084 18.041 11.363-2.475 4.288-.037.067-.053.1-.07.137-.086.17-.1.206-.114.241-.128.278-.14.314-.15.35-.162.388-.172.424-.18.462-.189.5-.196.538-.202.577-.208.614-.212.654-.216.692-.219.731-.22.77-.223.81-.222.85-.221.888-.22.929-.218.968-.214 1.008-.21 1.048-.205 1.087-.199 1.128-.192 1.168-.184 1.207-.175 1.247-.165 1.287-.156 1.327-.143 1.366-.131 1.406-.118 1.446-.104 1.485-.089 1.524-.072 1.563-.056 1.602-.039 1.64-.02 1.68v1.717l.263 1.29 12.127 5.968 1.181-.579 1.361-1.047 1.32-1.04 1.276-1.03 1.235-1.022 1.195-1.012 1.153-1 1.113-.987 1.074-.976 1.034-.961.995-.948.957-.932.919-.916.881-.9.845-.882.808-.864.772-.846.737-.825.702-.806.668-.785.635-.762.601-.741.57-.718.537-.694.506-.67.476-.645.446-.62.417-.593.388-.567.36-.54.334-.51.306-.484.282-.454.256-.425.232-.395.208-.365.186-.333.163-.302.142-.27.122-.239.102-.205.083-.171.064-.139.048-.104.03-.07 1.888-4.576 20.01 7.364-1.53 4.708-.022.073-.031.11-.04.148-.05.184-.054.223-.062.26-.067.297-.071.336-.075.375-.078.412-.08.451-.08.49-.08.528-.08.567-.078.606-.075.644-.072.683-.067.722-.062.761-.056.8-.05.838-.04.877-.032.915-.022.954-.011.992v1.03l.012 1.07.026 1.106.04 1.144.055 1.182.071 1.22.088 1.256.105 1.293.125 1.33.143 1.366.164 1.403.186 1.438.207 1.474.23 1.51.254 1.544.278 1.578.304 1.613.33 1.647.357 1.68.525 1.206 13.102 3.317 1.036-.812 1.113-1.307 1.074-1.291 1.034-1.274.996-1.257.958-1.237.92-1.218.884-1.198.847-1.177.812-1.155.776-1.134.742-1.11.709-1.088.675-1.063.642-1.039.611-1.013.58-.988.55-.96.518-.934.49-.907.463-.878.434-.85.408-.82.38-.79.357-.761.331-.73.307-.698.285-.668.262-.635.24-.602.22-.57.2-.537.18-.503.162-.469.145-.434.128-.4.112-.365.097-.33.083-.293.07-.258.057-.222.045-.185.035-.149.024-.112.016-.074.895-4.87 21.103 3.044-.517 4.923-.007.076-.007.114-.01.153-.008.19-.008.23-.006.267-.004.305v.343l.005.382.01.42.015.457.024.496.03.533.04.571.05.61.06.645.073.683.084.72.097.758.112.793.126.83.143.867.159.902.177.937.195.973.214 1.008.234 1.043.256 1.077.277 1.11.3 1.145.322 1.178.347 1.21.373 1.244.398 1.275.424 1.307.452 1.338.48 1.368.51 1.399.538 1.428.57 1.458.6 1.486.633 1.514.665 1.542.698 1.57.764 1.07 13.506.52.844-1.009.818-1.51.781-1.486.748-1.462.713-1.435.68-1.41.646-1.382.616-1.356.584-1.327.553-1.3.524-1.27.495-1.24.467-1.211.439-1.18.413-1.15.386-1.118.362-1.087.337-1.054.314-1.021.291-.989.27-.955.248-.921.228-.887.208-.853.19-.818.173-.782.155-.748.14-.712.124-.675.11-.64.096-.603.084-.566.072-.53.061-.492.051-.455.042-.418.034-.38.026-.342.02-.305.015-.267.01-.228.005-.191.003-.153.001-.114v-.077l-.137-4.948 21.274-1.411.518 4.923.01.076.016.113.023.151.031.188.04.226.05.262.06.3.07.336.085.372.096.409.111.444.126.48.141.515.158.55.175.586.194.619.212.653.232.687.253.72.274.754.296.785.32.818.343.85.368.88.393.91.419.942.446.971.474 1 .502 1.03.53 1.057.561 1.085.592 1.112.622 1.139.655 1.164.687 1.19.72 1.215.754 1.238.789 1.263.824 1.285.86 1.307.896 1.33.934 1.349.971 1.37 1.01 1.39.97.888 13.319-2.3.615-1.162.486-1.647.455-1.616.427-1.585.4-1.553.371-1.52.345-1.487.32-1.453.296-1.42.271-1.386.248-1.351.227-1.317.204-1.281.185-1.246.164-1.21.146-1.175.128-1.137.11-1.102.095-1.064.08-1.028.065-.99.05-.952.04-.916.026-.877.016-.84.006-.801-.004-.763-.011-.725-.02-.687-.025-.649-.03-.61-.037-.57-.04-.534-.042-.494-.044-.456-.046-.417-.046-.379-.045-.34-.044-.303-.042-.264-.038-.225-.034-.188-.028-.15-.024-.112-.016-.075-1.162-4.812 20.516-5.803 1.53 4.708.025.072.04.107.053.143.07.178.086.212.103.247.12.28.14.314.16.347.18.38.2.41.223.444.245.475.27.505.292.536.318.566.343.595.37.623.397.652.425.68.453.707.483.733.512.76.543.784.574.81.605.834.639.857.67.88.706.902.739.924.774.944.81.965.845.985.883 1.002.92 1.022.956 1.038.995 1.055 1.034 1.07 1.074 1.086 1.113 1.1 1.153 1.114 1.193 1.126 1.235 1.138 1.277 1.15 1.133.667 12.55-5.018.36-1.266.133-1.712.11-1.676.088-1.638.067-1.602.048-1.564.029-1.526.01-1.489-.006-1.45-.023-1.412-.038-1.373-.052-1.335-.067-1.296-.078-1.257-.09-1.218-.102-1.179-.112-1.14-.12-1.1-.13-1.06-.135-1.022-.143-.982-.148-.943-.152-.903-.156-.864-.16-.824-.16-.785-.162-.746-.162-.707-.162-.668-.16-.629-.157-.59-.154-.551-.15-.513-.144-.475-.138-.437-.131-.398-.124-.361-.115-.324-.106-.286-.095-.25-.085-.213-.072-.176-.06-.141-.045-.105-.031-.07-2.138-4.465 18.861-9.942 2.476 4.287.04.065.06.097.083.129.105.16.128.19.152.219.176.249.202.278.228.306.255.334.282.36.31.388.338.413.368.439.398.463.429.487.46.51.491.534.524.555.557.577.59.597.624.617.66.636.693.655.73.672.766.69.802.706.84.72.877.737.915.75.954.763.992.775 1.032.787 1.072.798 1.111.807 1.152.817 1.193.825 1.234.832 1.276.839 1.317.844 1.36.85 1.401.853 1.445.857 1.487.858 1.248.418 11.232-7.518.09-1.312-.227-1.703-.241-1.662-.255-1.621-.267-1.58-.278-1.54-.29-1.5-.298-1.458-.308-1.417-.316-1.376-.323-1.336-.329-1.294-.334-1.254-.338-1.213-.342-1.173-.344-1.132-.346-1.091-.347-1.051-.347-1.011-.345-.971-.344-.931-.34-.891-.337-.852-.333-.813-.327-.773-.32-.734-.314-.696-.305-.658-.297-.62-.287-.582-.276-.544-.266-.507-.252-.471-.24-.435-.227-.398-.211-.362-.196-.328-.18-.293-.163-.258-.145-.224-.127-.19-.107-.159-.088-.125-.066-.093-.045-.061-3.02-3.924 16.382-13.646 3.313 3.679.053.055.08.083.107.108.135.134.165.16.194.183.225.207.255.23.287.251.318.274.351.294.384.315.417.334.451.352.486.37.52.388.556.404.592.419.628.434.664.448.702.462.739.473.776.486.815.496.854.506.892.515.932.524.971.53 1.011.538 1.051.543 1.092.548 1.132.553 1.173.555 1.214.557 1.255.559 1.296.56 1.339.558 1.38.558 1.422.555 1.464.552 1.506.548 1.549.544 1.59.537 1.634.53 1.308.15 9.423-9.689-.185-1.302-.576-1.619-.581-1.575-.586-1.533-.59-1.49-.592-1.449-.595-1.406-.596-1.364-.595-1.322-.595-1.28-.594-1.24-.59-1.198-.588-1.157-.583-1.116-.579-1.076-.572-1.036-.565-.995-.558-.957-.549-.916-.54-.878-.53-.84-.518-.8-.506-.763-.495-.726-.48-.688-.467-.652-.45-.616-.437-.58-.418-.544-.402-.51-.384-.475-.365-.44-.345-.409-.325-.375-.304-.342-.282-.31-.26-.28-.237-.25-.213-.218-.189-.19-.163-.16-.138-.131-.111-.105-.085-.077-.057-.05-3.769-3.21 13.187-16.755 4.005 2.91.063.043.095.064.127.084.161.103.194.122.229.138.262.156.298.172.332.187.369.201.404.215.441.228.478.24.514.25.552.262.59.27.627.28.666.287.705.294.743.3.782.306.821.31.861.313.9.316.94.318.98.318 1.02.318 1.061.318 1.1.315 1.142.313 1.181.31 1.222.304 1.263.3 1.303.292 1.344.286 1.385.277 1.425.268 1.466.259 1.506.248 1.547.235 1.588.223 1.627.21 1.668.195 1.708.18 1.31-.127 7.203-11.436-.452-1.236-.9-1.463-.895-1.42-.892-1.378-.887-1.335-.88-1.293-.875-1.252-.866-1.21-.858-1.17-.848-1.13-.838-1.088-.827-1.049-.815-1.01-.803-.97-.789-.932-.775-.894-.76-.857-.744-.819-.728-.782-.71-.747-.693-.71-.674-.676-.654-.641-.634-.607-.613-.574-.592-.54-.57-.509-.546-.476-.523-.446-.5-.414-.473-.385-.449-.356-.422-.327-.396-.3-.369-.271-.34-.245-.313-.22-.283-.194-.254-.17-.224-.145-.193-.123-.162-.1-.131-.08-.099-.058-.066-.037-4.354-2.356 9.415-19.13 4.523 2.013.07.03.107.042.142.056.178.067.216.079.252.088.289.098.327.106.364.114.402.12.44.126.479.131.517.135.555.139.595.14.633.143.672.143.71.142.75.141.79.14.829.136.868.132.906.127.947.122.986.115 1.024.108 1.064.1 1.103.09 1.143.08 1.18.068 1.22.057 1.26.044 1.297.03 1.336.015h1.373l1.413-.016 1.45-.034 1.487-.052 1.525-.071 1.562-.091 1.6-.112 1.635-.133 1.672-.157 1.708-.18 1.255-.395 4.668-12.684-.699-1.115-1.184-1.244-1.172-1.202-1.159-1.162-1.145-1.122-1.13-1.082-1.115-1.043-1.1-1.004-1.081-.965-1.065-.928-1.046-.891-1.027-.854-1.007-.818-.987-.783-.966-.747-.944-.714-.921-.68-.899-.646-.874-.614-.85-.583-.825-.55-.8-.522-.773-.49-.747-.463-.719-.433-.69-.406-.664-.378-.633-.353-.605-.327-.574-.302-.543-.278-.513-.255-.482-.232-.449-.21-.417-.19-.384-.169-.351-.15-.318-.13-.283-.113-.25-.096-.214-.08-.18-.065-.144-.05-.109-.036-.072-.023-4.75-1.4 5.233-20.669 4.842 1.03.076.014.112.02.151.024.189.029.226.032.265.034.304.035.341.036.38.035.419.034.457.032.495.03.534.024.572.02.61.014.65.008h.686l.725-.009.763-.018.801-.028.839-.039.876-.05.914-.065.951-.077.988-.093 1.025-.107 1.061-.125 1.098-.14 1.134-.16 1.17-.179 1.205-.198 1.24-.218 1.275-.24 1.31-.263 1.344-.286 1.378-.31 1.41-.334 1.445-.36 1.477-.387 1.51-.414 1.54-.441 1.572-.471 1.603-.5 1.634-.531 1.145-.648 1.929-13.378-.916-.945-1.416-.97-1.397-.933-1.375-.896-1.353-.86-1.33-.822-1.308-.788-1.284-.754-1.26-.72-1.233-.686-1.209-.654-1.182-.622-1.156-.59-1.127-.56-1.1-.531-1.072-.502-1.043-.473-1.013-.446-.983-.419-.953-.392-.921-.368-.89-.343-.86-.32-.825-.296-.794-.275-.76-.253-.727-.233-.693-.213-.66-.194-.624-.176-.59-.159-.554-.142-.519-.127-.483-.113-.448-.098-.41-.085-.375-.074-.338-.062-.3-.052-.265-.042-.226-.033-.19-.026-.15-.019-.115-.013-.075-.008-4.937-.38z"/><circle r="80" fill="#090112"/></svg>