<svg xmlns="http://www.w3.org/2000/svg" width="703.1" height="636.3" viewBox="0 0 703.1 636.3"><path fill="#6C746C" d="M340.1 601.2c5.1 11.7 10.1 23.4 15.2 35.1h32.5c4.3-11.6 8.7-23.3 13-34.9-20.3-.1-40.5-.2-60.7-.2zM126.3 416.6l-62-17.1C42.9 478.4 21.4 557.3 0 636.2c14 0 28 0 42.1.1 14.8-66.7 29.5-133.3 44.3-200l19.5 9.7h36.5l-16.1-29.4z"/><path fill="#5B5F5B" d="M90 406.6l15.8 39.4h19.3l1.2-29.4-36.3-10z"/><path fill="#6C746C" d="M566.9 416.7l67-17.2 69.2 236.8h-45.4l-47.6-199.8-21 9.8h-39.5z"/><path fill="#5B5F5B" d="M594.3 409.3c-4.2 12.4-8.5 24.8-12.7 37.2-11.8.2-23.7.3-35.5.5 5.6-9.6 11.2-19.2 16.9-28.8l31.3-8.9z"/><path fill="#FFF" d="M146.1 361.1S110.6 11 336.4 8.4s213.1 352.7 213.1 352.7H146.1z"/><path fill="#859284" d="M134.5 361.1l-22 26.9h468.6l-13.5-26.9z"/><path fill="#FFF" d="M112.5 388c1.1 17.1 4.5 41.9 15.3 69.6 4.3 11.1 19 46 50.2 77.6 66.4 67 157 67.6 174.2 67.7 25.7.1 89.5.5 145.5-44 10.5-8.4 50.6-42 67.7-96.4 8.6-27.4 15.9-74.4 15.7-74.4H112.5z"/><circle fill="#859284" cx="365.5" cy="233.7" r="120.1"/><path fill="#4D4B4F" d="M464.1 233.7c0-24.9-9.2-47.6-24.4-64.9l-64.8 163.1c50.1-4.7 89.2-46.9 89.2-98.2z"/><path fill="#333136" d="M417.3 149.8l-71.8 180.5c6.5 1.3 13.1 2 20 2 3.2 0 6.3-.2 9.4-.4l64.8-163.1c-6.4-7.4-14-13.8-22.4-19z"/><path fill="#4D4B4F" d="M266.9 233.7c0 17.6 4.6 34.1 12.7 48.4l58.6-143.2c-41.2 11.9-71.3 49.8-71.3 94.8zM417.3 149.8c-5.8-3.6-12-6.6-18.5-8.9l-74.7 182.4c6.7 3.1 13.9 5.5 21.3 7l71.9-180.5z"/><path fill="#333136" d="M365.5 135.1c-9.5 0-18.6 1.3-27.3 3.8l-58.6 143.2c10.1 18 25.8 32.4 44.6 41.1l74.7-182.4c-10.5-3.7-21.7-5.7-33.4-5.7z"/><path fill="#DEDFDD" d="M314.1 11c-2.4-4.7-28.2 2.7-48.2 12.2-11.7 5.6-34.2 18-55.8 42.8-5.5 6.3-19.9 24.5-36 62-22.7 52.7-26.5 98.6-29.2 135-1.8 24.1-2.8 57.7 1.2 98h69.3c-.5-7.4-1.3-18.5-2.3-32-4-52.8-6.1-64.9-7-83-.9-18.8-2.3-53.8 9-95 5.6-20.5 16.9-59.8 49-95 25.8-28.3 52.5-40.1 50-45z"/><path fill="#6C746C" d="M215.3 361l-7.7 27h-95.1l22-26.9z"/><path fill="#EAEAEA" d="M310.1 580.7c-2.8-2.1-5.5-4.1-8.1-6.3-4.5 2.8-10.5 5.9-17.9 8.4-9 3-17 4.1-23 4.4 4.9 1.7 10.1 3.4 15.7 5 6 1.7 11.8 3.2 17.2 4.3 7.9 1.7 16.6 3.2 25.9 4.3 9.1 1.1 17.7 1.7 25.6 2-15.4-8.1-27.3-16.1-35.4-22.1zM201.2 456.7c-7.3-12.8-10.8-22.1-10.5-30.7.3-7.5 2.6-21.6 16.8-38h-95s-4 94.4 80.2 160.4c-7-11.7-11-25.4-11-40 0-19.8 7.4-37.9 19.5-51.7z"/><path fill="#859284" d="M248.7 525.4c4.5 4.9 9.5 9.5 19.3 18.7 15.3 14.2 24.7 22.9 33.9 30.4 21.8-13.9 36.3-38.3 36.3-66 0-43.2-35-78.2-78.2-78.2-23.4 0-44.4 10.3-58.8 26.6 5.1 9 12.1 19.8 20.8 33.3 10.9 16.6 18.7 26.5 26.7 35.2z"/><path fill="#6C746C" d="M268.1 544c-9.8-9.1-14.9-13.8-19.3-18.7-8-8.7-15.8-18.5-26.7-35.3-8.8-13.6-15.7-24.3-20.8-33.3-12.1 13.8-19.5 31.8-19.5 51.6 0 3.1.2 11.2 2.9 21.2 2.2 8.1 5.3 14.6 7.9 19.1 8.4 6.7 18.6 14 30.7 21 13.7 7.9 26.6 13.5 37.7 17.5 6-.3 14.1-1.4 23.2-4.4 7.4-2.5 13.3-5.6 17.9-8.4-9.3-7.3-18.7-16.1-34-30.3z"/><circle fill="#859284" cx="476.8" cy="459.3" r="37.1"/><circle fill="#859284" cx="411.5" cy="73.7" r="28.2"/></svg>