<?xml version="1.0" encoding="utf-8"?>
<svg version="1.1" xmlns="http://www.w3.org/2000/svg" xmlns:xlink="http://www.w3.org/1999/xlink" x="0px" y="0px" width="703.1px" height="636.3px" viewBox="0 0 703.1 636.3">
  <path fill="#6C746C" d="M340.1,601.2c5.1,11.7,10.1,23.4,15.2,35.1h32.5c4.3-11.6,8.7-23.3,13-34.9C380.5,601.3,360.3,601.2,340.1,601.2z"/>
  <path fill="#6C746C" d="M126.3,416.6l-62-17.1C42.9,478.4,21.4,557.3,0,636.2c14,0,28,0,42.1,0.1c14.8-66.7,29.5-133.3,44.3-200l19.5,9.7h36.5L126.3,416.6z"/>
  <path fill="#5B5F5B" d="M90,406.6l15.8,39.4c6.4,0,12.8,0,19.3,0c0.4-9.8,0.8-19.6,1.2-29.4L90,406.6z"/>
  <polygon fill="#6C746C" points="566.9,416.7 633.9,399.5 703.1,636.3 657.7,636.3 610.1,436.5 589.1,446.3 549.6,446.3"/>
  <path fill="#5B5F5B" d="M594.3,409.3c-4.2,12.4-8.5,24.8-12.7,37.2c-11.8,0.2-23.7,0.3-35.5,0.5 c5.6-9.6,11.2-19.2,16.9-28.8L594.3,409.3z"/>
  <path fill="#FFFFFF" d="M146.1,361.1c0,0-35.5-350.1,190.3-352.7s213.1,352.7,213.1,352.7H146.1z"/>
  <polygon fill="#859284" points="134.5,361.1 112.5,388 581.1,388 567.6,361.1"/>
  <path fill="#FFFFFF" d="M112.5,388c1.1,17.1,4.5,41.9,15.3,69.6c4.3,11.1,19,46,50.2,77.6 c66.4,67,157,67.6,174.2,67.7c25.7,0.1,89.5,0.5,145.5-44c10.5-8.4,50.6-42,67.7-96.4c8.6-27.4,15.9-74.4,15.7-74.4h0H112.5z"/>
  <circle fill="#859284" cx="365.5" cy="233.7" r="120.1"/>
  <path fill="#4D4B4F" d="M464.1,233.7c0-24.9-9.2-47.6-24.4-64.9l-64.8,163.1C425,327.2,464.1,285,464.1,233.7z"/>
  <path fill="#333136" d="M417.3,149.8l-71.8,180.5c6.5,1.3,13.1,2,20,2c3.2,0,6.3-0.2,9.4-0.4l64.8-163.1 C433.3,161.4,425.7,155,417.3,149.8z"/>
  <path fill="#4D4B4F" d="M266.9,233.7c0,17.6,4.6,34.1,12.7,48.4l58.6-143.2C297,150.8,266.9,188.7,266.9,233.7z"/>
  <path fill="#4D4B4F" d="M417.3,149.8c-5.8-3.6-12-6.6-18.5-8.9l-74.7,182.4c6.7,3.1,13.9,5.5,21.3,7L417.3,149.8z"/>
  <path fill="#333136" d="M365.5,135.1c-9.5,0-18.6,1.3-27.3,3.8l-58.6,143.2c10.1,18,25.8,32.4,44.6,41.1l74.7-182.4 C388.4,137.1,377.2,135.1,365.5,135.1z"/>
  <path fill="#E9E2E5" d="M513.9,0"/>
  <path fill="#DEDFDD" d="M314.1,11c-2.4-4.7-28.2,2.7-48.2,12.2c-11.7,5.6-34.2,18-55.8,42.8c-5.5,6.3-19.9,24.5-36,62 c-22.7,52.7-26.5,98.6-29.2,135c-1.8,24.1-2.8,57.7,1.2,98c23.1,0,46.2,0,69.3,0c-0.5-7.4-1.3-18.5-2.3-32c-4-52.8-6.1-64.9-7-83 c-0.9-18.8-2.3-53.8,9-95c5.6-20.5,16.9-59.8,49-95C289.9,27.7,316.6,15.9,314.1,11z"/>
  <polygon fill="#6C746C" points="215.3,361 207.6,388 112.5,388 134.5,361.1"/>
  <path fill="#EAEAEA" d="M310.1,580.7c-2.8-2.1-5.5-4.1-8.1-6.3c-4.5,2.8-10.5,5.9-17.9,8.4c-9,3-17,4.1-23,4.4 c4.9,1.7,10.1,3.4,15.7,5c6,1.7,11.8,3.2,17.2,4.3c7.9,1.7,16.6,3.2,25.9,4.3c9.1,1.1,17.7,1.7,25.6,2 C330.1,594.7,318.2,586.7,310.1,580.7z"/>
  <path fill="#EAEAEA" d="M201.2,456.7c-7.3-12.8-10.8-22.1-10.5-30.7c0.3-7.5,2.6-21.6,16.8-38h-95 c0,0-4,94.4,80.2,160.4c-7-11.7-11-25.4-11-40C181.7,488.6,189.1,470.5,201.2,456.7z"/>
  <path fill="#859284" d="M248.7,525.4c4.5,4.9,9.5,9.5,19.3,18.7c15.3,14.2,24.7,22.9,33.9,30.4 c21.8-13.9,36.3-38.3,36.3-66c0-43.2-35-78.2-78.2-78.2c-23.4,0-44.4,10.3-58.8,26.6c5.1,9,12.1,19.8,20.8,33.3 C232.9,506.8,240.7,516.7,248.7,525.4z"/>
  <path fill="#6C746C" d="M268.1,544c-9.8-9.1-14.9-13.8-19.3-18.7c-8-8.7-15.8-18.5-26.7-35.3 c-8.8-13.6-15.7-24.3-20.8-33.3c-12.1,13.8-19.5,31.8-19.5,51.6c0,3.1,0.2,11.2,2.9,21.2c2.2,8.1,5.3,14.6,7.9,19.1 c8.4,6.7,18.6,14,30.7,21c13.7,7.9,26.6,13.5,37.7,17.5c6-0.3,14.1-1.4,23.2-4.4c7.4-2.5,13.3-5.6,17.9-8.4 C292.8,567,283.4,558.2,268.1,544z"/>
  <circle fill="#859284" cx="476.8" cy="459.3" r="37.1"/>
  <circle fill="#859284" cx="411.5" cy="73.7" r="28.2"/>
</svg>
